<svg width="187" height="17" viewBox="0 0 187 17" fill="none" xmlns="http://www.w3.org/2000/svg">
<path d="M133.035 4.04649C133.035 4.04649 133.391 3.64574 133.578 3.71294C133.766 3.78015 133.793 4.00095 133.632 4.15452C133.471 4.30809 133.498 4.52888 133.779 4.62969C134.436 4.86493 134.919 4.40419 134.517 4.04899C134.329 3.98178 134.677 3.89546 135.334 4.13069C136.648 4.60117 137.338 4.74278 138.129 4.60366C138.384 4.4837 138.759 4.61812 138.88 4.87251C139.094 5.1605 139.128 5.06694 139.041 4.71896C138.867 4.02301 140.388 3.6176 140.783 4.28717C140.964 4.66876 141.594 4.68318 142.922 4.52491C144.912 4.2875 145.696 4.46278 145.938 4.97155C146.119 5.35313 147.251 5.442 147.419 4.97406C147.486 4.78688 147.426 4.6597 147.238 4.59249C147.05 4.52528 147.057 4.21091 147.191 3.83656C147.359 3.36861 147.58 3.34225 147.761 3.72383C147.881 3.97822 147.969 4.32619 147.902 4.51337C147.412 5.28845 148.357 5.31015 149.034 4.60227L149.839 3.83442L150.227 4.81831C150.227 4.81831 150.649 5.70868 150.75 5.42792C150.851 5.14715 151.166 5.15437 151.447 5.25518C152.385 5.59124 152.707 5.28408 152.285 4.39373C151.896 3.40979 152.211 3.417 152.66 4.52814C153.022 5.2913 154.584 5.95623 155.69 5.82434C156.132 5.77158 156.293 5.618 156.012 5.51719C155.824 5.44997 155.609 5.16195 155.616 4.84758C155.656 4.43962 155.75 4.47324 156.092 4.70125C156.4 5.02284 156.561 4.86929 156.568 4.55492C156.575 4.24055 156.769 3.99339 156.99 3.96701C157.305 3.97424 157.332 4.19499 157.164 4.66293C156.668 5.75239 156.782 6.3212 157.479 6.14847C157.828 6.06211 158.833 6.21094 159.651 6.2926C160.435 6.46786 161.414 6.39596 161.668 6.27599C161.923 6.15602 162.365 6.10327 162.613 6.29767C162.801 6.36488 163.176 6.49934 163.337 6.34577C163.626 6.13222 163.719 6.16582 163.807 6.51379C163.894 6.86177 164.209 6.86898 164.966 6.82344C165.723 6.77792 166.038 6.78515 166.186 7.26032C166.333 7.73548 166.461 7.67551 166.561 7.39474C166.628 7.20756 166.977 7.12118 167.258 7.222C167.54 7.32281 168.86 7.47892 170.214 7.54144C171.568 7.60395 173.391 7.83453 174.269 8.04338C175.241 8.28585 175.905 8.20667 175.972 8.01949C176.039 7.83231 176.575 7.81319 177.547 8.05566C179.363 8.60057 181.34 8.99192 181.722 8.81197C181.722 8.81197 181.695 8.59113 181.32 8.45671C180.945 8.32229 180.482 7.83991 180.335 7.36474C180.067 6.63518 180.1 6.54162 180.637 6.52247C181.045 6.56331 181.106 6.6905 180.784 6.99765C180.462 7.30479 180.616 7.46558 180.871 7.34561C181.22 7.25925 181.28 7.38645 181.059 7.41283C180.161 8.14708 184.611 9.31855 185.885 8.71872C186.394 8.47879 186.461 8.29163 186.133 7.43489C185.865 6.70533 185.71 6.54447 185.576 6.91882C185.442 7.29318 185.442 7.29318 185.295 6.81801C185.174 6.56363 185.054 6.30926 184.893 6.46283C184.765 6.52281 184.041 6.47475 183.478 6.27312C182.915 6.07148 181.91 5.9226 181.407 5.84816C180.938 5.68014 179.899 5.62486 179.209 5.48321C178.519 5.34156 177.386 5.2527 176.883 5.17826L175.844 5.12297L176.555 5.79978C177.051 6.18859 177.078 6.40937 176.702 6.27496C176.421 6.17414 176.019 5.81891 175.931 5.47094C175.784 4.99577 175.502 4.89498 175.248 5.01494C174.993 5.13491 173.988 4.98601 172.982 4.83713C171.977 4.68826 170.844 4.59939 170.275 4.71213C169.799 4.85847 169.075 4.81043 168.827 4.61602C167.734 4.11917 167.325 4.07829 167.439 4.64705C167.527 4.99503 167.433 4.96142 167.158 4.54624C166.883 4.13106 166.729 3.97025 166.407 4.27739C166.246 4.43097 165.931 4.42378 165.683 4.22937C165.281 3.87417 164.236 4.13322 163.686 4.78111C163.364 5.08825 163.364 5.08831 163.532 4.62036C163.699 4.15242 163.545 3.99161 163.103 4.04436C162.788 4.03714 162.191 3.92906 161.816 3.79464C161.441 3.66022 161.219 3.68658 161.246 3.90737C161.36 4.47613 160.382 4.54804 160.268 3.97929C160.181 3.63131 160.026 3.4705 159.738 3.68405C159.484 3.80402 158.947 3.8232 158.351 3.71515C157.754 3.60711 157.064 3.46545 156.749 3.45823C156.434 3.451 155.931 3.37658 155.683 3.18218C154.933 2.91333 154.356 3.34046 154.718 4.10363C154.865 4.5788 154.798 4.76594 154.416 4.94589C154.034 5.12584 153.94 5.09228 154.108 4.62433C154.577 3.31409 152.345 3.04269 151.467 4.3121C151.011 4.9936 150.884 5.05354 150.549 4.51116C150.368 4.12958 150.314 3.68803 150.509 3.44087C150.643 3.06652 150.583 2.93937 150.02 2.73773C149.081 2.40169 148.719 3.11677 149.497 3.60639C149.872 3.74082 149.711 3.89437 149.021 3.75273C148.331 3.61108 148.176 3.4503 148.371 3.20314C148.565 2.95598 148.505 2.82876 148.036 2.66074C147.66 2.52631 147.184 2.6727 147.024 2.82627C146.829 3.07343 146.42 3.03256 145.737 2.57655C144.959 2.08693 144.738 2.11329 144.885 2.58846C144.939 3.03002 144.939 3.03003 144.604 2.48765C144.269 1.94527 144.081 1.87807 143.532 2.52596C143.176 2.92669 142.633 3.26022 142.318 3.25299C141.876 3.30575 141.943 3.11858 142.325 2.93863C142.834 2.69869 142.68 2.53787 141.554 2.13461C140.804 1.86577 140.174 1.8513 140.14 1.94489C140.107 2.03848 139.792 2.03125 139.577 1.74325C139.235 1.51525 139.108 1.57527 139.229 1.82966C139.342 2.39842 136.856 2.24698 136.018 1.63016C135.676 1.40215 132.627 1.04915 129.101 0.84246C109.677 -0.20075 84.6835 -0.176545 60.5208 0.77885C56.1038 0.992044 51.278 1.1644 49.8302 1.06828C45.9227 1.04154 38.2214 1.55682 38.1208 1.83759C38.0873 1.93118 37.7388 2.01753 37.4573 1.91672C36.8005 1.68148 27.3901 2.53497 26.4383 2.82765C26.0898 2.91402 25.0777 3.07953 24.0053 3.11783C22.9329 3.15613 17.7183 3.8228 12.2825 4.51586C1.72592 5.9092 0.519451 6.32184 0.512659 8.11448C0.505866 9.90712 1.9804 10.224 6.15611 9.50207C8.18029 9.17108 12.8587 8.52356 16.6188 8.07513C20.379 7.6267 23.4153 7.1302 23.3549 7.00301C23.422 6.81583 23.5158 6.84942 23.8576 7.07742C24.233 7.21184 25.111 7.42075 25.9019 7.28163C26.6928 7.14251 28.2076 7.05146 29.1861 6.97955C32.7519 6.77828 34.3002 6.59359 37.4571 6.35149C46.4854 5.67794 69.073 4.68641 85.7221 4.3135C99.0602 4.0219 106.875 4.07537 120.736 4.39336C128.799 4.64124 133.37 4.58889 133.471 4.30812L133.035 4.04649ZM160.227 4.38726C160.227 4.38726 160.978 4.65608 161.199 4.6297C161.36 4.47613 161.581 4.44976 161.863 4.55058C162.051 4.61779 161.89 4.77139 161.508 4.95134C160.744 5.31124 159.866 5.10233 159.785 4.43998C159.698 4.09201 159.919 4.06566 160.321 4.42086L160.227 4.38726ZM155.06 2.85333C155.06 2.85333 155.556 3.24215 155.77 3.53014C155.985 3.81813 156.012 4.03892 155.824 3.97171C155.636 3.9045 155.328 3.5829 155.113 3.2949C154.899 3.00692 154.872 2.78612 155.06 2.85333ZM146.668 3.22696C146.668 3.22696 146.601 3.41416 146.125 3.56051C145.649 3.70685 145.241 3.66601 145.18 3.53882C145.06 3.28443 146.105 3.02533 146.574 3.19335L146.668 3.22696ZM142.781 3.73537C143.853 3.69707 144.135 3.79788 143.813 4.10503C143.652 4.2586 143.149 4.18416 142.774 4.04974C142.117 3.8145 142.117 3.81451 142.875 3.76898L142.781 3.73537ZM141.326 2.47536C141.326 2.47536 141.192 2.84974 140.971 2.87612C140.75 2.9025 140.596 2.74172 140.696 2.46095C140.897 1.89942 141.119 1.873 141.233 2.44176L141.326 2.47536ZM138.612 2.66471C138.612 2.66471 138.766 2.82552 138.853 3.17349C138.88 3.39428 138.719 3.54786 138.531 3.48065C138.344 3.41344 138.223 3.15904 138.29 2.97186C138.357 2.78468 138.424 2.5975 138.612 2.66471ZM135.375 2.24446C135.375 2.24446 135.884 2.00452 136.072 2.07174C136.259 2.13894 136.32 2.26614 136.031 2.4797C135.743 2.69325 135.522 2.71965 135.334 2.65244C135.147 2.58523 135.086 2.45802 135.375 2.24446ZM185.743 15.3205C185.743 15.3205 183.478 16.6209 183.297 16.2394C183.237 16.1122 182.955 16.0114 182.734 16.0377C182.258 16.1841 180.086 16.0399 178.076 15.7422C177.385 15.6006 175.435 15.43 173.672 15.3267C171.909 15.2233 169.329 15.0383 167.787 14.9085C166.246 14.7788 164.704 14.6491 164.356 14.7354C163.82 14.7546 163.759 14.6274 164.047 14.4139C164.242 14.1667 164.114 14.2267 163.699 14.5002C163.283 14.7737 162.935 14.8601 162.814 14.6057C162.754 14.4785 162.472 14.3777 162.251 14.4041C161.996 14.5241 160.736 14.4952 159.416 14.3391C158.096 14.183 156.648 14.0868 156.112 14.106C155.575 14.1251 153.907 14.0554 152.459 13.9593C147.077 13.6156 142.291 13.3801 138.417 13.2597C136.212 13.2092 134.228 13.1322 133.913 13.125C133.725 13.0577 133.189 13.0769 132.874 13.0697C131.58 13.1343 123.263 13.0064 122.478 12.8312C121.976 12.7568 121.439 12.7759 121.218 12.8023C120.173 13.0614 116.52 12.9146 115.93 12.4922C115.34 12.0698 115.019 10.8987 115.675 11.134C115.863 11.2012 115.99 11.1412 115.964 10.9204C115.789 10.2244 124.087 9.81718 124.798 10.494C125.046 10.6884 125.173 10.6284 125.079 10.5948C124.992 10.2468 139.175 10.2577 139.483 10.5793C139.637 10.7401 139.858 10.7137 139.986 10.6537C140.274 10.4401 149.63 10.6234 155.294 11.0678C156.521 11.1903 158.632 11.2073 160.113 11.2098C161.501 11.1788 163.042 11.3084 163.511 11.4765C163.981 11.6445 164.423 11.5917 164.584 11.4382C164.745 11.2846 165.06 11.2918 165.308 11.4862C165.556 11.6807 165.777 11.6543 165.844 11.4671C165.911 11.28 166.132 11.2535 166.38 11.4479C166.628 11.6423 166.943 11.6496 167.037 11.6832C167.104 11.496 168.237 11.5849 169.336 11.7674C170.469 11.8563 172.104 12.0196 172.922 12.1013C176.166 12.2072 178.994 12.5865 179.175 12.9681C179.39 13.2561 179.423 13.1626 179.336 12.8146C179.249 12.4666 179.376 12.4066 179.685 12.7282C179.932 12.9226 180.248 12.9298 180.248 12.9298C180.248 12.9298 180.851 12.7235 181.575 12.7716C182.205 12.786 183.458 13.1293 184.209 13.3981C185.522 13.8686 185.676 14.0294 185.442 14.6846C185.308 15.0589 185.301 15.3733 185.522 15.3469C185.743 15.3205 185.804 15.4477 185.77 15.5413L185.743 15.3205Z" fill="#FF006C"/>
</svg>
