<svg width="233" height="13" viewBox="0 0 233 13" fill="none" xmlns="http://www.w3.org/2000/svg">
<path fill-rule="evenodd" clip-rule="evenodd" d="M228.484 1.96301C228.406 1.53874 230.105 1.22959 230.105 1.22959L230.159 1.04439C231.749 1.10553 232.648 1.70184 232.855 2.83321C232.957 3.8669 232.795 4.4224 231.706 4.70822C229.9 5.38774 228.1 4.66319 227.682 3.33648C227.342 2.43402 227.396 2.2488 227.952 2.4106C228.269 2.70363 228.376 2.33333 228.484 1.96301ZM230.098 2.63361C229.805 2.95 230.439 3.53607 230.439 3.53607C230.756 3.8291 230.864 3.4588 230.971 3.08847C230.894 2.66421 230.631 2.18601 230.631 2.18601C230.445 2.13207 230.206 2.26328 230.098 2.63361ZM224.841 4.11668C224.279 5.3589 225.553 5.12702 225.553 5.12702L225.607 4.94182C227.174 4.39353 227.922 3.20519 226.648 3.43708C226.223 3.51438 226.092 3.27529 226.253 2.7198C226.576 1.60881 225.757 0.968835 224.746 1.67892C224.268 1.94138 224.346 2.36568 224.716 2.47355C225.272 2.63533 225.057 3.3759 224.842 4.11649L224.841 4.11668ZM221.798 2.82942C222.378 3.60064 223.096 3.20694 223.096 3.20694L223.149 3.02174C223.443 2.70535 223.867 2.62812 223.999 2.86721C224.471 4.00877 221.361 5.71476 219.507 5.17543C218.526 5.09092 217.916 5.11431 217.809 5.48463C217.987 6.94258 214.944 5.65534 214.526 4.32863C214.317 3.66527 214.054 3.18709 213.946 3.55742C213.545 4.24414 212.415 1.90714 212.631 1.16648C212.87 1.03525 213.295 0.957909 213.612 1.25094C213.875 1.72914 214.909 1.62853 215.573 1.42C216.262 1.13591 216.583 1.11015 216.793 1.37312C216.607 1.31943 216.368 1.45062 215.89 1.71293C215.411 1.97539 215.489 2.39968 215.86 2.50755C216.231 2.61541 216.763 2.1678 216.763 2.1678C216.869 1.80398 216.796 1.3881 216.793 1.37359C216.931 1.54667 217.02 1.84448 217.134 2.27567C217.552 3.60239 218.873 4.58932 219.196 3.47833C219.49 3.16199 219.119 3.05418 218.748 2.94633L218.748 2.94628C218.138 2.96964 218.246 2.59935 218.407 2.04392L218.408 2.04381C218.569 1.48832 219.233 1.27972 219.789 1.44152C220.345 1.60332 220.477 1.84242 220.184 2.15881C219.759 2.23611 219.543 2.9768 219.753 3.64015C219.908 4.48868 220.332 4.41141 220.656 3.30042C221.033 2.00428 221.272 1.87303 221.798 2.82942ZM216.793 1.37359C216.793 1.37333 216.793 1.37321 216.793 1.37321C216.793 1.37318 216.793 1.37315 216.793 1.37312C216.793 1.37328 216.793 1.37344 216.793 1.37359ZM211.694 1.71353C211.678 1.78511 211.281 1.76984 210.454 1.73807L210.693 1.60681C209.103 1.54567 208.995 1.9161 208.672 3.02709C208.557 4.80143 206.937 5.53479 204.126 5.52037C202.721 5.51317 202.35 5.4054 202.882 4.95778C203.415 4.51015 202.673 4.29428 200.819 3.75495C199.227 3.29157 198.612 3.11257 198.461 2.74385C198.366 2.51174 198.456 2.20446 198.601 1.70374C199.11 0.646691 199.349 0.515479 200.061 1.5258C201.22 3.06825 202.147 3.33793 201.544 1.95728C200.94 0.576631 201.395 -0.295194 202.214 0.344801C202.392 0.509351 202.854 0.566754 203.39 0.633209C203.808 0.685097 204.271 0.742504 204.678 0.860742C204.994 0.952724 205.338 1.02944 205.674 1.10437C206.323 1.24911 206.942 1.38719 207.273 1.61581C207.589 1.90884 208.199 1.8855 208.732 1.43787C209.079 0.936313 210.06 1.02081 210.801 1.23655C211.399 1.50688 211.709 1.64734 211.694 1.71353ZM204.51 2.82022C204.294 3.56087 205.298 4.25491 205.298 4.25491L205.245 4.43997C206.04 4.47054 206.333 4.15413 205.992 3.25168C205.55 1.31553 204.755 1.28497 204.51 2.82022ZM209.282 3.00368C208.665 4.43106 210.674 5.81896 212.002 5.4019C212.72 5.00821 212.773 4.82303 212.217 4.66123C211.9 4.3682 211.769 4.12908 212.062 3.81269C212.355 3.49629 212.092 3.01808 211.165 2.74841C210.292 2.29358 209.443 2.44819 209.282 3.00368ZM198.774 4.56568C199.276 4.91265 200.55 4.68083 200.55 4.68083L202.111 5.53649C202.35 5.40526 202.535 5.45929 202.188 5.96085C201.895 6.27724 200.807 6.56298 199.88 6.29331C198.953 6.02364 197.919 6.12433 197.44 6.38679C197.201 6.51802 196.645 6.35621 196.328 6.06318C196.25 5.63892 195.64 5.66233 195.347 5.97872C194.761 6.61151 194.929 4.65205 195.677 3.46377C195.862 3.5177 195.545 3.22468 195.121 3.30197C194.511 3.32534 194.11 4.01195 193.948 4.56744C193.733 5.30809 191.98 5.8025 188.267 6.12784C183.094 6.63114 182.908 6.57722 181.749 5.03477C180.774 3.54625 180.589 3.49233 181.007 4.81905C181.425 6.14577 181.186 6.27697 178.985 6.23919L178.985 6.23909C177.633 6.04675 176.282 5.85444 175.78 5.50754C175.278 5.16057 175.093 5.10656 175.116 5.71599C175.272 6.56451 174.237 6.6652 173.047 5.91733C172.862 5.8634 172.437 5.94068 172.33 6.31101C172.168 6.8665 171.797 6.7586 171.612 6.70466C170.553 6.1959 167.743 6.1816 167.581 6.73709C167.581 6.73709 167.157 6.81437 166.654 6.4674C166.206 5.93528 165.465 5.71955 165.171 6.03595C164.747 6.11324 163.766 6.02874 162.947 5.38875C161.123 4.05482 159.533 3.99369 159.21 5.10468C159.102 5.475 157.774 5.89206 156.608 5.75362C153.48 5.44617 152.978 5.09919 153.858 4.15001C154.444 3.51722 154.312 3.2781 153.517 3.24753C152.722 3.21696 151.98 3.00126 151.609 2.8934C151.053 2.7316 151.657 4.1122 151.657 4.1122C152.306 5.10455 152.253 5.28969 151.495 4.66767C150.676 4.02767 150.491 3.97374 150.568 4.398C151.041 5.53956 148.81 6.29637 147.195 5.62581C146.322 5.17098 145.527 5.14035 145.419 5.51068C145.365 5.69585 144.57 5.66528 143.936 5.07921C143.117 4.43922 142.932 4.38532 142.956 4.99475C143.033 5.41901 142.13 5.75886 141.149 5.67435C140.566 5.60514 139.97 5.5822 139.473 5.56309C138.976 5.54398 138.578 5.5287 138.393 5.47476C138.166 5.40892 137.465 5.42945 136.634 5.4538C136.103 5.46934 135.52 5.48644 134.972 5.48363L134.971 5.48362C133.566 5.47642 132.161 5.46921 132.269 5.09896C132.377 4.72863 131.635 4.51281 130.894 4.29708C130.099 4.26651 129.148 3.38747 128.807 2.48501C128.228 1.71379 127.779 1.18168 127.671 1.55201C127.378 1.8684 127.641 2.34661 128.012 2.45448C128.568 2.61628 128.275 2.9326 127.557 3.32629C126.415 3.79727 126.546 4.03638 128.083 4.28269C129.064 4.36719 129.937 4.822 129.961 5.43142C130.17 6.09478 129.931 6.22609 129.668 5.7479C129.405 5.2697 128.185 5.31641 127.096 5.60223C126.008 5.88805 124.124 6.1433 123.012 5.8197C121.846 5.68126 120.44 5.67411 119.776 5.88264C118.688 6.16846 118.742 5.98322 119.328 5.35043C119.86 4.90281 119.837 4.29343 119.281 4.13163C118.964 3.83859 118.431 4.28617 118.216 5.02683C118.132 6.00658 117.653 6.2691 117.205 5.73697C116.703 5.39 116.147 5.22821 116.093 5.41337C115.56 5.861 97.9487 6.96269 86.6523 7.09019C86.1499 7.10944 85.4496 7.13167 84.6261 7.1578C82.4499 7.22688 79.4132 7.32327 76.8926 7.46409C72.252 7.51976 70.2367 7.53591 69.8422 6.81861C69.5016 5.91616 69.0232 6.17868 68.646 7.47483C68.5383 7.84516 67.4498 8.13097 66.2299 8.1777C65.0099 8.22443 64.0292 8.13987 64.0831 7.9547C64.137 7.76954 63.1024 7.87021 61.8285 8.1021C60.5547 8.33399 59.1494 8.32684 58.5933 8.16504C58.091 7.81808 57.2957 7.78744 57.188 8.15777C56.6017 8.79056 41.6691 9.66765 40.85 9.02765C40.4793 8.91979 39.8693 8.94317 39.5223 9.44473C39.0439 9.70719 38.38 9.91573 37.8239 9.75393C37.2678 9.59213 36.6039 9.80072 36.0716 10.2483C35.5392 10.696 35.1146 10.7732 34.9831 10.5341C34.9055 10.1099 34.1102 10.0792 33.4464 10.2877C32.3579 10.5736 32.1725 10.5197 32.9441 9.94087C33.0674 9.87323 33.1271 9.84045 33.1252 9.8362C33.1195 9.82397 32.6019 10.0484 31.6164 10.3579C31.3826 10.4314 31.1341 10.5129 30.8778 10.597C29.6783 10.9905 28.3099 11.4395 27.5018 11.3699C26.7965 11.3091 25.8437 11.3841 25.1373 11.4397C24.8615 11.4614 24.6232 11.4802 24.4519 11.4868C21.5335 11.8427 16.7076 11.8444 15.7807 11.5747C15.2785 11.2277 14.6146 11.4364 14.5069 11.8067C14.3991 12.177 13.9745 12.2543 14.0284 12.0691C13.8969 11.83 13.1016 11.7994 12.4377 12.0079C11.7739 12.2164 10.9785 12.1859 10.6616 11.8929C10.5301 11.6538 10.1055 11.731 9.99779 12.1014C9.89004 12.4717 9.28005 12.4951 8.59245 12.0942C8.14409 11.5621 7.53412 11.5855 7.42637 11.9558C7.31862 12.3262 5.67406 12.4501 3.95188 12.1499C1.38047 12.0043 0.692886 11.6033 0.352279 10.7008C0.143166 10.0375 0.304775 9.48202 0.675511 9.58988C1.04625 9.69775 1.81782 9.11897 2.45793 8.30101C3.44502 6.9815 3.44509 6.98139 2.24887 7.63754C1.29191 8.16246 0.921155 8.05463 0.341306 7.2834C-0.184669 6.32701 -0.184656 6.327 0.927552 6.6506C1.48366 6.8124 1.90822 6.73516 1.59136 6.44213C1.08913 6.09517 1.25075 5.53971 2.50084 4.69839C3.32631 3.93437 4.36093 3.83362 4.49243 4.07272C4.80929 4.36575 5.84389 4.26507 6.74699 3.92531C7.65008 3.58555 8.86999 3.53891 9.24073 3.64678C9.55759 3.93981 10.0361 3.67737 10.1438 3.30704C10.0662 2.88278 11.5793 2.51958 13.0385 2.34163C14.6292 2.40277 16.1422 2.03966 16.3815 1.90843C16.6207 1.7772 20.0414 1.76828 23.7789 2.05236C27.5163 2.33645 31.3616 2.25014 32.3962 2.14948C33.3769 2.23398 34.5429 2.37252 35.0452 2.71949C35.4347 3.07972 35.5848 3.21853 35.6676 3.18601C35.7196 3.16563 35.7451 3.07791 35.7866 2.93521C35.6314 2.08669 38.6274 2.15495 39.8173 2.90281C40.3195 3.24978 40.3734 3.06468 40.4811 2.69435C40.272 2.03099 50.217 1.71107 51.7 2.14254C52.2022 2.4895 53.0514 2.33489 53.7691 1.9412C54.433 1.73267 55.4676 1.63207 56.2866 2.27207C57.2911 2.966 57.345 2.78086 57.5605 2.0402C57.6984 0.875285 58.0691 0.983144 59.5995 2.63346C60.4962 3.69772 60.6816 3.75166 60.341 2.8492C59.8689 1.70765 64.0073 1.30495 79.3882 0.959964C81.1483 0.86163 83.3642 0.792816 85.4948 0.726651C87.5701 0.662204 89.5644 0.60027 90.9778 0.516018C92.4758 0.550191 93.9872 0.538084 95.2467 0.527995C96.5063 0.517905 97.514 0.509833 98.0044 0.552086C98.9851 0.63659 102.035 0.51976 104.714 0.295077C109.223 0.000303437 112.59 0.176607 113.702 0.500209C113.887 0.554105 114.312 0.476884 114.736 0.399641L114.737 0.399479C115.03 0.0831395 115.771 0.298805 116.512 0.514502L116.513 0.514614C117.2 0.915512 117.864 0.707007 117.972 0.336679C118.265 0.0202848 118.875 -0.00316033 119.377 0.343804C119.88 0.690769 120.86 0.775337 121.524 0.56681C122.242 0.173133 123.354 0.496711 124.281 0.766373L124.281 0.766402C125.154 1.22123 125.579 1.14386 125.686 0.773534C125.477 0.110175 128.844 0.286408 129.555 1.29673C129.818 1.77493 130.243 1.69755 130.404 1.14206C130.674 0.216236 132.743 0.0149907 134.782 0.60826C135.338 0.770061 135.763 0.692825 136.187 0.615528C137.33 0.14454 137.509 1.60241 136.444 2.49766C135.433 3.20775 135.511 3.63201 136.252 3.84774C136.994 4.06348 137.048 3.87833 137.155 3.50801C137.078 3.08375 137.132 2.89861 137.502 3.00648C138.058 3.16827 138.328 2.24255 138.597 1.31677L138.597 1.31666C138.867 0.390843 139.267 -0.295872 139.345 0.128389C139.423 0.552651 140.403 0.637119 141.438 0.536459C142.712 0.304568 143.083 0.412434 142.921 0.967926C142.759 1.52342 142.945 1.57739 143.423 1.31492C144.619 0.658773 148.094 0.464626 148.674 1.23585C148.991 1.52888 149.6 1.5055 150.372 0.926645C151.383 0.216559 152.364 0.301011 154.349 1.07944C155.778 1.69608 157.338 2.5519 157.548 3.21526C157.888 4.11772 158.074 4.17161 158.343 3.24579C158.505 2.6903 158.164 1.78781 157.476 1.38691C156.603 0.932082 157.16 1.09384 158.642 1.5253L158.643 1.52536C160.496 2.06465 161.052 2.22644 160.658 1.50917C160.078 0.737948 160.371 0.421646 161.298 0.691314C163.074 0.806388 164.395 1.79324 165.316 3.46693C165.621 4.02142 165.784 4.31874 165.822 4.30343C165.867 4.28573 165.743 3.85028 165.477 2.91146C165.129 1.80737 164.974 1.31585 165.155 1.06665C165.299 0.866672 165.66 0.822734 166.309 0.743506L166.31 0.743545C167.106 0.774128 168.696 0.835236 169.807 1.1587C170.92 1.4823 172.086 1.62076 172.193 1.25043C172.78 0.61764 174.209 1.23424 174.256 2.45309C174.334 2.87736 174.388 2.69223 174.603 1.95157C174.926 0.840589 175.297 0.94851 176.039 1.16424L176.039 1.16435C176.78 1.38 176.966 1.43391 177.073 1.06364C176.864 0.400282 180.919 0.977272 181.498 1.7485C181.63 1.9876 182.294 1.77914 182.88 1.14635C183.466 0.513558 184.13 0.304989 184.076 0.490153C184.208 0.729251 186.964 0.928794 190.439 0.734681C197.573 0.400388 198.315 0.616154 197.274 2.12083C196.873 2.80755 196.843 3.60215 197.213 3.71002C197.38 3.75851 197.6 3.90359 197.842 4.06333C198.138 4.25898 198.468 4.47661 198.774 4.56568ZM1.73385 10.0987C1.99684 10.5769 3.55738 11.4326 3.55738 11.4326L3.31816 11.5638C4.43037 11.8874 4.6696 11.7562 4.14362 10.7998C3.80302 9.89737 3.43231 9.78942 2.95383 10.0519C2.71458 10.1831 2.10462 10.2065 1.84163 9.72829C1.57864 9.25009 1.33937 9.38141 1.73385 10.0987ZM118.94 3.22916L120.052 3.55275C120.477 3.47546 120.16 3.18236 119.419 2.96662C118.677 2.75089 118.438 2.88219 118.94 3.22916ZM161.447 2.94386C161.393 3.12903 162.158 3.95406 162.158 3.95406C162.421 4.43225 162.977 4.59405 163.085 4.22372C163.175 3.91354 162.837 3.61984 162.539 3.36044C162.481 3.31013 162.425 3.26112 162.374 3.21353C162.057 2.9205 161.447 2.94386 161.447 2.94386ZM169.717 3.54252C169.849 3.78162 170.62 3.20279 170.62 3.20279L170.674 3.01758C171.553 2.0684 171.236 1.77543 170.226 2.48552C169.933 2.80191 169.771 3.35735 169.717 3.54252ZM184.65 2.66536C184.542 3.03569 185.253 4.04612 185.253 4.04612C185.654 4.35947 185.859 4.5194 185.93 4.47338C186.004 4.4254 185.932 4.15362 185.785 3.5985C185.421 2.08662 184.865 1.9247 184.65 2.66536Z" fill="#FF006C"/>
</svg>
