<svg width="130" height="66" viewBox="0 0 130 66" fill="none" xmlns="http://www.w3.org/2000/svg">
<path d="M3.79417 21.5355C3.79417 21.5355 3.95668 21.1094 4.17706 21.0618C4.55641 21.0029 4.52027 20.9417 4.06864 20.8782C3.5556 20.851 3.48331 20.7286 3.32053 19.7516C3.21564 19.1532 2.96618 18.31 2.7746 17.8453C2.58302 17.3806 2.55045 16.9046 2.67327 16.8321C2.7961 16.7595 2.82138 16.6621 2.59013 16.551C2.45644 16.4649 2.18169 15.7191 2.01892 14.7422C1.57408 12.446 0.937118 6.87896 1.0382 6.48909C1.08874 6.29416 1.06698 5.97683 0.983827 5.69576C0.709096 4.95001 0.773789 3.09584 1.12406 2.1461C1.44906 1.29383 2.04496 0.199029 2.2292 0.0902299C2.2292 0.0902299 2.54713 0.0675729 2.80365 0.0811773C3.35283 0.169592 5.51368 1.86514 5.94738 2.59956C6.09194 2.84437 6.43162 3.13904 6.66287 3.25012C6.89412 3.36119 8.01072 4.27015 9.16343 5.24032C10.28 6.14929 11.6639 7.23055 12.1373 7.61137C12.6721 7.95592 13.5827 8.65634 14.2873 9.14823C17.0191 11.2495 21.796 14.2893 22.674 14.5137C23.1618 14.6384 23.5267 14.8356 23.4039 14.9081C22.8511 15.2345 18.8585 13.3825 18.3887 12.5869C18.3164 12.4645 17.8177 12.1811 17.2577 11.9341C16.199 11.4036 16.087 11.6348 17.0843 12.2015C17.4493 12.3987 17.7889 12.6934 17.9335 12.9382C18.1503 13.3054 20.2425 14.4638 22.143 15.1574C23.3607 15.6765 23.7003 15.9712 22.7971 15.8442C22.443 15.8057 22.3816 15.842 22.4286 16.0618C22.537 16.2455 22.2914 16.3905 21.8145 16.4245C21.4351 16.4834 21.24 16.4336 21.4242 16.3248C21.8541 16.0709 20.6726 15.613 20.2427 15.8669C19.9971 16.0119 19.8634 15.9258 19.8525 15.7671C19.8417 15.6084 19.7079 15.5223 19.5237 15.6311C19.1552 15.8487 18.2302 15.4044 18.3313 15.0145C18.3566 14.9171 18.2591 14.8921 18.1977 14.9284C18.0748 15.0009 17.746 14.8649 17.3811 14.6677C16.9438 14.3481 16.8716 14.2257 17.1281 14.2393C17.2871 14.228 17.1281 14.2393 16.7631 14.0421C15.9827 13.8426 15.7153 13.6703 15.5129 13.047C15.4044 12.8634 15.3069 12.8384 15.1949 13.0696C15.083 13.3008 14.9493 13.2147 14.9637 12.9585C14.9167 12.7387 14.7107 12.5301 14.5517 12.5415C13.8797 12.5256 12.2645 11.3333 12.5968 11.0545C12.7449 10.8845 12.5751 10.7371 12.0259 10.6487C11.5743 10.5853 10.6132 10.0798 9.87239 9.52667C9.13164 8.97357 8.12346 8.24822 7.62482 7.96487L6.75039 7.32564L6.92757 8.04644C7.26018 9.17073 11.3007 15.4519 13.0678 17.4625C13.9026 18.4553 14.8096 19.5705 15.0517 19.8403C15.6444 20.5633 20.0566 24.809 22.167 26.6994C23.186 27.5835 23.9123 28.3927 23.8509 28.429C23.7895 28.4653 23.887 28.4902 24.0207 28.5763C24.1797 28.565 25.6974 29.7324 27.3849 31.0471C29.0724 32.3618 31.0273 33.8488 31.7319 34.3407C32.4365 34.8326 33.1772 35.3857 33.3832 35.5942C33.5278 35.839 33.8566 35.975 33.9903 36.0612C34.1854 36.1111 36.1908 37.4031 38.4636 38.8674C40.7365 40.3318 44.2378 42.4739 46.1962 43.5461C48.1908 44.6795 49.7589 45.6519 49.7337 45.7494C49.7084 45.8469 49.806 45.8718 49.9288 45.7993C50.1745 45.6542 51.9883 46.4816 53.8853 47.59C54.3839 47.8734 54.8465 48.0955 54.944 48.1204C55.0054 48.0842 56.6603 48.9229 58.5717 49.7752C77.0608 58.5024 98.3781 63.7435 110.792 62.6036C116.601 62.062 118.83 61.4886 122.233 59.3965C123.891 58.4173 124.311 58.0048 125.188 56.8261C125.744 56.0849 126.167 55.2576 126.12 55.0377C126.073 54.8178 126.185 54.5866 126.369 54.4778C126.553 54.369 126.665 54.1378 126.593 54.0154C126.521 53.893 126.513 53.3195 126.604 52.771C126.799 51.4178 126.581 48.2444 126.187 47.1564C125.996 46.6917 125.999 46.2769 126.06 46.2406C126.122 46.2044 126.111 46.0457 125.966 45.8009C125.822 45.5561 125.377 44.663 125.03 43.7948C124.264 41.9361 121.528 37.4435 120.079 35.4102C119.306 34.3811 119.016 33.8915 119.139 33.819C119.262 33.7464 119.226 33.6852 119.031 33.6354C118.774 33.6218 118.193 33.0573 117.6 32.3342C117.043 31.6724 116.281 30.8019 115.905 30.4461C115.529 30.0902 115.045 29.5507 114.767 29.2197C114.21 28.5579 114.138 28.4355 112.053 26.4475C111.229 25.6134 110.344 24.8154 110.076 24.6432C109.809 24.4709 109.494 24.0788 109.411 23.7977C109.328 23.5166 109.158 23.3693 109.097 23.4055C109.035 23.4418 108.768 23.2695 108.587 22.9635C108.407 22.6575 108.175 22.5464 108.089 22.6802C107.977 22.9114 107.42 22.2495 107.048 21.4788C106.976 21.3564 106.744 21.2453 106.622 21.3178C106.437 21.4266 106.437 21.4266 106.477 21.073C106.676 20.7081 106.578 20.6832 106.333 20.8282C106.087 20.9733 105.856 20.8622 105.711 20.6174C105.566 20.3726 105.335 20.2615 105.212 20.3341C105.09 20.4066 104.92 20.2593 104.837 19.9782C104.692 19.7334 104.584 19.5498 104.461 19.6223C104.338 19.6948 104.132 19.4863 104.002 18.9854C103.846 18.5819 103.64 18.3734 103.677 18.4346C103.59 18.5683 103.431 18.5796 103.225 18.3711C102.715 17.9291 102.462 17.5006 102.708 17.3556C102.831 17.2831 103.026 17.3329 103.134 17.5165C103.243 17.7001 103.413 17.8475 103.572 17.8361C103.633 17.7999 103.684 17.6049 103.503 17.2989C103.322 16.9929 103.116 16.7844 102.993 16.8569C102.871 16.9294 102.798 16.807 102.751 16.5872C102.704 16.3673 102.498 16.1588 102.303 16.1089C102.108 16.059 101.548 15.8119 101.172 15.4561C100.735 15.1364 100.334 14.878 100.211 14.9506C100.088 15.0231 100.428 15.3178 100.829 15.5762C101.497 16.0069 101.606 16.1905 101.505 16.5803C101.404 16.9702 101.404 16.9702 101.382 16.6529C101.371 16.4942 101.299 16.3718 101.237 16.4081C101.053 16.5169 99.7306 15.3993 99.4415 14.9097C99.3692 14.7873 99.4559 14.6536 99.6763 14.606C100.215 14.5358 99.9616 14.1073 99.351 14.0552C99.0945 14.0416 98.6211 13.6608 98.3067 13.2686C97.9923 12.8765 97.6635 12.7405 97.5768 12.8742C97.4902 13.0079 97.3203 12.8606 97.1396 12.5546C96.9589 12.2486 96.7529 12.04 96.6301 12.1126C96.3231 12.2939 95.3402 11.4711 95.4521 11.2399C95.5388 11.1061 96.1964 11.3781 96.901 11.87C97.6056 12.3619 98.4078 12.8787 98.6138 13.0873C98.8812 13.2596 99.0871 13.4681 99.1594 13.5905C99.2317 13.7129 99.4991 13.8852 99.7918 13.96C100.084 14.0348 101.056 14.699 102.003 15.4606C102.95 16.2222 103.994 17.0088 104.323 17.1448C104.786 17.367 104.858 17.4894 104.612 17.6344C104.489 17.707 104.757 17.8792 105.086 18.0152C105.805 18.251 107.384 19.3821 108.012 20.1664C108.157 20.4112 108.522 20.6084 108.753 20.7195C108.948 20.7694 109.458 21.2114 109.87 21.6285C110.22 22.0818 110.658 22.4014 110.816 22.3901C111.134 22.3674 109.985 20.9825 109.461 20.7966C109.035 20.6356 106.184 18.1921 105.931 17.7637C105.606 17.2128 106.177 17.6186 108.749 19.7312C113.252 23.4283 118.683 28.558 118.799 29.315C118.871 29.4374 119.016 29.6822 119.113 29.7072C119.308 29.757 120.168 30.6524 121.039 31.7064C123.327 34.3177 127.447 41.2947 128.231 43.8856C129.005 46.3178 129.381 49.4798 129.194 51.4065C128.996 53.1745 127.945 56.0237 127.154 57.0687C125.806 58.8548 125.955 58.6848 124.784 59.7887C124.242 60.2737 122.989 61.0965 121.602 61.8332C120.276 62.5335 119.073 63.1614 118.827 63.3064C118.581 63.4515 118.079 63.583 117.7 63.6419C117.321 63.7008 116.757 63.8686 116.548 64.0748C116.302 64.2199 115.995 64.4012 115.825 64.2539C115.691 64.1677 115.312 64.2267 115.066 64.3717C114.821 64.5168 114.16 64.6596 113.672 64.5349C113.159 64.5077 112.902 64.4941 113.097 64.5439C113.329 64.655 113.242 64.7888 112.985 64.7752C112.765 64.8228 112.534 64.7117 112.498 64.6505C112.461 64.5893 112.328 64.5031 112.216 64.7343C112.129 64.8681 111.97 64.8794 111.934 64.8182C111.862 64.6958 111.58 64.7796 111.273 64.961C110.966 65.1423 110.489 65.1763 110.196 65.1015C109.672 64.9156 107.02 64.9133 107.165 65.1581C107.201 65.2193 107.042 65.2306 106.786 65.217C106.529 65.2034 106.247 65.2873 106.161 65.421C106.11 65.6159 105.951 65.6273 105.976 65.5298C105.904 65.4074 105.601 65.1739 105.113 65.0493C104.625 64.9246 104.271 64.886 104.307 64.9472C104.343 65.0084 104.061 65.0923 103.718 65.2124C103.339 65.2714 102.996 65.3915 102.909 65.5252C102.786 65.5978 102.689 65.5728 102.616 65.4504C102.544 65.328 102.385 65.3393 102.298 65.4731C102.212 65.6068 102.114 65.5819 102.129 65.3257C102.082 65.1059 101.912 64.9585 101.666 65.1036C101.052 65.4662 100.954 65.4413 100.308 65.3279C99.9536 65.2894 99.6357 65.3121 99.549 65.4458C99.4623 65.5795 99.3647 65.5546 99.4153 65.3597C99.4044 65.201 99.2707 65.1149 99.0865 65.2237C98.9022 65.3324 98.6819 65.3801 98.6096 65.2577C98.5734 65.1965 98.0604 65.1692 97.6449 65.167C97.168 65.201 96.7778 65.1012 96.7417 65.04C96.6332 64.8564 95.7191 64.5708 95.5349 64.6796C95.4734 64.7158 95.2531 64.7634 95.0218 64.6524C94.8267 64.6025 93.5694 64.437 92.2507 64.3078C89.0279 63.8997 81.3933 62.0522 77.2491 60.785C75.3847 60.1526 73.7624 59.7898 73.7119 59.9848C73.6252 60.1185 73.5276 60.0936 73.6143 59.9598C73.6034 59.8012 72.6423 59.2957 71.3632 58.8129C66.088 56.8928 63.8478 55.9045 63.7537 55.4648C63.6706 55.1837 63.5731 55.1587 63.5225 55.3537C63.4358 55.4874 62.7277 55.4103 61.7774 55.0635C59.6456 54.2588 50.4571 49.7796 48.7552 48.721C47.9892 48.2654 47.2593 47.871 46.9666 47.7962C46.15 47.5355 44.7408 46.5517 44.6829 46.1732C44.5745 45.9896 44.5384 45.9283 44.5131 46.0258C44.4264 46.1595 43.9025 45.9737 43.2449 45.7017C41.6875 44.8879 33.5321 39.6335 33.3153 39.2663C33.243 39.1439 33.0118 39.0328 32.8889 39.1053C32.7661 39.1779 32.4987 39.0056 32.318 38.6996C32.1373 38.3936 31.8699 38.2213 31.7471 38.2938C31.6242 38.3664 31.393 38.2553 31.2846 38.0717C31.1761 37.8881 30.8727 37.6546 30.6775 37.6047C30.4824 37.5548 30.1428 37.2602 29.9621 36.9542C29.7813 36.6481 29.514 36.4759 29.3911 36.5484C29.2683 36.6209 28.8058 36.3988 28.2963 35.9568C27.7868 35.5148 27.0821 35.0229 26.7786 34.7894C26.4751 34.5559 25.868 34.089 25.3947 33.7081C24.9574 33.3885 24.2781 32.7992 23.9998 32.4682C23.7216 32.1373 23.2844 31.8177 23.0893 31.7678C22.8941 31.7179 22.4099 31.1784 22.0846 30.6276C21.7594 30.0768 21.3474 29.6597 21.1523 29.6099C20.5417 29.5577 19.1216 28.4153 18.5903 27.6559C18.5181 27.5335 18.3843 27.4474 18.1892 27.3975C18.0555 27.3114 17.3039 26.5996 16.5523 25.8878C15.8259 25.0786 14.7599 23.9747 14.142 23.3491C11.3558 20.4545 8.46832 16.5466 6.28898 12.7158C5.06017 10.635 4.15667 9.10493 4.16755 9.2636C4.17842 9.42227 4.39906 10.7778 4.69199 12.2557C4.94879 13.6724 5.20557 15.0891 5.19116 15.3452C5.17676 15.6013 5.37571 16.6395 5.57462 17.6776C5.96158 19.5953 5.88958 20.8759 5.41268 20.9099C5.25371 20.9213 5.04417 21.1275 4.8708 21.395C4.49879 22.0274 4.02192 22.0614 3.95317 21.5242L3.79417 21.5355ZM21.5036 15.6175C22.0166 15.6447 22.0166 15.6448 21.4927 15.4589C20.9688 15.273 20.7737 15.2231 20.8821 15.4067C20.8821 15.4067 21.1748 15.4815 21.4675 15.5563L21.5036 15.6175ZM18.1398 14.5498C18.1398 14.5498 18.5696 14.296 18.7647 14.3459C18.9598 14.3957 19.1188 14.3844 18.949 14.2371C18.8767 14.1147 18.5118 13.9174 18.2444 13.7452C17.8433 13.4868 17.8433 13.4868 17.9987 13.8902C18.1433 14.135 17.9952 14.305 17.8362 14.3164C17.6773 14.3277 17.652 14.4252 17.7242 14.5476C17.7965 14.67 17.9555 14.6587 18.1036 14.4887L18.1398 14.5498ZM16.7955 13.115C16.7955 13.115 17.1496 13.1535 17.0411 12.9699C16.8604 12.6639 16.4702 12.5642 16.3582 12.7954C16.2968 12.8317 16.4667 12.979 16.6979 13.0901L16.7955 13.115ZM15.3354 10.9231C15.7365 11.1815 16.0292 11.2563 15.993 11.1951C15.8485 10.9503 14.7427 10.2 14.6922 10.3949C14.6922 10.3949 14.909 10.7621 15.3715 10.9843L15.3354 10.9231ZM13.489 9.61968C13.489 9.61968 13.8178 9.75568 13.8792 9.71942C13.8792 9.71942 13.7346 9.47461 13.6623 9.35221C13.1998 9.13006 13.1493 9.32499 13.5504 9.58341L13.489 9.61968ZM12.3471 8.80818C12.3471 8.80818 12.712 9.00539 12.7373 8.90792C12.7626 8.81045 12.5566 8.60191 12.4482 8.41831C12.2784 8.27097 12.0832 8.2211 12.058 8.31857C12.0327 8.41604 12.2387 8.62457 12.3471 8.80818ZM9.88273 6.87915C9.88273 6.87915 9.93324 6.68424 9.7634 6.5369C9.59357 6.38956 9.39846 6.33968 9.39846 6.33968C9.39846 6.33968 9.40932 6.49836 9.51775 6.68196C9.62617 6.86557 9.82132 6.91542 9.88273 6.87915ZM104.334 18.7066C104.334 18.7066 104.345 18.8652 104.515 19.0126C105.266 19.7243 105.534 19.8966 105.523 19.7379C105.574 19.543 104.518 18.5978 104.334 18.7066ZM106.629 20.4882C106.289 20.1936 106.011 19.8626 105.975 19.8014C105.975 19.8014 105.975 19.8014 105.913 19.8377C105.913 19.8377 106.166 20.2661 106.383 20.6333C106.6 21.0005 107.001 21.2589 107.124 21.1864C107.247 21.1139 107.066 20.8079 106.69 20.452L106.629 20.4882ZM109.747 23.1041C109.021 22.2949 108.085 21.6919 108.034 21.8868C108.034 21.8868 108.215 22.1928 108.519 22.4263C108.786 22.5986 109.259 22.9794 109.624 23.1766L110.195 23.5824L109.747 23.1041ZM112.363 24.4483C112.363 24.4483 112.58 24.8155 113.017 25.1351C113.429 25.5522 113.722 25.627 113.577 25.3822C113.397 25.0762 112.511 24.2783 112.327 24.3871L112.363 24.4483ZM116.797 29.0112C116.797 29.0112 117.126 29.1473 117.187 29.111C117.249 29.0747 117.043 28.8662 116.971 28.7438C116.508 28.5216 116.457 28.7166 116.859 28.975L116.797 29.0112ZM114.741 26.511C114.741 26.511 114.257 25.9716 114.221 25.9104C114.076 25.6655 113.928 25.8355 113.986 26.2141C114.094 26.3977 114.275 26.7037 114.604 26.8397C115.164 27.0868 115.164 27.0868 114.716 26.6085L114.741 26.511ZM60.9861 54.7054C60.9861 54.7054 61.1956 54.4991 61.0872 54.3155C60.9788 54.1319 60.8812 54.1069 60.697 54.2157C60.5127 54.3245 60.4875 54.422 60.5959 54.6056C60.7043 54.7892 60.8019 54.8142 60.9861 54.7054ZM57.1377 51.6951C57.1377 51.6951 57.2497 51.4639 57.116 51.3778C56.9823 51.2916 56.7872 51.2417 56.7258 51.278C56.6644 51.3143 56.6391 51.4118 56.7475 51.5954C56.8559 51.779 57.0149 51.7676 57.1377 51.6951ZM55.5296 49.6732C56.7581 50.3509 59.0706 51.4617 59.3633 51.5365C59.4608 51.5614 60.2521 51.9196 61.0796 52.3389C61.907 52.7583 62.8573 53.1051 63.0524 53.155C63.3089 53.1686 63.5763 53.3409 63.6125 53.4021C63.7932 53.7081 72.7719 56.9904 76.7934 58.3302C80.1572 59.3978 89.2658 61.7781 90.9387 61.9458C91.3903 62.0093 89.5007 61.4743 86.7078 60.8124C78.0255 58.5931 72.1396 56.621 64.1146 53.2706C61.3867 52.1576 59.0127 51.0831 58.7815 50.9721C57.4915 50.3306 54.4239 48.9229 54.3011 48.9954C54.3011 48.9954 54.7744 49.3762 55.4068 49.7457L55.5296 49.6732ZM53.7049 48.6871C54.2902 48.8367 54.2902 48.8367 53.7554 48.4922C53.4266 48.3562 53.1954 48.2451 53.1701 48.3426C53.1701 48.3426 53.3761 48.5511 53.7663 48.6508L53.7049 48.6871ZM51.3924 47.5764C51.3924 47.5764 51.7465 47.6149 51.4429 47.3814C51.237 47.1729 51.0418 47.123 51.0527 47.2817C51.0274 47.3792 51.1973 47.5265 51.3924 47.5764ZM49.1269 46.6855C49.1269 46.6855 49.5786 46.749 49.6038 46.6515C49.6291 46.554 49.4593 46.4067 49.2389 46.4543C48.6283 46.4022 48.603 46.4996 49.1269 46.6855ZM37.8786 40.1209C37.8786 40.1209 38.0158 39.7922 37.9435 39.6698C37.8712 39.5474 37.7737 39.5225 37.5894 39.6313C37.4052 39.7401 37.4161 39.8988 37.5606 40.1436C37.7052 40.3884 37.8028 40.4133 37.9147 40.1821L37.8786 40.1209ZM33.6259 38.6701C33.6259 38.6701 33.8607 38.3664 33.727 38.2803C33.5933 38.1941 33.3982 38.1442 33.3368 38.1805C33.2753 38.2168 33.2501 38.3143 33.2357 38.5704C33.2465 38.7291 33.3802 38.8152 33.6259 38.6701ZM86.9174 6.04441C86.9174 6.04441 86.8089 5.86081 86.5415 5.68853C86.2742 5.51626 85.9815 5.44145 85.9201 5.47771C85.8587 5.51398 86.0285 5.66132 86.2959 5.8336C86.5633 6.00587 86.856 6.08067 86.9174 6.04441ZM85.8046 6.12372C85.8046 6.12372 85.2807 5.93784 85.2554 6.03531C85.2554 6.03531 85.4975 6.30505 85.8625 6.50226C86.6176 6.79921 86.5706 6.57934 85.7793 6.22119L85.8046 6.12372ZM86.8019 6.69042C86.8019 6.69042 86.5562 6.83547 86.6285 6.95788C86.7008 7.08028 86.7622 7.04403 87.0187 7.05763C87.1777 7.0463 87.2644 6.91256 87.1921 6.79016C87.1198 6.66775 86.9247 6.61789 86.8019 6.69042ZM86.3937 7.26162C86.3937 7.26162 87.7416 8.28165 88.0342 8.35646C88.3269 8.43127 87.2717 7.48603 86.8454 7.32509C86.6503 7.27521 86.4551 7.22535 86.3937 7.26162ZM88.9554 7.81248C88.9554 7.81248 88.4676 7.68779 88.3413 8.17513C88.2402 8.565 88.7244 9.10449 89.0315 8.92317C89.1543 8.85063 89.1434 8.69196 88.9736 8.54462C88.8038 8.39728 88.7929 8.23862 88.8543 8.20235C88.9771 8.12982 89.0024 8.03234 88.894 7.84874L88.9554 7.81248ZM90.1046 9.19746C90.1046 9.19746 89.8986 8.98892 89.7144 9.09772C89.5301 9.20651 89.5048 9.30398 89.6133 9.48759C89.7217 9.67119 89.8193 9.69612 90.0035 9.58733C90.1877 9.47853 90.213 9.38106 90.1046 9.19746ZM91.9652 8.84162C91.9652 8.84162 91.6616 8.60814 91.6002 8.64441C91.5388 8.68067 91.5497 8.83935 91.7195 8.98669C91.8893 9.13403 92.0845 9.18389 92.0845 9.18389C92.0845 9.18389 92.0736 9.02523 91.9652 8.84162ZM92.2616 9.90472C92.2616 9.90472 91.8858 9.54884 91.5823 9.31536C91.0114 8.90961 90.5345 8.9436 90.7513 9.31081C90.8959 9.55561 92.3701 10.0883 92.2255 9.84351L92.2616 9.90472ZM91.2464 10.009C90.7478 9.72561 90.4551 9.6508 90.466 9.80947C90.5744 9.99308 90.878 10.2265 91.2682 10.3263L92.0486 10.5258L91.2464 10.009ZM92.9733 9.56699C92.9733 9.56699 92.5722 9.30858 92.5831 9.46725C92.6554 9.58965 92.7999 9.83446 92.9951 9.88433C93.2877 9.95913 93.2154 9.83673 92.8758 9.54205L92.9733 9.56699ZM93.1614 10.4465C93.1614 10.4465 92.9806 10.1405 92.8217 10.1518C92.7241 10.1269 92.5652 10.1382 92.576 10.2969C92.5508 10.3943 92.7206 10.5417 92.9157 10.5915C93.1108 10.6414 93.2698 10.6301 93.1614 10.4465ZM92.7532 11.0177C91.9728 10.8182 91.9475 10.9156 92.616 11.3463C92.9195 11.5798 93.2483 11.7158 93.3712 11.6433C93.6168 11.4982 93.3385 11.1673 92.7532 11.0177ZM97.0347 11.9562C97.0347 11.9562 95.0546 10.5666 94.5668 10.442C94.3717 10.3921 94.1152 10.3785 94.0899 10.476C94.0646 10.5734 94.1983 10.6596 94.4548 10.6732C94.7113 10.6868 94.8089 10.7117 94.6861 10.7843C94.5018 10.893 96.276 12.074 96.6915 12.0763C96.8505 12.065 96.9733 11.9924 96.9372 11.9312L97.0347 11.9562ZM95.0116 12.7381C95.0116 12.7381 95.2464 12.4344 94.8815 12.2372C94.6502 12.1261 94.3358 11.734 94.2779 11.3554C94.1586 11.0132 93.9527 10.8046 93.6961 10.791C93.1217 10.8001 93.1217 10.8001 93.6565 11.1446C94.2888 11.5141 94.3972 11.6977 93.9817 11.6954C93.8228 11.7068 93.7975 11.8042 94.0035 12.0128C94.2095 12.2213 94.354 12.4661 94.4624 12.6497C94.5709 12.8333 94.7913 12.7857 94.9755 12.6769L95.0116 12.7381ZM98.8703 13.1009C98.2018 12.6702 97.667 12.3257 97.5442 12.3982C97.5442 12.3982 97.92 12.7541 98.6717 13.4658C100.215 14.5358 100.413 14.1708 98.8703 13.1009ZM96.9412 14.3226C96.9412 14.3226 97.0785 13.9939 97.0062 13.8715C96.8255 13.5655 96.6774 13.7355 96.7714 14.1753C96.8184 14.3951 96.916 14.4201 96.9412 14.3226ZM97.682 14.8757C98.2673 15.0253 98.4407 14.7578 97.9673 14.377C97.7975 14.2297 97.4796 14.2524 97.3315 14.4224C97.0967 14.7261 97.1328 14.7873 97.6206 14.912L97.682 14.8757ZM101.226 14.8463C100.691 14.5018 100.265 14.3408 100.24 14.4383C100.189 14.6332 101.855 15.6306 102.039 15.5218C102.162 15.4493 101.822 15.1546 101.226 14.8463ZM103.608 16.4942C102.903 16.0024 102.307 15.6941 102.281 15.7916C102.231 15.9865 104.684 17.7568 104.807 17.6843C105.053 17.5392 105.017 17.478 103.546 16.5305L103.608 16.4942ZM100.985 17.3827C100.985 17.3827 100.8 17.4915 100.996 17.5414C101.458 17.7636 101.975 17.376 101.758 17.0088C101.686 16.8864 101.48 16.6778 101.321 16.6891C101.223 16.6642 101.136 16.7979 101.183 17.0178C101.23 17.2377 101.18 17.4326 100.985 17.3827Z" fill="#FF006C"/>
</svg>
