<svg width="128" height="34" viewBox="0 0 128 34" fill="none" xmlns="http://www.w3.org/2000/svg">
<path d="M53.3876 0.625396C53.3876 0.625396 55.2488 -0.0852555 55.2488 0.270068C55.2488 0.447726 55.4261 0.447726 55.6919 0.270068C56.0465 0.00357351 57.11 -0.085225 59.6802 0.0924369C64.2889 0.358928 65.5297 0.536563 65.707 1.24721C65.7956 1.69136 65.8843 1.60253 65.8843 1.24721C65.8843 0.714225 66.1501 0.714217 68.1886 0.891879C71.8224 1.2472 75.8107 1.95783 76.0766 2.40198C76.2538 2.66847 76.3425 2.66847 76.3425 2.40198C76.3425 2.13549 76.5197 2.04671 77.0515 2.3132C77.406 2.49086 78.3809 2.6685 79.2672 2.84616C80.3308 3.02382 80.7739 3.20145 80.9512 3.64561C81.0398 4.00093 81.3057 4.26742 81.4829 4.26742C81.6602 4.26742 81.6602 4.0898 81.4829 3.8233C80.9512 3.20149 81.4829 3.20149 82.192 3.8233C82.5465 4.0898 82.7237 4.1786 82.7237 4.00094C82.7237 3.20146 92.9161 6.8435 99.386 9.95257C104.97 12.6175 112.06 16.7926 111.794 17.4144C111.794 17.592 111.794 17.8585 111.971 18.0362C112.149 18.2138 112.237 18.125 112.06 17.9473C111.617 17.3255 112.326 17.592 114.01 18.658C116.314 20.1681 117.555 21.2341 117.289 21.4117C117.2 21.5006 117.378 21.5894 117.732 21.5894C118.087 21.5894 118.618 21.8559 118.973 22.1224C119.948 23.0995 120.302 22.833 119.593 21.6782C118.973 20.6122 118.973 20.5235 119.505 19.9905C120.037 19.4575 120.037 19.3687 119.505 19.0133C119.062 18.658 118.973 18.658 118.884 19.0133C118.707 19.5463 118.175 19.5463 118.175 19.0133C118.175 18.7468 117.909 18.4803 117.644 18.3027C117.289 18.125 117.2 17.8585 117.378 17.7697C117.555 17.592 117.732 17.7697 117.821 17.9473C117.909 18.3027 118.087 18.3027 118.441 17.9473C118.796 17.6808 118.884 17.6808 118.707 17.9473C118.53 18.2138 118.707 18.3915 119.062 18.5692C119.416 18.658 119.771 18.9245 119.859 19.1022C120.125 19.4575 120.657 18.7468 120.746 17.9473C120.746 17.6808 121.011 17.3255 121.277 17.2367C121.72 17.059 121.72 17.2367 121.632 18.0362C121.543 18.5692 121.543 18.8357 121.632 18.658C121.809 18.3027 121.898 18.3027 122.252 18.658C122.873 19.191 122.784 19.5463 122.075 19.3687C121.632 19.2798 121.455 19.3686 121.455 19.9016C121.455 20.6123 121.898 20.7899 122.164 20.1681C122.252 19.9016 122.341 19.9905 122.341 20.3458C122.341 20.6123 122.607 21.0564 122.873 21.2341C123.227 21.5006 123.316 21.5006 123.316 21.1452C123.316 20.8788 123.139 20.6123 122.961 20.6123C122.784 20.6123 122.695 20.5234 122.784 20.4346C122.873 20.3458 123.139 20.4346 123.404 20.5234C123.582 20.7011 123.936 20.8787 124.113 20.7899C124.291 20.7899 124.468 21.0564 124.557 21.4117C124.645 21.767 124.822 22.1224 125 22.3001C125.266 22.4777 125.266 22.5665 125 22.7442C124.734 22.833 124.822 23.0107 125.354 23.2772C125.797 23.4548 126.063 23.899 126.152 24.1655C126.152 25.498 126.329 25.6756 126.684 25.6756C127.304 25.6756 128.279 29.4065 127.924 30.3836C127.836 30.6501 127.393 31.4496 126.95 32.0714L126.152 33.3151L123.759 33.1374C121.011 32.8709 120.302 32.7821 114.896 31.9826C106.742 30.739 99.386 28.607 100.184 27.8075C100.184 27.8075 101.07 27.9852 102.045 28.3405C104.615 29.3176 111.262 30.739 117.732 31.6273C123.493 32.4267 125.266 32.6044 124.911 32.2491C124.911 32.2491 122.075 31.7161 118.707 31.2719C110.021 30.1171 101.602 28.2517 100.538 27.1857C100.184 26.8304 100.272 26.6527 100.893 26.1197C101.602 25.4979 101.779 25.4092 103.286 25.7645C104.172 25.9421 104.881 26.2975 104.881 26.3863C104.881 26.5639 104.97 26.5639 105.147 26.4751C105.324 26.3862 107.008 26.5639 108.869 26.9192C110.73 27.2746 113.478 27.7187 114.896 27.8964C116.403 28.0741 118.087 28.3405 118.796 28.4294C120.48 28.607 120.391 28.5182 113.301 23.7213C101.779 15.9042 94.8659 12.4399 84.1418 8.9755C81.4829 8.08719 79.0013 7.28767 78.7354 7.19884C78.4696 7.11001 78.115 7.02121 78.0264 7.02121C77.8492 7.02121 76.3425 6.84351 74.5699 6.48818C70.2271 5.68871 69.6953 5.59988 65.707 5.24456C57.9077 4.53391 48.8675 4.88928 39.5615 6.3994C36.7254 6.84355 34.3324 7.11004 34.1551 7.02121C33.9779 6.93238 33.8006 7.02116 33.8006 7.10999C33.8006 7.37648 27.7738 9.15313 26.533 9.15313C26.2671 9.15313 26.0013 9.24193 25.9126 9.33076C25.6467 9.59725 21.7471 11.0185 21.3925 10.9297C21.3039 10.9297 21.2153 10.9298 21.2153 11.1963C21.2153 11.3739 21.038 11.5515 20.8608 11.5515C20.6835 11.5515 19.1768 12.2622 17.6701 13.1505C16.0748 14.0388 14.6568 14.7494 14.3909 14.8383C14.125 14.8383 13.6818 15.1936 13.3273 15.5489C12.9728 15.9043 11.5547 17.0591 10.1367 18.125C6.76878 20.7011 3.84403 23.6325 2.33734 26.031C1.0079 28.1629 0.387505 28.607 0.0329896 27.8075C-0.232895 27.1857 1.18517 24.5208 1.53968 24.6985C1.71693 24.7873 1.89419 24.432 1.98282 23.8102C2.16007 23.0107 3.04637 21.9447 5.17346 19.8128C8.00959 17.059 12.8842 13.0617 14.0364 12.6175C14.3022 12.5287 15.3658 11.8181 16.518 11.1074C17.5815 10.3968 18.6451 9.86374 18.8223 9.95257C18.9996 10.0414 19.0882 9.95262 19.0882 9.86379C19.0882 9.5973 20.8608 8.62017 21.3925 8.62017C21.5698 8.62017 21.7471 8.53128 21.8357 8.35362C22.013 8.08712 23.3424 7.46533 25.2036 6.84351C25.5581 6.75468 26.0899 6.66588 26.4444 6.66588C26.7989 6.66588 26.9762 6.66584 26.7989 6.48818C26.3558 6.04403 34.0665 3.64561 35.6618 3.64561C36.105 3.64561 36.6367 3.46794 36.814 3.29027C36.9912 3.11261 37.6116 3.02379 38.232 3.02379C38.7638 3.02379 39.2956 3.02382 39.4729 2.84616C39.7387 2.40201 42.5749 1.86905 42.5749 2.3132C42.5749 2.57969 42.6635 2.57969 42.9294 2.3132C43.1066 2.13554 43.727 2.04667 44.2588 2.1355C45.0565 2.31316 45.1451 2.22436 44.7906 1.95787C44.4361 1.69138 44.5247 1.60254 45.3224 1.60254C45.9428 1.60254 46.3859 1.78021 46.3859 1.95787C46.3859 2.22436 46.5632 2.04666 46.8291 1.78017C47.0949 1.42485 47.2722 1.33603 47.2722 1.51369C47.2722 1.69135 47.4494 1.86902 47.7153 1.86902C47.9812 1.86902 48.1585 1.78018 47.9812 1.51369C47.8926 1.33603 47.9812 1.15836 48.1585 1.15836C48.3357 1.15836 48.513 1.33603 48.513 1.51369C48.513 1.69135 48.6903 1.86902 48.8675 1.86902C49.0448 1.86902 49.1334 1.7802 49.0448 1.60254C48.7789 1.15839 49.5765 0.980735 50.1969 1.33606C50.6401 1.51372 50.7287 1.51372 50.5515 1.33606C50.3742 1.06957 50.8174 0.980727 51.8809 0.980727C53.2103 0.980727 53.299 0.980716 52.4127 1.24721L51.4377 1.51369L52.4127 1.51369C52.9444 1.51369 53.4762 1.51372 53.4762 1.33606L53.3876 0.625396ZM119.505 24.3432C119.505 24.3432 119.682 24.0767 119.682 23.9878C119.682 23.899 119.682 23.9878 119.505 23.9878C119.416 24.0767 119.062 23.9879 118.884 23.8102C118.618 23.6325 118.441 23.6325 118.441 23.8102C118.441 24.1655 119.239 24.5208 119.505 24.2543L119.505 24.3432ZM114.364 22.9219C114.364 22.9219 116.757 24.7873 117.644 25.1427C117.821 25.1427 118.175 25.498 118.53 25.7645C118.796 26.031 119.505 26.5639 120.037 26.8304L121.011 27.4522L120.657 26.8304C120.657 26.8304 120.037 26.2086 119.682 26.2086C119.327 26.2086 119.062 26.1198 118.973 25.9421C118.973 25.7644 117.998 25.1426 116.935 24.432C115.871 23.7214 114.896 23.0996 114.63 22.9219C114.453 22.7442 114.276 22.7442 114.276 22.9219L114.364 22.9219ZM117.2 23.1884C117.2 23.1884 117.466 23.6325 117.732 23.6325C118.087 23.6325 118.175 23.5437 117.909 23.4549C117.732 23.4549 117.555 23.1883 117.732 23.0107C117.821 22.833 117.732 22.7442 117.555 22.7442C117.378 22.7442 117.2 22.9219 117.2 23.1884ZM112.149 21.5894L113.212 22.1224L112.503 21.4117C112.503 21.4117 111.617 20.7899 111.44 20.8788C111.174 20.8788 111.44 21.2341 112.149 21.5894ZM84.3191 4.88923C84.3191 4.88923 83.9646 4.17864 83.4328 4.17864C83.2555 4.17864 83.4328 4.35626 83.61 4.62275C83.8759 4.88924 84.1418 4.97806 84.3191 4.88923ZM87.3325 5.86637C87.7756 5.59988 87.687 5.42226 87.1552 5.42226C86.8893 5.42226 86.8007 5.59993 86.8893 5.77759C86.9779 5.95525 87.1552 6.04405 87.3325 5.95522L87.3325 5.86637ZM110.287 18.2138C110.287 18.2138 109.844 17.9473 109.49 17.6809C108.869 17.2367 108.869 17.2367 109.312 17.7697C109.578 18.125 109.844 18.3027 110.11 18.3027C110.376 18.3027 110.376 18.3027 110.287 18.2138ZM110.553 20.257C110.553 20.257 110.376 20.4346 110.73 20.4346C111.085 20.4346 111.262 20.4346 111.174 20.257C111.085 20.0793 110.819 20.1681 110.553 20.257ZM65.0866 3.55682C65.0866 3.55682 66.1501 3.82326 67.1251 3.91209C69.518 4.08975 74.8358 4.97807 75.1903 5.24456C75.3675 5.33339 75.9879 5.51106 76.6083 5.59989C78.0264 5.77755 84.0532 7.55419 87.8642 8.88665C93.891 11.0186 101.779 14.7495 106.122 17.5032C108.869 19.2798 109.401 19.5463 109.401 19.3687C109.401 19.3687 108.426 18.5692 107.274 17.8586C98.4111 12.1734 86.2689 7.11003 76.697 5.06693C71.911 4.08979 64.6435 3.11262 65.0866 3.64561L65.0866 3.55682ZM120.657 15.9931C120.657 15.9931 121.189 15.8155 121.1 15.6378C121.011 15.4601 120.746 15.2825 120.48 15.2825C120.214 15.2825 120.037 15.4601 120.037 15.6378C120.037 15.8155 120.302 15.9931 120.657 15.9931ZM120.302 16.6149C120.302 16.6149 120.125 16.2596 119.948 16.2596C119.771 16.2596 119.593 16.2596 119.593 16.4372C119.593 16.6149 119.682 16.6149 119.948 16.7926C120.125 16.8814 120.302 16.7925 120.302 16.6149ZM119.859 17.5032C119.859 17.5032 119.505 17.1479 119.327 17.1479C119.15 17.1479 119.062 17.2367 119.239 17.5032C119.416 17.7697 119.593 17.8586 119.771 17.8586C119.948 17.8586 120.037 17.7697 119.859 17.5032ZM118.884 14.8383C118.884 14.8383 119.239 14.8383 119.505 14.8383C119.771 14.6606 119.771 14.5718 119.505 14.483C119.062 14.3053 118.618 14.6606 118.973 14.9271L118.884 14.8383ZM118.175 14.0388C117.909 13.5947 117.555 13.8612 117.644 14.5718C117.821 16.0819 117.732 15.9931 118.087 15.5489C118.353 15.1936 118.441 15.1936 118.441 15.7266C118.441 16.0819 118.618 16.4372 118.796 16.6149C118.973 16.7037 118.796 16.7925 118.175 16.7037C117.378 16.7037 117.112 16.5261 116.935 15.9043C116.757 15.016 116.314 14.483 115.516 14.2165C115.251 14.1276 114.63 13.2393 114.098 12.2622C113.655 11.285 113.123 10.4856 112.946 10.4856C112.769 10.4856 112.592 10.3079 112.503 9.95257C112.414 9.68608 112.503 9.50843 112.592 9.68609C112.769 9.77492 112.946 9.68614 112.946 9.59731C112.946 9.41965 112.769 9.24196 112.592 9.15313C112.237 9.0643 112.237 8.88665 112.592 8.26484C112.769 7.82068 112.946 7.73184 112.946 7.90951C112.946 8.176 113.301 7.99835 113.744 7.64302C114.364 7.11004 114.453 6.84354 114.098 6.66588C113.833 6.48822 113.921 6.39937 114.276 6.57703C114.63 6.66586 114.985 6.75473 115.162 6.75473C115.694 6.75473 115.428 7.64299 114.807 7.82066C114.276 7.90949 114.187 8.17601 114.364 8.62017C114.542 9.33081 114.098 9.50846 113.832 8.88665C113.744 8.62016 113.655 8.62017 113.655 8.9755C113.655 9.24199 113.833 9.68613 114.098 9.86379C114.63 10.3079 115.073 9.68608 114.985 8.70895C114.985 8.35363 114.985 7.99835 115.251 7.99835C115.516 7.99835 115.605 8.17596 115.605 8.35362C115.605 8.62011 115.605 8.62011 115.871 8.35362C116.048 8.08713 116.225 8.2648 116.491 8.70895C116.669 9.1531 116.757 9.50848 116.491 9.59731C116.314 9.68614 116.137 9.5973 116.048 9.24198C115.871 8.79782 115.782 8.79781 115.605 9.15313C115.428 9.33079 115.516 9.77491 115.605 9.95257C115.871 10.2191 115.782 10.3079 115.251 10.1303C114.807 10.0414 114.63 10.1302 114.63 10.5744C114.63 10.9297 114.63 11.4628 114.364 11.8181C114.098 12.3511 114.187 12.4399 114.63 11.9957C114.896 11.7292 115.251 11.6404 115.339 11.7292C115.428 11.8181 115.339 11.9069 115.162 11.9069C114.985 11.9069 114.807 12.0845 114.807 12.2622C114.807 12.4398 115.162 12.5287 115.516 12.5287C115.96 12.5287 116.225 12.2622 116.137 11.9069C116.137 11.5515 116.137 11.3739 116.403 11.3739C116.669 11.3739 116.669 11.1074 116.58 10.7521C116.491 10.3968 116.58 9.95258 116.935 9.68609C117.378 9.33077 117.378 9.33077 117.289 9.68609C117.289 9.95258 117.466 10.4856 117.909 10.8409C118.353 11.1963 118.618 11.818 118.618 12.1733C118.618 12.5287 118.796 12.7063 118.973 12.6175C119.15 12.5287 119.327 12.5287 119.327 12.6175C119.327 12.7063 119.15 12.884 118.884 12.9728C118.618 13.0617 118.441 13.417 118.441 13.6835C118.441 14.1277 118.441 14.1276 118.175 13.7723L118.175 14.0388ZM114.098 10.7521C114.364 10.3079 114.098 9.86379 113.567 9.86379C113.212 9.86379 113.123 9.95262 113.478 10.4856C113.744 10.9298 113.921 10.9297 114.098 10.7521ZM118.087 12.0846C118.087 12.0846 117.732 11.6404 117.732 12.0846C117.732 12.4399 117.644 12.4399 117.378 12.0846C116.846 11.5516 116.403 11.6404 116.757 12.2622C116.935 12.6175 117.378 12.884 117.732 12.884C118.441 12.884 118.53 12.7064 118.087 11.9957L118.087 12.0846ZM116.225 13.1505C115.605 13.1505 115.516 13.1505 116.137 13.2393C116.491 13.2393 116.935 13.5947 117.023 13.95C117.112 14.3053 117.2 14.3053 117.112 13.8611C117.112 13.417 116.757 13.2393 116.225 13.1505Z" fill="#FF006C"/>
</svg>
