<svg width="334" height="97" viewBox="0 0 334 97" fill="none" xmlns="http://www.w3.org/2000/svg">
<path d="M291.457 2.2194C290.628 1.53435 291.733 0.712326 293.252 0.849334C294.081 0.849334 295.324 0.849275 295.877 0.575259C296.844 0.301242 302.092 -0.109795 303.336 0.0272133C303.612 0.0272133 303.75 0.301242 303.75 0.575259C303.75 0.849275 302.507 1.1233 300.987 1.1233C299.468 1.1233 297.949 1.39738 297.672 1.39738C296.429 1.6714 295.186 1.80833 293.667 1.53431C292.7 1.53431 292.009 1.5343 291.871 1.94532C291.871 2.21934 291.595 2.3564 291.318 2.2194H291.457ZM334 13.8651C332.204 15.9202 327.508 19.8935 323.088 22.9077C320.74 24.5518 317.148 27.0178 315.076 28.3879C313.005 29.758 310.933 31.1281 310.518 31.4021C309.828 31.8131 309.689 31.6762 310.104 30.7171C310.518 29.7581 310.518 29.758 309.966 30.4431C309.689 30.8541 308.722 31.5391 307.894 31.9502C307.065 32.3612 306.512 32.9093 306.651 33.1833C306.789 33.4573 307.203 33.3203 307.617 33.0463C308.032 32.7722 308.308 32.6352 308.308 32.9092C308.308 33.1832 307.203 34.1423 305.822 34.9644C303.612 36.4715 303.336 36.6085 302.645 35.9234C301.954 35.2384 301.954 35.2384 302.231 36.0605C302.507 36.7455 302.231 37.2935 301.264 37.9786C299.468 39.2116 299.054 39.0746 300.02 37.8415L300.849 36.7454L299.606 37.7045C298.915 38.2525 298.501 38.9376 298.639 39.0747C298.639 39.2117 298.639 39.6226 298.087 39.7596C297.534 39.8966 297.396 40.4447 297.672 40.8557C297.949 41.4038 297.81 41.4038 297.258 40.9928C296.844 40.7187 296.567 40.5817 296.567 40.9928C296.567 41.2668 295.6 41.9518 294.495 42.6368C292.147 43.8699 291.733 43.8699 293.114 42.4999C293.528 41.9518 293.805 41.8148 293.529 41.9518C293.252 42.0888 292.838 42.2258 292.423 42.0887C292.009 41.9517 291.733 42.0888 291.871 42.3628C292.147 43.7329 291.595 44.418 288.832 46.3361C287.175 47.4321 285.931 48.6651 286.208 48.9392C286.346 49.2132 286.208 49.0762 285.655 48.9392C285.103 48.5281 284.826 48.5281 284.826 48.9392C284.826 49.2132 284.55 49.3502 284.274 49.2132C283.859 48.9392 283.859 48.8022 284.274 48.5282C284.826 48.1171 284.412 47.8431 283.583 48.1171C281.926 48.5282 285.241 44.4179 287.589 43.3219C288.142 43.0479 288.28 42.7738 287.865 42.6368C287.589 42.6368 286.622 43.0478 285.793 43.7329C284.964 44.4179 284.136 44.966 283.859 44.829C283.583 44.692 283.445 44.8289 283.445 45.1029C283.445 45.377 282.616 45.788 281.511 46.199C280.406 46.6101 279.578 46.6101 279.578 46.3361C279.578 46.0621 279.854 45.9251 280.13 45.9251C280.406 45.9251 281.097 45.377 281.373 44.829C281.788 44.2809 282.754 43.3219 283.721 42.9109C284.688 42.4998 285.517 41.8147 285.655 41.6777C286.07 41.1297 289.661 38.8006 290.075 38.9376C290.352 38.9376 290.352 38.9376 290.352 38.5266C290.352 38.2526 290.766 37.9786 291.18 37.9786C291.595 37.9786 292.838 37.1565 293.667 36.3344C294.495 35.5124 295.462 34.9644 295.6 34.9644C295.877 34.9644 296.015 34.9643 296.015 34.8273C296.015 34.4163 298.639 32.9092 299.468 32.7722C299.744 32.7722 300.02 32.4982 300.159 32.0872C300.573 31.4022 301.678 30.5801 303.888 29.21C304.579 28.799 305.96 27.8399 307.065 27.0179C308.17 26.1958 309.137 25.5108 309.413 25.5108C309.689 25.5108 310.38 24.9628 311.209 24.2777C312.038 23.5927 313.004 22.9076 313.419 22.6336C313.833 22.3596 314.8 21.8116 315.491 21.2635C318.115 19.3454 318.53 19.0714 318.53 19.4825C318.53 19.7565 318.668 19.6194 318.944 19.3454C319.082 19.0714 320.602 17.8383 322.121 16.6052C325.022 14.4131 326.265 12.906 323.778 14.8241C321.707 16.3312 315.629 20.4414 314.524 20.9895C313.971 21.2635 310.794 23.4557 307.479 25.7848C303.197 28.799 301.264 29.895 300.987 29.484C300.573 28.936 302.092 27.1549 303.059 27.0179C303.336 27.0179 304.164 26.3328 305.131 25.6478C305.96 24.9628 306.789 24.4147 306.789 24.5517C306.789 24.6887 307.203 24.4148 307.756 23.8667C308.308 23.3187 308.999 22.7706 309.137 22.7706C309.413 22.7706 310.794 21.8115 312.452 20.5785C314.109 19.3454 315.629 18.3864 316.043 18.3864C316.32 18.3864 316.734 18.2494 316.596 17.9754C316.596 17.8384 317.839 16.7422 319.22 15.7832C321.016 14.5501 321.707 13.8651 321.154 13.8651C320.74 13.8651 319.911 13.8651 319.497 14.2761C319.082 14.5501 318.115 14.6871 317.563 14.6871C317.01 14.6871 316.596 14.6872 316.734 14.9612C316.734 15.0982 316.181 15.2352 315.215 15.0982C313.971 15.0982 313.557 15.0982 313.833 15.5092C314.109 15.7832 313.833 15.9202 313.419 15.7832C313.004 15.7832 312.59 15.7832 312.452 15.9202C312.452 16.1942 311.485 16.3312 310.656 16.3312C309.689 16.3312 309.275 16.4683 309.413 16.8793C309.828 17.7013 263.969 33.1832 263.417 32.3612C263.14 32.0872 262.726 32.3612 261.897 33.0463C260.654 34.2793 259.687 34.5533 258.72 33.7312C258.168 33.3202 258.168 33.3203 258.444 34.1423C258.72 34.8274 258.72 34.9643 258.03 34.8273C257.477 34.6903 256.924 34.5534 256.648 34.5534C256.372 34.5534 256.234 34.2793 256.234 33.8683C256.234 33.4572 255.958 33.1833 255.681 33.1833C255.267 33.1833 255.405 33.4573 255.681 34.1423C256.096 34.8274 256.096 35.1014 255.681 35.1014C255.405 35.1014 255.267 35.3754 255.405 35.6494C255.543 35.9235 255.405 36.1974 255.267 36.1974C254.991 36.1974 254.714 35.9235 254.714 35.6494C254.714 35.3754 254.438 35.2384 254.024 35.3754C253.748 35.3754 253.471 35.9234 253.609 36.1974C253.609 36.6084 253.471 36.7455 252.781 36.6085C252.228 36.6085 251.814 36.6084 251.814 36.7454C251.814 37.0195 251.538 37.2935 251.123 37.4305C250.709 37.5675 250.432 37.4305 250.709 37.2935C251.123 36.4714 250.433 36.7454 249.604 37.7045C249.189 38.1155 248.499 38.3896 247.946 38.3896C247.394 38.3896 246.979 38.3896 246.979 38.5266C246.979 39.2116 243.802 40.1706 243.112 39.6226C242.697 39.2116 242.559 39.3486 242.559 39.8967C242.559 40.4447 242.007 40.7187 240.073 40.8557C238.277 40.9927 237.449 41.2667 237.172 41.8148C236.896 42.3628 236.482 42.4998 235.929 42.3628C235.377 42.2258 235.238 42.3628 235.515 42.6368C235.791 42.9108 235.515 43.0479 234.824 42.9109C234.133 42.9109 233.857 42.9108 234.133 43.1848C234.272 43.4589 234.133 43.8698 233.581 44.0069C233.028 44.1439 232.752 44.0069 232.89 43.8699C233.028 43.5959 232.89 43.4589 232.614 43.4589C232.338 43.4589 232.061 43.7329 232.061 43.8699C232.061 44.1439 231.509 44.281 230.818 44.418C230.128 44.418 229.299 44.966 228.885 45.377C228.332 45.9251 228.056 46.062 227.918 45.788C227.918 45.514 227.227 45.24 226.675 45.24C226.122 45.24 225.846 45.103 225.984 44.829C226.122 44.555 225.984 44.4179 225.431 44.6919C224.879 44.966 224.741 45.103 225.293 45.377C226.122 45.788 225.569 46.8841 224.603 46.61C224.188 46.61 223.774 46.6101 223.636 47.1581C223.498 47.5691 223.083 47.8431 222.669 47.7061C222.254 47.7061 221.149 47.9801 220.044 48.6652C218.939 49.2132 217.696 49.6242 217.282 49.4872C216.867 49.4872 216.177 49.4872 215.624 50.0353C215.21 50.4463 214.657 50.7203 214.381 50.5833C214.105 50.4463 213.829 50.5833 213.552 50.9943C213.138 51.6793 213 51.6793 212.586 50.9943C212.171 50.4463 211.895 50.5833 212.033 51.5424C212.033 51.6794 211.204 51.9534 210.237 51.9534C207.337 52.0904 206.784 52.2274 208.027 52.6384L208.994 53.0494H208.027C208.027 53.0494 206.784 53.4605 206.508 53.4605C206.232 53.4605 205.817 53.7345 205.541 53.8715C205.265 54.1455 204.712 54.1455 204.16 53.8715C203.745 53.8715 203.331 53.8715 203.331 54.1455C203.331 54.4196 203.055 54.5565 202.502 54.4195C201.95 54.2825 201.811 54.4195 202.088 54.8305C202.364 55.2415 202.364 55.3786 201.95 55.1046C201.121 54.6936 201.121 53.4604 201.95 53.3234C202.226 53.3234 202.364 53.3235 202.226 53.0494C202.088 53.0494 201.673 53.0494 201.121 53.0494C200.568 53.3235 200.43 53.5974 200.845 54.2825C201.535 55.3785 200.983 55.9266 200.016 55.2415C199.463 54.8305 199.325 54.8305 199.325 55.2415C199.325 55.5155 198.773 55.7896 198.082 55.7896C197.391 55.7896 196.839 56.0636 196.839 56.3376C196.839 56.6116 196.701 56.7487 196.424 56.6117C196.148 56.4747 195.872 56.6116 196.01 56.7486C196.01 57.0226 195.596 57.2967 195.043 57.5707C194.353 57.7078 194.214 57.5707 194.353 57.2967C194.491 57.0227 194.353 56.8856 193.938 57.2967C193.524 57.5707 192.971 57.8447 192.557 57.8447C192.143 57.8447 191.728 58.2557 191.452 58.6667C191.314 59.0778 191.037 59.0778 191.037 58.9408C191.037 58.6668 190.761 58.9408 190.347 59.2148C189.933 59.6258 189.38 59.6259 189.104 59.4889C188.827 59.3518 188.413 59.4889 188.275 59.4889C187.861 60.1739 184.822 61.2699 184.822 60.8589C184.822 60.5849 184.407 60.5849 183.855 60.8589C183.302 60.9959 183.026 61.27 183.164 61.544C183.302 61.681 182.059 62.229 180.402 62.64C178.744 63.051 177.087 63.7361 176.672 64.1471C175.982 64.8321 174.324 65.2431 171.561 65.5171C171.009 65.5171 170.456 65.9282 170.595 66.3393C170.595 66.7503 170.18 67.0243 169.49 66.8873C168.799 66.8873 168.108 67.0243 167.832 67.4354C167.556 67.8464 167.003 68.1203 166.589 67.9833C166.174 67.9833 165.898 67.9834 165.898 68.2574C165.898 68.5314 165.346 68.8053 164.517 68.9424C163.688 68.9424 162.998 68.9424 162.998 68.6684C162.998 68.3944 162.721 68.2574 162.307 68.2574C161.893 68.2574 161.754 68.5314 161.892 68.6684C162.307 69.2164 161.202 70.5865 160.649 70.3125C160.373 70.3125 160.097 70.3125 159.959 70.5865C159.821 70.8605 159.544 70.9976 159.13 70.8606C158.854 70.7236 158.301 70.8605 158.025 71.1345C157.749 71.4086 157.058 71.6825 156.506 71.5455C155.953 71.4085 155.401 71.5455 155.262 71.9566C155.124 72.2306 154.019 72.6417 152.914 72.7787C151.809 72.9157 150.29 73.4636 149.599 73.8747C148.908 74.2857 148.218 74.5597 147.942 74.4227C147.665 74.4227 147.527 74.4228 147.527 74.6968C147.527 74.9708 146.975 75.2448 146.284 75.2448C145.593 75.2448 144.488 75.5188 143.798 75.5188C143.107 75.5188 142.555 75.7928 142.555 76.0668C142.555 76.7519 139.101 76.6149 139.101 76.0668C139.101 75.6558 138.825 75.7929 138.549 76.2039C137.168 78.259 132.747 77.2999 131.919 74.9707C131.366 73.4637 131.366 73.4637 132.333 73.6007C133.3 73.7377 133.3 73.6007 132.609 73.0526C131.919 72.5046 132.057 72.0936 133.162 70.7235C133.853 69.9015 134.819 69.2164 135.096 69.2164C135.372 69.2164 135.786 68.9424 135.648 68.6684C135.648 67.9833 143.383 62.366 152.085 56.6117C160.511 51.1314 169.766 44.5549 174.186 41.1297C177.501 38.5265 181.645 34.2793 181.645 33.5943C181.645 33.3203 180.678 33.1832 179.435 33.3202C178.192 33.3202 177.225 33.3202 177.225 32.9092C177.225 32.4982 177.225 32.4982 176.81 32.9092C176.672 33.1832 175.567 33.5943 174.6 33.8683C173.495 34.1423 171.976 34.4163 171.147 34.6903C170.318 34.8273 168.384 35.2384 166.865 35.3754C165.208 35.5124 163.826 35.9234 163.688 36.3344C163.55 36.7454 162.445 37.0194 161.478 37.1564C160.511 37.1564 159.406 37.5675 159.268 37.8415C158.992 38.2525 158.854 38.2525 158.439 37.8415C158.025 37.2935 157.887 37.2934 157.334 38.1155C156.92 38.6635 156.091 39.0747 155.124 39.0747C154.295 39.0747 153.467 39.3486 153.329 39.6226C153.19 39.8966 152.776 40.1706 152.5 40.1706C152.085 40.1706 152.224 40.0336 152.5 39.6226C152.914 39.3486 152.914 39.0747 152.638 39.0747C152.362 39.0747 151.947 39.3486 151.533 39.7596C151.257 40.1707 150.98 40.1707 150.98 39.8967C150.98 39.6227 150.704 39.8966 150.566 40.1706C150.29 40.5817 149.599 40.9928 148.77 40.9928C147.942 40.9928 147.113 41.4037 146.837 41.5407C146.56 41.6777 146.284 41.5408 146.284 41.4038C146.284 40.9927 145.87 41.1297 145.041 41.6777C144.35 42.0888 143.798 42.3628 143.798 42.2258C143.798 42.0888 143.521 42.2258 143.107 42.4999C142.693 42.9109 142.416 42.9108 142.416 42.6368C142.416 42.3628 142.002 42.2258 141.45 42.4999C140.897 42.6369 140.621 43.0479 140.897 43.3219C141.173 43.5959 140.897 43.7329 139.93 43.5958C139.101 43.4588 138.549 43.5958 138.411 44.0069C138.273 44.5549 138.135 44.5549 137.72 44.0069C137.306 43.4588 137.168 43.4588 137.029 44.0069C137.029 44.4179 136.201 44.8289 135.51 45.1029C134.819 45.24 134.405 45.1029 134.543 45.1029C134.543 44.8289 134.543 44.6919 134.267 44.6919C133.991 44.6919 133.714 44.9659 133.714 45.1029C133.714 45.377 133.438 45.6511 133.024 45.9251C132.609 46.1991 132.333 46.062 132.609 45.651C132.748 45.24 132.609 45.24 132.057 45.377C130.676 45.9251 127.222 46.747 125.979 47.0211C125.841 47.0211 125.703 47.2951 125.979 47.5691C126.255 47.8431 126.117 47.9802 125.841 47.8432C125.565 47.7062 125.15 47.8431 125.012 47.9801C124.874 48.2541 124.46 48.3912 124.045 48.2542C123.631 48.2542 123.355 48.2541 123.355 48.5282C123.355 49.2132 120.73 49.7612 120.316 49.0762C120.04 48.8022 119.902 48.8022 119.625 49.3503C119.487 49.8983 119.073 50.0352 118.52 49.8982C118.106 49.7612 117.83 49.8983 118.106 50.1723C118.244 50.4463 117.968 50.7203 117.277 50.9943C116.587 51.1313 116.172 50.9943 116.31 50.8573C116.31 50.5833 116.034 50.4463 115.482 50.4463C114.929 50.4463 114.515 50.8574 114.515 51.2684C114.515 51.8164 114.238 51.9534 113.41 51.9534C112.857 51.9534 112.028 52.0904 111.752 52.3644C111.476 52.6384 111.061 52.6384 110.785 52.5014C110.647 52.3644 110.233 52.5014 109.818 52.9124C109.404 53.3234 108.851 53.5975 108.437 53.4605C108.023 53.4605 107.746 53.4605 107.746 53.7345C107.746 54.0085 107.47 54.1455 107.194 54.0085C106.918 53.8715 106.365 54.0085 106.089 54.2825C105.813 54.5565 104.984 54.8306 104.293 54.6936C103.602 54.6936 102.774 54.8305 102.221 55.3786C101.392 56.2006 101.392 56.2006 101.807 55.2415C102.497 53.8714 102.359 53.5975 101.531 53.5975C101.116 53.5975 100.978 53.8715 101.116 54.4195C101.254 54.8305 101.116 55.1046 100.84 55.1046C100.564 55.1046 100.426 55.3786 100.564 55.6526C100.702 55.9267 100.702 56.0636 100.564 56.0636C100.287 56.0636 99.5968 56.0636 98.9062 56.0636C97.9393 56.0636 97.8011 56.3377 98.4918 56.6117C99.0443 57.0227 99.0443 57.0227 98.0774 56.8857C97.3868 56.7487 96.4199 56.8857 95.7292 57.4337C95.1767 57.8447 93.9335 58.3928 93.2429 58.5298C91.171 58.9408 90.6185 59.2148 89.5134 59.8999C88.9609 60.3109 88.2703 60.3109 87.994 60.0369C87.7178 59.7629 87.1653 60.0369 86.4747 60.5849C85.9221 61.133 85.0933 61.544 84.5408 61.544C82.7452 61.544 81.9164 61.818 82.3308 62.229C82.607 62.503 82.3308 62.6401 81.6402 62.5031C81.0876 62.366 80.5352 62.503 80.5352 62.777C80.5352 63.051 80.2589 63.1881 79.8445 63.0511C79.4301 63.0511 79.0157 63.0511 78.8776 63.4621C78.6013 63.8731 78.3251 63.8731 77.9107 63.4621C77.3582 63.0511 77.0819 63.188 76.5294 64.1471C76.1151 64.6951 75.7006 65.1062 75.4244 64.9692C75.2863 64.8322 74.7337 64.9692 74.4575 65.2432C74.0431 65.5172 73.4906 65.6542 73.0762 65.6542C72.6618 65.6542 72.2475 65.6542 72.2475 65.9283C72.2475 66.2023 71.5568 66.4763 70.8662 66.7503C70.1756 66.8873 69.623 67.1613 69.623 67.1613C69.623 67.1613 69.3468 67.2983 68.9324 67.4354C68.518 67.4354 67.413 67.9833 66.4461 68.5313C65.4792 69.0794 64.3742 69.3534 64.0979 69.2164C63.8216 69.0794 63.6835 69.2165 63.6835 69.3535C63.6835 69.7645 60.6447 70.7235 58.7109 70.9975C58.1584 70.9975 57.744 71.4086 57.6059 71.6826C57.4678 72.2306 57.3297 72.2306 56.639 71.6826C55.9484 71.1345 55.8102 71.2715 56.2246 71.9566C56.5009 72.6416 56.3628 72.7786 55.3959 72.5046C54.5671 72.3676 54.1527 72.5047 54.1527 72.7787C54.1527 73.0527 53.8764 73.1897 53.7383 73.0526C53.462 72.9156 52.7714 73.0526 52.2189 73.4636C51.6664 73.8747 50.8376 74.1487 50.5614 74.0117C50.147 74.0117 50.0088 74.0117 50.0088 74.4227C50.0088 74.6967 49.7326 74.8338 49.3182 74.6968C48.9038 74.5598 48.6276 74.6968 48.6276 75.1078C48.6276 75.3818 48.3513 75.5188 47.937 75.5188C47.5226 75.5188 47.2463 75.5188 47.2463 75.6558C47.2463 75.9298 46.6938 76.0668 45.865 76.0668C45.0362 76.0668 44.2075 76.3409 43.7931 77.0259C43.5169 77.5739 42.4118 78.1219 41.4449 78.396C40.478 78.67 39.5112 79.081 39.0968 79.355C38.8205 79.629 38.5442 79.629 38.5442 79.355C38.5442 79.081 38.4061 79.218 38.1299 79.4921C37.9918 79.7661 37.1629 80.1771 36.4723 80.4511C35.6435 80.5881 34.8148 80.9991 34.5385 81.2731C34.2623 81.5471 32.7429 82.2322 31.3616 82.7802C29.9803 83.3282 28.3228 84.0133 27.7703 84.2873C27.2178 84.5613 25.8364 84.9724 24.5933 85.3834C23.3501 85.7944 21.6926 86.4795 20.7257 86.8905C19.7588 87.3015 19.0682 87.7125 19.0682 87.5755C19.0682 87.5755 18.1013 87.9865 17.1344 88.6716C16.1675 89.3566 15.0625 89.6307 14.7862 89.3567C14.6481 89.0826 14.7863 88.8086 14.9244 88.6716C15.2006 88.3976 15.2006 88.5346 14.9244 88.6716C14.6481 88.6716 14.3718 89.2196 14.51 89.6306C14.6481 90.4527 13.5431 91.2748 12.7143 90.8638C12.4381 90.7268 12.2999 90.8637 12.2999 91.0007C12.2999 91.4117 10.0899 92.7819 9.12298 92.7819C8.84672 92.7819 8.43235 92.5078 8.43235 92.2338C8.43235 91.9598 8.15611 92.2338 8.01798 92.7819C7.74173 93.4669 7.46545 93.8779 7.18919 93.7409C6.91294 93.7409 6.36042 93.7409 5.94604 94.289C5.2554 94.974 4.97913 94.837 5.11725 93.878C5.11725 93.6039 4.97914 93.6039 4.70289 93.878C4.42663 94.015 4.2885 94.426 4.42663 94.837C4.42663 95.111 3.87413 95.796 3.04537 96.344C1.66409 97.1661 1.38785 97.1661 1.38785 96.6181C1.38785 96.07 1.11157 96.07 0.559059 96.344C-0.13158 96.618 -0.131587 96.618 0.282797 95.933C0.973437 94.9739 4.84101 92.7818 5.66978 92.9188C6.08416 92.9188 6.08417 92.9188 5.94604 92.9188C5.66979 92.9188 6.91292 91.9598 8.84671 91.1377C10.7805 90.3157 12.7143 89.2196 13.5431 88.8086C14.3718 88.3976 16.1675 87.4385 17.6869 86.6164C19.2063 85.7944 20.5876 85.2463 20.8639 85.1093C21.1401 85.1093 21.8307 84.6983 22.6595 84.2873C23.9027 83.6023 24.0408 83.6023 24.7315 84.2873C25.4221 85.1094 25.4221 85.1093 25.1458 84.1503C24.8696 83.3282 25.2839 82.9172 28.3228 81.6841C30.2565 80.8621 32.0522 80.1771 32.4666 80.0401C32.7429 80.0401 33.5716 79.629 34.1242 79.218C35.7817 77.9849 52.2189 71.5456 52.9096 71.8196C53.1858 71.9566 53.3239 71.8196 53.0477 71.8196C52.4952 71.2716 59.5397 68.5313 76.8057 62.0919C95.7292 55.1045 95.1767 55.3786 95.8673 55.6526C96.1436 55.7896 96.4199 55.6526 96.2817 55.5156C96.2817 55.2416 97.1105 54.8305 98.0774 54.4195C99.0443 54.0085 102.497 52.9125 105.674 51.6794C108.851 50.5833 111.614 49.7612 111.752 49.8982C112.028 49.8982 112.166 49.8983 112.166 49.7613C112.166 49.4873 113.548 48.9392 115.343 48.5282C117.139 48.1171 119.211 47.2951 120.04 47.0211C120.868 46.61 123.769 45.651 126.532 44.829C129.294 44.0069 135.51 42.0887 140.206 40.5816C153.052 36.4714 167.97 32.7723 175.015 31.6762C176.396 31.5392 177.501 31.1281 177.639 30.9911C177.915 30.5801 170.733 31.5392 168.661 32.0872C165.898 32.7722 159.959 34.2793 159.544 34.2793C159.406 34.2793 159.13 34.1423 159.13 33.8683C159.13 33.5943 159.959 33.1832 160.926 32.9092C161.892 32.6352 163.136 32.3612 163.688 32.2242C167.003 31.4022 169.628 30.7171 170.456 30.7171C171.009 30.7171 173.495 30.4431 175.982 30.1691C181.507 29.6211 183.302 30.1691 185.098 33.0463C186.203 34.8274 186.203 35.1014 185.512 36.6085C185.098 37.5676 184.545 38.1156 184.269 37.9786C183.993 37.8416 183.993 37.9785 184.131 38.3896C184.269 38.8006 184.131 39.0746 183.993 39.2116C183.717 39.2116 182.612 40.1706 181.645 41.1297C178.744 44.1439 177.915 44.8289 177.639 44.5549C177.501 44.4179 177.363 44.555 177.363 44.829C177.363 45.103 177.087 45.377 176.672 45.377C176.258 45.377 175.567 45.925 175.153 46.473C174.186 47.8431 172.39 48.9392 172.943 47.9801C173.081 47.5691 172.805 47.9801 172.114 48.6652C171.423 49.4872 170.456 50.0353 169.904 50.1723C169.351 50.1723 168.937 50.4463 169.075 50.7203C169.075 50.9944 168.799 51.4053 168.108 51.4053C167.418 51.4053 166.451 52.2274 165.622 53.1865C164.931 54.1455 164.103 54.6936 163.688 54.5565C163.412 54.4195 162.721 54.8306 162.031 55.6526C160.926 57.0227 160.235 57.2967 158.439 57.5707C157.749 57.5707 157.749 57.7078 158.439 58.1188C159.13 58.5298 159.13 58.5297 158.439 58.6667C157.887 58.6667 157.611 58.9408 157.611 59.2148C157.611 59.4888 157.334 59.6259 156.92 59.4889C156.506 59.3518 156.229 59.4889 156.506 59.6259C156.782 60.0369 155.815 60.7219 154.71 60.7219C154.434 60.7219 153.881 61.2699 153.329 61.818C152.776 62.366 152.085 62.777 151.671 62.64C151.257 62.64 150.98 62.6401 151.118 63.0511C151.118 63.3251 151.119 63.599 150.704 63.599C150.29 63.599 150.152 63.5991 150.152 64.0101C150.152 64.2842 149.875 64.5581 149.461 64.5581C149.047 64.5581 148.494 64.9692 148.218 65.3802C147.942 65.7912 147.389 66.0653 146.975 65.9283C146.56 65.9283 146.422 65.9282 146.56 66.2022C146.698 66.4762 146.56 66.7503 146.146 66.7503C145.732 66.7503 144.903 67.2983 144.488 67.8464C143.936 68.3944 143.383 68.8054 143.107 68.6684C142.831 68.5314 142.693 68.6683 142.693 68.9424C142.693 69.2164 141.726 69.9014 140.621 70.5865C139.378 71.1345 138.549 71.8196 138.549 72.0936C138.549 72.3676 137.996 72.9156 137.168 73.4636C136.339 74.0117 135.924 74.5597 136.063 74.8337C136.201 75.1077 136.063 75.3818 135.924 75.3818C135.648 75.3818 135.372 75.6558 135.372 75.7928C135.372 76.6148 137.168 76.4779 140.068 75.5188C142.278 74.8338 143.107 74.6968 143.66 75.1078C144.074 75.5188 144.212 75.5188 143.936 75.1078C143.66 74.6968 143.936 74.4228 144.903 74.1487C145.593 73.8747 147.113 73.4637 148.218 73.0526C149.323 72.6416 152.362 71.5455 155.124 70.4494C157.887 69.4904 163.136 67.4353 166.865 66.0652C170.595 64.6951 173.772 63.3251 174.048 63.3251C174.324 63.3251 174.877 63.0511 175.291 62.9141C175.705 62.7771 179.573 61.27 183.855 59.6259C188.275 57.9818 194.076 55.7897 196.839 54.6936C200.292 53.3235 201.95 52.9125 202.364 53.1865C202.64 53.4605 203.055 53.5975 203.331 53.5975C203.607 53.5975 203.331 53.3234 202.778 52.9124C201.95 52.3644 201.95 52.2274 202.64 52.2274C203.055 52.2274 204.988 51.5424 206.922 50.7203C208.856 50.0353 213 48.3912 215.901 47.2951C218.939 46.1991 224.603 44.007 228.608 42.4999C234.41 40.3077 235.791 39.8967 236.205 40.4447C236.62 40.9927 236.62 40.8557 236.62 40.3077C236.62 39.8967 236.896 39.3486 237.448 39.2116C238.553 38.8006 248.775 35.1013 253.748 33.3202C255.819 32.4982 258.582 31.6761 259.687 31.2651C260.93 30.8541 262.726 30.3061 263.831 29.7581C266.732 28.662 305.96 15.2352 307.065 15.0982C307.617 15.0982 308.308 14.8242 308.723 14.5502C309.828 14.0021 316.043 11.947 317.148 11.673C319.497 11.125 322.259 10.0289 322.121 9.61786C322.121 9.34384 320.187 9.89187 317.839 10.5769C315.491 11.399 312.59 12.358 311.485 12.6321C310.242 13.0431 307.894 13.7281 306.236 14.4131C304.579 15.0982 293.805 18.6604 282.478 22.6336C271.014 26.4698 259.549 30.4431 256.925 31.4021C250.847 33.5942 249.051 34.0053 248.913 33.4573C248.913 33.1832 252.09 31.9502 255.958 30.5801C259.825 29.21 264.522 27.5659 266.455 26.8808C272.257 24.8257 298.363 15.9202 305.131 13.728C316.734 9.89181 318.53 9.20682 318.668 8.11076C318.806 7.42571 318.668 7.28872 318.391 7.69975C317.977 8.11077 317.701 8.11077 317.148 7.69975C316.596 7.28872 316.458 7.28872 316.734 7.69975C317.01 7.97376 316.872 8.24779 316.734 8.24779C316.181 8.24779 315.905 7.56271 316.043 6.60366C316.043 6.32964 315.767 6.46668 315.491 6.74069C314.8 7.56274 313.971 7.56267 314.386 6.87763C314.524 6.60361 314.386 6.46668 313.971 6.74069C313.557 6.8777 313.143 6.74065 312.866 6.05561C312.728 5.50758 312.176 5.09656 311.761 5.09656C311.347 5.09656 311.071 4.8225 311.071 4.41147C311.071 4.00045 310.656 3.7265 310.38 3.7265C309.966 3.7265 309.551 3.5895 309.413 3.31549C308.999 2.76745 311.209 3.17846 311.761 3.7265C312.038 4.00051 312.314 4.13744 312.452 3.86343C313.004 3.3154 311.071 2.2194 309.689 2.2194C308.861 2.2194 308.722 2.49337 308.861 4.00047C308.861 4.95952 309.137 5.6446 309.413 5.6446C309.689 5.6446 309.689 5.23358 309.413 4.68555C309.137 3.8635 309.275 3.72645 309.828 4.00047C310.38 4.13747 310.518 4.54855 310.518 5.23359C310.38 5.91864 310.518 6.05566 311.209 5.78164C312.176 5.37062 313.004 6.19259 312.452 6.87763C312.314 7.01464 312.038 6.87767 311.899 6.60366C311.761 6.05562 311.485 6.05562 310.933 6.60366C310.518 7.01468 310.242 7.01468 310.242 6.60366C310.242 6.19263 309.689 6.1926 308.584 6.46662C307.756 6.60363 307.203 6.60363 307.617 6.46662C308.032 6.1926 308.032 5.78155 307.617 5.37053C307.341 4.9595 307.203 4.95959 306.927 5.78164C306.789 6.7407 305.131 7.42568 305.131 6.46662C305.131 6.1926 304.717 5.91865 304.302 5.78164C303.888 5.64463 303.612 5.78156 303.888 5.91857C304.026 6.19259 303.888 6.46665 303.75 6.60366C303.474 6.74066 303.197 6.60363 302.921 6.46662C302.645 6.05559 302.369 6.1926 301.954 6.46662C301.54 6.87764 301.125 6.74064 300.711 6.46662C300.159 5.91859 299.882 5.91859 299.468 6.46662C298.777 7.15166 296.844 7.0147 296.153 6.19265C295.877 5.78162 295.738 5.91863 295.738 6.19265C295.738 6.46666 295.462 6.87769 295.048 7.1517C294.633 7.28871 294.357 7.28871 294.495 7.1517C294.495 6.87769 294.495 6.46664 294.219 6.05561C293.805 5.64459 293.667 5.50758 293.805 6.05561C293.805 6.46664 293.528 6.74069 293.114 6.74069C292.7 6.74069 292.423 6.60367 292.7 6.19265C292.838 5.78162 292.7 5.78159 292.423 6.05561C292.147 6.19262 291.871 6.87761 291.871 7.28863C291.871 7.83667 291.871 7.83673 291.595 7.56271C291.456 7.28869 291.042 7.15163 290.628 7.28863C290.213 7.42564 289.937 7.28863 289.937 7.28863C289.937 7.01462 289.385 6.87766 288.694 7.01466C288.003 7.01466 287.451 7.28872 287.451 7.69975C287.451 8.24778 287.313 8.24771 286.76 7.83668C286.208 7.42566 285.517 7.42566 284.274 7.83668C283.169 8.24771 282.478 8.24771 282.202 7.83668C282.064 7.56266 281.649 7.83677 281.235 8.24779C280.682 9.06984 280.683 9.06978 280.544 7.97372C280.544 7.15167 280.406 7.01468 280.268 7.56271C280.268 8.11074 279.854 8.24776 279.578 8.11076C279.301 7.97375 278.887 8.11074 278.611 8.52176C278.334 9.0698 278.196 9.06984 278.196 8.24779C278.196 7.42574 278.196 7.42574 277.229 8.24779C276.539 8.93283 276.124 9.06983 275.572 8.6588C275.019 8.24778 274.881 8.24778 274.743 8.6588C274.467 9.75487 266.593 9.20682 266.455 8.11076C266.455 7.56272 267.422 7.2887 270.737 6.60366C272.257 6.32964 273.914 6.05558 274.329 5.91857C275.986 5.50755 280.268 5.23355 280.821 5.50757C281.097 5.64457 281.373 5.50761 281.649 5.23359C281.788 4.95958 282.478 4.82259 283.169 4.82259C283.86 4.82259 284.412 4.82253 284.412 4.54851C284.412 4.27449 284.688 4.13753 285.103 4.27454C285.517 4.27454 285.931 4.27445 286.07 3.86343C286.346 3.4524 284.55 3.17843 283.169 3.58946C282.893 3.58946 281.373 3.86346 279.716 4.00047C278.058 4.13747 276.539 4.41153 276.401 4.68555C276.401 4.82256 274.329 5.23355 271.98 5.50757C269.218 5.78158 268.113 5.78158 268.665 5.50757C269.632 4.95953 275.157 3.86346 282.064 3.04141C284.55 2.7674 286.76 2.35643 286.76 2.35643C286.76 2.35643 287.451 2.21937 288.28 2.08236C289.385 1.94535 289.661 2.08237 289.523 2.6304C289.385 3.31545 289.246 3.31547 288.832 2.76744C288.418 2.21941 288.28 2.21941 288.141 2.76744C288.141 3.17847 287.589 3.45242 287.313 3.45242C286.898 3.45242 286.622 3.72645 286.622 4.00047C286.622 4.41149 291.733 4.00045 292.562 3.45242C292.7 3.45242 293.114 3.45248 293.252 3.7265C293.528 4.13752 293.39 4.13744 292.976 3.86343C292.562 3.58941 292.423 3.72648 292.7 4.1375C292.976 4.54853 293.252 4.54847 293.943 3.86343C294.357 3.4524 294.91 3.17845 294.91 3.17845C294.91 3.17845 295.877 3.45245 296.705 3.58946C297.949 3.72647 298.225 3.58947 297.949 3.17845C297.81 2.90443 297.948 3.0414 298.501 3.45242C298.915 4.00045 299.33 4.13752 299.33 3.7265C299.33 3.45248 299.468 3.17848 299.744 3.31549C300.02 3.4525 300.297 3.31546 300.159 3.17845C300.159 2.90443 300.987 2.76737 301.954 2.90437C303.612 2.90437 303.75 2.90441 303.336 2.08236C303.059 1.1233 303.197 1.1233 305.269 1.1233C306.513 1.1233 307.894 1.12336 308.17 1.39738C308.446 1.53439 309.275 1.53439 309.966 1.39738C310.656 1.26037 311.347 1.39733 311.347 1.67135C311.347 1.94537 311.623 2.0824 311.899 1.80839C312.176 1.67138 312.452 1.80837 312.452 2.2194C312.452 2.63042 313.143 2.9044 314.524 3.04141C315.629 3.04141 316.458 3.04146 316.458 2.76744C316.458 2.35642 315.353 2.21935 313.833 2.49337C313.281 2.49337 313.005 2.49338 313.281 2.08236C313.557 1.53433 317.839 1.67136 318.668 2.2194C318.944 2.3564 320.463 2.63043 321.845 2.76744C324.745 2.90445 331.375 5.23353 331.099 5.91857C331.099 6.19259 331.099 6.46665 331.652 6.60366C332.066 6.74066 332.342 7.01462 332.204 7.28863C332.204 7.56265 332.204 7.83668 332.619 7.83668C333.033 7.83668 333.447 9.06977 333.586 10.8509C333.862 13.18 333.586 13.8651 332.757 14.9612L334 13.8651ZM273.776 6.46662C273.776 6.46662 273.5 6.46662 273.086 6.46662C272.671 6.46662 272.533 6.74062 272.671 6.87763C272.947 7.15164 273.914 6.87767 273.776 6.60366V6.46662ZM275.296 6.46662C275.296 6.46662 275.296 5.78164 275.019 5.78164C275.019 5.78164 274.743 6.19263 274.605 6.60366C274.605 7.01468 274.605 7.28863 274.881 7.28863C275.157 7.28863 275.296 6.87767 275.296 6.60366V6.46662ZM299.882 3.86343C299.882 3.86343 299.054 3.3154 298.225 3.86343C297.672 4.27445 297.81 4.41155 298.915 4.27454C299.744 4.27454 300.159 4.00051 300.02 3.7265L299.882 3.86343ZM305.546 3.58946C305.546 3.58946 305.131 3.17845 304.717 3.17845C304.302 3.17845 304.026 3.45248 304.026 3.7265C304.026 4.00051 304.441 4.1375 304.855 4.1375C305.269 4.1375 305.546 3.86347 305.546 3.58946ZM308.308 0.712296C308.308 0.712296 307.894 0.71225 307.894 0.986267C307.894 1.39729 307.617 1.39729 306.927 0.986267C306.006 0.529573 305.546 0.712263 305.546 1.53431C305.546 1.53431 305.684 2.3564 305.96 2.2194C306.236 2.08239 306.927 2.21942 307.341 2.35643C308.17 2.76746 308.308 2.63044 308.446 1.80839C308.446 1.26035 308.446 0.712267 308.17 0.575259L308.308 0.712296ZM314.662 3.04141C314.662 3.04141 314.248 2.6304 314.11 2.6304C314.11 2.6304 313.833 2.90443 313.971 3.17845C313.971 3.45247 314.248 3.58946 314.524 3.58946C314.8 3.58946 314.938 3.31543 314.662 3.04141ZM321.016 3.58946C321.016 3.58946 320.602 3.17845 320.463 3.17845C320.463 3.17845 320.187 3.45248 320.325 3.7265C320.325 4.00051 320.602 4.1375 320.878 4.1375C321.154 4.1375 321.292 3.86347 321.016 3.58946ZM22.9358 85.1093C22.9358 85.1093 21.9689 85.1094 21.6926 85.5204C21.5545 85.7945 21.6927 85.9314 22.107 85.6574C22.5214 85.5204 22.7977 85.2463 22.7977 85.1093H22.9358ZM96.8343 56.3376C96.8343 56.3376 96.558 55.7896 96.2817 55.6526C96.0055 55.5156 95.7292 55.6526 95.8673 55.9266C95.8673 56.2006 96.1436 56.4747 96.4198 56.6117C96.6961 56.7487 96.9724 56.6116 96.8343 56.3376ZM111.476 50.5833C111.476 50.5833 110.785 50.7203 111.2 50.8573C111.614 50.8573 112.028 50.8573 112.166 50.8573C112.305 50.7203 112.028 50.5833 111.476 50.7203V50.5833ZM127.222 45.377C127.222 45.377 126.117 45.6511 126.117 45.9251C126.117 46.4731 126.67 46.3361 127.637 45.788C128.189 45.377 128.189 45.377 127.222 45.377ZM139.378 69.6274C139.378 69.6274 136.201 71.6826 135.648 72.7787C135.372 73.3267 136.063 72.7787 137.306 71.8196C138.411 70.7235 139.378 69.7644 139.378 69.6274ZM140.759 68.3944C139.654 69.4905 139.654 69.4904 140.759 68.9424C141.311 68.6683 141.864 68.1204 142.14 67.8464C142.555 67.0243 142.14 67.2983 140.897 68.3944H140.759ZM143.66 66.3393C142.693 67.2983 142.555 67.2983 143.66 66.7503C144.212 66.4763 144.765 65.9282 145.041 65.6542C145.455 64.9691 145.041 65.1062 143.798 66.2022L143.66 66.3393ZM148.356 63.3251C148.356 63.3251 148.08 63.0511 147.113 64.0101C146.284 64.8322 146.284 64.8321 147.251 64.1471C147.803 63.8731 148.356 63.4621 148.356 63.3251ZM153.052 60.1738C153.052 60.1738 152.776 59.8999 151.809 60.8589C150.98 61.681 150.98 61.681 151.947 60.996C152.5 60.7219 153.052 60.3108 153.052 60.1738ZM154.019 59.4889C154.019 59.4889 153.605 60.0369 154.019 60.0369C154.295 60.0369 154.71 59.7629 154.848 59.4889C155.124 58.9408 154.986 58.9408 154.157 59.4889H154.019ZM157.611 57.0227C157.611 57.0227 156.92 57.8447 157.196 57.7077C157.472 57.7077 158.025 57.2967 158.301 56.8857C158.992 55.9266 158.716 55.9266 157.611 56.8857V57.0227ZM159.959 55.3786C159.959 55.3786 159.268 56.2007 159.544 56.0636C159.821 56.0636 160.373 55.6525 160.649 55.2415C161.34 54.2825 161.064 54.2825 159.959 55.2415V55.3786ZM164.379 52.6384C164.379 52.6384 164.103 52.3644 163.136 53.3234C162.307 54.1455 162.307 54.1455 163.274 53.4605C163.826 53.1864 164.379 52.7755 164.379 52.6384ZM168.108 49.7613C168.108 49.7613 164.793 51.8164 164.793 52.0904C164.793 52.3644 166.036 51.6794 167.418 50.5833C167.97 50.1723 168.246 49.7613 168.108 49.7613ZM171.838 47.2951C171.838 47.2951 171.561 47.021 170.595 47.9801C169.766 48.8022 169.766 48.8022 170.733 48.1171C171.285 47.8431 171.838 47.4321 171.838 47.2951ZM173.219 46.062C172.114 47.1581 172.114 47.1581 173.219 46.61C173.771 46.336 174.324 45.788 174.6 45.514C175.015 44.6919 174.6 44.9659 173.357 46.062H173.219ZM176.12 43.8699C175.015 44.966 175.015 45.1029 176.12 44.5549C176.672 44.2809 177.363 43.7329 177.501 43.3219C178.053 42.3628 177.501 42.6368 176.258 43.8699H176.12ZM179.435 41.5407C179.435 41.5407 179.02 41.4037 178.468 42.2258C177.915 43.0478 177.915 43.0479 178.606 42.4999C179.02 42.0888 179.435 41.6777 179.435 41.5407ZM184.545 36.6085C184.545 36.6085 185.098 36.3345 185.098 36.0605C185.098 35.7864 185.098 35.6494 184.822 35.6494C184.822 35.6494 184.545 35.9234 184.269 36.1974C184.131 36.4714 184.269 36.7455 184.545 36.6085ZM181.369 39.4857C179.849 41.1298 179.849 41.1297 181.092 40.5816C181.783 40.1706 182.335 39.7596 182.197 39.7596C182.197 39.7596 182.197 39.3486 182.75 38.9376C183.302 38.5266 183.44 38.1155 183.302 38.1155C183.164 38.1155 182.335 38.6635 181.369 39.6226V39.4857ZM136.201 70.9975C137.168 70.1754 139.24 68.2574 141.173 66.8873C144.765 64.1471 158.992 54.5565 159.544 54.5565C159.682 54.5565 160.649 54.0085 161.478 53.1865C162.307 52.5014 163.136 51.8163 163.412 51.8163C163.55 51.8163 164.379 51.4053 165.069 50.8573C165.76 50.3092 169.075 47.8431 172.528 45.24C175.982 42.6368 179.573 39.8967 180.54 38.9376C183.026 36.4715 181.783 36.8825 179.02 39.3486C177.087 41.1297 171.009 45.788 166.865 48.6652C166.313 49.0762 164.103 50.5833 161.892 52.0904C159.682 53.5975 156.92 55.5156 155.815 56.2007C154.572 56.8857 153.19 57.8447 152.5 58.3928C151.809 58.8038 149.461 60.4478 147.113 62.0919C141.45 65.9282 134.129 71.6826 134.267 72.2306C134.267 72.9157 135.096 72.3677 136.615 70.8606L136.201 70.9975ZM134.958 75.2448C134.958 75.2448 134.681 74.9708 134.405 75.1078C134.129 75.1078 133.991 75.3818 133.991 75.6558C133.991 75.9298 134.267 76.0668 134.543 75.7928C134.819 75.6558 134.958 75.3818 134.958 75.2448ZM135.924 74.4227C135.924 74.4227 135.648 74.0117 135.372 74.0117C135.096 74.0117 134.958 74.2857 135.234 74.5597C135.372 74.8338 135.648 74.9707 135.786 74.9707C135.786 74.9707 136.063 74.6967 135.924 74.4227ZM154.848 71.1345C154.848 71.1345 153.467 71.1346 152.638 71.8196C151.809 72.5047 151.809 72.5046 153.329 71.9566C154.157 71.5455 154.848 71.2715 154.848 71.1345ZM156.782 70.3125C156.782 70.3125 156.367 70.8606 156.782 70.8606C157.058 70.8606 157.472 70.5865 157.611 70.3125C157.887 69.7645 157.749 69.7645 156.92 70.3125H156.782ZM169.49 65.6542C169.49 65.6542 169.075 65.2432 168.937 65.2432C168.937 65.2432 168.661 65.5172 168.523 65.7912C168.385 66.0652 168.523 66.3392 169.075 66.2022C169.49 66.2022 169.766 65.9282 169.49 65.6542ZM180.54 61.1329C180.54 61.1329 179.711 61.4069 179.297 61.6809C178.882 61.9549 178.882 62.229 179.02 62.229C179.297 62.229 179.849 61.9549 180.264 61.6809C180.678 61.4069 180.678 61.1329 180.54 61.1329ZM193.938 56.4747C193.938 56.4747 193.524 55.9266 192.695 56.4747C192.143 56.8857 192.143 57.0227 193.109 56.8857C193.8 56.8857 194.076 56.6116 193.938 56.3376V56.4747ZM230.68 42.6368C230.68 42.6368 230.68 42.0888 229.713 42.6368C229.161 43.0478 229.161 43.1848 229.852 43.0478C230.404 43.0478 230.68 42.7739 230.68 42.4999V42.6368ZM243.112 37.5676C243.112 37.5676 242.559 37.8415 242.421 38.1155C242.283 38.3895 242.421 38.6636 242.697 38.5266C242.974 38.5266 243.25 38.2526 243.388 37.9786C243.526 37.7045 243.388 37.4305 243.112 37.5676ZM262.726 30.7171C262.726 30.7171 261.759 30.7171 261.483 31.1281C261.345 31.4022 261.483 31.5391 261.897 31.2651C262.312 31.1281 262.588 30.8541 262.588 30.7171H262.726ZM286.76 46.8841C286.76 46.8841 285.793 46.8841 285.517 47.2951C285.379 47.5691 285.517 47.7061 285.931 47.4321C286.346 47.2951 286.622 47.0211 286.622 46.8841H286.76ZM288.694 44.5549C288.694 44.5549 288.003 44.5549 287.727 45.1029C287.313 45.925 287.313 46.062 287.865 46.062C288.28 46.062 288.694 45.788 288.832 45.514C288.97 45.2399 288.832 44.8289 288.694 44.5549ZM291.733 39.8967C291.733 39.8967 290.352 40.8557 289.799 40.8557C288.97 40.9927 288.418 42.6368 289.246 42.6368C289.523 42.6368 289.523 42.2258 289.385 41.8148C289.108 41.1297 289.246 41.1297 290.213 41.5407C291.18 41.9517 291.318 41.9517 290.904 41.5407C290.628 41.1297 290.766 40.9927 291.457 41.2667C292.009 41.4037 292.147 41.4037 292.009 41.2667C291.871 41.1297 292.009 40.4447 292.423 40.0337C293.39 38.8006 293.114 38.8006 291.733 40.0337V39.8967ZM294.91 37.7045C294.91 37.7045 294.357 37.7045 294.081 38.2525C293.805 38.6636 293.667 39.0746 293.805 39.2116C293.943 39.2116 294.357 39.2116 294.633 38.6635C294.91 38.2525 295.048 37.8415 294.91 37.7045ZM296.153 40.5816C296.153 40.5816 295.877 40.3077 295.6 40.4447C295.324 40.4447 295.186 40.7187 295.186 40.9928C295.186 41.2668 295.462 41.4037 295.738 41.1297C296.015 40.9927 296.153 40.7187 296.153 40.5816ZM298.087 39.4857C298.087 39.4857 297.12 39.4856 296.844 39.8967C296.705 40.1707 296.844 40.3077 297.258 40.0337C297.672 39.8967 297.949 39.6227 297.949 39.4857H298.087ZM300.711 34.5534V34.4163C300.711 34.4163 300.297 34.5533 299.744 34.6903C299.33 34.8273 298.915 35.1014 298.915 35.3754C298.915 35.6494 299.33 35.6494 299.882 35.3754C300.435 35.1014 300.849 34.6904 300.849 34.5534H300.711ZM303.336 33.3202C303.336 33.3202 302.921 32.7722 302.092 33.3202C301.678 33.5942 301.264 33.7313 300.987 33.5943C300.711 33.5943 300.711 33.5943 300.987 34.1423C301.264 34.8274 301.402 34.6904 301.954 34.1423C302.369 33.7313 302.921 33.5942 303.197 33.7312C303.474 33.8682 303.612 33.7313 303.336 33.4573V33.3202ZM306.098 34.2793C306.098 34.2793 305.684 34.1423 305.407 34.1423C304.993 34.1423 304.717 34.4163 304.717 34.6903C304.717 34.9643 305.131 34.9643 305.407 34.8273C305.822 34.6903 306.098 34.4163 306.098 34.2793ZM304.993 31.5392C304.993 31.5392 304.026 32.2242 304.302 32.2242C304.579 32.2242 305.269 31.8131 305.684 31.4021C306.789 30.4431 306.513 30.4431 304.855 31.4021L304.993 31.5392ZM309.413 29.347C309.137 28.7076 308.584 28.799 307.756 29.621C307.756 29.621 306.927 30.5801 307.203 30.5801C307.479 30.5801 307.894 30.3061 308.032 30.0321C308.17 29.758 308.584 29.6211 308.999 29.7581C309.551 29.8951 309.551 29.7581 309.413 29.21V29.347ZM310.656 27.5659C310.656 27.5659 310.104 27.8399 309.966 28.114C309.828 28.388 309.966 28.662 310.242 28.525C310.518 28.525 310.794 28.2509 310.933 27.9769C311.071 27.7029 310.933 27.4289 310.656 27.5659ZM315.215 27.8399C315.215 27.8399 314.386 28.251 313.833 28.662C313.281 29.073 313.143 29.347 313.419 29.347C313.695 29.347 314.248 28.936 314.8 28.525C315.353 28.1139 315.491 27.8399 315.215 27.8399ZM315.215 24.4147C315.215 24.4147 314.8 24.9627 315.215 24.9627C315.491 24.9627 315.905 24.6887 316.043 24.4147C316.32 23.8666 316.181 23.8666 315.353 24.4147H315.215ZM322.95 22.7706C322.95 22.7706 322.397 22.4966 321.154 23.1816C320.602 23.4557 320.049 23.8667 320.187 24.1407C320.187 24.4147 320.878 24.1407 321.707 23.8667C322.535 23.4557 323.088 23.0447 323.088 22.9077L322.95 22.7706ZM17.2725 86.2054C18.1013 85.9314 18.9301 85.5204 19.2063 85.2464C19.4826 85.1094 20.0351 84.8354 20.3114 84.8354C21.2783 84.6983 32.7429 79.492 33.1573 78.944C33.4335 78.67 33.8479 78.533 34.1242 78.533C35.2292 78.533 46.8319 73.1897 46.8319 72.7787C46.8319 72.2306 47.6607 71.9566 39.6492 75.3818C29.9803 79.492 17.8251 85.2463 16.8582 86.0684C16.1675 86.7534 16.1675 86.7535 17.4107 86.2054H17.2725ZM15.0625 87.0275C15.8913 86.0685 15.7531 86.0684 13.405 87.3015C12.2999 87.8495 10.3661 88.9456 8.84671 89.6306C7.46544 90.3157 5.66981 91.2747 4.84104 91.6858C4.01228 92.0968 3.59787 92.5078 3.736 92.6448C4.15038 92.9188 14.2337 87.9866 15.0625 87.0275ZM1.38785 94.4259C1.38785 94.4259 1.66409 93.878 2.07848 93.878C2.49286 93.878 2.7691 93.6039 2.7691 93.3299C2.7691 92.6449 2.49284 92.7819 1.24969 93.878C0.697177 94.426 0.420908 94.837 0.697164 94.837C0.97342 94.837 1.24969 94.563 1.24969 94.289L1.38785 94.4259ZM268.389 5.91857C268.389 5.91857 268.804 5.50754 268.804 5.37053C268.804 5.37053 268.527 5.09659 268.251 5.23359C267.975 5.23359 267.837 5.50762 267.837 5.78164C267.837 6.05566 268.113 6.19259 268.389 5.91857ZM309.828 7.01466C309.828 7.01466 309.828 6.74069 309.137 6.74069C308.446 6.74069 308.17 6.87766 308.584 7.01466C308.999 7.01466 309.413 7.01466 309.828 7.01466ZM49.5945 71.8196C50.6995 71.2716 52.0808 70.8605 52.357 70.7235C53.8764 70.4495 67.413 64.8322 67.6893 64.4212C67.8274 64.1471 67.9655 64.0101 68.1036 64.1471C68.6561 64.4211 91.4472 56.2006 92.4141 55.3786C92.6904 55.1045 93.1048 54.9676 93.2429 55.1046C93.5192 55.3786 98.3536 53.7345 99.1824 53.1865C99.4587 53.0495 99.873 52.7755 100.149 52.7755C100.564 52.7755 104.155 51.5423 111.614 49.0762C113.686 48.3912 116.31 47.4321 117.415 47.0211C118.52 46.61 120.178 46.062 121.145 45.788C122.112 45.514 123.079 45.103 123.355 44.829C123.631 44.555 123.907 44.4179 123.907 44.5549C123.907 44.6919 124.598 44.5549 125.427 44.2809C126.256 44.0069 127.637 43.5959 128.466 43.3219C129.294 43.1849 130.261 42.7739 130.676 42.4999C131.09 42.2258 132.195 41.9518 133.3 41.6777C134.405 41.4037 137.858 40.4447 141.035 39.4857C146.008 37.9786 151.533 36.3345 152.362 36.0605C152.362 36.0605 154.157 35.6494 156.091 35.1014C158.301 34.5534 159.544 34.0053 159.544 33.5943C159.544 33.3203 159.544 32.9092 159.406 33.0463C159.406 33.0463 157.058 33.7313 154.157 34.5534C151.257 35.3754 148.632 36.1974 148.08 36.3344C143.521 37.5675 129.294 41.9518 123.769 43.8699C122.802 44.1439 121.697 44.5549 121.145 44.6919C119.902 44.966 106.365 49.4872 103.879 50.5833C101.807 51.4053 101.116 51.6793 84.4027 57.7077C70.1755 62.777 53.1858 69.4905 53.1858 69.9015C53.1858 70.0385 52.6333 70.3124 51.9427 70.4494C50.4233 70.5865 46.6938 72.3676 47.1082 72.6416C47.2463 72.6416 48.3513 72.5046 49.4564 71.9566L49.5945 71.8196ZM281.373 43.1848C281.373 43.1848 282.893 42.2257 283.998 41.5407C285.103 40.8557 286.346 40.0336 286.898 39.7596C289.246 38.5266 292.838 35.6494 292.423 35.3754C292.147 35.1014 292.423 35.1014 292.7 35.3754C293.39 35.6494 297.12 33.5943 297.12 32.9092C297.12 32.6352 297.534 32.4982 298.087 32.4982C298.639 32.4982 299.054 32.2242 299.054 31.9502C299.054 31.6761 299.468 31.4021 300.02 31.2651C301.125 30.8541 301.264 29.347 300.159 29.484C299.744 29.484 298.915 30.032 298.087 30.8541C297.258 31.5391 296.429 32.2242 296.015 32.2242C295.6 32.2242 294.91 32.7722 294.357 33.3202C293.805 33.8683 293.39 34.2794 293.39 34.1423C293.39 34.0053 292.838 34.2793 292.147 34.8273C291.456 35.3754 290.075 36.3344 289.108 36.8825C288.142 37.4305 287.451 38.1155 287.589 38.2525C287.727 38.5266 287.589 38.6635 287.036 38.6635C285.793 38.6635 280.406 42.6368 279.854 44.0069C279.439 44.9659 279.439 44.9659 280.268 44.5549C280.682 44.2809 281.373 43.8699 281.788 43.7329L281.373 43.1848ZM207.613 48.9392C207.613 48.9392 208.856 48.5281 209.685 48.3911C210.514 48.2541 211.342 47.9802 211.48 47.7061C211.619 47.4321 211.895 47.2951 212.171 47.2951C213.138 47.2951 220.597 44.5549 222.393 43.5958C223.359 43.0478 224.326 42.7738 224.603 42.7738C224.879 42.7738 225.293 42.7738 225.569 42.3628C225.846 42.0888 226.813 41.6777 227.78 41.5407C228.746 41.2667 232.2 40.1707 235.515 38.8006C238.83 37.5675 243.25 35.9234 245.322 35.2383C247.394 34.5533 249.189 33.5942 249.327 33.3202C249.604 32.4982 249.328 32.6352 246.012 33.8683C244.493 34.4163 240.211 36.0605 236.205 37.5676C232.2 39.0746 228.194 40.5817 227.089 40.9928C225.984 41.4038 221.149 43.1848 216.177 45.1029C211.204 46.8841 207.199 48.6652 207.199 48.8022C207.199 49.0762 207.475 49.0762 207.751 48.8022L207.613 48.9392ZM308.584 32.4982C308.584 32.4982 308.17 32.7722 308.446 33.0463C308.584 33.3203 308.861 33.4573 308.999 33.4573C308.999 33.4573 309.275 33.1832 309.137 32.9092C309.137 32.6352 308.861 32.4982 308.584 32.4982ZM206.232 49.2132C206.232 49.2132 206.232 48.6652 203.193 49.7613C201.812 50.3093 200.706 50.8573 200.983 50.9943C201.397 51.4053 205.541 49.8982 206.232 49.0762V49.2132ZM167.694 52.6384C168.523 52.2274 168.661 51.9534 167.97 51.9534C167.694 51.9534 167.418 52.2274 167.279 52.5014C167.141 52.7754 167.28 52.9125 167.694 52.6384ZM186.341 56.4747C186.341 56.4747 179.849 58.8038 172.943 61.544C165.898 64.2842 159.682 66.6133 158.854 66.8873C158.163 67.1613 157.472 67.4353 157.611 67.7093C157.611 68.3944 158.025 68.2574 163.412 66.2022C170.733 63.3251 182.197 58.9407 191.866 55.2415C196.563 53.4604 200.292 51.8164 200.292 51.5424C200.292 50.8573 200.292 50.9943 195.458 52.9124C193.248 53.8715 191.037 54.6935 190.623 54.9676C190.209 55.1046 189.656 55.2415 189.518 55.2415C189.242 55.2415 188.689 55.5156 188.137 55.7896C187.584 56.2006 186.756 56.4747 186.341 56.4747ZM153.743 68.8054C152.224 69.3535 149.461 70.4495 147.389 71.2716C145.317 72.0936 143.66 72.7786 143.66 73.0526C143.66 73.6007 145.317 73.0526 149.461 71.4085C151.119 70.7235 153.467 69.7645 154.572 69.3535C155.677 68.9424 156.782 68.3943 156.92 68.1203C157.196 67.5723 156.782 67.7094 153.743 68.8054ZM142.416 73.0526C142.416 73.0526 140.621 73.4637 139.516 73.7377C136.753 74.5598 136.753 74.9707 139.516 74.4227C142.14 73.8747 144.212 72.9156 142.416 73.0526Z" fill="#FF006C"/>
</svg>
