<svg width="309" height="126" viewBox="0 0 309 126" fill="none" xmlns="http://www.w3.org/2000/svg">
<path d="M206.157 102.26C206.157 102.26 205.317 102.044 204.568 102.816C203.671 103.894 202.91 103.905 201.684 103.315C200.458 102.724 200.231 102.803 200.469 103.485C200.628 103.939 200.253 104.325 199.493 104.336C198.732 104.347 198.13 104.813 197.835 105.426C197.619 106.266 195.576 106.981 191.329 107.957C187.844 108.921 184.052 109.738 182.689 110.215C181.327 110.691 180.339 110.782 180.18 110.328C180.021 109.874 178.886 110.271 177.83 110.895C176.774 111.519 174.651 112.007 173.278 111.723C171.904 111.439 170.235 111.768 168.872 112.245C167.51 112.721 166.216 112.664 164.91 111.847C163.298 110.881 162.992 110.733 163.389 111.869C163.786 113.005 163.411 113.391 161.436 113.572C160.221 113.742 158.62 113.537 157.928 113.015C157.235 112.492 155.714 112.515 154.431 113.219C153.069 113.695 151.547 113.718 150.855 113.195C150.162 112.673 149.095 112.536 148.72 112.922C148.266 113.081 147.812 113.24 147.653 112.786C147.176 111.423 149.527 110.856 150.991 112.128C151.763 112.877 152.297 112.946 152.138 112.491C151.343 110.22 146.995 109.447 147.029 111.73C146.972 113.024 146.745 113.104 145.212 112.365C144.293 111.922 142.385 111.57 140.785 111.365C139.411 111.081 135.051 109.547 131.373 107.775C125.243 104.822 124.176 104.686 122.211 105.628C120.849 106.104 116.466 108.147 112.459 109.804C108.371 111.234 104.897 112.96 104.829 113.493C104.681 113.8 103.921 113.811 103.081 113.595C102.468 113.3 101.786 113.538 101.945 113.992C102.104 114.447 100.14 115.389 97.5628 116.035C95.065 116.909 90.1376 118.123 86.7315 119.315C67.794 124.921 51.6836 126.223 34.075 123.972C30.5669 123.415 27.5924 122.926 27.2064 122.551C27.0475 122.097 25.4468 121.892 23.7666 121.461C22.1658 121.256 20.8603 120.438 20.7014 119.984C20.5424 119.53 20.4629 119.303 19.8611 119.768C19.4864 120.154 17.2727 119.654 14.9 118.7C6.39678 114.792 0.822785 108.33 0.425922 102.097C0.403338 100.575 0.607816 98.9741 0.903048 98.361C1.80004 97.2824 3.58233 99.4628 2.92371 101.223C1.45884 105.049 7.71399 111.272 15.9789 114.499C18.8852 115.521 22.484 117.066 24.2437 117.725C26.0034 118.384 27.4566 118.895 27.6837 118.816C27.9108 118.736 27.9108 118.736 27.8426 119.27C28.0015 119.724 28.2284 119.645 28.8302 119.179C29.5114 118.941 31.941 118.601 34.3819 119.021C49.0955 121.011 65.4216 118.868 94.9065 111.357C95.8148 111.039 94.6112 111.97 91.9659 113.15C88.7187 114.796 90.3081 114.24 98.2556 111.46C107.111 108.361 108.02 108.044 102.865 109.337C95.3605 111.198 95.3605 111.198 108.667 105.523C114.412 103.003 119.249 100.801 119.396 100.495C119.544 100.188 118.681 98.4509 117.512 96.5658C114.708 92.1937 112.62 84.7673 113.085 80.271C114.097 71.5053 118.934 64.2052 128.936 56.3723C138.939 48.5394 149.997 45.1805 156.207 48.3609C164.869 52.7227 163.654 68.1876 153.73 81.3458C149.177 87.2721 143.102 93.2209 141.876 92.6302C141.57 92.4825 141.422 92.7891 141.581 93.2433C141.74 93.6975 141.217 94.3901 140.536 94.6284C137.584 95.6611 131.351 101.156 131.748 102.291C132.146 103.427 142.704 107.38 144.066 106.903C144.293 106.824 147.415 107.006 150.537 107.189C153.739 107.598 158.757 107.372 161.493 107.179C164.911 106.748 166.511 106.953 166.523 107.714C166.466 109.008 173.073 108.226 173.664 107C173.812 106.693 173.051 106.704 172.142 107.022C171.234 107.34 169.486 107.442 168.725 107.453C166.818 107.101 167.272 106.942 174.402 105.467C180.851 104.231 183.882 103.425 188.73 101.984C191.001 101.189 191.841 101.405 191.625 102.245C191.489 103.313 192.703 103.143 197.551 101.702C203.08 100.022 214.65 95.2098 210.256 96.4921C209.348 96.8099 208.281 96.6734 208.122 96.2192C207.963 95.7649 210.983 94.1986 214.684 92.3939C223.302 88.6143 237.857 79.9534 244.476 74.8337C247.258 72.586 249.745 70.9513 250.278 71.0196C250.585 71.1672 250.732 70.8607 250.573 70.4065C250.414 69.9523 250.937 69.2597 251.845 68.942C252.753 68.6242 253.355 68.1588 253.196 67.7046C252.878 66.7961 257.465 63.1521 259.293 63.2773C260.054 63.2661 260.656 62.8007 260.497 62.3465C260.338 61.8923 259.804 61.824 259.429 62.21C259.055 62.596 258.601 62.7549 258.521 62.5278C258.442 62.3007 259.713 60.8362 261.133 59.0651C262.631 57.5211 264.721 54.751 265.765 53.3659C266.73 51.7537 268.082 50.5163 268.615 50.5845C269.149 50.6527 269.523 50.2668 269.512 49.506C269.501 48.7452 270.023 48.0527 270.704 47.8144C271.385 47.5761 272.056 46.5769 272.192 45.5096C272.328 44.4423 273.305 43.5909 273.986 43.3526C275.121 42.9554 275.575 42.7965 274.951 41.7404C274.712 41.0591 274.928 40.2188 275.837 39.9011C276.518 39.6628 278.085 37.5852 279.266 35.1328C281.185 31.1476 283.649 27.9915 285.102 28.5027C285.329 28.4233 285.317 27.6625 284.92 26.527C284.126 24.2559 282.298 24.1307 281.185 26.0494C280.89 26.6625 278.778 27.9111 276.814 28.8532C274.623 29.8747 272.057 31.2822 270.774 31.986C265.415 34.8804 261.782 36.1515 261.089 35.629C260.317 34.8795 258.137 36.6618 257.626 38.1151C257.331 38.7282 256.945 38.3534 256.389 36.7636L255.515 34.2654L255.401 36.8543C255.435 39.1366 254.004 40.1469 251.257 39.5787C250.644 39.2833 250.042 39.7487 250.122 39.9758C250.281 40.43 249.372 40.7478 247.851 40.7702C245.342 40.8833 243.56 38.7029 244.752 37.0112C245.274 36.3187 245.195 36.0916 244.513 36.3299C244.059 36.4888 243.526 36.4206 243.594 35.887C243.878 34.5131 257.275 29.8261 257.899 30.8822C258.138 31.5635 259.806 31.2346 262.372 29.827L266.301 27.9429L262.668 29.2139C259.557 29.7924 259.103 29.9513 260.76 28.8616C264.371 26.069 268.072 24.2643 268.39 25.1727C268.549 25.6269 268.027 26.3194 267.425 26.7849C266.596 27.3297 266.903 27.4774 268.265 27.0008C269.855 26.4447 270.309 26.2858 269.684 25.2297C269.219 24.6278 269.208 23.8671 270.491 23.1633C274.941 20.5866 287.385 13.1743 288.895 12.3911C291.836 10.5976 300.192 4.61525 303.95 1.51611C304.927 0.664695 305.233 0.81234 305.324 1.80022C305.415 2.78809 305.801 3.16288 306.482 2.92455C307.163 2.68624 307.776 2.98158 307.64 4.04889C307.651 4.80965 307.833 6.78542 308.003 8.0004C308.173 9.21539 308.116 10.5098 307.889 10.5893C307.662 10.6687 307.446 11.5089 307.764 12.4173C308.082 13.3258 307.809 15.4604 307.457 17.3679C307.025 19.0483 306.105 23.7036 305.401 27.5186C304.697 31.3337 303.834 34.6945 303.38 34.8534C302.926 35.0123 302.858 35.5459 303.096 36.2273C303.334 36.9086 303.118 37.7488 302.823 38.3619C302.528 38.975 301.279 41.961 300.416 45.3218C299.473 48.4555 298.531 51.5893 297.929 52.0547C297.475 52.2136 297.338 53.2809 297.497 53.7351C297.736 54.4165 297.077 56.1763 296.112 57.7885C295.147 59.4007 294.409 60.9334 294.568 61.3877C294.727 61.8419 293.988 63.3746 293.103 65.2139C292.217 67.0532 291.479 68.586 291.638 69.0402C291.797 69.4944 291.422 69.8803 290.968 70.0392C290.514 70.1981 289.617 71.2766 288.947 72.2757C287.982 73.8879 287.755 73.9673 287.199 72.3776C286.881 71.4692 286.109 70.7196 285.655 70.8785C284.973 71.1168 284.894 70.8897 285.337 69.9701C286.007 68.971 285.927 68.7439 284.781 68.3803C283.941 68.1644 284.009 67.6307 285.292 66.927C286.348 66.3027 287.017 65.3036 286.779 64.6223C286.461 63.7139 288.358 58.2072 292.968 45.8882C295.023 40.8357 298.43 29.4476 299.066 26.1662C299.498 24.4858 300.009 23.0325 300.236 22.9531C300.69 22.7942 300.838 22.4877 300.679 22.0335C300.52 21.5792 300.872 19.6717 301.145 17.5371C301.928 13.9491 301.474 9.00979 300.759 12.0641C300.543 12.9043 300.169 13.2902 300.01 12.836C299.851 12.3818 299.476 12.7678 298.954 13.4603C298.431 14.1529 298.057 14.5389 297.977 14.3118C297.898 14.0847 296.399 15.6286 294.685 18.0128C292.97 20.397 291.403 22.4746 291.176 22.554C290.949 22.6334 290.279 23.6325 290.143 24.6998C290.007 25.7671 287.929 29.2981 285.692 32.3748C283.455 35.4515 281.15 39.0618 280.48 40.0609C279.594 41.9002 278.618 42.7517 277.176 43.0012C276.722 43.1601 276.801 43.3872 276.96 43.8414C277.119 44.2956 276.529 45.5218 275.484 46.9069C274.36 48.0648 273.315 49.45 273.247 49.9836C273.179 50.5173 272.271 50.835 271.51 50.8462C270.443 50.7097 270.148 51.3229 270.545 52.4584C270.863 53.3669 270.647 54.207 269.966 54.4454C269.285 54.6837 268.762 55.3762 268.774 56.137C268.785 56.8977 268.263 57.5903 268.036 57.6697C267.808 57.7492 266.31 59.2932 265.265 60.6782C263.551 63.0624 263.324 63.1418 263.301 61.6203C263.278 60.0988 263.278 60.0987 262.461 61.4044C261.939 62.0969 261.95 62.8577 262.029 63.0848C263.562 63.8231 240.808 84.019 238.595 83.5189C238.061 83.4507 237.913 83.7573 238.072 84.2115C238.231 84.6657 237.175 85.29 235.813 85.7666C234.45 86.2433 233.315 86.6405 233.474 87.0947C233.633 87.5489 233.179 87.7078 232.804 88.0938C232.35 88.2527 228.808 90.5116 224.811 92.9294C221.042 95.2678 217.113 97.1519 216.353 97.1631C214.298 97.1173 211.948 97.6847 212.64 98.2071C212.719 98.4342 212.424 99.0473 211.595 99.5922C210.687 99.9099 210.006 100.148 209.847 99.694C209.688 99.2398 209.234 99.3987 208.712 100.091C207.746 101.703 204.568 102.816 204.17 101.68L206.157 102.26ZM68.0101 118.982C66.6476 119.459 66.4206 119.538 67.6467 120.129C68.4868 120.345 69.5541 120.481 69.7811 120.402C70.2353 120.243 70.3829 119.936 70.1445 119.255C69.9856 118.801 68.9184 118.664 68.0101 118.982ZM74.2318 117.825C74.2318 117.825 72.6423 118.381 72.7217 118.608C72.8012 118.835 73.5618 118.824 74.5496 118.734C75.4579 118.416 76.1391 118.177 76.0596 117.95C75.9802 117.723 75.14 117.507 74.2318 117.825ZM86.3686 115.363C86.3686 115.363 84.6202 115.465 82.0429 116.112C76.5932 118.019 76.7522 118.473 82.3607 117.02C84.4044 116.305 86.4479 115.591 86.675 115.511L86.3686 115.363ZM148.328 50.6077C148.328 50.6077 148.612 49.2338 149.293 48.9955C149.974 48.7572 149.134 48.5413 147.613 48.5637C144.877 48.7562 134.67 53.0918 134.908 53.7732C134.908 53.7732 137.406 52.8993 140.358 51.8666C145.195 49.6647 145.876 49.4264 147.034 50.5507C147.806 51.3003 148.339 51.3685 148.101 50.6871L148.328 50.6077ZM131.604 56.7135C133.41 55.3172 134.159 54.5451 133.478 54.7835C131.888 55.3396 127.449 58.677 128.062 58.9724C128.062 58.9724 130.105 58.2574 131.604 56.7135ZM127.006 59.5966C127.006 59.5966 122.873 63.0818 123.486 63.3771C123.486 63.3771 124.849 62.9005 125.893 61.5154C127.017 60.3574 127.46 59.4378 127.233 59.5172L127.006 59.5966ZM158.318 57.3088C158.137 55.3331 157.365 54.5835 154.606 53.2545C151.461 51.5507 150.78 51.7891 145.172 53.2414C140.324 54.6826 137.905 55.7835 132.864 59.5864C129.401 62.0724 125.723 65.3987 124.372 66.6361C123.1 68.1006 121.59 68.8838 121.056 68.8156C120.523 68.7473 120.375 69.0539 120.988 69.3492C121.374 69.724 120.863 71.1773 119.819 72.5624C118.774 73.9474 117.377 77.2401 116.957 79.6813C115.9 85.4038 117.353 91.0133 121.679 95.363C123.302 97.0892 124.914 98.0546 125.368 97.8957C125.822 97.7369 129.592 95.3985 133.509 92.7536C148.802 82.5599 159.305 67.4147 158.239 57.0817L158.318 57.3088ZM138.89 91.3806C139.935 89.9955 139.935 89.9955 138.731 90.9264C137.903 91.4713 137.074 92.0162 136.393 92.2545C135.711 92.4928 135.711 92.4928 136.551 92.7087C137.006 92.5498 138.141 92.1526 138.89 91.3806ZM135.053 94.2527C135.053 94.2527 135.348 93.6395 134.44 93.9573C133.531 94.2751 133.077 94.434 133.463 94.8088C133.77 94.9564 134.451 94.7181 135.053 94.2527ZM130.08 97.5219C131.59 96.7387 132.714 95.5807 132.634 95.3536C132.555 95.1265 131.272 95.8303 129.535 96.6929C126.072 99.1789 126.458 99.5537 130.08 97.5219ZM119.805 102.391L121.53 100.768L119.646 101.937C119.646 101.937 116.172 103.662 114.207 104.604L110.574 105.875L114.366 105.058C116.41 104.344 118.908 103.47 119.805 102.391ZM162.969 109.212C164.627 108.122 164.161 107.52 161.959 107.781C161.277 108.019 159.983 107.962 158.995 108.053C158.008 108.144 157.406 108.609 157.485 108.836C157.565 109.063 158.484 109.506 159.393 109.189C160.301 108.871 161.062 108.86 161.221 109.314C161.379 109.768 162.061 109.53 162.889 108.985L162.969 109.212ZM182.531 104.662C177.456 106.183 176.4 106.807 178.523 106.319C180.499 106.138 183.984 105.174 186.255 104.379C192.84 102.075 190.637 102.336 182.304 104.742L182.531 104.662ZM261.373 34.2552C261.373 34.2552 262.281 33.9374 262.35 33.4037C262.418 32.8701 262.032 32.4953 261.351 32.7336C259.988 33.2103 259.92 33.7439 261.294 34.0281L261.373 34.2552ZM300.623 8.0331C301.974 6.79569 302.951 5.94428 302.497 6.10317C301.361 6.50037 296.922 9.83783 297.535 10.1332C297.535 10.1332 299.351 9.49762 300.623 8.0331ZM283.445 19.396C286.612 17.523 289.701 15.4229 290.677 14.5715L292.403 12.9481L290.518 14.1173C290.518 14.1173 285.693 17.08 281.844 19.1913C277.995 21.3025 275.815 23.0848 276.496 22.8465C277.178 22.6082 280.504 21.1895 283.445 19.396ZM274.316 24.6288C274.316 24.6288 274.157 24.1746 273.249 24.4924C272.341 24.8101 271.66 25.0484 272.5 25.2643C272.954 25.1054 273.862 24.7877 274.544 24.5493L274.316 24.6288ZM255.889 33.8795C258.387 33.0056 258.387 33.0056 256.105 33.0392C254.891 33.2093 253.676 33.3794 253.528 33.686C252.631 34.7645 253.471 34.9804 255.889 33.8795ZM252.571 71.7467C252.571 71.7467 253.162 70.5205 253.003 70.0663C252.844 69.6121 252.617 69.6915 252.401 70.5317C252.049 72.4392 252.128 72.6664 252.798 71.6673L252.571 71.7467ZM246.157 75.2654C246.157 75.2654 245.839 74.357 245.385 74.5159C244.93 74.6748 244.635 75.2879 244.794 75.7421C244.953 76.1963 245.112 76.6505 245.566 76.4917C246.02 76.3328 245.941 76.1057 246.157 75.2654ZM232.986 84.9713C232.986 84.9713 232.827 84.5171 231.919 84.8348C231.011 85.1526 230.329 85.3909 231.169 85.6068C231.703 85.6751 232.611 85.3573 233.213 84.8918L232.986 84.9713ZM227.627 87.8657C227.627 87.8657 227.922 87.2526 227.014 87.5704C226.106 87.8881 225.652 88.047 226.038 88.4218C226.344 88.5695 227.025 88.3312 227.627 87.8657ZM223.812 92.2593C223.812 92.2593 223.335 90.8967 223.631 90.2836C224.153 89.591 223.165 89.6817 220.145 91.2481C217.727 92.349 215.081 93.5294 214.173 93.8472C213.265 94.1649 212.356 94.4827 212.515 94.9369C212.674 95.3911 214.639 94.449 217.057 93.3481C220.611 91.8499 221.825 91.6798 223.051 92.2705C223.971 92.7135 224.277 92.8612 223.506 92.1116L223.812 92.2593ZM2.34527 93.0132C2.77682 91.3328 2.77695 91.3327 1.95941 92.6384C1.2895 93.6375 0.994147 94.2506 1.0736 94.4777C1.31196 95.159 1.83426 94.4665 2.26581 92.7861L2.34527 93.0132ZM4.05953 95.7272C4.05953 95.7272 4.94509 93.888 5.47869 93.9562C6.54588 94.0927 6.14861 92.9571 4.92251 92.3664C4.61598 92.2188 3.56007 92.8431 2.82199 94.3758C1.64107 96.8282 1.66375 98.3497 2.7991 97.9525C3.25325 97.7936 3.69613 96.874 4.05953 95.7272ZM196.155 99.8959C196.155 99.8959 195.236 99.4529 194.327 99.7706C193.419 100.088 192.817 100.554 192.976 101.008C193.135 101.462 193.896 101.451 194.804 101.133C195.712 100.816 196.393 100.577 196.155 99.8959ZM202.048 97.0696C199.55 97.9435 197.665 99.1127 197.824 99.5669C197.983 100.021 199.958 99.8398 202.229 99.0454C204.5 98.251 206.385 97.0818 206.453 96.5481C206.521 96.0145 205 96.0369 202.048 97.0696Z" fill="#FF006C"/>
</svg>
