<svg width="256" height="67" viewBox="0 0 256 67" fill="none" xmlns="http://www.w3.org/2000/svg">
<path d="M106.775 1.25079C106.775 1.25079 110.498 -0.170511 110.498 0.540137C110.498 0.895453 110.852 0.895453 111.384 0.540137C112.093 0.00714703 114.22 -0.17045 119.36 0.184874C128.578 0.717856 131.059 1.07313 131.414 2.49442C131.591 3.38272 131.769 3.20506 131.769 2.49442C131.769 1.42845 132.3 1.42843 136.377 1.78376C143.645 2.4944 151.621 3.91566 152.153 4.80397C152.508 5.33695 152.685 5.33695 152.685 4.80397C152.685 4.27098 153.039 4.09342 154.103 4.6264C154.812 4.98172 156.762 5.337 158.534 5.69232C160.662 6.04765 161.548 6.40291 161.902 7.29121C162.08 8.00186 162.611 8.53483 162.966 8.53483C163.32 8.53483 163.32 8.17959 162.966 7.64661C161.902 6.40298 162.966 6.40298 164.384 7.64661C165.093 8.17959 165.447 8.3572 165.447 8.00187C165.447 6.40292 185.832 13.687 198.772 19.9051C209.939 25.235 224.12 33.5851 223.588 34.8288C223.588 35.1841 223.588 35.7171 223.943 36.0724C224.297 36.4277 224.474 36.25 224.12 35.8947C223.234 34.6511 224.652 35.1841 228.02 37.316C232.628 40.3362 235.11 42.4681 234.578 42.8235C234.401 43.0011 234.755 43.1789 235.464 43.1789C236.173 43.1789 237.237 43.7118 237.946 44.2448C239.896 46.199 240.605 45.666 239.187 43.3564C237.946 41.2245 237.946 41.0469 239.009 39.9809C240.073 38.915 240.073 38.7373 239.009 38.0267C238.123 37.316 237.946 37.316 237.769 38.0267C237.414 39.0926 236.351 39.0926 236.351 38.0267C236.351 37.4937 235.819 36.9607 235.287 36.6053C234.578 36.25 234.401 35.7171 234.755 35.5394C235.11 35.1841 235.464 35.5394 235.642 35.8947C235.819 36.6053 236.173 36.6053 236.882 35.8947C237.591 35.3617 237.769 35.3617 237.414 35.8947C237.06 36.4277 237.414 36.783 238.123 37.1383C238.832 37.316 239.541 37.849 239.719 38.2044C240.25 38.915 241.314 37.4936 241.491 35.8947C241.491 35.3617 242.023 34.651 242.555 34.4734C243.441 34.118 243.441 34.4734 243.264 36.0724C243.086 37.1383 243.086 37.6713 243.264 37.316C243.618 36.6054 243.795 36.6054 244.504 37.316C245.745 38.382 245.568 39.0926 244.15 38.7373C243.264 38.5597 242.909 38.7373 242.909 39.8032C242.909 41.2245 243.795 41.5798 244.327 40.3362C244.504 39.8032 244.682 39.981 244.682 40.6916C244.682 41.2246 245.214 42.1129 245.745 42.4682C246.454 43.0012 246.632 43.0011 246.632 42.2905C246.632 41.7575 246.277 41.2246 245.923 41.2246C245.568 41.2246 245.391 41.0468 245.568 40.8692C245.745 40.6915 246.277 40.8692 246.809 41.0469C247.163 41.4022 247.872 41.7575 248.227 41.5798C248.581 41.5798 248.936 42.1128 249.113 42.8235C249.29 43.5341 249.645 44.2449 249.999 44.6002C250.531 44.9555 250.531 45.1331 249.999 45.4884C249.468 45.6661 249.645 46.0213 250.709 46.5543C251.595 46.9096 252.127 47.7981 252.304 48.331C252.304 50.996 252.658 51.3513 253.367 51.3513C254.608 51.3513 256.558 58.813 255.849 60.7673C255.672 61.3003 254.785 62.8993 253.899 64.1429L252.304 66.6301L247.518 66.2747C242.023 65.7417 240.605 65.5641 229.792 63.9652C213.484 61.4779 198.772 57.214 200.367 55.6151C200.367 55.6151 202.14 55.9704 204.09 56.681C209.23 58.6353 222.525 61.4779 235.464 63.2545C246.986 64.8535 250.531 65.2088 249.822 64.4981C249.822 64.4981 244.15 63.4322 237.414 62.5439C220.043 60.2343 203.203 56.5034 201.076 54.3715C200.367 53.6608 200.545 53.3054 201.785 52.2395C203.203 50.9958 203.558 50.8183 206.571 51.529C208.344 51.8843 209.762 52.5949 209.762 52.7726C209.762 53.1279 209.939 53.1278 210.294 52.9501C210.648 52.7725 214.016 53.1279 217.739 53.8385C221.461 54.5491 226.956 55.4375 229.792 55.7928C232.805 56.1481 236.173 56.681 237.591 56.8587C240.959 57.214 240.782 57.0364 226.601 47.4427C203.558 31.8085 189.732 24.8798 168.284 17.951C162.966 16.1744 158.003 14.5753 157.471 14.3977C156.939 14.22 156.23 14.0424 156.053 14.0424C155.698 14.0424 152.685 13.687 149.14 12.9764C140.454 11.3774 139.391 11.1998 131.414 10.4891C115.815 9.06783 97.735 9.77856 79.123 12.7988C73.4507 13.6871 68.6647 14.2201 68.3102 14.0424C67.9557 13.8648 67.6012 14.0423 67.6012 14.22C67.6012 14.753 55.5477 18.3063 53.0661 18.3063C52.5343 18.3063 52.0025 18.4839 51.8253 18.6615C51.2935 19.1945 43.4941 22.0371 42.7851 21.8594C42.6078 21.8594 42.4306 21.8595 42.4306 22.3925C42.4306 22.7478 42.0761 23.103 41.7216 23.103C41.3671 23.103 38.3537 24.5243 35.3403 26.301C32.1496 28.0776 29.3135 29.4989 28.7818 29.6766C28.25 29.6766 27.3637 30.3872 26.6546 31.0979C25.9456 31.8085 23.1095 34.1181 20.2733 36.2501C13.5376 41.4022 7.68806 47.2651 4.67468 52.0619C2.01581 56.3258 0.775009 57.214 0.0659791 55.6151C-0.46579 54.3715 2.37033 49.0416 3.07936 49.397C3.43387 49.5746 3.78838 48.864 3.96564 47.6204C4.32014 46.0214 6.09274 43.8894 10.3469 39.6255C16.0192 34.118 25.7684 26.1233 28.0727 25.235C28.6045 25.0574 30.7316 23.6361 33.0359 22.2148C35.163 20.7935 37.2901 19.7275 37.6446 19.9051C37.9992 20.0828 38.1764 19.9052 38.1764 19.7276C38.1764 19.1946 41.7216 17.2403 42.7851 17.2403C43.1396 17.2403 43.4942 17.0626 43.6714 16.7072C44.0259 16.1742 46.6848 14.9307 50.4072 13.687C51.1162 13.5094 52.1798 13.3318 52.8888 13.3318C53.5978 13.3318 53.9523 13.3317 53.5978 12.9764C52.7115 12.0881 68.133 7.29121 71.3236 7.29121C72.2099 7.29121 73.2734 6.93587 73.628 6.58055C73.9825 6.22523 75.2233 6.04759 76.4641 6.04759C77.5276 6.04759 78.5912 6.04765 78.9457 5.69232C79.4775 4.80402 85.1497 3.7381 85.1497 4.6264C85.1497 5.15938 85.327 5.15938 85.8588 4.6264C86.2133 4.27108 87.4541 4.09334 88.5176 4.271C90.1129 4.62633 90.2902 4.44872 89.5811 3.91574C88.8721 3.38276 89.0494 3.20508 90.6447 3.20508C91.8855 3.20508 92.7718 3.56042 92.7718 3.91574C92.7718 4.44872 93.1263 4.09332 93.6581 3.56034C94.1899 2.8497 94.5444 2.67206 94.5444 3.02738C94.5444 3.3827 94.8989 3.73804 95.4307 3.73804C95.9624 3.73804 96.317 3.56036 95.9624 3.02738C95.7852 2.67206 95.9624 2.31672 96.317 2.31672C96.6715 2.31672 97.026 2.67206 97.026 3.02738C97.026 3.3827 97.3805 3.73804 97.735 3.73804C98.0895 3.73804 98.2668 3.5604 98.0896 3.20508C97.5578 2.31677 99.1531 1.96147 100.394 2.67212C101.28 3.02744 101.457 3.02744 101.103 2.67212C100.748 2.13914 101.635 1.96145 103.762 1.96145C106.421 1.96145 106.598 1.96143 104.825 2.49442L102.875 3.02738L104.825 3.02738C105.889 3.02738 106.952 3.02744 106.952 2.67212L106.775 1.25079ZM239.009 48.6863C239.009 48.6863 239.364 48.1533 239.364 47.9756C239.364 47.798 239.364 47.9756 239.009 47.9756C238.832 48.1533 238.123 47.9757 237.769 47.6204C237.237 47.2651 236.882 47.2651 236.882 47.6204C236.882 48.331 238.478 49.0416 239.009 48.5086L239.009 48.6863ZM228.729 45.8438C228.729 45.8438 233.515 49.5747 235.287 50.2853C235.642 50.2853 236.351 50.996 237.06 51.529C237.591 52.0619 239.009 53.1278 240.073 53.6608L242.023 54.9044L241.314 53.6608C241.314 53.6608 240.073 52.4172 239.364 52.4172C238.655 52.4172 238.123 52.2395 237.946 51.8842C237.946 51.5289 235.996 50.2853 233.869 48.864C231.742 47.4427 229.792 46.1991 229.26 45.8438C228.906 45.4885 228.551 45.4885 228.551 45.8438L228.729 45.8438ZM234.401 46.3768C234.401 46.3768 234.933 47.265 235.464 47.265C236.173 47.265 236.351 47.0874 235.819 46.9097C235.464 46.9097 235.11 46.3767 235.464 46.0214C235.642 45.666 235.464 45.4884 235.11 45.4884C234.755 45.4884 234.401 45.8438 234.401 46.3768ZM224.297 43.1789L226.424 44.2448L225.006 42.8235C225.006 42.8235 223.234 41.5799 222.879 41.7575C222.347 41.7575 222.879 42.4682 224.297 43.1789ZM168.638 9.77846C168.638 9.77846 167.929 8.35727 166.866 8.35727C166.511 8.35727 166.866 8.71251 167.22 9.2455C167.752 9.77848 168.284 9.95612 168.638 9.77846ZM174.665 11.7327C175.551 11.1998 175.374 10.8445 174.31 10.8445C173.779 10.8445 173.601 11.1999 173.779 11.5552C173.956 11.9105 174.31 12.0881 174.665 11.9104L174.665 11.7327ZM220.575 36.4276C220.575 36.4276 219.688 35.8947 218.979 35.3617C217.739 34.4734 217.739 34.4734 218.625 35.5394C219.157 36.2501 219.688 36.6053 220.22 36.6053C220.752 36.6053 220.752 36.6053 220.575 36.4276ZM221.106 40.5139C221.106 40.5139 220.752 40.8692 221.461 40.8692C222.17 40.8692 222.525 40.8692 222.347 40.5139C222.17 40.1586 221.638 40.3362 221.106 40.5139ZM130.173 7.11365C130.173 7.11365 132.3 7.64651 134.25 7.82417C139.036 8.1795 149.672 9.95613 150.381 10.4891C150.735 10.6668 151.976 11.0221 153.217 11.1998C156.053 11.5551 168.106 15.1084 175.728 17.7733C187.782 22.0372 203.558 29.499 212.244 35.0065C217.739 38.5597 218.802 39.0926 218.802 38.7373C218.802 38.7373 216.852 37.1384 214.548 35.7171C196.822 24.3468 172.538 14.2201 153.394 10.1339C143.822 8.17958 129.287 6.22524 130.173 7.29121L130.173 7.11365ZM241.314 31.9861C241.314 31.9861 242.377 31.6309 242.2 31.2756C242.023 30.9203 241.491 30.5649 240.959 30.5649C240.428 30.5649 240.073 30.9203 240.073 31.2756C240.073 31.6309 240.605 31.9861 241.314 31.9861ZM240.605 33.2297C240.605 33.2297 240.25 32.5192 239.896 32.5192C239.541 32.5192 239.187 32.5191 239.187 32.8745C239.187 33.2298 239.364 33.2298 239.896 33.5851C240.25 33.7628 240.605 33.5851 240.605 33.2297ZM239.719 35.0065C239.719 35.0065 239.009 34.2958 238.655 34.2958C238.3 34.2958 238.123 34.4735 238.478 35.0065C238.832 35.5394 239.187 35.7171 239.541 35.7171C239.896 35.7171 240.073 35.5394 239.719 35.0065ZM237.769 29.6766C237.769 29.6766 238.478 29.6766 239.009 29.6766C239.541 29.3212 239.541 29.1436 239.009 28.9659C238.123 28.6106 237.237 29.3213 237.946 29.8543L237.769 29.6766ZM236.351 28.0777C235.819 27.1894 235.11 27.7223 235.287 29.1436C235.642 32.1638 235.464 31.9862 236.173 31.0979C236.705 30.3872 236.882 30.3872 236.882 31.4531C236.882 32.1638 237.237 32.8744 237.591 33.2297C237.946 33.4074 237.591 33.5851 236.351 33.4074C234.755 33.4074 234.224 33.0522 233.869 31.8085C233.515 30.0319 232.628 28.9659 231.033 28.4329C230.501 28.2553 229.26 26.4786 228.197 24.5244C227.31 22.5701 226.247 20.9712 225.892 20.9712C225.538 20.9712 225.183 20.6158 225.006 19.9051C224.829 19.3722 225.006 19.0169 225.183 19.3722C225.538 19.5498 225.892 19.3723 225.892 19.1946C225.892 18.8393 225.538 18.4839 225.183 18.3063C224.474 18.1286 224.474 17.7733 225.183 16.5297C225.538 15.6414 225.892 15.4637 225.892 15.819C225.892 16.352 226.601 15.9967 227.488 15.286C228.729 14.2201 228.906 13.6871 228.197 13.3318C227.665 12.9764 227.842 12.7987 228.551 13.1541C229.26 13.3317 229.969 13.5095 230.324 13.5095C231.387 13.5095 230.856 15.286 229.615 15.6413C228.551 15.819 228.374 16.352 228.729 17.2403C229.083 18.6616 228.197 19.0169 227.665 17.7733C227.488 17.2403 227.31 17.2403 227.31 17.951C227.31 18.484 227.665 19.3723 228.197 19.7276C229.26 20.6159 230.147 19.3722 229.969 17.4179C229.969 16.7073 229.969 15.9967 230.501 15.9967C231.033 15.9967 231.21 16.3519 231.21 16.7072C231.21 17.2402 231.21 17.2402 231.742 16.7072C232.096 16.1743 232.451 16.5296 232.983 17.4179C233.337 18.3062 233.514 19.017 232.983 19.1946C232.628 19.3723 232.274 19.1946 232.096 18.484C231.742 17.5956 231.565 17.5956 231.21 18.3063C230.856 18.6616 231.033 19.5498 231.21 19.9051C231.742 20.4381 231.565 20.6159 230.501 20.2605C229.615 20.0829 229.26 20.2605 229.26 21.1488C229.26 21.8594 229.26 22.9255 228.729 23.6361C228.197 24.7021 228.374 24.8797 229.26 23.9914C229.792 23.4584 230.501 23.2808 230.678 23.4584C230.856 23.6361 230.678 23.8137 230.324 23.8137C229.969 23.8137 229.615 24.169 229.615 24.5244C229.615 24.8797 230.324 25.0573 231.033 25.0573C231.919 25.0573 232.451 24.5244 232.274 23.8137C232.274 23.1031 232.274 22.7478 232.805 22.7478C233.337 22.7478 233.337 22.2148 233.16 21.5042C232.983 20.7935 233.16 19.9052 233.869 19.3722C234.755 18.6615 234.755 18.6615 234.578 19.3722C234.578 19.9052 234.933 20.9712 235.819 21.6819C236.705 22.3925 237.237 23.636 237.237 24.3467C237.237 25.0573 237.591 25.4127 237.946 25.235C238.3 25.0574 238.655 25.0574 238.655 25.235C238.655 25.4127 238.3 25.768 237.769 25.9457C237.237 26.1234 236.882 26.834 236.882 27.367C236.882 28.2553 236.882 28.2552 236.351 27.5446L236.351 28.0777ZM228.197 21.5042C228.729 20.6159 228.197 19.7276 227.133 19.7276C226.424 19.7276 226.247 19.9052 226.956 20.9712C227.488 21.8595 227.842 21.8595 228.197 21.5042ZM236.173 24.1691C236.173 24.1691 235.464 23.2808 235.464 24.1691C235.464 24.8798 235.287 24.8798 234.755 24.1691C233.692 23.1031 232.805 23.2807 233.515 24.5244C233.869 25.235 234.755 25.768 235.464 25.768C236.882 25.768 237.06 25.4127 236.173 23.9914L236.173 24.1691ZM232.451 26.301C231.21 26.301 231.033 26.301 232.274 26.4787C232.983 26.4787 233.869 27.1893 234.046 27.9C234.224 28.6106 234.401 28.6106 234.224 27.7223C234.224 26.834 233.515 26.4786 232.451 26.301Z" fill="black"/>
</svg>
