<svg width="501" height="80" viewBox="0 0 501 80" fill="none" xmlns="http://www.w3.org/2000/svg">
<path d="M474.773 29.6709C474.139 29.0603 471.806 28.2888 471.745 28.4403C471.683 28.5918 470.561 28.3125 469.411 27.6688C468.262 27.025 466.686 26.5613 465.805 26.5566C464.925 26.5519 464.381 26.1543 464.05 25.6667C463.78 25.0276 463.477 24.9046 463.141 25.2975C463.018 25.6004 460.988 24.952 458.565 23.9675C454.779 22.4292 447.931 20.1762 443.231 19.1492C442.323 18.78 439.866 18.3115 437.898 17.5116C435.929 16.7116 433.927 16.4277 433.411 16.3946C432.896 16.3615 431.258 16.0492 429.682 15.5853C428.106 15.1215 426.53 14.6577 425.953 14.776C425.437 14.7429 424.164 14.4021 423.042 14.1229C421.982 13.6922 420.648 13.5029 420.07 13.6213C419.493 13.7396 418.371 13.4604 417.25 13.1811C416.128 12.9019 415.219 12.5326 415.068 12.4711C414.916 12.4096 414.614 12.2865 414.462 12.225C413.856 11.9788 397.482 8.85534 393.023 8.10288C390.87 7.75741 388.565 7.3504 387.595 7.13269C386.838 6.82503 385.806 6.75884 385.38 6.93874C385.016 6.96716 383.984 6.90095 383.165 6.74476C381.225 6.30935 371.216 4.88969 361.812 3.71615C348.858 2.15934 317.996 0.385529 313.926 0.849631C313.349 0.968001 312.53 0.811915 312.379 0.750386C312.227 0.688857 309.951 0.646368 307.613 0.755348C305.275 0.86434 303.088 1.0348 302.937 0.973267C302.937 0.973267 301.541 0.935527 300.296 0.959256C299.051 0.982984 297.655 0.945143 297.504 0.883614C297.352 0.822079 296.623 0.878861 295.984 1.14872C295.345 1.41858 294.101 1.44238 293.646 1.25778C293.041 1.01165 292.25 1.21997 291.853 1.76438C291.455 2.30878 290.877 2.42716 289.94 1.69347C289.183 1.38581 287.972 0.893544 287.181 1.10187C286.391 1.31019 284.995 1.27238 284.025 1.05467C283.206 0.898497 282.264 1.04524 282.141 1.3482C282.018 1.65117 281.44 1.76957 280.835 1.52343C280.229 1.27731 279.652 1.39573 279.467 1.85018C279.282 2.30464 278.918 2.33304 278.222 1.87389C277.285 1.1402 256.12 2.42406 241.874 4.04842C201.446 8.44804 153.672 18.3345 109.798 31.2173C76.8985 40.9705 39.1477 55.2825 11.0234 68.9172C2.47064 73.0313 -0.520982 76.0516 1.19662 78.3379C2.6729 80.3497 5.25707 79.6348 18.4008 74.2093C57.7706 58.0841 87.4181 48.9511 132.064 39.382C144.038 36.8346 146.319 35.9967 145.842 34.5671C145.662 34.1411 145.392 33.502 145.089 33.3789C143.878 32.8866 95.2186 43.6489 83.0264 47.1667C74.4834 49.5198 73.9059 49.6382 78.7431 47.7208C85.2843 45.0838 107.908 38.0388 123.626 33.6593C157.434 24.2753 194.086 16.5763 225.133 12.2481C231.857 11.3326 236.697 10.7106 239.654 10.3823C241.689 10.1502 244.604 9.92296 246.123 9.65779C247.794 9.45416 250.922 9.13687 253.473 8.93793C255.873 8.67745 257.97 8.29385 258.093 7.99088C258.216 7.68791 258.429 7.59803 258.67 7.87258C259.001 8.36014 264.255 8.02376 266.049 7.51715C267.842 7.01055 273.309 6.58428 273.337 6.94878C273.517 7.37482 277.223 6.93907 277.469 6.33313C277.592 6.03016 277.743 6.0917 278.075 6.57926C278.316 6.85381 278.68 6.82546 278.742 6.67397C278.988 6.06803 281.265 6.11051 282.566 6.81579C283.02 7.00038 283.598 6.88201 283.721 6.57904C283.844 6.27607 284.634 6.0677 285.392 6.37536C286.906 6.99068 289.457 6.79184 291.464 6.19528C292.467 5.89701 292.59 5.59398 292.259 5.10642C291.928 4.61885 291.989 4.46738 292.444 4.65198C292.746 4.77504 293.139 5.11112 293.168 5.47562C293.196 5.84012 293.953 6.1477 294.772 6.30388C295.529 6.61154 296.168 6.34175 296.14 5.97725C296.111 5.61275 296.599 5.28136 297.328 5.22452C298.998 5.02089 299.453 5.20549 298.691 5.77831C297.99 6.19965 298.837 6.72033 299.751 6.20904C300.177 6.02913 301.786 5.97694 303.485 6.13781C305.184 6.29868 307.096 6.36965 307.825 6.31281C308.554 6.25597 310.101 6.3553 311.284 6.48305C312.468 6.61081 314.806 6.5018 316.566 6.51119C318.327 6.52057 321.119 6.59618 322.728 6.54404C324.427 6.70489 331.346 7.04547 338.053 7.47594C353.377 8.40776 377.315 10.7214 379.738 11.706C380.041 11.829 380.467 11.6491 380.59 11.3461C380.713 11.0432 380.926 10.9531 381.167 11.2277C381.47 11.3508 382.985 11.9661 385.048 12.0985C387.05 12.3825 389.203 12.7279 390.022 12.8841C390.841 13.0403 394.783 13.7597 399.09 14.4506C403.396 15.1416 409.795 16.3294 413.524 17.1388C418.74 18.1989 420.439 18.3598 420.746 17.6023C420.993 16.9964 420.993 16.9963 421.324 17.4839C421.532 18.2744 424.135 19.685 425.228 19.5997C425.957 19.5429 428.2 20.1014 430.382 20.8114C430.987 21.0575 431.413 20.8776 431.536 20.5746C431.66 20.2716 432.781 20.551 434.083 21.2562C435.99 22.2076 436.506 22.2407 436.752 21.6348C436.998 21.0289 437.211 20.9389 437.571 21.7909C437.902 22.2785 438.446 22.6761 439.023 22.5578C439.449 22.3779 440.661 22.8701 441.872 23.3623C442.932 23.793 443.841 24.1623 443.964 23.8593C444.087 23.5564 444.906 23.7125 445.966 24.1433C455.691 27.5653 458.692 28.4314 459.392 28.0101C459.818 27.8302 460.031 27.7402 459.847 28.1947C459.723 28.4977 460.57 29.0184 462.662 29.5153C464.238 29.9792 465.814 30.443 465.842 30.8075C465.994 30.869 466.571 30.7506 467.059 30.4192C467.608 29.9364 468.55 29.7896 469.307 30.0972L470.518 30.5895L469.122 30.5516C468.393 30.6085 467.603 30.8168 467.48 31.1198C467.234 31.7257 468.748 32.3411 469.297 31.8582C469.572 31.6167 470.239 31.7114 470.48 31.986C470.873 32.3221 471.692 32.4782 472.146 32.6628C473.026 32.6675 473.088 32.516 472.605 31.9669C472.123 31.4178 472.397 31.1764 473.675 30.6367C474.527 30.2769 475.228 29.8555 475.076 29.794L474.773 29.6709ZM71.2602 50.5046C70.1054 50.7413 70.1054 50.7413 71.2319 50.1401C72.3584 49.5388 72.7844 49.3589 72.5997 49.8134C72.5997 49.8134 71.9607 50.0833 71.3218 50.3531L71.2602 50.5046ZM290.2 4.09345C290.2 4.09345 289.718 3.54436 289.841 3.24139C289.964 2.93842 290.087 2.63542 290.39 2.75848C290.693 2.88155 290.631 3.03305 290.749 3.61057C290.778 3.97507 290.503 4.21652 290.2 4.09345ZM292.207 3.49689C291.299 3.12769 291.299 3.12766 291.999 2.70632C293.064 2.25656 293.76 2.71575 293.452 3.47317C293.39 3.62466 292.813 3.74301 292.207 3.49689ZM294.697 3.44946C294.697 3.44946 294.214 2.90034 294.337 2.59738C294.46 2.2944 294.583 1.99143 294.886 2.11449C295.189 2.23755 295.127 2.38906 295.246 2.96658C295.274 3.33108 295 3.57253 294.697 3.44946ZM296.131 2.09078C296.131 2.09078 295.497 1.48013 295.771 1.23869C296.046 0.997255 296.472 0.817342 296.623 0.878876C296.775 0.940405 296.865 1.15344 296.983 1.73096C297.011 2.09547 296.737 2.33691 296.131 2.09078ZM463.576 29.004C463.576 29.004 462.819 28.6964 462.88 28.5449C462.942 28.3934 463.368 28.2134 463.822 28.398C464.276 28.5826 464.579 28.7057 464.518 28.8572C464.456 29.0087 464.092 29.0371 463.576 29.004ZM484.286 33.183C482.923 32.6292 482.558 32.6576 482.463 33.3251C482.369 33.9926 482.217 33.9311 482.009 33.1405C481.801 32.35 481.408 32.0138 480.466 32.1606C479.738 32.2175 479.435 32.0944 479.558 31.7915C480.05 30.5796 477.622 30.4756 475.885 31.7112C474.636 32.6154 474.271 32.6438 474.882 32.0095C475.739 30.7692 475.497 30.4946 473.827 30.6982C473.036 30.9065 472.913 31.2095 473.06 32.1515C473.206 33.0935 473.992 33.7657 476.263 34.6887C477.929 35.3655 479.292 35.9194 479.415 35.6164C479.538 35.3134 480.144 35.5595 481.081 36.2932C483.106 37.8222 484.715 37.7701 485.516 35.8008C486.07 34.4374 485.828 34.1628 484.314 33.5474L484.286 33.183ZM483.357 36.3357C483.357 36.3357 482.577 34.783 483.277 34.3617C484.252 33.6989 484.432 34.125 483.609 34.8493C483.211 35.3937 483.301 35.6068 483.665 35.5784C484.03 35.5499 484.271 35.8245 484.209 35.976C484.086 36.2789 483.66 36.4588 483.357 36.3357ZM486.585 34.4704C486.585 34.4704 486.983 33.9261 487.437 34.1107C487.892 34.2953 487.982 34.5082 487.797 34.9627C487.612 35.4171 487.399 35.5071 486.945 35.3225C486.491 35.1379 486.401 34.9249 486.585 34.4704ZM489.822 36.4916C489.822 36.4916 489.576 37.0976 489.273 36.9745C488.97 36.8514 488.421 37.3344 488.114 38.0918C487.806 38.8492 487.257 39.332 486.954 39.209C486.651 39.0859 486.623 38.7215 486.959 38.3286C487.295 37.9356 487.328 37.4196 486.935 37.0836C486.542 36.7475 486.33 36.8374 486.419 37.0504C486.448 37.4149 486.173 37.6563 486.022 37.5948C485.265 37.2871 485.511 36.6812 487.002 36.0515C488.341 35.3603 489.614 35.7011 489.761 36.6431L489.822 36.4916ZM496.163 42.598C496.163 42.598 495.766 43.1424 495.406 42.2903C495.075 41.8028 494.744 41.3152 494.744 41.3152C493.953 41.5235 493.532 40.823 493.599 39.791C493.755 38.972 493.424 38.4844 492.543 38.4797C491.876 38.3851 491.18 37.9259 491.034 36.9839C490.646 35.7673 490.646 35.7673 491.157 36.6809C491.427 37.32 492.425 37.9022 493.608 38.0299C495.094 38.2807 495.336 38.5553 495.028 39.3127C494.843 39.7672 494.961 40.3448 495.264 40.4679C495.567 40.5909 495.842 40.3495 495.813 39.985C495.785 39.6204 496.06 39.379 496.362 39.5021C496.665 39.6251 496.632 40.1411 496.173 40.837C495.714 41.5329 495.742 41.8974 496.017 41.6559C496.381 41.6275 496.471 41.8405 496.286 42.295L496.163 42.598ZM500.001 45.7457C500.001 45.7457 498.789 45.2535 498.061 45.3104C497.303 45.0027 496.849 44.8181 496.792 44.0891C496.887 43.4216 497.1 43.3317 497.28 43.7577C497.611 44.2453 497.734 43.9422 497.801 42.9103C497.929 41.7268 497.99 41.5753 498.35 42.4274C498.53 42.8534 499.074 43.2511 499.377 43.3742C499.679 43.4973 500.162 44.0463 500.37 44.8369C500.607 45.9919 500.545 46.1434 499.939 45.8973L500.001 45.7457ZM492.287 40.8466C492.287 40.8466 491.346 40.9934 490.924 40.2929C490.655 39.6538 490.868 39.5638 491.776 39.933C492.685 40.3022 492.988 40.4253 492.136 40.7851L492.287 40.8466Z" fill="#FF006C"/>
</svg>
