<svg width="169" height="8" viewBox="0 0 169 8" fill="none" xmlns="http://www.w3.org/2000/svg">
<path d="M162.3 3.06716C161.377 2.71293 161.204 2.57105 161.589 1.96184C161.614 1.89586 161.639 1.82984 161.442 1.75393C161.046 1.60212 161.355 1.19087 162.268 0.784078C163.454 0.25524 164.606 0.0156286 166.102 0.0597958C167.69 0.0632822 167.756 0.0885997 168.198 0.712201C168.386 1.01135 168.402 1.16859 168.336 1.14329C168.204 1.09268 168.26 1.34126 168.275 1.49852C168.647 2.70058 164.528 3.77016 162.3 3.06716ZM154.708 0.761174C154.708 0.761174 153.145 0.691697 151.846 0.723437C150.522 0.821159 149.396 0.994791 149.346 1.12675C149.295 1.25872 149.006 1.22354 148.808 1.14763C148.346 0.970519 144.282 1.30432 144.049 1.51764C143.999 1.6496 143.775 1.63972 143.643 1.58912C143.511 1.53851 142.345 1.62081 141.02 1.71853C138.91 1.89314 137.992 1.91947 135.054 2.07969C134.74 2.11044 133.416 2.20815 132.117 2.23989C130.793 2.33761 129.626 2.41996 129.494 2.36936C129.428 2.34406 128.51 2.37035 127.5 2.43731C124.405 2.61291 118.277 2.60888 117.749 2.40646C117.485 2.30525 116.916 2.01153 116.414 1.74314C115.541 1.25695 113.004 0.965209 112.826 1.42708C112.776 1.55904 112.751 1.62505 112.644 1.50847C112.603 1.41718 111.867 1.3621 111.015 1.41369C110.163 1.46528 109.021 1.48164 108.55 1.52777C108.012 1.5486 106.845 1.63097 105.901 1.72323C104.958 1.8155 104.131 1.8011 103.999 1.7505C103.867 1.69989 103.461 1.77133 103.03 1.90874C102.599 2.04616 102.284 2.07689 102.178 1.9603C102.112 1.935 101.401 1.81396 100.524 1.93153C99.6713 1.98312 98.2813 2.05552 97.4542 2.04113C96.5613 2.00143 93.9384 2.1309 91.5387 2.27029C85.5066 2.6061 78.6728 2.86153 76.5976 2.74691C75.6386 2.68191 74.7863 2.73351 74.7357 2.86547C74.6851 2.99743 74.5938 3.03814 74.4871 2.92155C74.3552 2.87095 73.1576 2.63873 71.7775 2.4879C70.3973 2.33708 68.464 2.04983 67.6469 1.81219C64.6425 0.962834 63.8661 0.816471 61.0145 0.555497C56.1383 0.0479443 48.9339 0.0856125 37.854 0.75625C30.026 1.23591 18.7689 2.36842 14.3962 3.11353C13.4273 3.27178 10.9265 3.67505 8.76549 3.98163C6.60446 4.2882 4.79862 4.65532 4.77332 4.7213C4.74802 4.78728 4.25093 4.8994 3.80444 4.87955C3.29197 4.8344 2.66292 4.89588 2.45505 5.04322C2.2065 5.09928 1.77538 5.2367 1.46085 5.26746C1.14632 5.29822 0.847165 5.48625 0.862542 5.64352C0.811938 5.77548 0.761329 5.90745 0.563385 5.83154C0.233478 5.70503 0.122346 6.19221 0.31582 6.87188C0.453237 7.30299 0.757841 7.49549 1.3363 7.56594C1.75749 7.65177 2.20399 7.6716 2.32058 7.56494C2.41186 7.52426 2.84297 7.38683 3.31477 7.34069C3.78656 7.29456 6.2368 7.02325 8.80364 6.64524C18.3407 5.45865 19.8474 5.27955 27.4621 4.56672C38.8511 3.48482 51.0726 2.79781 57.0849 2.90849C60.9054 3.01121 63.1532 3.26771 66.2995 3.94442C70.3288 4.88407 78.7055 5.14458 86.4928 4.57364C87.4364 4.48137 88.9585 4.45959 89.8108 4.408C90.7291 4.38172 92.3424 4.31922 93.5092 4.23688C94.676 4.15454 96.0661 4.0821 96.7612 4.04589C97.3649 4.05036 97.9533 3.89754 97.9786 3.83156C98.0039 3.76558 98.4097 3.69417 98.7649 3.7547C99.1861 3.84053 100.104 3.81424 100.891 3.73735C101.677 3.66046 102.372 3.62423 102.438 3.64953C102.57 3.70014 104.589 3.56623 108.313 3.32912C109.728 3.19072 111.027 3.15896 111.093 3.18426C111.159 3.20956 112.077 3.18332 113.153 3.14166C114.858 3.03849 115.081 3.04841 115.771 3.61595C116.635 4.32539 118.137 4.75005 119.461 4.65233C119.933 4.60619 121.206 4.64044 122.322 4.69006C125.159 4.79377 126.052 4.83343 129.816 4.68761C131.653 4.63503 133.87 4.57705 134.697 4.59144C135.524 4.60583 136.219 4.56959 136.31 4.52891C136.335 4.46293 136.65 4.43219 136.848 4.5081C137.492 4.60385 142.266 4.39109 145.452 4.17481C149.424 3.88165 151.849 3.67624 153.082 3.6192C153.62 3.59837 154.366 3.43022 154.731 3.2675C155.851 2.71336 155.84 0.968072 154.718 0.537937L154.708 0.761174Z" fill="#FF006C"/>
</svg>
