<svg width="243" height="25" viewBox="0 0 243 25" fill="none" xmlns="http://www.w3.org/2000/svg">
<path d="M241.21 3.7528C241.21 3.7528 239.962 4.53628 239.609 4.43425C239.255 4.33222 238.21 4.41199 237.25 4.64308C236.29 4.87416 235.633 4.9387 235.818 4.73813C236.004 4.53756 235.954 4.26901 235.634 4.04969C235.314 3.83036 234.623 4.01217 234.1 4.49659C232.903 5.54872 230.983 5.12185 231.591 3.89967C231.761 3.31321 231.828 3.07859 231.407 3.21114C230.986 3.34369 230.936 3.07506 231.223 2.52261C231.476 2.08746 231.813 1.80361 232.049 1.87163C232.756 2.0757 233.144 2.06043 236.328 1.20062C239.9 0.32555 240.406 0.344309 241.633 1.84208C242.373 2.81792 242.339 2.93526 241.327 3.78681L241.21 3.7528ZM224.772 2.31287C224.772 2.31287 224.081 2.49467 223.727 2.39264C223.02 2.18857 216.029 2.96639 215.422 3.2995C215.152 3.34877 213.838 3.47778 212.524 3.60683C211.244 3.61859 208.969 3.97876 207.504 4.19108C206.156 4.43743 204.842 4.56641 204.758 4.41511C204.758 4.41511 203.815 4.14303 202.854 4.37411C201.81 4.45389 200.109 4.5982 198.946 4.64397C197.784 4.68974 196.588 4.85286 196.166 4.9854C195.745 5.11795 195.088 5.18242 194.465 5.12965C193.606 5.00886 189.277 5.41132 185.183 5.88175C184.374 6.02955 182.824 6.09058 181.51 6.21963C180.196 6.34868 179 6.5117 178.731 6.56097C178.427 6.72753 177.265 6.77332 176.102 6.81909C174.94 6.86486 172.7 7.10772 171.234 7.32005C169.768 7.53238 168.184 7.71068 168.067 7.67666C167.713 7.57463 166.753 7.80567 161.041 8.5717C159.997 8.65148 157.487 8.94367 155.516 9.13724C152.348 9.49388 146.671 10.1426 140.387 11.1245C139.309 11.3216 135.99 11.7614 133.092 12.0688C119.159 13.893 115.453 14.3482 114.998 14.598C114.694 14.7646 114.189 14.7458 113.953 14.6778C113.718 14.6098 112.016 14.7541 110.281 15.0157C108.546 15.2773 107.114 15.3723 107.03 15.221C107.03 15.221 108.042 14.3694 109.373 13.7372C113.216 11.9238 116.116 9.83831 116.488 8.54811C117.335 5.61582 115.012 3.92926 109.993 3.62442C105.092 3.35359 90.571 4.11861 85.2472 4.86939C84.169 5.06647 82.3158 5.29411 81.0356 5.30586C70.9447 6.20572 40.7862 11.6064 25.1497 15.353C24.0376 15.6674 22.2684 16.0463 21.0384 16.3266C13.3888 18.058 7.32277 19.6111 6.83379 19.9782C6.68208 20.0615 5.99121 20.2433 5.36805 20.1906C4.74488 20.1378 3.78446 20.3689 3.17762 20.702C2.60462 20.9178 1.76204 21.1829 1.34076 21.3155C0.683745 21.38 0.498188 21.5806 0.75024 22.0345C0.918277 22.3371 0.900754 22.8403 0.749046 22.9236C0.597335 23.0068 0.681363 23.1581 1.15282 23.2941C1.62427 23.4302 1.79231 23.7328 1.72461 23.9674C1.52154 24.6711 2.88574 24.8107 5.8849 24.1514C9.15364 23.4429 23.5764 20.3626 29.8444 18.9948C32.1527 18.5174 38.6563 17.2177 44.4691 16.0998C71.9656 11.0744 96.5622 8.13451 110.139 7.98642C110.644 8.00517 108.301 9.489 104.963 11.3212C98.5575 14.9362 97.6635 15.8218 98.7896 17.6714C99.5796 18.9158 100.169 19.0858 103.925 18.8993C107.177 18.6939 129.027 15.9782 136.12 14.8485C138.395 14.4884 140.4 14.1775 140.517 14.2115C140.753 14.2796 143.533 13.9382 146.464 13.5135C148.857 13.1874 160.902 11.7081 163.379 11.5332C164.693 11.4042 166.933 11.1614 168.551 10.8658C170.134 10.6874 171.6 10.4751 171.87 10.4258C172.105 10.4939 174.11 10.183 176.351 9.94016C178.592 9.69732 181.91 9.25743 183.881 9.06386C187.706 8.64269 188.514 8.49487 193.956 7.7781C195.961 7.46723 197.814 7.23968 198.05 7.3077C198.286 7.37573 199.364 7.17863 200.442 6.98156C201.52 6.78449 202.683 6.73872 202.919 6.80674C203.154 6.87477 204.199 6.79502 205.243 6.71523C206.288 6.63545 207.484 6.47239 207.719 6.54042C207.955 6.60844 209.657 6.46413 211.51 6.23655C213.363 6.00896 215.722 5.80009 216.766 5.7203C218.737 5.52673 221.786 5.13608 224.448 4.76069C226.066 4.46508 226.808 3.66283 226.675 2.35387C226.608 1.69939 225.851 1.22667 225.21 1.67708L224.772 2.31287Z" fill="#FF006C"/>
</svg>
