<?xml version="1.0" encoding="UTF-8"?><svg id="Layer_2" xmlns="http://www.w3.org/2000/svg" viewBox="0 0 980 400"><defs><style>.cls-1{fill:#ed196d;}</style></defs><g id="Layer_1-2"><g><path class="cls-1" d="M1.18,387L108.24,202.65c1.57-2.7,1.56-6.03-.01-8.72L2.4,13.03C-.98,7.26,3.18,0,9.87,0H75.37c3.16,0,6.07,1.72,7.59,4.49l74.5,135.61c1.52,2.77,4.43,4.49,7.59,4.49h.04c3.16,0,6.07-1.72,7.59-4.49L247.16,4.49c1.52-2.77,4.43-4.49,7.59-4.49h65.5c6.68,0,10.85,7.26,7.47,13.03l-105.83,180.91c-1.57,2.69-1.58,6.02-.01,8.72l107.06,184.35c3.35,5.77-.81,13-7.48,13h-65.53c-3.17,0-6.09-1.73-7.6-4.52l-75.65-138.97c-1.52-2.78-4.43-4.52-7.6-4.52h0c-3.17,0-6.09,1.73-7.6,4.52l-75.65,138.97c-1.52,2.78-4.43,4.52-7.6,4.52H8.67c-6.67,0-10.84-7.23-7.48-13Z"/><path class="cls-1" d="M831.65,400c-47.62,0-85.36-13.28-113.19-39.84-27.84-26.56-41.76-64.57-41.76-114.02v-92.3c0-49.45,13.92-87.46,41.76-114.02C746.29,13.28,784.02,0,831.65,0s83.79,12.9,109.62,38.72c25.82,25.82,38.74,61.28,38.74,106.32h0c0,1.82-1.47,3.29-3.29,3.29h-64.85c-1.82,0-3.29-1.47-3.29-3.29v-2.19c0-22.71-6.32-41.4-18.96-56.05-12.64-14.63-31.96-21.97-57.97-21.97s-45.79,7.88-60.44,23.63c-14.66,15.75-21.98,37.19-21.98,64.29v94.49c0,26.77,7.32,48.08,21.98,64.03,14.65,15.93,34.8,23.88,60.44,23.88s45.33-7.42,57.97-22.25c12.64-14.84,18.96-33.42,18.96-55.77v-6.6c0-1.82,1.47-3.29,3.29-3.29h64.85c1.82,0,3.29,1.47,3.29,3.29v4.41c0,45.07-12.91,80.5-38.74,106.32-25.82,25.82-62.36,38.75-109.62,38.75Z"/><path class="cls-1" d="M574.53,199.95c0-2.29,1.39-4.38,3.53-5.2,6.83-2.62,13.98-6.65,21.44-12.12,8.75-6.42,16.05-15.21,21.87-26.43,5.84-11.22,8.75-25.37,8.75-42.44v-6.42c0-22.07-5.92-41.22-17.75-57.4-11.84-16.2-28.32-28.59-49.42-37.11-21.1-8.55-45.38-12.83-72.83-12.83s-51.73,4.29-72.83,12.83c-21.11,8.52-37.57,20.91-49.42,37.11-11.84,16.18-17.75,35.33-17.75,57.4v6.42c0,17.07,2.91,31.22,8.75,42.44s13.04,20.02,21.61,26.43c7.34,5.49,14.55,9.53,21.64,12.15,2.17,.8,3.58,2.91,3.58,5.22h0v.05c0,2.29-1.39,4.38-3.53,5.2-6.83,2.62-13.98,6.65-21.44,12.12-8.75,6.42-16.05,15.21-21.87,26.43-5.84,11.22-8.75,25.37-8.75,42.44v6.42c0,22.07,5.92,41.22,17.75,57.4,11.84,16.2,28.32,28.59,49.42,37.11,21.1,8.55,45.38,12.83,72.83,12.83s51.73-4.29,72.83-12.83c21.11-8.52,37.57-20.91,49.42-37.11,11.84-16.18,17.75-35.33,17.75-57.4v-6.42c0-17.07-2.91-31.22-8.75-42.44s-13.04-20.02-21.61-26.43c-7.34-5.49-14.55-9.53-21.64-12.15-2.17-.8-3.58-2.91-3.58-5.22h0v-.05Zm-40.67,38.84c4.31,1.86,8.18,4.06,11.59,6.63,12.51,9.41,18.78,21.97,18.78,37.63v4.29c0,15.66-6.44,28.22-19.31,37.63-12.86,9.44-31.14,14.15-54.81,14.15s-41.94-4.71-54.81-14.15c-12.87-9.41-19.31-21.97-19.31-37.63v-4.29c0-15.66,6.35-28.22,19.04-37.63,3.35-2.5,7.14-4.66,11.33-6.47,14.69-6.39,24.39-21.17,24.39-37.69v-2.35c0-16.52-9.68-31.36-24.39-37.68-4.31-1.86-8.18-4.06-11.59-6.63-12.51-9.41-18.78-21.97-18.78-37.63v-4.29c0-15.66,6.44-28.22,19.31-37.63,12.86-9.44,31.14-14.15,54.81-14.15s41.94,4.71,54.81,14.15c12.87,9.41,19.31,21.97,19.31,37.63v4.29c0,15.66-6.35,28.22-19.04,37.63-3.35,2.5-7.14,4.66-11.33,6.47-14.69,6.39-24.39,21.17-24.39,37.69v2.35c0,16.52,9.68,31.36,24.39,37.68Z"/></g></g></svg>