<?xml version="1.0" encoding="utf-8"?>
<!-- Generator: Adobe Illustrator 25.3.1, SVG Export Plug-In . SVG Version: 6.00 Build 0)  -->
<svg version="1.1" id="Layer_1" xmlns="http://www.w3.org/2000/svg" xmlns:xlink="http://www.w3.org/1999/xlink" x="0px" y="0px"
	 viewBox="0 0 594 87" style="enable-background:new 0 0 594 87;" xml:space="preserve">
<style type="text/css">
	.st0{fill:#FFFFFF;}
</style>
<g transform="translate(0.000000,87.000000) scale(0.100000,-0.100000)">
	<path class="st0" d="M0,547c0-189,4-346,10-375C23,113,67,57,123,28C159,9,185,5,313,2c290-8,436,29,498,126c68,108,17,269-100,313
		l-25,10l39,31c98,81,99,238,1,313c-76,58-133,67-443,73L0,873V547z M500,672c69-34,63-114-10-139c-19-7-81-12-137-12l-103-1v85v85
		h108C440,690,473,686,500,672z M571,321c27-34,25-82-7-112c-24-23-33-24-170-27l-144-4v87v86l151-3C546,345,553,344,571,321z"/>
	<path class="st0" d="M1319,444C1212,209,1124,13,1122,9c-2-5,54-9,125-9h128l34,85l34,85h188h187l34-82l35-83l131-3l131-3l-44,98
		c-25,54-114,249-198,433l-153.7,340h-117.8l-122.5,1L1319,444z M1735,368c6-17-1-18-104-18c-61,0-111,2-111,4c0,3,27,68,97,236
		l14,35l49-119C1707,441,1732,379,1735,368z"/>
	<path class="st0" d="M2791.3,870c-5-13-101.3-225-201.3-445S2406,19,2403,12c-4-10,22-12,123-10l129,3l34,82l34,83h187h187l35-82
		l35-83l126-3c98-2,127,0,126,10c0,7-87,202-192,433l-193.2,425.3l-119.5-0.3C2794.4,870.8,2825.7,870,2791.3,870z M3015,368
		c6-17-1-18-104-18c-61,0-111,2-111,4c0,5,100,249,107,259C2912,621,2996,430,3015,368z"/>
	<path class="st0" d="M3750,435V0h120h120v225c0,124,3,225,8,225c4,0,93-101,197-225L4385,0h103h102l-2,432l-3,433h-120h-120l-5-224
		l-5-224l-190,224l-191,224l-102,3l-102,3V435z"/>
	<path class="st0" d="M4942,870c-5,0,73-110,153-220s145-205,145-210c0-6-70-105-155-220S4930,8,4930,5s63-5,139-5h140l100,148
		c55,81,127,181,160,222c34,41,61,77,61,80s-30,41-66,85s-106,137-155,208l-90,127h-135C5002,870,4953.2,870,4942,870z"/>
	<path class="st0" d="M5627,838c-13-18-54-75-90-127l-66-94l65-79c35-44,64-84,64-89c0-6-29-46-65-91c-38-46-64-87-61-95
		s44-70,92-139l85-124h144h145l-166,225l-166,225l151,204c83,112,156.4,216,156.4,216c-6.3,0-63.4,0-134.4,0h-130L5627,838z"/>
</g>
</svg>
