<?xml version="1.0" encoding="utf-8"?>
<!-- Generator: Adobe Illustrator 25.3.1, SVG Export Plug-In . SVG Version: 6.00 Build 0)  -->
<svg version="1.1" id="Layer_1" xmlns="http://www.w3.org/2000/svg" xmlns:xlink="http://www.w3.org/1999/xlink" x="0px" y="0px"
	 viewBox="0 0 877 320" style="enable-background:new 0 0 877 320;" xml:space="preserve">
<style type="text/css">
	.st0{fill:#FFFFFF;}
</style>
<g id="XMLID_1_">
	<g id="XMLID_3_">
		<path id="XMLID_25_" class="st0" d="M413.5,163c5.1-7.8,7.6-16.7,7.6-26.4c0-8.5-1.9-16.3-5.7-23.5c-3.8-7.2-9.8-12.9-17.8-17.4
			c-8.1-4.5-18-6.6-29.9-6.6H312v148h30v-53h19.6l31.6,53H424l-33.5-57.2C400.7,176.4,408.4,170.8,413.5,163z M384.1,154.4
			c-5.7,3.5-12.7,5.6-20.9,5.6H342v-45h21.2c8.3,0,15.3,1.3,21,4.6s8.5,9.1,8.5,17.3C392.7,145.1,389.9,151,384.1,154.4z"/>
		<path id="XMLID_28_" class="st0" d="M483.1,89l-53.5,148h29.7l11.9-36h50.9l12.1,36h29.7L510.7,89H483.1z M478.6,178l17.2-53h1.3
			l17.6,53H478.6z"/>
		<polygon id="XMLID_29_" class="st0" points="661.5,180 660.9,180 628,89 584,89 584,237 613,237 613,131 614.2,131 651.7,237 
			670.8,237 708.2,131 709,131 709,237 738,237 738,89 694.4,89 		"/>
		<path id="XMLID_32_" class="st0" d="M870.8,114.7C867,107,861.1,100.8,853,96s-18-7-29.9-7H768v148h29v-47h26.1
			c12,0,22.1-2.4,30.1-7.1c8.1-4.7,14-10.8,17.7-18.4s5.6-15.8,5.6-24.7C876.6,130.9,874.7,122.5,870.8,114.7z M839.7,159.9
			c-5.7,4-12.7,6.1-21,6.1H797v-51h21.7c8.5,0,15.5,1.6,21.1,5.4c5.6,3.7,8.4,10.3,8.4,19.6C848.1,149.3,845.3,155.9,839.7,159.9z"
			/>
	</g>
</g>
<g id="XMLID_689_">
	<g id="XMLID_435_">
		<g id="XMLID_4_">
			<polygon id="XMLID_11_" class="st0" points="178,184.5 136,209 94,184.5 94,135.4 136,110.8 178,135.4 			"/>
		</g>
		<path id="XMLID_14_" class="st0" d="M136.5,1.4L0,80.7v158.4l136.5,79.3L273,239.1V80.7L136.5,1.4z M70,198.3v-77.2l66-38.5
			l66,38.5v77.2l-66,38.5L70,198.3z M70,242.8V216l89.3,52.2l-22.8,13.3L70,242.8z M241,220.7l-66.5,38.7l-23.6-13.8l66.2-38.7
			v-94.4l-81-47.3l-81,47.3v3.4v91v27.2l-23-13.4V99.1l104.5-60.7L241,99.1V220.7z"/>
	</g>
</g>
</svg>
