<svg xmlns="http://www.w3.org/2000/svg" width="132" height="48" fill="#000">
    <path fill-rule="evenodd" clip-rule="evenodd" d="M20.965 6.034c-.18.025-.516.085-.745.134-.229.05-.572.12-.763.158-.19.037-.495.099-.676.137a37.18 37.18 0 0 1-1.49.276c-.124.018-.413.074-.642.124a6.31 6.31 0 0 1-.901.119c-.494.028-.705.076-1.612.367-.75.24-.992.303-1.404.364a6.356 6.356 0 0 1-.651.067.79.79 0 0 0-.33.065c-.07.036-.245.092-.388.125-.397.092-1.038.296-1.221.387-.09.046-.238.107-.33.138-.37.124-1.285.58-1.7.85-.43.28-.503.336-.929.717a3.841 3.841 0 0 1-.405.312c-.657.42-1.009.66-1.257.854a3.99 3.99 0 0 1-.294.205c-.086.054-.338.28-.56.501-.221.222-.466.465-.544.539-.142.136-.32.42-.593.954-.083.16-.203.36-.267.445-.13.17-.135.196-.064.32.034.06.05.208.053.485.006.717.056 1.396.113 1.531.07.168.207.234.557.27.425.044.611.142.611.32 0 .074.05.155.182.298.228.247.237.254.318.234a.364.364 0 0 1 .177.03c.112.047.166.149.174.332.013.27.013.27.129.307.062.02.19.046.286.058.263.033.391.082.495.188.072.074.147.105.321.132.244.038.367.092.666.29.248.165.303.249.303.456 0 .138.02.191.113.303.125.15.177.162.365.082.156-.066.482-.076.591-.017.045.024.123.137.178.257.053.117.15.262.214.322.18.168.474.355.614.392l.396.11c.205.058.28.067.31.036.051-.05.846-.053 1.067-.003.086.02.2.067.256.107.069.05.303.113.762.204.365.073.734.162.82.199.149.063.818.286 1.208.403.102.03.29.055.416.055.17 0 .277.023.41.085.1.046.303.117.451.158.149.04.333.095.409.121.076.026.216.058.311.07.095.013.228.05.295.084.067.034.208.09.313.123.105.034.266.1.358.146.093.046.28.113.416.148.137.036.365.105.508.153.143.049.385.126.538.173.152.046.41.134.572.195.162.06.334.122.383.137.048.015.189.074.312.132.536.25 1 .458 1.027.459.084 0 .72.358.927.52.484.38.667.586.808.907.03.07.074.099.172.115.234.04.25.052.415.305.265.409.257.77-.028 1.243-.317.525-.67.782-1.961 1.428-.176.088-.363.2-.416.25a1.14 1.14 0 0 1-.218.15 83.65 83.65 0 0 0-.485.25c-.2.103-.458.225-.572.27a1.987 1.987 0 0 0-.245.11c-.02.015-.153.076-.295.135-.454.189-1.708.695-1.887.762l-.555.209c-.21.079-.467.167-.572.196a.93.93 0 0 0-.288.136c-.053.045-.233.123-.398.173-.166.05-.442.142-.614.204-.171.063-.514.171-.762.242-.248.07-.646.189-.884.262a92.31 92.31 0 0 1-.798.242c-.365.108-.789.239-1.82.56-.717.223-1.15.374-2.929 1.019-1.208.438-2.515 1.012-3.085 1.354a9.93 9.93 0 0 1-.538.299c-.723.364-1.68 1.054-2.102 1.518-.16.175-.428.453-.597.617-.316.306-.646.71-.646.792 0 .06-.091.203-.232.364a.512.512 0 0 0-.114.174.535.535 0 0 1-.087.17 6.145 6.145 0 0 0-.314.548.978.978 0 0 0-.069.181c-.02.082-.008.104.086.156.109.061.12.108.058.253-.027.063.145.138.315.138.15 0 .203.08.193.298-.004.1.007.193.026.204.066.041.033.123-.077.19a.34.34 0 0 0-.153.21l-.042.143.163-.022c.196-.027.279.039.283.226l.01.293.006.173.174.02c.174.022.437-.058.78-.234.083-.043.197-.063.363-.063.234 0 .251-.006.442-.152.11-.083.2-.163.2-.178 0-.035.26-.138.347-.138.087 0 .087.028-.002.123l-.071.076.126.06c.069.032.16.05.201.04a.19.19 0 0 1 .125.012c.067.041.019.144-.206.437-.276.36-.226.363.225.014.193-.15.4-.244.398-.182a.28.28 0 0 1-.052.094c-.065.085-.065.123 0 .123.027 0 .068-.033.089-.072.047-.087.233-.17.381-.17.092 0 .104.01.085.069-.027.086-.03.087.202-.016.177-.078.537-.314.694-.453a.735.735 0 0 1 .197-.103c.074-.026.25-.103.391-.171a2.73 2.73 0 0 1 .28-.124c.06 0 .01.108-.084.175-.083.059-.097.085-.066.122.033.04.07.033.218-.043.316-.16.46-.173.3-.028-.038.034-.069.086-.069.115 0 .029-.12.166-.267.306-.146.139-.259.26-.25.269.022.022.311-.11.382-.174.057-.051.254-.175.707-.445.134-.08.368-.188.52-.242.357-.125.668-.28.789-.394.074-.07.14-.093.3-.104.144-.01.2-.028.19-.057-.01-.024.003-.059.028-.078.108-.086.823-.286 1.026-.287.066 0 .073.01.044.064-.04.075-.017.108.073.108.08 0 .081.043.003.113-.083.074-.554.29-.702.321-.141.03-.486.193-.486.23 0 .042.215 0 .468-.094.396-.145.987-.305 1.018-.274.027.026-.042.09-.158.147-.16.077-.15.13.024.13.162 0 .168.04.023.146-.086.064-.093.078-.038.077.158-.003.496-.097.59-.164a1.22 1.22 0 0 1 .292-.13c.226-.068.492-.202.489-.245-.002-.017-.092-.036-.201-.042a.67.67 0 0 1-.237-.043c-.022-.017-.143-.022-.27-.01-.169.016-.232.01-.232-.02 0-.066.22-.14.445-.15.133-.006.2-.022.19-.047-.021-.057.35-.183.643-.22.173-.02.278-.053.33-.1.09-.083.3-.144.497-.144.1 0 .166-.022.21-.069.087-.094.293-.174.58-.227a3.58 3.58 0 0 0 .45-.118c.115-.04.275-.09.356-.108.216-.052.186-.111-.049-.097-.123.008-.2-.002-.21-.027-.013-.04.15-.106.541-.223.122-.036.254-.087.295-.113.04-.026.159-.075.264-.11a.75.75 0 0 0 .21-.092c.045-.068.61-.201.864-.203.143 0 .323-.017.399-.036.076-.019.308-.048.514-.065.207-.016.394-.047.415-.068a.19.19 0 0 1 .11-.042c.05-.002.041-.011-.034-.034a.355.355 0 0 0-.166-.011.622.622 0 0 1-.226-.016 6.802 6.802 0 0 0-.292-.056c-.072-.012-.13-.036-.13-.053 0-.038.401-.16.624-.189.086-.011.312-.075.502-.14.19-.067.378-.121.417-.121a.304.304 0 0 0 .144-.052c.133-.093.782-.286 1.155-.344.217-.033.4-.081.45-.118.116-.084.32-.146 1.024-.315 1.082-.258 1.185-.28 1.324-.28.076 0 .212-.022.302-.05a.776.776 0 0 1 .283-.03c.113.019.164-.027.085-.075-.08-.05.036-.14.41-.318.47-.222.702-.29.991-.29.116 0 .272-.017.349-.038.185-.051.99-.39 1.172-.495.08-.045.226-.109.324-.14a.662.662 0 0 0 .22-.108c.023-.027.153-.131.29-.23.136-.1.308-.233.383-.295a.617.617 0 0 1 .17-.114c.019 0 .134-.067.255-.148.159-.106.226-.174.242-.244.044-.2.43-.403.774-.405.173-.002.245-.018.312-.072l.087-.07-.257.01c-.189.008-.26-.002-.272-.035-.021-.061.272-.34.425-.403.077-.032.121-.074.121-.116 0-.035.033-.095.073-.131a9.21 9.21 0 0 0 .182-.175c.06-.06.144-.12.187-.133.09-.027.102-.081.026-.11-.072-.028-.065-.104.015-.16a.289.289 0 0 0 .091-.149.92.92 0 0 1 .085-.206c.076-.131.11-.39.061-.467-.05-.08-.006-.29.076-.363.036-.034.112-.086.167-.118.263-.148.363-.232.425-.355a.624.624 0 0 0 .068-.19c0-.03.021-.098.046-.148.026-.05.084-.17.129-.265.09-.194.348-.518.456-.576.055-.029.079-.027.103.009.032.048.019.257-.026.407-.018.06-.014.077.015.06.022-.014.04-.058.04-.098s.045-.114.1-.163c.107-.097.151-.257.144-.523-.015-.549 0-.692.086-.854.107-.2.107-.23 0-.338-.075-.074-.082-.1-.05-.17.055-.12-.007-.228-.12-.207-.147.028-.217-.042-.282-.282l-.06-.224.09-.109c.095-.112.104-.137.093-.267-.003-.042.04-.144.097-.227a.423.423 0 0 0 .096-.324.597.597 0 0 0-.066-.257.386.386 0 0 1-.06-.188.585.585 0 0 0-.085-.244.595.595 0 0 1-.086-.2c-.001-.054-.07-.201-.172-.371a1.31 1.31 0 0 1-.075-.168 1.08 1.08 0 0 0-.15-.248 32.394 32.394 0 0 1-.419-.54c-.553-.723-1.451-1.617-1.826-1.817-.116-.062-.234-.153-.263-.204-.06-.107-.388-.356-.665-.508a5.307 5.307 0 0 1-.49-.329 7.294 7.294 0 0 0-.451-.315 26.22 26.22 0 0 1-.413-.257c-.143-.09-.35-.216-.46-.28l-.831-.486a47.147 47.147 0 0 0-1.413-.788 8.972 8.972 0 0 1-.503-.282c-.202-.138-1.88-.951-2.322-1.126a21.256 21.256 0 0 1-.501-.207c-.616-.267-1.614-.57-2.584-.782a27.71 27.71 0 0 1-.884-.21 8.86 8.86 0 0 0-.614-.136c-.5-.087-.773-.214-.773-.36 0-.031.048-.085.107-.12l.107-.063-.107-.11c-.059-.061-.107-.134-.107-.163 0-.095.184-.23.641-.465.503-.26.773-.407.954-.518.066-.041.261-.15.433-.243s.429-.241.572-.33c.143-.09.385-.229.537-.31.153-.08.293-.158.312-.173.02-.014.1-.05.178-.081a5.53 5.53 0 0 0 .485-.248c.205-.116.384-.193.447-.193.229 0 .42-.098 1.247-.64.522-.341.625-.396.988-.522.408-.142.505-.188.729-.34.085-.06.439-.258.785-.442.346-.184.704-.391.795-.461.236-.18.46-.495.73-1.025.062-.124.174-.298.248-.387.073-.089.17-.26.213-.379.044-.12.124-.29.18-.38.133-.217.127-.339-.042-.775-.155-.403-.248-.511-.493-.577-.286-.078-.339-.109-.39-.23-.027-.066-.061-.114-.076-.107-.292.15-.428.166-.841.105a2.66 2.66 0 0 0-.503-.02.957.957 0 0 1-.499-.07c-.241-.085-.301-.091-1.04-.103-.506-.007-.9.004-1.113.032zm46.047 2.622a3.193 3.193 0 0 0-.129.211c-.085.149-.093.19-.073.355l.023.186-.158.154c-.087.084-.16.182-.164.217l-.014.168c-.005.057-.097.369-.205.693a67.9 67.9 0 0 0-.272.831c-.062.2-.105.27-.244.399-.093.086-.186.156-.208.156-.08 0-.059-.245.046-.534.08-.22.105-.35.106-.537 0-.194.017-.276.081-.388.045-.078.092-.183.104-.233.033-.13-.056-.122-.291.028-.193.123-.276.149-.276.087 0-.019-.022-.034-.048-.034-.026 0-.083.09-.125.199a2.935 2.935 0 0 1-.248.528c-.031.048-.14.28-.24.516a4.932 4.932 0 0 1-.27.555.61.61 0 0 0-.095.212c-.024.207-.117.488-.198.595-.048.063-.16.285-.248.493a4.052 4.052 0 0 1-.229.474c-.037.052-.1.201-.14.332a4.865 4.865 0 0 1-.325.774 7.74 7.74 0 0 0-.238.484c-.022.047-.145.28-.274.517a8.604 8.604 0 0 0-.234.447c0 .03-.705 1.342-.833 1.55-.07.114-.21.355-.31.537-.101.18-.265.47-.365.64-.228.391-.76 1.335-.913 1.621-.064.12-.222.403-.352.632-.391.693-.512.93-.662 1.305-.197.488-.405.896-.457.894-.056-.002-.153-.148-.38-.57a61.157 61.157 0 0 0-.893-1.612c-.091-.148-.178-.308-.58-1.074-.096-.18-.26-.532-.366-.78-.987-2.313-2.064-4.447-2.686-5.322-.382-.537-.748-.8-1.175-.846-.245-.027-.345.018-.462.207-.064.104-.087.114-.29.13a.876.876 0 0 0-.303.072c-.056.036-.218.06-.5.076-.291.017-.457.043-.554.088-.263.122-.451.178-.624.188-.174.009-.41.091-.45.157-.03.046-.168.045-.215-.002-.07-.07-.29.005-.463.16-.109.096-.244.173-.395.223-.384.127-.533.254-.718.61-.237.454-.267.523-.29.665a9.726 9.726 0 0 1-.071.36c-.048.226-.048.448.005 1.242.03.476.214 1.402.367 1.854.12.356.479 1.116.593 1.257.02.025.072.119.117.208.045.09.13.242.19.337.059.095.162.274.23.398.067.124.135.242.15.263.043.054.427.84.482.985a.765.765 0 0 0 .091.175c.025.029.083.154.13.277.202.532.875 1.848 1.356 2.65.08.133.212.374.294.537.082.162.176.333.21.381.034.048.126.21.206.362.201.382.549.963.806 1.347.12.178.405.617.633.974.23.357.467.726.53.819a.926.926 0 0 1 .112.202c0 .018.051.1.114.183.063.082.145.203.182.268.037.064.282.384.544.71.326.405.477.62.477.68 0 .047-.022.203-.048.346a6.443 6.443 0 0 0-.072.589c-.023.318-.042.447-.188 1.265-.038.21-.078.49-.09.623a27.02 27.02 0 0 1-.074.671c-.052.424-.04.746.03.889.089.18.36.55.44.599.049.03.124.086.167.124l.078.069.083-.079c.125-.117.205-.084.236.099.028.168.064.22.157.23a.502.502 0 0 1 .12.03c.042.018.072-.003.112-.08a.39.39 0 0 1 .105-.133c.028-.016.102-.13.165-.253.074-.145.138-.229.183-.236a.247.247 0 0 0 .125-.084c.08-.102.127-.052.154.167.036.29.065.222.186-.45.049-.273.081-.3.209-.179a.952.952 0 0 0 .18.137c.076.038.342.502.342.595 0 .059.103.094.12.041.007-.023.022-.086.034-.138.035-.162.227-.105.227.068 0 .098.04.1.122.01.034-.038.09-.07.123-.07.073 0 .092-.069.136-.508.054-.539.067-.589.188-.72.131-.143.158-.151.16-.045 0 .184.026.287.073.296.09.017.204-.149.26-.377.03-.122.077-.24.103-.26a.14.14 0 0 0 .049-.095c0-.03.039-.082.086-.113.067-.044.087-.086.087-.187 0-.163.065-.222.21-.19.099.021.107.033.088.124l-.042.204c-.026.126.039.144.07.02.034-.137.131-.138.335-.004.165.108.19.116.241.07.09-.081.196-.06.278.055.065.091.07.118.034.206-.06.143-.018.188.106.114.1-.06.141-.157.058-.14-.024.005-.043-.015-.043-.043 0-.03.043-.06.104-.07.074-.012.107-.04.115-.095.011-.081.034-.092.122-.058.03.011.044.042.034.07-.027.07.075.062.148-.012a.61.61 0 0 1 .133-.096c.04-.02.077-.07.082-.11a.215.215 0 0 1 .063-.118c.042-.035.055-.03.071.032.01.042.041.075.068.075.026 0 .048.017.048.037 0 .02.016.027.036.014.025-.015.023-.038-.004-.071-.048-.057.012-.153.095-.153.07 0 .22-.17.22-.249 0-.036.062-.15.14-.255l.139-.189h-.105c-.08 0-.105-.016-.105-.065 0-.036.023-.084.052-.108.028-.024.052-.063.052-.087 0-.024.024-.063.053-.088a.996.996 0 0 0 .146-.232c.05-.103.12-.202.154-.22a.126.126 0 0 0 .063-.1.16.16 0 0 1 .06-.111c.09-.066.182-.222.182-.305 0-.043.035-.088.087-.111.09-.041.109-.08.054-.114-.038-.023-.03-.223.01-.288a.384.384 0 0 1 .138-.092c.068-.03.087-.05.05-.051-.07-.004-.074-.016-.029-.099.018-.033.073-.149.121-.257.05-.11.118-.206.154-.218.086-.027.247-.26.247-.358 0-.043.016-.108.035-.146l.07-.137a.324.324 0 0 0 .034-.108c0-.021.038-.085.085-.14a.589.589 0 0 0 .11-.23 1.47 1.47 0 0 1 .107-.303c.046-.095.09-.202.098-.238a.338.338 0 0 1 .06-.122.786.786 0 0 0 .092-.194.724.724 0 0 1 .098-.198.41.41 0 0 0 .064-.195c.01-.112.174-.483.309-.699a.184.184 0 0 0 .023-.11c-.005-.031.061-.209.148-.394.087-.186.158-.38.158-.432 0-.052.024-.115.054-.14.03-.025.048-.073.039-.106-.009-.034.012-.087.047-.118a.413.413 0 0 0 .087-.202.437.437 0 0 1 .09-.207c.04-.037.06-.089.048-.125-.025-.077.069-.306.171-.418.058-.064.085-.147.1-.31.015-.146.045-.248.088-.295.067-.073.128-.22.113-.275-.004-.016.015-.055.043-.086a.892.892 0 0 0 .11-.213c.032-.085.087-.218.121-.294.168-.37.514-1.194.553-1.317a.985.985 0 0 1 .091-.207.264.264 0 0 0 .048-.115c0-.026.092-.237.204-.469.441-.91.635-1.33.698-1.518a8.36 8.36 0 0 1 .29-.659c.273-.568.41-.89.488-1.138.032-.105.084-.245.114-.312.411-.91.601-1.432.614-1.683a.646.646 0 0 1 .065-.263c.032-.048.05-.095.04-.105-.03-.03.076-.25.155-.322.067-.06.313-.436.313-.478 0-.01-.031-.026-.07-.035-.09-.024-.094-.226-.005-.34.072-.094.148-.294.121-.32-.01-.01.04-.179.112-.376.256-.71.435-1.263.485-1.494.027-.13.073-.28.1-.334.029-.054.074-.163.101-.242.047-.135.046-.146-.02-.18-.098-.053-.067-.238.09-.548.07-.135.126-.286.126-.335 0-.05.022-.132.049-.182.056-.105.16-.74.159-.977 0-.09.03-.216.069-.293.104-.205.146-.502.147-1.064.002-.424-.008-.525-.057-.6a.347.347 0 0 1-.052-.184 1.53 1.53 0 0 0 .001-.18c-.004-.07-.012-.076-.04-.034-.018.028-.024.132-.013.23.017.152.009.19-.052.252-.04.04-.103.072-.14.072-.098 0-.108.035-.11.368 0 .289-.005.306-.103.397-.091.086-.098.105-.061.185.05.112-.001.245-.107.272-.083.022-.175-.053-.175-.143 0-.07-.129-.188-.175-.16-.019.011-.034.05-.034.087 0 .085-.1.304-.192.419l-.072.09-.04-.09c-.042-.1-.01-.352.058-.432.05-.06 0-.212-.08-.242-.03-.012-.055-.05-.055-.085a.263.263 0 0 0-.05-.13.396.396 0 0 1-.053-.198c0-.092-.016-.13-.053-.13-.028 0-.052.015-.052.033 0 .018-.039.07-.086.113-.099.092-.151.302-.169.675-.007.159-.033.282-.07.339-.033.049-.05.105-.038.123.03.05-.013.163-.07.185-.103.04-.148-.07-.153-.367-.002-.158-.02-.292-.038-.298-.02-.007-.026-.026-.016-.043a.845.845 0 0 0-.005-.247c-.023-.204-.027-.212-.075-.14a.74.74 0 0 1-.245.165c-.29.131-.295.135-.325.249-.033.127-.11.198-.186.17-.044-.017-.053-.063-.043-.22.01-.193.008-.2-.07-.188-.082.01-.213-.093-.213-.168 0-.021-.018-.028-.039-.015-.054.033-.203.364-.204.452 0 .086-.102.187-.19.187-.054 0-.06-.021-.041-.153.011-.084.025-.173.03-.199.006-.028-.027-.05-.085-.058-.066-.007-.113-.044-.15-.117l-.055-.105-.11.132c-.077.093-.16.283-.275.637-.173.524-.281.694-.442.694-.087 0-.088-.074-.004-.237.036-.07.109-.259.162-.42.052-.163.133-.347.18-.41a.536.536 0 0 0 .096-.311c.013-.217.062-.374.145-.465.03-.033.045-.083.034-.111a.347.347 0 0 1 .014-.166c.019-.063.043-.168.053-.233a.847.847 0 0 1 .106-.255c.059-.092.08-.164.066-.22-.022-.09-.095-.109-.148-.039zm33.841 1.841a1.946 1.946 0 0 1-.433.03c-.105-.008-.269.001-.364.021-.386.082-.786.208-.825.26-.023.03-.153.1-.29.157-.136.056-.37.165-.52.243-.15.079-.584.284-.965.457-.381.172-.763.357-.85.41-.346.213-.759.384-.927.385-.456.001-1.072.261-1.942.82a6.999 6.999 0 0 1-.708.377c-.48.219-.741.367-1.062.598-.463.335-1.14.99-1.635 1.58-.229.273-.543.64-1.077 1.256-.401.465-1.177 1.546-1.504 2.098-.685 1.157-1.04 1.821-1.25 2.34-.072.179-.162.339-.222.393-.12.11-.184.306-.262.801-.032.197-.088.524-.125.728-.155.85-.182 1.593-.106 2.973.043.784.07.998.177 1.418.045.177.01.224-.143.192-.13-.028-.144.023-.062.231.191.485.279.608.53.741.103.055.163.282.16.607-.006.63.048.982.229 1.49.1.282.21.668.24.849a.708.708 0 0 0 .075.219c.028.044.074.142.1.219.06.17.146.286.415.561.114.118.315.33.446.47.131.141.315.308.408.37.092.063.297.231.454.375.158.143.336.296.397.34l.276.199c.091.066.37.21.618.32.248.11.475.214.504.23.297.17.47.255.9.447 1.102.49 1.504.576 2.705.577.536 0 .657-.012 1.04-.097.406-.09.672-.14 1.213-.228.311-.05.85-.197 1.056-.288.095-.042.255-.148.356-.236.161-.14.213-.165.418-.196.238-.036.611-.177.54-.204-.022-.008-.131.019-.243.06-.111.04-.257.082-.324.092-.117.018-.12.016-.062-.046.032-.036.185-.143.34-.239.35-.216.94-.642 1.136-.821.082-.075.168-.13.19-.122.078.026.02.214-.133.438-.157.23-.18.306-.053.179.04-.04.095-.072.123-.072.099 0 .382-.178.448-.283a1.89 1.89 0 0 0 .142-.388l.075-.282h.143c.148 0 .176-.02.556-.39.063-.063.22-.167.347-.231.128-.065.278-.166.334-.225.056-.059.135-.107.177-.107.051 0 .144-.083.29-.257.242-.288.28-.314.372-.244.102.077.14.06.257-.109.08-.116.099-.17.071-.197-.055-.056-.047-.268.015-.386.029-.056.045-.123.035-.148-.029-.077-.138-.05-.195.05-.076.133-.221.207-.291.148-.029-.024-.053-.064-.053-.09 0-.067.174-.311.413-.58.116-.129.233-.278.261-.332.063-.121.269-.28.363-.28.05 0 .072-.023.072-.072 0-.05.039-.086.13-.122.196-.077.235-.105.229-.168-.003-.032.036-.084.087-.116.112-.07.247-.208.247-.251 0-.018.047-.085.104-.15a.537.537 0 0 0 .104-.146c0-.015.026-.056.058-.09.037-.042.043-.064.015-.064-.07 0-.177.069-.178.114 0 .023-.09.14-.2.261-.164.182-.214.218-.291.208l-.094-.011.146-.232c.231-.369.417-.632.466-.663a.66.66 0 0 0 .123-.143c.042-.063.146-.206.231-.317.085-.112.192-.282.238-.377.129-.266.28-.469.382-.511.074-.03.08-.04.032-.053-.08-.018-.079-.024.042-.22.224-.365.412-.992.315-1.052-.02-.013-.037-.052-.037-.088s-.031-.075-.069-.087c-.062-.02-.084-.057-.075-.127.002-.012-.019-.041-.047-.064-.065-.054-.065-.13.001-.255a.526.526 0 0 0 .052-.2c0-.055.019-.13.042-.167.023-.037.033-.076.021-.088-.03-.03-.206.055-.333.163-.128.109-.285.127-.369.043-.049-.05-.048-.066.012-.182.036-.07.122-.182.189-.25.149-.145.184-.411.037-.282a.722.722 0 0 1-.154.076c-.067.025-.219.09-.339.144a.951.951 0 0 1-.477.098c-.203 0-.259-.011-.259-.05 0-.05.193-.123.321-.123.07 0 .081-.055.017-.082-.027-.012.014-.071.113-.161.254-.233.316-.254.78-.268.529-.016.548-.02.595-.145a.188.188 0 0 1 .138-.128c.054-.013.199-.084.322-.157.123-.074.236-.134.251-.134.016 0 .089-.06.163-.134.127-.127.141-.163.245-.629.06-.271.101-.534.09-.584a.262.262 0 0 1 .05-.195c.083-.125.089-.235.016-.296-.031-.026-.05-.086-.044-.14.011-.105-.044-.16-.318-.316-.312-.177-.845-.277-1.439-.269a5.719 5.719 0 0 1-.748-.048 2.332 2.332 0 0 0-.676-.021c-.17.018-.566.023-.881.012l-.572-.021-.728.163c-.4.09-.868.176-1.04.191-.235.021-.473.08-.963.238a24.27 24.27 0 0 1-.85.263c-.11.028-.365.112-.567.188a2.821 2.821 0 0 1-.762.18c-.467.051-.56.079-.543.162.01.045.046.06.15.06.076 0 .138.017.138.038 0 .041-.38.361-.428.361a.33.33 0 0 0-.115.066c-.047.037-.17.093-.273.125-.105.032-.22.07-.259.087a1.23 1.23 0 0 1-.242.05c-.387.046-.645.102-.683.148-.054.065.016.11.18.116.119.004.117.005-.052.056-.202.061-.263.103-.24.163.016.04-.278.144-.598.21a.32.32 0 0 0-.155.076c-.037.045-.034.062.02.102.062.044.062.051.008.111-.093.103-.068.113.101.04.214-.091.286-.087.312.019.014.052.047.086.085.086.108 0 .172.04.172.106 0 .046.03.066.113.074.11.01.106.014-.113.124a1.215 1.215 0 0 1-.286.112c-.041 0-.06.028-.06.087 0 .054.02.087.052.087.028 0 .052-.014.052-.03 0-.043.163-.11.27-.109.195.002.24.139.067.205a.366.366 0 0 0-.129.088c-.041.05-.04.063.002.09.027.017.069.032.093.032.063.001.053.059-.015.085-.05.02-.049.029.02.076.105.074.041.145-.147.16l-.144.01.2.063c.166.052.195.072.162.112-.084.1-.011.153.209.153.231 0 .268.04.096.106l-.113.043.105.022c.079.017.102.04.096.095-.011.106.149.163.37.133.106-.015.175-.011.175.01 0 .018-.077.043-.17.055-.093.013-.187.043-.207.068-.063.076-.312.145-.358.1-.03-.03-.016-.05.053-.075.197-.075.057-.15-.22-.117-.2.023-.26-.035-.135-.133l.084-.066-.174.01-.173.01.007.152a.786.786 0 0 0 .032.208c.014.03.027.086.028.124.002.067.023.07.723.062.72-.007.722-.008.936-.11.378-.18.573-.17.643.032.037.105.045.108.187.089.154-.022.1.023-.078.063a.657.657 0 0 0-.207.122l-.122.102.13.054c.072.03.13.068.13.084 0 .045.358-.136.407-.206.045-.063.24-.124.277-.087.012.011-.048.084-.132.162-.147.135-.15.143-.086.19.037.027.096.05.13.05.09 0 .077.087-.032.208-.087.096-.125.109-.407.14-.172.02-.325.049-.341.065-.049.048.178.14.29.118.125-.025.13.02.02.15-.073.084-.112.097-.331.11-.266.015-.33.083-.096.103.07.006.128.024.128.04 0 .044-.613.716-.832.913a3.247 3.247 0 0 1-.43.311c-.26.154-.742.335-.887.335-.048 0-.18-.062-.294-.138a1.392 1.392 0 0 0-.236-.137 1.28 1.28 0 0 1-.226-.134 3.983 3.983 0 0 0-.307-.19.56.56 0 0 1-.183-.175 1.379 1.379 0 0 0-.29-.277 1.309 1.309 0 0 1-.278-.263c-.232-.392-.366-1.59-.252-2.249.03-.174.055-.383.055-.464 0-.127.18-.843.275-1.1.184-.495.312-.794.45-1.057.254-.48.67-1.195.796-1.369.063-.085.194-.27.293-.41.438-.62.62-.84 1.268-1.528.878-.932 1.78-1.762 2.494-2.297l.45-.336c.1-.075.411-.25.69-.389.413-.206.542-.254.708-.266.201-.015.206-.013.37.14.236.221.298.246.63.253.216.004.348.027.494.085.193.077.202.078.269.018a.895.895 0 0 0 .145-.27c.057-.158.103-.224.191-.276a.474.474 0 0 0 .15-.132c.019-.036.098-.084.175-.107.102-.03.153-.07.189-.148a2.43 2.43 0 0 1 .188-.297c.076-.105.139-.212.139-.237.001-.026.074-.117.162-.203.146-.142.181-.159.367-.175.19-.018.212-.028.285-.144.044-.069.114-.156.157-.194.1-.09.193-.275.224-.45a.997.997 0 0 1 .07-.225c.024-.048.055-.15.069-.226.047-.264.136-.486.233-.577.089-.084.098-.114.098-.333 0-.198-.012-.252-.071-.304-.064-.058-.068-.09-.047-.36.019-.25.036-.312.108-.39.075-.08.084-.115.068-.26-.027-.242-.083-.556-.107-.595-.026-.043-.321-.144-.418-.144a.185.185 0 0 0-.115.042c-.067.067-.42.056-.472-.014-.04-.054-.058-.055-.211-.01-.092.029-.266.051-.387.051-.178 0-.232-.013-.28-.069a.229.229 0 0 0-.171-.07c-.121 0-.289-.062-.289-.107 0-.07-.265-.204-.404-.204-.116 0-.161-.02-.228-.1a.97.97 0 0 0-.17-.155c-.121-.08-.637-.103-.949-.043zm26.017.563c-.587.029-1.325.086-1.716.134a29.77 29.77 0 0 1-.814.086c-.22.02-.586.059-.815.087-.599.074-1.338.15-1.699.175-.722.05-3.28.398-4.835.658-.277.047-.636.102-.798.122-.162.021-.45.067-.641.103a13 13 0 0 1-.52.088 1.525 1.525 0 0 0-.364.112c-.11.051-.271.094-.381.1-.138.009-.172.003-.122-.02.237-.111-.582.065-.949.203-.145.055-.319.11-.385.124a7.683 7.683 0 0 0-.59.19c-.783.276-1.322.442-1.571.483-.258.043-.613.163-.613.208 0 .015-.078.061-.173.102a.846.846 0 0 1-.408.067c-.179-.005-.27.01-.389.068-.086.04-.25.096-.364.123a1.317 1.317 0 0 0-.364.15 3.195 3.195 0 0 1-.434.218c-.458.19-1.265.6-1.265.645 0 .069-.318.182-.618.22-.156.02-.314.052-.351.071a.441.441 0 0 1-.171.036.486.486 0 0 0-.184.04c-.121.06-.366.347-.38.444-.01.072.005.089.089.104.056.01.107.036.115.059.019.056-.115.07-.309.03-.244-.048-.345.068-.217.25.045.065.076.074.184.057.152-.024.206.022.235.203.017.1.004.134-.075.207a.504.504 0 0 1-.225.11c-.075.011-.14.044-.153.077-.03.078-.004.095.079.05a.434.434 0 0 1 .172-.037c.086 0 .105.016.123.107.021.103.028.107.169.093.081-.009.221-.037.311-.063.184-.053.24-.03.154.064a.332.332 0 0 0-.057.189c0 .145-.074.233-.196.233-.165 0-.223.059-.2.201.017.107.005.146-.069.226-.05.053-.09.111-.09.128 0 .018-.034.064-.076.103-.059.055-.067.08-.035.112.023.023.042.105.042.183 0 .1.032.193.112.319.259.407.386.586.455.645.128.11.543.297.746.337.107.02.257.062.333.092.089.035.265.057.486.06.543.009.583.057.503.61-.046.32-.14 1.123-.16 1.368-.01.114-.04.38-.067.59-.026.209-.066.575-.086.814-.021.238-.045.48-.053.537a65.63 65.63 0 0 0-.12 1.802c-.049.82-.134 1.849-.175 2.13-.077.522-.132 2.14-.087 2.565.011.105.051.292.089.416s.131.475.208.78c.186.744.311 1.2.348 1.268.019.035.097.066.204.08.193.025.285.117.194.193-.04.033-.042.055-.008.111.036.06.03.078-.04.125-.291.197-.343.286-.298.511.019.094.009.11-.094.156-.064.028-.121.08-.127.114-.007.035.06.173.149.307l.161.242.231-.011c.215-.011.232-.007.274.075.037.072.036.093-.007.125-.064.048-.066.15-.005.24a.6.6 0 0 1 .07.16c.012.05.032.117.043.147.014.036.002.055-.034.055-.031 0-.056.024-.056.052 0 .038.038.052.135.052.124 0 .144.014.247.174.061.096.137.19.168.208.051.03.048.041-.021.1a.328.328 0 0 0-.078.082c0 .029.302-.063.357-.108.047-.039.082-.032.226.047l.171.093.125-.081c.08-.053.118-.1.108-.136-.026-.08.117-.19.313-.239.095-.024.238-.067.316-.095.131-.047.152-.046.233.007.087.057.097.054.367-.083.153-.078.307-.142.341-.142.034 0 .155-.033.269-.074.215-.077.268-.092.727-.208a5.31 5.31 0 0 1 .988-.143c.167 0 1.257-.157 1.491-.216.104-.027.381-.073.614-.102.233-.03.508-.076.609-.103a3.43 3.43 0 0 1 .46-.071c.151-.013.377-.045.501-.07.24-.051.36-.07 1.334-.21.343-.05.835-.127 1.092-.171.258-.044.592-.091.743-.104a3.56 3.56 0 0 0 1.292-.362.717.717 0 0 1 .201-.072c.031 0 .09-.037.132-.082.093-.1.143-.116.491-.16.205-.026.31-.06.413-.13l.138-.096-.136-.009c-.395-.027-.366-.095.054-.13a2.34 2.34 0 0 0 .32-.04 2.69 2.69 0 0 1 .303-.063c.153-.027.351-.081.439-.12a.845.845 0 0 1 .271-.07c.06 0 .14-.024.177-.052.065-.049.065-.05-.018-.052-.051 0-.071-.013-.052-.032.047-.043.407-.142.519-.142.063 0 .099-.022.111-.069.014-.052.059-.074.192-.092a.498.498 0 0 0 .24-.088.322.322 0 0 1 .163-.076.435.435 0 0 0 .147-.043c.026-.017.156-.054.287-.083.217-.047.272-.081.32-.2.002-.005.112-.017.246-.026.133-.008.396-.047.585-.085.189-.038.409-.07.489-.07.153 0 .227-.05.122-.084-.034-.01-.089-.065-.122-.12-.044-.076-.095-.108-.2-.125-.182-.031-.157-.051.112-.089.121-.017.383-.06.584-.096.289-.053.481-.064.936-.053.439.01.556.003.505-.027-.036-.022-.258-.052-.492-.067-.425-.028-.518-.05-.6-.15-.058-.07-.002-.08.569-.107.247-.012.456-.029.465-.037.038-.038-.154-.184-.268-.205a4.097 4.097 0 0 1-.396-.11c-.258-.085-.322-.15-.145-.15.102 0 .113-.087.017-.138a.662.662 0 0 0-.235-.036c-.259 0-.982-.097-1.032-.138-.025-.02-.175-.06-.334-.086-.415-.07-.604-.133-.593-.198.013-.079-.202-.123-.807-.166-.961-.067-1.697-.142-1.889-.191-.183-.048-.169-.049.329-.032.341.012.503.006.471-.016a1.076 1.076 0 0 0-.295-.056c-.135-.012-.549-.052-.921-.09a21.493 21.493 0 0 0-2.409-.072c-1.191.043-1.947.083-2.427.13-.511.05-1.334.043-1.334-.011 0-.01.038-.192.085-.404.082-.373.148-.842.227-1.633.028-.27.054-.39.09-.41.04-.021.043-.04.013-.076-.025-.03-.031-.108-.016-.213.039-.291.015-.268.467-.456.084-.034.083-.036-.035-.038a.436.436 0 0 1-.171-.035c-.057-.036-.002-.064.287-.145.093-.026.163-.06.156-.076-.024-.06.125-.1.441-.118.18-.01.327-.033.327-.05 0-.015-.019-.029-.043-.03a.216.216 0 0 1-.093-.031c-.072-.046.007-.13.148-.16.06-.012.177-.044.258-.07a1.16 1.16 0 0 1 .295-.05c.194 0 .302-.032.302-.088 0-.025-.031-.056-.069-.068-.049-.015-.07-.052-.07-.124 0-.11.093-.17.263-.17.096 0 .112-.051.027-.084-.083-.032-.031-.065.136-.087.118-.016.149-.035.158-.098a.25.25 0 0 1 .097-.139c.048-.033.127-.095.176-.138.049-.043.118-.078.154-.078.119 0 .065-.06-.075-.083-.076-.012-.138-.033-.138-.047 0-.014.032-.078.07-.14.039-.064.061-.13.05-.147-.073-.118.249-.276.562-.276.195 0 .192-.05-.006-.1-.177-.045-.202-.097-.061-.127.162-.034.252-.082.243-.126-.006-.028.068-.052.216-.07.561-.071.528-.063.481-.12-.036-.044-.03-.063.036-.113.069-.052.076-.078.055-.216-.029-.196-.018-.201.451-.228l.347-.02-.175-.04c-.222-.05-.273-.08-.227-.136.026-.032-.077-.056-.44-.101a8.616 8.616 0 0 0-.701-.063c-.285-.003-.4-.035-.394-.11.003-.032-.01-.059-.029-.059-.019 0-.026-.023-.015-.052.018-.045-.154-.052-1.409-.056-.786-.002-1.476-.014-1.533-.027-.073-.016-.101-.04-.094-.082.006-.033-.006-.06-.026-.06-.02 0-.036-.03-.036-.067 0-.037-.014-.076-.031-.087-.037-.023-.066-.462-.093-1.415l-.02-.72.167-.07c.369-.155.367-.15.083-.17-.257-.018-.258-.018-.287-.131a2.539 2.539 0 0 1-.019-.466l.01-.352.202-.082a3.84 3.84 0 0 1 .52-.147c.175-.036.379-.097.455-.137a.634.634 0 0 1 .229-.072c.051 0 .286-.06.522-.135.236-.075.515-.154.619-.176.674-.142.823-.183.983-.274.098-.055.261-.112.361-.125.101-.013.28-.054.399-.09s.464-.099.767-.14c.497-.069.562-.085.66-.171.192-.168.886-.374 1.579-.467.219-.03.517-.077.66-.104.144-.028.295-.05.337-.05a.61.61 0 0 0 .207-.067 1.68 1.68 0 0 1 .391-.107c.407-.064.525-.091.711-.167.29-.12.746-.238 1.075-.281.218-.029.359-.068.468-.131.085-.05.223-.125.305-.166.129-.065.142-.08.095-.12-.143-.118.015-.22.404-.26.135-.013.266-.049.312-.084a.987.987 0 0 1 .201-.107.757.757 0 0 0 .192-.11.546.546 0 0 1 .208-.091c.109-.024.135-.043.126-.097-.04-.239-.049-.254-.174-.296a1.441 1.441 0 0 1-.261-.125c-.154-.097-.14-.13.092-.22.114-.045.149-.078.157-.15.014-.11.247-.241.492-.278.268-.04.548-.193.355-.193-.126 0-.32-.074-.32-.122 0-.027.031-.066.069-.086.038-.02.069-.068.069-.106 0-.04.037-.085.087-.108.092-.042.109-.08.052-.115-.066-.04-.034-.15.069-.237a.553.553 0 0 1 .303-.111c.211-.026.561-.203.563-.285.001-.05-.091-.09-.396-.172a1.29 1.29 0 0 1-.298-.117c-.062-.043-.191-.067-.433-.082a6.57 6.57 0 0 1-.551-.057 22.977 22.977 0 0 0-1.164-.168c-.32-.036-1.869-.069-2.288-.049zm-88.866.069a.505.505 0 0 1-.32.01c-.173-.047-.235-.014-.27.142-.03.14-.334.416-.458.416-.094 0-.194.052-.492.252-.08.053-.256.138-.394.188-.138.05-.262.109-.276.13a.517.517 0 0 0-.026.187c0 .146-.004.151-.096.135a.83.83 0 0 1-.15-.04c-.046-.02-.061.005-.08.121a.448.448 0 0 1-.436.378c-.154 0-.16.004-.236.165-.042.09-.087.24-.1.334-.016.124-.04.173-.087.186-.035.01-.073.058-.084.108-.01.05-.026.11-.033.134-.02.065-.192.052-.316-.023-.06-.037-.116-.06-.124-.052a.624.624 0 0 0 0 .19c.016.156.007.186-.08.277-.054.056-.128.102-.165.102-.06 0-.065.015-.039.147.043.222.035.394-.021.462-.046.055-.064.211-.072.614-.003.132.075.367.233.707.046.099.083.187.083.197 0 .01.114.256.253.548.14.292.275.585.302.651.027.066.132.274.232.462.101.188.184.352.184.365 0 .012.025.07.056.127.16.298.464.915.464.94 0 .016.04.115.091.22l.137.287c.04.081.037.132-.019.346a4.507 4.507 0 0 1-.192.546c-.271.623-.4.974-.674 1.82-.074.228-.192.571-.262.762-.07.19-.149.416-.175.502-.164.526-.462 1.31-.532 1.401a.74.74 0 0 0-.065.176 2.792 2.792 0 0 1-.263.613c-.035.052-.055.108-.044.124.022.037-.25.834-.354 1.037-.041.08-.107.233-.147.339-.04.106-.114.242-.165.302-.075.09-.093.147-.095.303a.93.93 0 0 1-.096.39c-.05.108-.092.211-.092.23 0 .017-.045.139-.1.27a4.245 4.245 0 0 0-.177.565 3.62 3.62 0 0 1-.154.503 1.529 1.529 0 0 0-.1.338c-.025.185-.092.351-.337.832-.095.185-.172.367-.172.403 0 .073-.13.28-.275.439a.75.75 0 0 0-.137.253.333.333 0 0 1-.152.216c-.172.104-.186.028-.035-.197.143-.214.253-.471.25-.585 0-.038-.095.119-.21.348-.115.228-.268.525-.341.658-.304.558-.627 1.231-.715 1.49-.098.29-.145.713-.104.934.029.15.074.133.128-.048.062-.206.174-.329.272-.297l.081.025-.02.499c-.016.396-.01.498.025.498.025 0 .088.034.14.076.096.074.096.078.075.372a21.6 21.6 0 0 1-.03.38c-.008.067.014.091.105.123.128.043.18.105.18.217 0 .092.061.137.114.084.07-.07.164-.042.202.057l.036.095.076-.09c.041-.05.102-.14.134-.2.067-.122.136-.117.196.016.058.127.049.212-.036.327-.093.126-.071.153.09.108.12-.033.129-.03.212.092.047.07.086.171.086.225 0 .11.155.336.23.336.055 0 .214-.104.376-.244.108-.094.414-.206.561-.206.11 0 .339-.193.625-.529.127-.147.257-.268.29-.268.034 0 .092.042.13.093l.067.093.111-.119a1.29 1.29 0 0 0 .16-.212.48.48 0 0 1 .122-.145 1.08 1.08 0 0 0 .182-.206l.304-.428c.108-.15.262-.396.343-.549.081-.152.159-.293.173-.312.053-.073.688-1.309.898-1.75.077-.162.163-.333.191-.381.028-.048.072-.133.099-.19.026-.058.064-.136.085-.174.02-.038.053-.11.072-.158.059-.15.593-.5 1.059-.693.23-.095.451-.202.49-.238a.957.957 0 0 1 .177-.117.672.672 0 0 0 .202-.198c.109-.165.279-.251.434-.22.071.014.107.008.107-.02 0-.022-.016-.031-.035-.02-.051.032-.042-.037.01-.08a.573.573 0 0 1 .2-.062c.084-.014.232-.06.327-.105a.901.901 0 0 1 .237-.081c.035 0 .167-.048.292-.106a2.33 2.33 0 0 1 .405-.143c.096-.02.23-.07.297-.11.067-.04.162-.098.212-.126.267-.154.41-.266.427-.333.014-.056.083-.099.264-.166.135-.05.28-.09.324-.09.045 0 .144.061.232.144.296.281.42.375.495.375.042 0 .183.082.313.182.13.1.271.205.314.234.311.211.403.284.59.468.115.114.304.309.418.433.357.386 1.025 1.02 1.138 1.08.06.032.161.083.225.113.063.03.123.083.133.119.009.036.055.083.102.104.09.041.362.052.484.019.072-.02.072-.02.006-.154-.13-.264.055-.288.307-.04.111.11.29.225.516.336.19.093.382.213.427.267.045.053.098.096.117.096.043 0 .215.144.483.402.107.103.208.187.225.187.017-.001.06-.023.095-.05.061-.047.06-.055-.028-.217a1.884 1.884 0 0 0-.255-.336c-.238-.245-.365-.444-.303-.479.089-.05.311.076.581.327.065.061.142.097.206.097.128 0 .237.056.237.121 0 .028.031.067.07.087.038.02.069.058.069.083s.08.087.176.137l.176.092.101-.101c.083-.083.097-.12.08-.208-.02-.096-.013-.107.063-.107.12 0 .66.291.698.376.031.069.122.126.152.096.008-.008-.04-.12-.109-.249-.134-.252-.16-.444-.068-.48.04-.015.049-.043.032-.098-.067-.219-.086-.385-.049-.43.062-.075.158-.054.245.053.096.12.223.192.252.145.026-.041-.01-.195-.072-.32-.037-.072-.038-.096-.004-.107.068-.024.203.039.293.135.093.101.202.096.476-.021.245-.105.432-.119.58-.043.087.046.143.056.184.034.076-.043.256.028.347.137l.07.082.097-.148c.065-.1.091-.178.08-.236l-.102-.503c-.057-.281-.078-.48-.067-.616a.777.777 0 0 0-.044-.364c-.069-.182-.422-.92-.544-1.133-.102-.178-.551-.78-.583-.78-.013 0-.139-.142-.28-.316-.14-.174-.335-.412-.431-.529a15.945 15.945 0 0 1-.38-.487c-.113-.15-.401-.479-.64-.729a9.583 9.583 0 0 1-.876-1.02c-.181-.242-.608-.84-.708-.99-.119-.179-.345-.472-.83-1.075-.214-.267-.54-.672-.722-.901-.183-.229-.41-.506-.504-.615a2.936 2.936 0 0 1-.266-.364c-.052-.09-.197-.324-.322-.518-.348-.538-.48-.755-.723-1.189-.214-.381-.331-.556-.809-1.213-.345-.474-.604-.93-1.059-1.865a50.22 50.22 0 0 1-.427-.89c0-.006-.136-.242-.301-.525-.807-1.38-1.43-2.326-1.956-2.975a9.128 9.128 0 0 1-.368-.492c-.292-.427-.958-1.069-1.222-1.18-.206-.086-.769-.251-.846-.248-.04.002-.152.025-.247.053zm27.133.136c.044.096.031.145-.178.709-.161.434-.28.799-.28.86 0 .077-.413 1.001-.488 1.091l-.064.076-.001-.08c0-.043.022-.124.05-.18a1.35 1.35 0 0 0 .085-.327c.017-.125.079-.333.136-.461.086-.194.271-.754.34-1.03.023-.093.218-.608.26-.685.044-.085.093-.076.14.027zm39.807.397c.038.062-.02.173-.09.173-.076 0-.119-.076-.088-.155.022-.06.145-.07.178-.018zm-30.015.343c-.125.19-.338.328-.496.322a.758.758 0 0 0-.427.146.376.376 0 0 1-.14.066c-.66.145-.728.172-.728.294a.32.32 0 0 1-.046.16c-.043.06-.053.06-.154.007-.129-.066-.147-.068-.147-.018a.625.625 0 0 1-.057.158.458.458 0 0 1-.475.236c-.144-.021-.147-.02-.254.146-.06.092-.127.232-.15.312-.027.09-.069.15-.11.161-.035.01-.081.066-.102.125-.03.085-.057.107-.135.107a.38.38 0 0 1-.201-.087.517.517 0 0 0-.124-.087c-.012 0-.021.072-.021.16 0 .132-.018.175-.105.257a.452.452 0 0 1-.182.11c-.07.01-.079.035-.094.259-.014.195-.035.266-.096.331a.296.296 0 0 0-.078.213.616.616 0 0 1-.056.238c-.04.079-.05.156-.035.288.038.321.31 1.325.67 2.476.087.276.197.627.243.78.047.152.118.37.158.485.04.114.084.27.098.346.015.077.06.253.099.392l.072.253-.098.232a5.042 5.042 0 0 1-.318.579c-.281.443-.411.668-.668 1.16a68.031 68.031 0 0 1-.715 1.359c-.036.063-.175.326-.31.584-.135.259-.297.549-.36.645a15.18 15.18 0 0 0-.526.885 1.251 1.251 0 0 1-.13.187.361.361 0 0 0-.08.138c-.022.112-.368.746-.545 1-.093.133-.168.26-.168.282 0 .023-.078.123-.174.223-.144.151-.173.203-.173.31 0 .092-.04.191-.138.344a1.6 1.6 0 0 0-.14.24c0 .014-.056.11-.124.215a4.323 4.323 0 0 0-.276.541 5.553 5.553 0 0 1-.221.468 2.069 2.069 0 0 0-.2.429c-.035.11-.256.455-.51.797-.085.114-.155.23-.156.256-.004.074-.239.345-.348.401a.253.253 0 0 0-.119.136c-.03.12-.24.333-.328.333-.117 0-.088-.076.099-.26.095-.094.173-.184.173-.2 0-.016.04-.086.087-.156a.503.503 0 0 0 .087-.185c0-.031.023-.076.052-.1.06-.05.068-.104.016-.104-.02 0-.054.043-.076.095-.06.139-.361.587-.528.789-.08.095-.18.231-.223.303a.781.781 0 0 1-.137.173c-.062.047-.133.142-.404.546-.42.624-.555.93-.594 1.35-.026.28.016.32.122.114a.922.922 0 0 1 .153-.21c.07-.067.1-.075.157-.044.08.043.078.083-.033.608-.079.373-.08.434-.014.434.028 0 .077.04.108.088.066.1.05.37-.034.575-.09.22-.099.273-.046.273.028 0 .091.032.141.072a.212.212 0 0 1 .092.19v.12l.138-.022c.132-.021.139-.018.139.067 0 .145.055.137.2-.028.158-.18.204-.192.251-.067.055.144.04.24-.052.326-.121.114-.11.14.062.14.14 0 .152.006.197.129.026.071.045.17.041.22-.008.116.085.34.151.366.062.023.32-.075.415-.159.08-.07.402-.147.576-.138.156.008.4-.132.712-.408.278-.245.41-.284.449-.132.012.047.044.086.07.086.05 0 .27-.19.81-.704.37-.351.76-.818 1.288-1.548.118-.162.28-.38.36-.485a6.55 6.55 0 0 0 .277-.399c.072-.114.199-.288.282-.386.083-.099.15-.193.15-.21 0-.016.044-.083.097-.15.053-.066.117-.16.142-.21.072-.143.692-.422 1.21-.547.235-.056.464-.127.51-.157a.334.334 0 0 1 .14-.055c.03 0 .133-.074.23-.165.169-.157.185-.164.376-.163.14 0 .195-.011.184-.04-.024-.063.048-.09.262-.102.107-.005.239-.027.293-.047a.764.764 0 0 1 .225-.038c.07 0 .23-.031.353-.069a1.72 1.72 0 0 1 .409-.069.743.743 0 0 0 .32-.07.653.653 0 0 1 .185-.069c.078 0 .442-.201.525-.29.052-.057.143-.094.3-.121.382-.066.366-.075.688.362a.724.724 0 0 0 .266.229c.08.035.177.107.215.159.038.052.121.144.184.206.524.509.63.62.71.748.244.39.418.647.546.81.159.2.426.562.506.684.052.081.31.292.443.363.04.021.077.072.083.114.015.105.18.191.422.22l.203.025-.027-.117c-.044-.19-.037-.253.03-.266.062-.013.336.25.336.323 0 .038.388.33.554.415.057.03.13.096.164.148.032.052.139.173.237.268.097.095.236.259.307.364.072.105.153.203.18.218.057.032.188-.03.187-.09 0-.07-.169-.408-.287-.577-.146-.209-.25-.413-.222-.44.06-.06.236.049.458.284.157.166.27.258.319.258.084 0 .183.085.183.157 0 .026.024.061.054.078s.058.058.063.091c.005.034.077.115.16.18l.15.12.075-.07c.04-.04.093-.07.115-.07.024 0 .042-.051.042-.122 0-.195.077-.172.498.148.107.082.195.17.195.194 0 .025.031.074.07.109.067.06.069.06.069-.011a1 1 0 0 0-.07-.25c-.085-.216-.088-.371-.008-.46.045-.05.06-.126.06-.297v-.23h.104c.078 0 .114.023.147.091.024.05.083.117.131.149.078.05.09.051.108.004.023-.06.002-.247-.037-.34-.052-.118.117-.065.262.083.155.158.112.153.651.069.238-.037.39-.002.484.111.035.042.063.048.11.023.079-.042.297.075.33.176.025.082.047.082.137.005.113-.097.198-.25.173-.313-.044-.109-.059-.867-.02-.986a1.18 1.18 0 0 0 .044-.27c.006-.17-.198-.938-.36-1.349-.106-.27-.384-.808-.465-.903a7.268 7.268 0 0 1-.395-.642c0-.01-.093-.172-.208-.36a4.259 4.259 0 0 1-.208-.367c0-.051-.375-.654-.656-1.055a10.344 10.344 0 0 1-.514-.817l-.245-.45c-.02-.037-.183-.363-.363-.725s-.36-.717-.4-.787l-.201-.364c-.07-.13-.222-.391-.336-.582-.251-.42-.613-1.059-.613-1.083 0-.01-.06-.108-.135-.22a2.165 2.165 0 0 1-.196-.368 7.942 7.942 0 0 0-.206-.477 5.232 5.232 0 0 1-.172-.399 6.626 6.626 0 0 0-.16-.398c-.073-.172-.19-.468-.26-.659-.07-.19-.274-.64-.453-.997-.479-.956-.535-1.11-1.077-2.919-.095-.316-.41-1.142-.762-1.992-.327-.79-.716-1.602-1.014-2.112-.076-.129-.2-.368-.277-.53-.15-.32-.384-.668-.713-1.062-.185-.222-.25-.271-.59-.447-.368-.192-.392-.199-.727-.221a4.777 4.777 0 0 1-.453-.046c-.096-.022-.115-.01-.2.117zM9.837 19.84c.048.032.17.088.271.124.23.08.303.154.156.154A.631.631 0 0 1 10 20.01a1.268 1.268 0 0 0-.324-.147c-.09-.023-.17-.062-.179-.087-.02-.062.222-.018.34.063zm2.642 2.104c-.121.024-.095.218.038.281.175.084.777.148 1.145.123l.34-.023-.224-.075a1.268 1.268 0 0 1-.335-.169.557.557 0 0 0-.185-.107 5.046 5.046 0 0 0-.78-.03zm17.139 1.557c.117.063.167.151.29.515.038.115.095.224.126.243.236.145.337.363.319.681-.014.245-.095.262-.309.066a3.16 3.16 0 0 0-.265-.218.402.402 0 0 1-.13-.133 1.797 1.797 0 0 0-.243-.286c-.124-.128-.225-.251-.225-.275a1.23 1.23 0 0 0-.07-.226c-.078-.208-.088-.365-.025-.416.103-.084.324-.063.532.049zm66.028 1.347c.004.019-.051.04-.123.045-.124.01-.178-.037-.086-.075.067-.028.2-.009.209.03zm.005.567c.023.037-.18.083-.23.052-.047-.03.039-.08.135-.081.042 0 .085.013.095.03zm-65.36.184c0 .08-.095.121-.17.072-.063-.04-.06-.182.005-.222.054-.034.164.067.164.15zm68.141.657c-.046.027-.075.026-.102-.001-.028-.028-.01-.038.064-.037.09 0 .094.005.038.038zm-66.61.106c-.07.07-.051.163.029.142.087-.023.11-.058.082-.128-.025-.066-.054-.07-.11-.014zm66.587.052c.026.024-.109.114-.17.114-.034 0-.057-.033-.06-.088-.005-.082.003-.087.104-.065.06.012.117.03.126.04zm-.356-.003c-.011.011-.041.013-.066.002-.028-.01-.02-.019.02-.02.037-.002.058.006.046.018zm-1.254.15c-.034.054.07.084.144.04.034-.02.044-.036.022-.037a.343.343 0 0 1-.092-.02c-.028-.011-.062-.003-.074.017zm-1.579.037c-.045.029-.044.033.007.034.032 0 .068-.015.08-.034.027-.044-.019-.044-.087 0zm1.092 0c-.013.02.035.035.12.035.077 0 .14-.016.14-.035 0-.02-.053-.035-.12-.035-.065 0-.128.016-.14.035zm-56.45.814c.37.371.677.697.683.723.012.057-.044.069-.668.145-.247.03-.487.045-.533.034-.076-.02-.078-.027-.03-.08.05-.056.031-.06-.302-.063-.196-.002-.373-.013-.393-.026-.026-.016-.012-.088.042-.222.044-.11.139-.386.21-.615.138-.443.2-.572.271-.572.025 0 .349.304.72.676zm56.667-.583c.024.01.063.01.087 0 .023-.01.004-.018-.044-.018-.047 0-.067.008-.043.018zm-65.394.22c.042.04-.004.26-.064.31-.08.068-.186.009-.223-.125-.039-.14-.02-.21.06-.231.068-.018.184.006.227.047zm-.692.106c.104.123.103.114.045.28-.051.146-.125.244-.172.228-.046-.015-.164-.335-.164-.443 0-.192.155-.226.291-.065zm43.825.405c.022.014.153.19.291.39.139.2.384.539.546.753.18.24.286.41.273.442-.022.06-.216.064-.827.021-.385-.026-.45-.046-.38-.115.075-.075.043-.097-.14-.098-.211-.002-.52-.076-.538-.128-.006-.02.019-.088.056-.153.038-.064.172-.327.3-.584.253-.515.317-.595.42-.528zm-44.204.502a1.37 1.37 0 0 0-.03.23c-.003.08-.029.133-.08.168-.12.078-.158.026-.13-.176.03-.211.102-.335.197-.335.061 0 .067.014.043.113zm35.818 2.886c-.034.047-.047.085-.03.085.018 0 .058-.039.09-.086.073-.112.022-.111-.06 0zm-34.39.351a.095.095 0 0 0-.023.059c0 .022.016.02.041-.005.023-.023.033-.05.023-.06-.01-.009-.028-.007-.04.006zm-.076.153c-.038.06.005.073.052.015.028-.032.03-.052.007-.052-.02 0-.047.016-.06.037zm-.257.463c-.024.029-.037.072-.028.096.009.028.03.015.058-.036.05-.096.031-.134-.03-.06zm-1.479.545a.38.38 0 0 0-.13.145c-.033.06-.093.164-.135.23l-.077.122.12-.075a.988.988 0 0 0 .234-.237c.152-.221.15-.264-.012-.185zm32.763.48c-.011.018-.037.034-.056.034-.019 0-.025-.016-.013-.035.012-.019.037-.034.056-.034.02 0 .025.015.013.034zm45.894.05c.074.112.074.112-.051.176-.192.1-.279-.022-.129-.181.094-.1.111-.1.18.005zM62.53 34.152c-.031.02-.036.034-.01.034a.08.08 0 0 0 .062-.034c.026-.043.015-.043-.052 0zm-11.613.133c0 .042.066.09.09.066.008-.008-.008-.035-.037-.06-.033-.027-.053-.03-.053-.006zm10.885.179c0 .038-.166.088-.196.059-.01-.011-.009-.036.004-.056.029-.047.192-.05.192-.003zm.59.137c-.028.018-.04.043-.027.056.032.032.13-.008.13-.053 0-.044-.036-.045-.103-.003zm-1.093.348c-.011.02-.036.035-.054.035-.018 0-.032-.016-.032-.035 0-.019.024-.034.054-.034s.044.015.032.034zm.434 0c0 .02-.024.035-.052.035-.029 0-.052-.016-.052-.035 0-.019.023-.034.052-.034.028 0 .052.015.052.034zm-38.722.135c0 .042-.124.07-.208.049-.038-.01-.06-.032-.05-.05.025-.039.258-.04.258 0zm38.302.095c-.052.062-.135.061-.135-.002 0-.055.065-.087.13-.063.035.013.035.028.005.065zm-.031.17c0 .033-.043.045-.137.042-.147-.006-.15-.014-.028-.077.09-.047.165-.031.165.036zm45.878.036c.039.159.084.182.16.084.083-.108.084-.135.007-.132a.355.355 0 0 1-.126-.025c-.059-.024-.063-.017-.041.073zm-84.816.127c-.026.082-.379.173-.682.178-.31.005-.396-.04-.218-.114.236-.098.926-.146.9-.064zm-1.534.094c-.027.044-.228.081-.334.063l-.083-.015.087-.038c.108-.048.358-.055.33-.01zm-2.418.182c-.018.054-.18.096-.274.071-.072-.019-.072-.022-.011-.066.08-.06.304-.063.285-.005zm1.16-.02c.073.013.13.042.13.067s.028.05.061.058c.034.007-.07.023-.229.036-.187.015-.315.01-.36-.014a.471.471 0 0 0-.232-.016c-.172.022-.312-.037-.265-.113.026-.043.664-.056.896-.017zm1.76.03c-.047.057-.243.073-.243.02 0-.035.079-.061.204-.068.07-.003.075.005.039.048zm-.381.015c0 .086-.537.161-.815.113l-.173-.03.208-.026c.114-.015.262-.04.329-.055.172-.038.45-.04.45-.002zm38.479.213c0 .02.016.027.035.015.019-.012.034-.028.034-.037 0-.008-.015-.015-.034-.015-.02 0-.035.016-.035.037zm-41.116.101c.28.001-.936.46-1.42.536-.252.04-.874.049-.964.015-.088-.034-.09-.038-.028-.083a.824.824 0 0 1 .242-.084c.098-.02.35-.077.56-.125 1.013-.233 1.292-.287 1.404-.274.067.008.16.015.206.015zm.271.436c-.01.01-.103.042-.205.069-.331.088-.683.048-.42-.048.1-.037.66-.055.625-.021zm-2.956.05c-.011.019-.044.034-.073.034-.029 0-.043-.015-.03-.034.011-.02.044-.035.073-.035.028 0 .042.016.03.035zm69.073.258c0 .03.015.053.034.053.02 0 .035-.014.035-.032 0-.018-.016-.042-.035-.054-.019-.012-.034.003-.034.032zm-70.08.122c-.055.054-.432.174-.548.174-.143 0-.085-.052.153-.138.201-.072.454-.095.394-.036zm.507.063c-.128.09-1.473.507-1.544.48-.066-.026.36-.194.709-.28.19-.047.391-.11.449-.14.104-.053.32-.114.418-.117.033 0 .02.02-.032.057zm2.008-.033c0 .058-.13.145-.297.2a.602.602 0 0 0-.223.121c-.028.036-.23.136-.446.225-.38.154-.413.16-.903.193-.53.034-.696.012-.696-.092 0-.03.043-.07.095-.091.549-.215 1.502-.493 1.874-.548.269-.04.596-.044.596-.008zm40.37.707c-.038.124-.051.3-.023.318.043.027.08-.078.056-.157-.013-.04.005-.078.05-.107.04-.024.072-.056.072-.07 0-.045-.14-.03-.154.016zm-44.337.738a.33.33 0 0 1-.173.05c-.101-.002-.103-.004-.039-.053a.33.33 0 0 1 .173-.05c.101.002.103.004.039.053z" fill="#fff" />
</svg>
