<?xml version="1.0" encoding="utf-8"?>
<!-- Generator: Adobe Illustrator 25.3.1, SVG Export Plug-In . SVG Version: 6.00 Build 0)  -->
<svg version="1.1" id="Layer_1" xmlns="http://www.w3.org/2000/svg" xmlns:xlink="http://www.w3.org/1999/xlink" x="0px" y="0px"
	 viewBox="0 0 3072 300" enable-background="new 0 0 3072 300" xml:space="preserve">
<g transform="translate(0.000000,300.000000) scale(0.100000,-0.100000)">
	<path fill="#FFFFFF" d="M1819,2977c-81-28-160-86-216-158c-57-75-467-756-516-857c-70-145-61-252,25-299c31-17,116-18,1618-23
		c872-3,1591-9,1598-13c14-10,16-65,2-101c-15-40-91-117-135-137c-38-18-112-19-1645-19c-1751,0-1655,3-1773-56
		c-69-35-127-84-175-147c-65-84-565-917-584-972C-13,105-4,53,50,25c26-13,264-15,2025-15c1994,0,1996,0,2057,21
		c81,27,157,78,219,148c31,34,205,310,450,716c325,537,404,675,424,738c43,134,27,211-50,251c-40,21-43,21-1739,24
		c-1561,2-1701,4-1718,19c-23,20-22,37,1,89c25,55,85,121,132,145c37,19,80,19,1772,19c1896,0,1787-3,1901,58
		c100,54,173,136,284,320c56,93,114,195,128,225c28,63,34,147,12,174c-37,44,35,43-2070,43l-1993-1L1819,2977z"/>
	<path fill="#FFFFFF" d="M6790,2986c-59-17-145-61-192-99c-46-37-107-115-177-226c-66-105-93-172-94-234c-1-39,4-53,26-75l27-27
		l301-5c283-5,301-6,315-24c17-24,17-36,4-72c-19-48-531-888-564-923c-63-68-78-71-396-71c-274,0-288-1-353-24
		c-88-32-155-75-216-142c-28-31-148-217-284-441c-254-419-279-472-258-544c22-74-64-69,1228-66l1158,2l59,28c43,20,84,52,145,116
		c82,84,95,103,289,448c111,198,212,382,223,409c42,93,26,159-46,194c-38,19-61,20-314,20c-169,0-280,4-292,10c-44,24-29,59,228,515
		c135,242,258,455,271,473c14,18,46,45,71,60l46,27l310,5l310,5l60,29c91,44,216,176,282,296c51,94,83,182,83,227c0,42-29,84-73,104
		c-40,18-81,19-1087,18C7074,2998,6825,2995,6790,2986z"/>
	<path fill="#FFFFFF" d="M9963,2990c-78-16-155-61-223-130c-57-58-163-229-844-1350c-428-706-785-1304-793-1328c-28-96-5-153,68-167
		c19-3,871-4,1894-3c2086,4,1891-3,2060,78c164,78,304,212,454,433c145,214,233,274,433,301c141,18,201,47,293,141
		c61,62,114,144,417,646c191,316,359,601,374,632c15,34,26,77,27,104c0,40-4,50-31,74c-21,19-46,30-79,34c-129,16-159,41-151,125
		c4,34,22,85,58,156c80,156,74,228-19,254C13857,3002,10025,3002,9963,2990z M13140,2150c8-15,8-30,0-54c-15-46-332-593-369-637
		c-17-20-54-49-83-63l-52-26h-962c-862,0-964,2-978,16c-36,35-26,56,228,494c107,185,150,241,204,270c36,19,65,19,1019,20
		C13127,2170,13129,2170,13140,2150z"/>
	<path fill="#FFFFFF" d="M15275,2982c-81-28-139-67-201-136c-54-58-489-766-1325-2153c-172-284-204-363-198-485c3-57,9-80,27-106
		c29-39,81-68,148-79c27-4,738-6,1579-3l1530,5l85,29c227,76,433,232,566,426c108,158,1389,2278,1406,2325c35,100,17,175-45,190
		c-12,3-135,5-272,3l-250-3l-69-33c-99-47-166-108-239-220c-35-54-227-369-428-701c-404-670-424-698-554-762l-70-34l-442-3
		c-493-3-491-3-513,62c-13,39-1,106,29,164c11,21,191,321,401,667c396,656,431,721,412,789c-4,16-21,39-36,50c-27,21-37,21-759,23
		C15383,2999,15321,2998,15275,2982z"/>
	<path fill="#FFFFFF" d="M19739,2977c-83-28-163-88-221-165c-57-77-482-777-520-858c-50-106-54-208-11-256c10-12,36-29,58-39
		c38-18,108-19,1608-19c1062,0,1575-3,1588-10c21-12,26-61,9-104c-15-40-91-117-135-137c-38-18-112-19-1645-19
		c-1750,0-1655,3-1773-56c-70-35-130-85-177-148c-59-78-551-894-577-956c-30-74-30-131,1-167l24-28l2011-3l2011-2l62,21
		c81,27,157,78,219,148c31,34,205,312,450,716c324,535,404,675,424,738c43,134,27,211-50,251c-40,21-46,21-1748,26
		c-1503,4-1709,7-1717,20c-12,19-12,25,2,72c15,49,88,132,139,158c37,20,73,20,1771,20c1153,0,1748,4,1778,11c80,18,169,68,238,134
		c53,49,89,99,170,233c136,226,154,266,150,338c-3,49-7,60-31,78l-28,21l-2007,2l-2007,3L19739,2977z"/>
	<path fill="#FFFFFF" d="M24409,2438c-183-299-361-589-396-645l-63-103h117l118,1l255,419c152,250,256,412,258,401
		c2-10-11-185-27-388c-17-203-31-383-31-401v-32h123h122l390,636c215,350,392,640,393,645c2,5-47,9-111,9h-114l-263-430
		c-145-237-264-429-266-428c-1,2,15,190,37,418c21,228,39,421,39,428c0,9-31,12-124,12h-124L24409,2438z"/>
	<path fill="#FFFFFF" d="M25715,2344c-214-350-391-640-393-645s45-9,110-9h115l160,263l160,262l281,5l282,5l65,105l65,105l-275,5
		l-275,5l97,157l97,158l300,2l299,3l37,60c20,33,49,81,64,108l28,47h-414h-413L25715,2344z"/>
	<path fill="#FFFFFF" d="M27175,2883c-33-54-61-103-63-110c-3-10,34-13,172-13h175l-291-472c-159-260-307-501-329-535l-39-63h117
		l118,1l328,534l328,535l181,2l181,3l63,100c35,55,64,103,64,108c0,4-213,7-472,7h-473L27175,2883z"/>
	<path fill="#FFFFFF" d="M27699,1291c-99-32-291-152-359-224c-39-41-470-731-496-794c-22-52-17-113,14-173c47-94,50-95,298-98
		c243-4,295,5,402,63c103,57,204,127,247,171c50,51,493,770,510,827c22,73-19,191-78,227c-29,18-51,20-257,19
		C27792,1309,27746,1306,27699,1291z M28036,1053c9-20,13-44,11-54c-3-10-96-167-207-348c-207-340-225-363-317-410
		c-38-19-58-21-217-21c-169,0-175,1-190,22c-33,46-22,69,192,419c205,336,208,340,267,378c33,21,67,40,75,44c8,3,95,6,193,6l178,1
		L28036,1053z"/>
	<path fill="#FFFFFF" d="M30092,1286c-93-35-268-143-326-202c-58-58-174-244-186-300c-10-43-5-81,15-108c9-12,107-51,272-108
		c141-48,261-92,265-96c15-15-80-159-124-190c-91-62-90-62-307-62h-200l-16,30c-8,16-15,39-15,51c0,13-5,19-13,16c-7-2-68-20-135-38
		l-122-33v-36c0-91,47-174,113-199c17-7,120-11,257-11c216,0,233,1,307,25c95,30,299,159,356,225c57,67,155,239,168,296
		c10,45,10,56-7,90l-19,39l-262,90c-145,50-263,94-263,99s20,41,44,81c39,62,54,76,118,113l74,42h165h165l17-35c9-20,17-42,17-50
		s6-15,13-15c30,0,243,55,249,64c11,15,10,47-3,107c-8,37-22,64-49,93l-39,41l-233,2C30164,1309,30152,1309,30092,1286z"/>
	<path fill="#FFFFFF" d="M23469,793c-172-280-350-569-396-643l-83-135l112-3c99-2,114,0,126,15c7,10,81,129,164,265l152,248h239
		c189,0,238-3,234-13c-2-7-75-126-160-265l-156-252h117h117l340,552c187,304,366,594,397,645l58,93h-118l-117-1l-165-269l-165-270
		h-242h-242l153,248c85,137,159,259,165,270c12,22,11,22-103,22h-114L23469,793z"/>
	<path fill="#FFFFFF" d="M24655,663c-214-350-391-640-393-644c-2-5,183-9,411-9h415l61,104c34,58,61,107,61,110s-132,7-294,8l-295,3
		l95,155l94,155l282,5l281,5l63,100l63,100l-275,3c-151,1-274,6-273,10c0,4,44,77,97,162l98,155l301,3l301,2l61,99
		c34,55,61,102,61,105s-186,6-412,6h-413L24655,663z"/>
	<path fill="#FFFFFF" d="M25795,665c-214-350-391-640-393-645c-2-6,40-10,110-10h113l156,253l155,252l127,3c74,1,127-1,127-7
		c0-5-13-110-30-234c-16-124-30-235-30-246c0-20,5-21,125-21c69,0,125,3,125,8c1,23,60,515,62,516c2,0,47,23,101,51
		c188,96,237,145,367,368c71,123,83,171,56,240c-9,24-30,57-47,73l-30,29l-352,2l-352,3L25795,665z M26698,1078c25-25,12-73-46-168
		c-45-74-70-103-112-132l-53-38h-205c-112,0-202,4-200,9c2,4,48,83,103,175l100,166h200C26628,1090,26689,1087,26698,1078z"/>
	<path fill="#FFFFFF" d="M28375,663c-214-350-391-640-393-645c-2-4,183-8,411-8h415l61,103c34,57,61,106,61,110s-132,8-294,9l-294,3
		l96,157l96,158l280,2l280,3l63,100l62,100l-274,3c-151,1-275,4-275,6s44,75,98,163l98,158l301,3l301,2l65,105l66,105h-417l-417-1
		L28375,663z"/>
</g>
</svg>
