<?xml version="1.0" encoding="utf-8"?>
<!-- Generator: Adobe Illustrator 25.3.1, SVG Export Plug-In . SVG Version: 6.00 Build 0)  -->
<svg version="1.1" id="Layer_1" xmlns="http://www.w3.org/2000/svg" xmlns:xlink="http://www.w3.org/1999/xlink" x="0px" y="0px"
	 viewBox="0 0 160 38" style="enable-background:new 0 0 160 38;" xml:space="preserve">
<style type="text/css">
	.st0{fill:#FFFFFF;}
</style>
<path class="st0" d="M17.4,33.1c-0.7,1.4-1.7,2.5-2.8,3.2c-1.2,0.7-2.8,1.1-4.9,1.1c-2.8,0-4.9-0.8-6.5-2.4
	c-1.6-1.6-2.3-3.9-2.3-6.8V13.9h4v13.7c0,2.1,0.5,3.7,1.6,4.8c1,1,2.5,1.6,4.5,1.6c2.3,0,4-0.7,5.2-2c1.2-1.4,1.8-3.4,1.8-6.1v-12h4
	v22.9h-4v-3.7C18,33.1,17.4,33.1,17.4,33.1z M78.2,33.1c-0.7,1.4-1.7,2.5-2.8,3.2c-1.2,0.7-2.8,1.1-4.9,1.1c-2.8,0-4.9-0.8-6.5-2.4
	c-1.6-1.6-2.3-3.9-2.3-6.8V13.9h4v13.7c0,2.1,0.5,3.7,1.6,4.8s2.6,1.6,4.6,1.6c2.3,0,4-0.7,5.2-2c1.2-1.4,1.8-3.4,1.8-6.1v-12h4
	v22.9h-4v-3.7C78.9,33.1,78.2,33.1,78.2,33.1z M50.5,17.5c0.8-2.4,2.7-3.6,5.7-3.6h1.9v4h-2.5c-2,0-3.4,0.5-4.4,1.4
	s-1.5,2.5-1.5,4.6v13h-4v-23h4v3.5L50.5,17.5L50.5,17.5z M103.3,14.2c1.5,0.6,2.7,1.6,3.6,2.8s1.4,2.6,1.4,4.2h-4.2
	c-0.2-2.9-2.3-4.4-6.2-4.4c-1.7,0-3,0.3-3.9,1c-0.9,0.6-1.4,1.5-1.4,2.5c0,0.9,0.3,1.5,0.9,1.8c0.6,0.4,1.7,0.7,3.2,1.1l4.2,0.9
	c2.3,0.5,4,1.1,5.2,2s1.8,2.3,1.8,4.2c0,1.4-0.4,2.7-1.2,3.8c-0.8,1.1-2,2-3.5,2.6s-3.2,0.9-5.1,0.9c-3.5,0-6.2-0.8-8.1-2.4
	c-1.9-1.6-3.1-3.6-3.4-6.2h4.2c0.6,3.4,3,5.1,7.4,5.1c1.9,0,3.4-0.3,4.4-1s1.5-1.5,1.5-2.5c0-0.6-0.2-1.1-0.5-1.5
	c-0.3-0.3-0.8-0.6-1.4-0.8c-0.6-0.2-1.6-0.4-3-0.7L95,26.7c-2-0.4-3.6-1.1-4.7-2.1s-1.7-2.4-1.7-4.2c0-2.2,0.9-3.9,2.6-5.2
	c1.8-1.3,4-1.9,6.8-1.9C100.1,13.3,101.8,13.6,103.3,14.2 M35,33.3h6.6v3.5h-3.1c-2.5,0-4.4-0.6-5.6-1.8c-1.2-1.2-1.8-3.1-1.8-5.6
	V17.5h-5.3V14H31V7.8h4V14h6v3.5h-6V33.3z M119.9,33.3h6.6v3.5h-3.1c-2.5,0-4.4-0.6-5.6-1.8s-1.8-3.1-1.8-5.6V17.5h-5.3V14h5.3V7.8
	h4V14h5.9v3.5H120L119.9,33.3L119.9,33.3z"/>
<path class="st0" d="M154,5.7v17.2h-16.5V5.7H154V0.5h-10.1l-11.5,8.9v5.7c0,7.5,6.1,13.8,13.7,13.7c7.3-0.1,13.2-6.1,13.2-13.4V5.7
	H154z"/>
</svg>
