<?xml version="1.0" encoding="utf-8"?>
<!-- Generator: Adobe Illustrator 25.3.1, SVG Export Plug-In . SVG Version: 6.00 Build 0)  -->
<svg version="1.1" id="Layer_1" xmlns="http://www.w3.org/2000/svg" xmlns:xlink="http://www.w3.org/1999/xlink" x="0px" y="0px"
	 viewBox="0 0 189 41" style="enable-background:new 0 0 189 41;" xml:space="preserve">
<style type="text/css">
	.st0{fill:#FFFFFF;}
	.st1{fill-rule:evenodd;clip-rule:evenodd;fill:#FFFFFF;}
</style>
<g>
	<g id="Web_1920__x2013__5">
		<g id="Group_14">
			<g id="logo">
				<g id="Group_1">
					<path id="Path_1" class="st0" d="M40.7,36.7c0.4,0.4,0.6,0.9,0.6,1.5c0,1.2-1,2.1-2.1,2.1H27.5c-0.8,0-1.6-0.3-2.2-0.9
						l-3.9-3.9c-0.2-0.2-0.4-0.2-0.6,0L17,39.4c-0.6,0.6-1.4,0.9-2.2,0.9H3.1c-1.2,0-2.1-1-2.1-2.1c0-0.6,0.2-1.1,0.6-1.5l13.5-13.5
						l3,3l-9.4,9.4c-0.2,0.2-0.1,0.5,0.2,0.5h4.9c0.3,0,0.6-0.1,0.9-0.4l6.5-6.5l6.5,6.5c0.2,0.2,0.5,0.4,0.9,0.4h4.9
						c0.3,0,0.4-0.3,0.2-0.5l-9.4-9.4l-3.1,3.1v-9.1h9.1l-3.1,3.1L40.7,36.7L40.7,36.7z"/>
					<path id="Path_2" class="st0" d="M21.2,11.1v9.1h-9.1l3.1-3.1L1.6,3.6C1.2,3.2,1,2.7,1,2.1C1,0.9,2,0,3.1,0h11.7
						c0.8,0,1.6,0.3,2.2,0.9l3.9,3.9c0.2,0.2,0.4,0.2,0.6,0l3.9-3.9C25.9,0.3,26.7,0,27.5,0h11.7c1.2,0,2.1,0.9,2.1,2.1
						c0,0.6-0.2,1.1-0.6,1.5L27.2,17.1l-3-3l9.4-9.4c0.2-0.2,0-0.5-0.2-0.5h-4.9c-0.3,0-0.6,0.1-0.9,0.4L21.2,11.1l-6.4-6.5
						c-0.2-0.2-0.6-0.4-0.9-0.4H8.9c-0.3,0-0.4,0.3-0.2,0.5l9.4,9.4L21.2,11.1L21.2,11.1z"/>
				</g>
				<g id="Group_4">
					<g id="Group_2">
						<path id="Path_3" class="st0" d="M69.6,10.4l-7.8,9.8c1.6,3,3.4,6.9,5.1,9.9c0.2,0.3-0.1,0.7-0.4,0.7h-3.8
							c-0.3,0-0.7-0.2-0.8-0.5l-3.2-6.6c-0.8,1-1.5,2.1-5.2,6.7c-0.2,0.2-0.5,0.4-0.7,0.4h-3.8c-0.4,0-0.6-0.5-0.4-0.8l8-9.8
							c-1.6-3-3.7-6.9-5.3-9.9C51,10,51.2,9.6,51.6,9.6h3.9c0.3,0,0.7,0.2,0.8,0.5l3.3,6.6c1.7-2.2,3.6-4.6,5.2-6.8
							c0.2-0.2,0.4-0.4,0.7-0.4h3.7C69.6,9.6,69.9,10.1,69.6,10.4L69.6,10.4z"/>
						<path id="Path_4" class="st0" d="M67.5,35.6c-0.2-0.3-0.1-0.6,0.1-0.8c1.1-1,1.3-2.4,1.4-3.3l3.2-22.5c0.7-4.6,4.4-7,8.9-7.3
							c0.4,0,0.8,0.4,0.7,0.8l-0.4,3c-0.1,0.3-0.3,0.6-0.7,0.6c-2.2,0.2-3.9,1.2-4.1,2.9l-0.4,3h3.4c0.3,0,0.6,0.3,0.5,0.6L79.8,16
							c0,0.3-0.3,0.5-0.5,0.5h-3.6l-2.1,15.1c-0.3,2.5-1.7,4.5-4.1,6.1c-0.3,0.2-0.7,0.1-0.8-0.2L67.5,35.6L67.5,35.6z"/>
						<path id="Path_5" class="st1" d="M93.1,30.8L92.8,29C88,33.4,80,30.5,80.9,23.8l1-7c0.8-5.6,5.3-7.4,9.9-7.4
							c2.4,0,5.1,0.7,7.1,1.6c0.3,0.1,0.4,0.4,0.4,0.8l-2.5,18.4c-0.1,0.4-0.4,0.6-0.7,0.6L93.1,30.8L93.1,30.8z M94.6,13.9
							c-2.4-1.4-7.8-0.9-8.3,2.8l-1,7.1c-0.6,3.9,5.2,3.6,7.6,1.7C93,25.5,94.6,13.9,94.6,13.9z"/>
						<path id="Path_6" class="st1" d="M108.7,10.6L106,30.4c0,0.2-0.2,0.4-0.5,0.4H102c-0.3,0-0.6-0.3-0.5-0.6l2.8-19.9
							c0.1-0.4,0.4-0.8,0.9-0.8h2.7C108.4,9.6,108.8,10.1,108.7,10.6L108.7,10.6z M107.6,1.8c1.7,0,2.7,1.2,2.5,2.9
							c-0.2,1.6-1.6,2.9-3.3,2.9c-1.6,0-2.6-1.3-2.4-2.9C104.6,3,106,1.8,107.6,1.8L107.6,1.8z"/>
					</g>
					<g id="Group_3">
						<path id="Path_7" class="st0" d="M113.6,25.6c1.5,0,2.6,1.2,2.3,2.7c-0.2,1.5-1.6,2.7-3.1,2.7c-1.5,0-2.5-1.2-2.3-2.7
							C110.8,26.8,112.1,25.6,113.6,25.6L113.6,25.6z"/>
						<path id="Path_8" class="st0" d="M121.1,16.7c0.7-4.9,5.2-7.3,9.4-7.3c3.2,0,6.6,1.4,7.4,5c0.1,0.3-0.1,0.6-0.4,0.7l-3.1,1.1
							c-0.3,0.1-0.7,0-0.8-0.3c-1.1-3.3-7-2.6-7.9,0.7l-1,7.2c0,3.3,5.7,4,7.7,0.6c0.2-0.3,0.5-0.4,0.8-0.3l2.8,1.1
							c0.3,0.1,0.5,0.5,0.3,0.9c-1.9,3.6-5.6,4.9-8.8,4.9c-4.1,0-8-2.4-7.3-7.3L121.1,16.7L121.1,16.7z"/>
						<path id="Path_9" class="st1" d="M149.3,9.1c4.1,0,8,2.4,7.3,7.3l-1.1,7.4c-0.7,5-5.2,7.3-9.3,7.3c-4.2,0-8.1-2.4-7.4-7.3
							l1.1-7.4C140.6,11.6,145.2,9.2,149.3,9.1z M144.4,16.5l-1.1,7.4c-0.2,2,1.6,3.1,3.5,3.1c1.8,0,4-1.1,4.2-3.1l1.1-7.4
							c0.3-2-1.6-2.9-3.4-2.9C146.8,13.5,144.7,14.5,144.4,16.5z"/>
						<path id="Path_10" class="st0" d="M162,11.6c4.1-2.4,11.1-3.3,13,0.9c3.9-4.8,14.1-3.4,13.1,4.2l-1.9,13.7
							c0,0.3-0.3,0.5-0.6,0.5h-3.2c-0.4,0-0.7-0.3-0.6-0.7l1.9-13.3c0.8-3.9-6.5-3.4-7-0.2l-1.9,13.7c0,0.3-0.3,0.5-0.6,0.5h-3.2
							c-0.4,0-0.7-0.3-0.6-0.7l1.9-13.6c0.4-3-3.9-3.6-6.6-2l-2.2,15.7c0,0.3-0.3,0.5-0.6,0.5h-3.2c-0.4,0-0.7-0.3-0.6-0.7l2.5-18
							C161.6,11.9,161.8,11.7,162,11.6L162,11.6z"/>
					</g>
				</g>
			</g>
		</g>
	</g>
</g>
</svg>
