<svg width="730" height="155" viewBox="0 0 730 155" fill="none" xmlns="http://www.w3.org/2000/svg">
<path d="M73.6349 0.348732C73.7278 0.495983 80.4719 11.873 88.6251 25.637L103.453 50.6462L103.817 50.6075C104.018 50.5842 104.599 50.5765 105.11 50.5765C106.945 50.592 108.664 51.2352 110.019 52.421C110.297 52.6612 110.553 52.855 110.599 52.855C110.692 52.855 137.816 37.9517 137.823 37.8975C137.823 37.8742 124.072 29.7832 107.262 19.9175C90.4525 10.0517 75.9732 1.54998 75.0828 1.03073C73.5729 0.139481 73.48 0.100731 73.6349 0.348732Z" fill="white"/>
<path d="M34.3011 18.9177C16.7324 29.233 2.27647 37.7192 2.18355 37.7735C2.01321 37.8665 2.93461 38.3857 15.6562 45.384L29.3069 52.9015L29.7715 52.5062C30.8013 51.6382 31.7924 51.119 33.0467 50.7857C33.6739 50.6152 33.9836 50.5842 34.9205 50.5765C35.5399 50.5765 36.1284 50.592 36.2368 50.623C36.4226 50.6695 36.9337 49.817 51.2038 25.7455C59.3261 12.0357 66.0624 0.666489 66.1708 0.480488C66.2792 0.302238 66.3412 0.154987 66.3025 0.162739C66.2715 0.162739 51.8697 8.60249 34.3011 18.9177Z" fill="white"/>
<path d="M66.9063 6.93621C66.6818 7.32371 60.5339 17.6855 53.2556 29.977L40.0153 52.3202L40.5882 52.917C41.5174 53.8857 42.0904 54.8545 42.4775 56.1487C42.6478 56.73 42.6866 57.04 42.7175 58.0087C42.7408 58.8302 42.7175 59.3185 42.6478 59.675L42.5394 60.1787L54.9126 66.991C61.7263 70.7342 67.309 73.78 67.3322 73.7645C67.3477 73.7412 67.3554 58.5435 67.3477 39.99L67.3244 6.24646L66.9063 6.93621Z" fill="white"/>
<path d="M72.5509 40.0055C72.5509 58.5823 72.5741 73.78 72.5974 73.78C72.6283 73.78 78.2032 70.7265 84.9937 66.9833L97.3436 60.1943L97.2972 59.9695C96.7552 57.2493 97.5217 54.653 99.4187 52.7853L99.8756 52.3358L86.4262 29.636C79.024 17.1508 72.8761 6.78127 72.76 6.58752L72.5509 6.23878V40.0055Z" fill="white"/>
<path d="M291.164 34.5185C289.755 34.751 288.794 35.1928 287.989 35.9988C287.362 36.6265 287.029 37.2233 286.82 38.1145C286.704 38.626 286.681 39.0678 286.681 41.1913C286.681 43.3535 286.696 43.7333 286.82 44.1673C287.037 44.919 287.362 45.508 287.873 46.0505C288.872 47.1123 290.258 47.6315 292.341 47.7168C295.337 47.8408 297.505 46.9263 298.434 45.136C298.914 44.2138 298.953 43.9038 298.953 41.106C298.953 38.8818 298.938 38.5563 298.798 38.0215C298.334 36.208 297.017 35.0765 294.818 34.596C294.067 34.4255 291.969 34.3868 291.164 34.5185Z" fill="white"/>
<path d="M238.017 72.7337V110.825H242.74H247.463V72.7337V34.6424H242.74H238.017V72.7337Z" fill="white"/>
<path d="M263.104 72.7337V110.825H267.788H272.472V72.7337V34.6424H267.788H263.104V72.7337Z" fill="white"/>
<path d="M569.722 72.7337V110.825H574.407H579.091V72.7337V34.6424H574.407H569.722V72.7337Z" fill="white"/>
<path d="M690.744 72.7337V110.825H695.467H700.19V96.2085C700.19 88.1717 700.213 81.6152 700.252 81.6385C700.283 81.6539 704.441 88.2337 709.481 96.2472L718.649 110.825H724.293H729.938L729.76 110.538C729.659 110.383 725.215 103.524 719.872 95.294C714.53 87.0634 710.155 80.2899 710.155 80.2512C710.155 80.2047 714.266 74.8649 719.292 68.3782C724.324 61.8914 728.459 56.5517 728.49 56.5052C728.521 56.4432 726.988 56.4199 723.287 56.4199H718.037L709.179 68.2775C704.309 74.8029 700.298 80.1582 700.26 80.1814C700.221 80.2047 700.19 70.5094 700.19 57.4352V34.6424H695.467H690.744V72.7337Z" fill="white"/>
<path d="M523.265 36.4792C520.075 36.5335 511.798 36.797 511.519 36.859L511.341 36.89V74.1675V111.437L511.596 111.476C511.829 111.515 513.509 111.592 519.509 111.871C525.262 112.135 531.782 112.22 534.569 112.065C546.099 111.422 553.563 107.144 556.59 99.448C557.179 97.9522 557.628 95.945 557.798 94.0462C557.937 92.5505 557.86 87.5595 557.69 86.49C557.372 84.568 556.946 83.1575 556.203 81.6152C554.902 78.9027 553.028 76.8025 550.497 75.237C549.095 74.3612 547.035 73.501 545.347 73.0825C544.953 72.9817 544.643 72.8965 544.651 72.8887C544.666 72.8732 545.154 72.6252 545.742 72.323C551.1 69.5872 554.043 65.2937 554.74 59.2255C554.848 58.3187 554.864 57.5515 554.833 55.0792C554.809 52.4055 554.786 51.9327 554.639 51.1112C554.004 47.5617 552.579 44.8105 550.156 42.4622C546.571 38.9825 541.089 36.9752 533.911 36.5025C532.897 36.4405 526.555 36.425 523.265 36.4792ZM531.55 44.5625C537.837 44.8802 541.793 46.4845 543.814 49.5457C544.953 51.2585 545.378 52.9015 545.456 55.8775C545.595 60.8762 544.674 63.8987 542.274 66.309C540.408 68.1767 538.116 69.2075 534.647 69.719C533.88 69.8352 532.866 69.8585 527.276 69.8817L520.787 69.9127V57.3965V44.8725L520.965 44.8415C521.221 44.7795 524.132 44.6322 526.114 44.5625C528.793 44.4772 529.9 44.4772 531.55 44.5625ZM535.475 77.6627C542.405 78.2285 546.431 80.6387 547.879 85.0717C548.359 86.552 548.39 86.8387 548.39 90.2875C548.39 93.279 548.383 93.465 548.212 94.24C547.283 98.4637 544.697 101.238 540.299 102.711C537.496 103.656 534.67 103.982 530.117 103.904C527.632 103.858 526.393 103.78 522.645 103.439L520.826 103.269L520.803 90.4192L520.787 77.5775H527.632C531.759 77.5775 534.879 77.6085 535.475 77.6627Z" fill="white"/>
<path d="M183.507 74.1675C177.397 94.2012 172.388 110.647 172.372 110.709C172.349 110.809 172.938 110.825 177.165 110.809L181.981 110.786L184.296 102.61C185.566 98.115 186.642 94.302 186.681 94.1392L186.766 93.8525H200.231H213.704L213.743 94.023C213.766 94.1237 214.842 97.929 216.135 102.494L218.481 110.786L223.561 110.809C227.61 110.825 228.648 110.809 228.648 110.732C228.64 110.678 223.615 94.24 217.475 74.2062L206.302 37.7812L200.456 37.7657L194.618 37.7425L183.507 74.1675ZM205.798 65.7897C208.787 76.3375 211.257 85.064 211.28 85.188L211.327 85.405H200.231H189.143L189.182 85.1725C189.345 84.3975 200.27 46.4302 200.316 46.5155C200.347 46.5697 202.817 55.242 205.798 65.7897Z" fill="white"/>
<path d="M0 76.694C0 106.105 0.0154858 112.073 0.100658 111.949C0.162601 111.863 6.67437 100.866 14.5876 87.5207L28.9739 63.24L28.5171 62.558C27.6886 61.3257 27.2782 60.0702 27.2085 58.59C27.1776 57.9622 27.2008 57.505 27.286 57.04C27.3479 56.6757 27.3789 56.358 27.3479 56.327C27.286 56.265 0.271001 41.3927 0.108401 41.3307C0.0154858 41.2997 0 46.9417 0 76.694Z" fill="white"/>
<path d="M126.109 48.8095L112.497 56.3037L112.535 56.575C112.558 56.7222 112.62 57.1717 112.667 57.5592C112.876 59.2642 112.318 61.287 111.242 62.744L110.901 63.2167L125.296 87.5052C133.217 100.866 139.721 111.848 139.759 111.91C139.806 111.98 139.837 97.7352 139.837 76.663C139.837 57.2182 139.813 41.3075 139.782 41.3152C139.744 41.3152 133.596 44.6942 126.109 48.8095Z" fill="white"/>
<path d="M327.757 55.1102C325.093 55.2652 321.531 55.6837 316.607 56.4277C315.778 56.5517 315.02 56.668 314.927 56.6912L314.749 56.73V60.7677V64.8132L315.082 64.759C320.416 63.891 323.978 63.4492 327.284 63.2322C329.042 63.1237 331.558 63.178 332.511 63.3562C336.003 63.9995 337.792 65.8207 338.488 69.44C338.597 69.9825 338.62 70.8272 338.651 74.2217C338.674 76.4925 338.659 78.3525 338.62 78.3525C338.589 78.3525 337.807 78.213 336.893 78.0502C335.043 77.7092 332.596 77.345 330.776 77.1357C329.058 76.942 325.287 76.942 324.04 77.1357C319.092 77.9107 315.275 80.1737 312.875 83.7775C311.605 85.684 310.823 87.8462 310.475 90.4425C310.32 91.605 310.343 96.9137 310.521 98.3475C311.233 104.315 313.843 108.546 318.117 110.67C319.309 111.267 320.192 111.577 321.369 111.817C327.78 113.142 333.339 110.306 338.395 103.114L339.1 102.114L339.123 106.469L339.139 110.825H343.63H348.121V91.3105C348.121 79.019 348.09 71.3775 348.043 70.6412C347.609 64.2242 345.441 60.0237 341.291 57.5437C338.186 55.6915 333.246 54.8002 327.757 55.1102ZM332.325 84.32C334.555 84.4517 337.675 84.785 338.504 84.9942L338.674 85.033V89.342V93.651L338.279 94.3485C337.668 95.4257 336.584 97.0067 335.74 98.0607C332.821 101.688 329.561 103.695 326.58 103.695C323.266 103.695 320.866 101.347 320.122 97.3787C319.913 96.2627 319.905 92.1242 320.114 91.14C320.989 86.9782 323.607 84.7462 328.144 84.2967C328.748 84.2347 331.055 84.2502 332.325 84.32Z" fill="white"/>
<path d="M385.635 55.1102C382.747 55.3892 379.921 56.5827 377.35 58.621C375.863 59.799 374.098 61.721 372.797 63.5732C372.534 63.953 372.278 64.3172 372.224 64.387C372.147 64.4955 372.131 63.674 372.123 60.4655V56.42H367.671H363.219V83.6225V110.825H367.942H372.665V91.8995V72.9662L373.153 72.168C374.764 69.4865 377.18 66.9677 379.502 65.5572C381.423 64.387 383.227 63.8367 385.132 63.8445C387.083 63.8522 388.407 64.356 389.622 65.565C391.109 67.0375 391.953 69.3315 392.255 72.695C392.301 73.2762 392.332 80.073 392.332 92.2017V110.825H397.056H401.786L401.755 90.923C401.732 72.8887 401.717 70.928 401.601 69.9825C401.337 67.89 400.927 65.999 400.385 64.4412C400.021 63.395 398.984 61.3567 398.395 60.5275C397.319 59.0317 395.84 57.691 394.307 56.823C391.922 55.4745 388.639 54.8235 385.635 55.1102Z" fill="white"/>
<path d="M434.415 55.1025C430.427 55.3505 426.928 56.3115 424.372 57.846C420.129 60.3957 417.644 64.4335 416.73 70.2537C416.374 72.5245 416.374 72.6562 416.374 83.7C416.374 95.0537 416.374 94.9685 416.8 97.4562C417.698 102.61 420.029 106.5 423.66 108.918C428.236 111.972 435.058 112.871 443.435 111.522C445.286 111.22 447.717 110.747 447.795 110.67C447.857 110.616 447.663 102.478 447.601 102.416C447.586 102.401 446.966 102.525 446.223 102.687C443.281 103.346 441.066 103.648 438.294 103.772C434.431 103.951 432.053 103.47 429.971 102.091C428.004 100.789 426.649 98.611 426.099 95.883C425.789 94.3407 425.766 93.6277 425.797 82.8475C425.828 72.6717 425.836 72.4857 425.999 71.6487C426.347 69.843 426.904 68.417 427.717 67.239C428.438 66.2005 429.676 65.131 430.861 64.5342C431.496 64.2165 432.766 63.798 433.703 63.612C434.5 63.4492 434.763 63.4337 437.009 63.4415C439.007 63.4415 439.696 63.4725 440.842 63.612C442.522 63.8135 444.489 64.1467 446.254 64.511C446.974 64.666 447.578 64.7745 447.601 64.759C447.617 64.7357 447.686 62.8835 447.748 60.636C447.833 57.6057 447.833 56.5362 447.772 56.4975C447.632 56.4122 443.807 55.6682 442.622 55.4977C440.06 55.1257 436.676 54.963 434.415 55.1025Z" fill="white"/>
<path d="M477.233 55.0792C476.134 55.1257 474.337 55.3505 473.207 55.5752C466.006 57.04 461.655 61.659 460.284 69.285C459.819 71.8657 459.827 71.765 459.789 82.6925C459.758 94.9143 459.796 96.0768 460.4 99.0605C461.926 106.64 466.711 110.724 475.336 111.825C477.171 112.057 479.355 112.166 481.221 112.119C484.45 112.026 487.105 111.685 494.833 110.345L495.313 110.259V109.98C495.305 108.965 495.081 102.122 495.057 102.099C495.042 102.075 494.368 102.184 493.563 102.339C489.359 103.137 485.596 103.618 482.266 103.773C474.833 104.121 471.008 102.176 469.723 97.3865C469.312 95.8288 469.274 95.3793 469.243 90.768L469.204 86.49H483.536H497.868V79.9878C497.868 73.5785 497.829 72.3385 497.589 70.6412C496.699 64.263 493.826 59.7525 489.111 57.3112C485.82 55.614 481.925 54.8777 477.233 55.0792ZM481.128 63.1547C484.504 63.8755 486.711 65.8672 487.756 69.13C488.337 70.928 488.422 71.7882 488.422 75.6942V78.895H478.813H469.204L469.243 75.268C469.274 72.0362 469.297 71.5557 469.436 70.7885C470.272 66.2935 472.959 63.5965 477.164 63.0152C478.023 62.8912 480.292 62.9765 481.128 63.1547Z" fill="white"/>
<path d="M611.247 55.1102C605.734 55.4435 601.553 57.133 598.557 60.233C595.963 62.9222 594.476 66.433 593.826 71.4162C593.694 72.4237 593.686 73.315 593.686 83.6225C593.686 95.821 593.671 95.4025 594.159 97.8825C595.707 105.749 600.492 110.437 608.32 111.747C611.239 112.235 614.584 112.266 617.612 111.825C626.973 110.476 632.099 104.431 632.749 93.9687C632.85 92.3102 632.85 74.8262 632.749 73.16C632.455 68.417 631.201 64.4955 629.064 61.6357C628.506 60.8917 627.314 59.6517 626.594 59.055C623.009 56.1177 617.596 54.7227 611.247 55.1102ZM615.041 63.0462C619.912 63.6817 622.745 66.9677 623.303 72.6097C623.411 73.7025 623.411 93.3642 623.303 94.5112C623.024 97.4485 622.041 99.8897 620.446 101.556C619.881 102.153 618.92 102.835 618.076 103.238C616.629 103.935 615.142 104.237 613.198 104.237C611.201 104.237 609.73 103.927 608.243 103.191C605.432 101.804 603.768 99.1457 603.195 95.1467C603.071 94.2787 603.055 93.2945 603.055 83.5837C603.055 73.8962 603.071 72.881 603.187 72.0285C603.977 66.5415 606.811 63.5887 611.882 62.9842C612.502 62.9067 614.251 62.9455 615.041 63.0462Z" fill="white"/>
<path d="M664.263 55.1025C659.942 55.3737 656.365 56.42 653.655 58.2025C652.672 58.8535 651.983 59.427 651.092 60.3415C649.877 61.6047 649.218 62.558 648.382 64.2862C647.368 66.3787 646.818 68.386 646.4 71.455C646.284 72.3152 646.268 73.625 646.245 82.8475C646.214 93.6975 646.23 94.5267 646.539 96.6812C647.081 100.448 648.351 103.602 650.302 106.02C652.796 109.112 656.721 111.119 661.669 111.825C665.835 112.421 670.155 112.181 676.032 111.034L677.697 110.701L677.674 109.895C677.565 105.415 677.48 102.408 677.464 102.393C677.457 102.377 677.24 102.424 676.992 102.486C676.272 102.672 673.918 103.145 672.896 103.307C671.317 103.563 670.031 103.695 668.142 103.772C664.758 103.927 662.668 103.602 660.74 102.625C657.914 101.207 656.187 98.425 655.746 94.5887C655.699 94.147 655.668 90.117 655.668 83.4675C655.668 74.9192 655.691 72.8965 655.784 72.2222C656.427 67.332 659.075 64.449 663.698 63.581C664.619 63.4105 667.399 63.3485 669.009 63.4647C671.17 63.6275 673.74 64.0072 676.326 64.5652C676.938 64.697 677.449 64.79 677.464 64.7745C677.48 64.759 677.526 63.2012 677.573 61.3025C677.619 59.4037 677.674 57.5515 677.697 57.1795L677.743 56.513L677.062 56.358C674.847 55.8465 671.727 55.3427 669.799 55.18C668.429 55.0715 665.455 55.025 664.263 55.1025Z" fill="white"/>
<path d="M288.113 83.6225V110.825H292.836H297.559V83.6225V56.42H292.836H288.113V83.6225Z" fill="white"/>
<path d="M40.1546 64.015C39.3184 64.7358 38.2963 65.317 37.3827 65.6115L36.9336 65.751V77.4922V89.2412L37.5995 89.4737C38.4435 89.7527 39.3261 90.2642 40.0772 90.892L40.6579 91.3802L53.2324 84.4595C60.1545 80.6542 65.8146 77.5232 65.8146 77.5C65.8146 77.469 40.8205 63.6973 40.6734 63.6507C40.6347 63.6353 40.4102 63.8057 40.1546 64.015Z" fill="white"/>
<path d="M86.643 70.5327C79.7673 74.3225 74.1305 77.4458 74.115 77.4845C74.1073 77.5155 79.7596 80.6543 86.6817 84.4673L99.2639 91.388L99.6665 91.016C100.441 90.3185 101.517 89.714 102.539 89.3885L102.981 89.249V77.5V65.751L102.516 65.6115C101.548 65.317 100.48 64.7048 99.682 63.984C99.4575 63.7902 99.2484 63.6275 99.2175 63.6353C99.1787 63.6353 93.5187 66.743 86.643 70.5327Z" fill="white"/>
<path d="M32.102 65.658C31.6065 66.4485 5.42002 110.701 5.44325 110.716C5.45874 110.732 10.3987 108.035 16.4227 104.718C25.4122 99.7657 27.3711 98.6652 27.3556 98.5412C27.3556 98.456 27.3014 98.0142 27.2472 97.5492C26.8214 94.023 29.0436 90.5665 32.466 89.4427L32.9847 89.2645V77.5V65.7277L32.6595 65.6347C32.4737 65.5882 32.3034 65.534 32.2724 65.5185C32.2414 65.4952 32.164 65.565 32.102 65.658Z" fill="white"/>
<path d="M107.224 65.627L106.852 65.751V77.5V89.249L107.317 89.3885C109.949 90.179 112.001 92.504 112.589 95.3637C112.713 95.9682 112.713 97.5647 112.589 98.146C112.52 98.4405 112.52 98.6265 112.566 98.673C112.659 98.766 134.44 110.755 134.463 110.724C134.486 110.693 107.673 65.4875 107.626 65.4952C107.603 65.4952 107.425 65.5572 107.224 65.627Z" fill="white"/>
<path d="M54.8507 88.0245L42.5395 94.8057L42.6479 95.356C42.8183 96.2395 42.7331 97.9755 42.4776 98.8357C42.1059 100.068 41.4865 101.13 40.5573 102.106L40.0231 102.672L53.6273 125.643C61.107 138.275 67.2626 148.637 67.3013 148.676C67.3323 148.722 67.3632 133.556 67.3632 114.987C67.3632 88.0245 67.34 81.22 67.2703 81.2277C67.2161 81.2355 61.6257 84.289 54.8507 88.0245Z" fill="white"/>
<path d="M72.5509 114.987V148.761L72.9226 148.141C73.1239 147.8 79.264 137.431 86.5733 125.093L99.8678 102.664L99.3336 102.129C97.5295 100.3 96.7552 97.6267 97.2894 95.0537L97.3436 94.8135L84.986 88.0167C78.1955 84.2812 72.6128 81.22 72.5896 81.22C72.5664 81.22 72.5509 96.4177 72.5509 114.987Z" fill="white"/>
<path d="M15.6948 109.577C8.2152 113.693 2.09831 117.087 2.1138 117.126C2.12928 117.188 66.2946 154.861 66.3256 154.83C66.3334 154.814 59.6125 143.445 51.3896 129.565C40.9522 111.949 36.3993 104.331 36.3219 104.354C36.2677 104.377 35.8651 104.416 35.4315 104.447C33.3641 104.571 31.3742 103.881 29.7714 102.494L29.3068 102.091L15.6948 109.577Z" fill="white"/>
<path d="M110.212 102.385C109.794 102.819 108.757 103.493 108.029 103.811C106.999 104.261 106.194 104.423 104.955 104.423C104.359 104.431 103.778 104.408 103.662 104.377C103.461 104.315 103.298 104.586 88.6174 129.371C80.4487 143.142 73.7046 154.535 73.6195 154.674L73.4646 154.93L74.0298 154.597C74.3473 154.411 88.8265 145.909 106.217 135.702C130.878 121.233 137.808 117.133 137.731 117.064C137.661 117.002 112.202 102.982 110.561 102.098C110.538 102.083 110.383 102.215 110.212 102.385Z" fill="white"/>
</svg>
