<svg width="500" height="125" viewBox="0 0 500 125" fill="none" xmlns="http://www.w3.org/2000/svg">
<path d="M180.58 33.24C180.58 31.83 181.05 30.88 181.76 30.18C182.47 29.47 183.65 29.24 185.06 29.24C186 29.24 186.71 29.24 187.42 29.48C188.13 29.72 188.6 29.95 188.83 29.95V63.65C188.83 66.95 188.36 70.01 187.42 73.08C186.48 75.67 185.06 77.79 183.18 79.68C181.29 81.57 179.17 82.74 176.82 83.69C174.23 84.63 171.63 85.1 168.8 85.1C165.97 85.1 163.38 84.63 160.78 83.69C158.42 82.75 156.3 81.33 154.42 79.68C152.53 77.79 151.12 75.67 150.18 73.55C149.24 70.96 148.53 68.36 148.77 65.77C148.77 63.18 149.24 60.35 150.18 57.75C151.12 55.39 152.54 53.27 154.19 51.62C155.84 49.5 157.96 48.08 160.32 47.14C162.68 46.2 165.27 45.73 167.86 45.73C170.45 45.73 173.05 46.2 175.4 47.38C177.29 48.32 179.17 49.74 180.59 51.39V33.24H180.58ZM180.58 65.54C180.58 63.89 180.34 62.24 179.64 60.83C179.17 59.42 178.23 58 177.28 56.82C176.34 55.64 175.16 54.93 173.74 54.23C170.68 53.05 167.38 53.05 164.31 54.23C162.9 54.94 161.72 55.64 160.77 56.82C159.82 58 158.88 59.18 158.41 60.59C157.94 62.24 157.47 63.89 157.7 65.54C157.7 67.19 157.94 68.84 158.41 70.25C158.88 71.66 159.82 72.84 160.77 74.02C161.72 75.2 163.13 75.91 164.31 76.61C165.72 77.32 167.37 77.55 169.02 77.55C170.67 77.55 172.08 77.31 173.73 76.61C175.14 76.14 176.32 75.2 177.27 74.25C178.21 73.07 179.16 71.89 179.63 70.48C180.1 68.83 180.57 67.18 180.57 65.53L180.58 65.54Z" fill="white"/>
<path d="M201.32 29.9399C202.5 29.9399 203.68 30.4099 204.62 31.1199C205.56 31.8299 206.03 33.0099 206.27 34.1799C206.51 35.3599 206.27 36.5399 205.8 37.4799C205.33 38.4199 204.39 39.3699 203.21 39.8399C202.03 40.3099 200.85 40.3099 199.91 40.0799C198.73 39.8399 197.79 38.8999 197.08 37.9599C196.37 37.0199 196.14 35.8399 196.37 34.6599C196.6 33.4799 197.08 32.2999 197.78 31.5999C198.25 31.1299 198.72 30.6599 199.43 30.4199C199.9 30.1799 200.61 29.9499 201.32 29.9499V29.9399ZM197.08 50.6799C197.08 49.2699 197.55 48.3199 198.26 47.6199C199.2 46.9099 200.38 46.6799 201.56 46.6799C202.5 46.6799 203.21 46.6799 203.92 46.9199C204.63 47.1599 205.1 47.3899 205.33 47.3899V83.9299H196.84V50.6799H197.08Z" fill="white"/>
<path d="M219.24 90.52C219.48 90.52 219.95 90.76 220.65 90.99C221.59 91.23 222.3 91.7 223.24 91.7C224.42 91.94 225.6 92.17 226.78 92.41C228.19 92.65 229.61 92.65 231.26 92.65C232.91 92.65 234.56 92.41 236.21 92.18C237.86 91.94 239.27 91.24 240.69 90.06C242.11 88.88 243.05 87.7 243.75 86.05C244.46 84.4 244.93 82.04 244.93 79.45V78.51C243.52 80.16 241.87 81.34 239.98 82.28C237.62 83.46 234.79 84.17 232.2 84.17C229.61 84.17 227.01 83.7 224.66 82.76C222.3 81.82 220.42 80.64 218.53 78.99C216.88 77.34 215.47 75.22 214.52 73.1C213.58 70.74 213.11 67.91 213.11 65.32C213.11 62.73 213.58 59.9 214.52 57.54C215.46 55.18 216.88 53.06 218.76 51.41C220.65 49.52 222.77 48.35 225.12 47.4C227.71 46.46 230.54 45.99 233.37 45.99C235.96 45.99 238.79 46.46 241.15 47.17C243.51 47.88 245.63 49.29 247.51 50.94C249.4 52.83 250.81 55.18 251.75 57.54C252.69 60.6 253.4 63.67 253.16 66.97V77.58C253.16 81.59 252.69 84.89 251.51 87.72C250.57 90.31 249.15 92.67 247.03 94.56C245.14 96.45 242.79 97.62 240.19 98.57C237.36 99.51 234.53 99.75 231.7 99.75C229.81 99.75 227.93 99.75 226.04 99.51C224.63 99.27 222.98 99.04 221.56 98.8C220.38 98.56 219.44 98.33 218.26 97.86C217.32 97.62 216.85 97.39 216.37 97.15L219.2 90.55L219.24 90.52ZM233.38 77.08C235.03 77.08 236.44 76.84 238.09 76.14C239.5 75.67 240.68 74.73 241.63 73.78C242.57 72.6 243.52 71.42 243.99 70.01C245.17 66.95 245.17 63.65 243.99 60.58C243.52 59.17 242.58 57.99 241.63 56.81C240.68 55.63 239.51 54.92 238.09 54.22C235.03 53.04 231.73 53.04 228.66 54.22C227.25 54.93 226.07 55.63 225.12 56.81C224.18 57.99 223.23 59.17 222.76 60.58C222.29 61.99 221.82 63.64 222.05 65.29C222.05 68.83 222.99 71.65 225.11 73.78C227.23 76.14 229.82 77.08 233.36 77.08H233.38Z" fill="white"/>
<path d="M265.68 29.9399C266.86 29.9399 268.04 30.4099 268.98 31.1199C269.92 31.8299 270.39 33.0099 270.63 33.9499C270.87 35.1299 270.63 36.3099 270.16 37.2499C269.69 38.1899 268.75 39.1399 267.57 39.6099C266.39 40.0799 265.21 40.0799 264.27 39.8499C263.09 39.6099 262.15 38.6699 261.44 37.7299C260.73 36.7899 260.5 35.6099 260.73 34.4299C260.97 33.2499 261.44 32.0699 262.14 31.3699C262.61 30.8999 263.08 30.4299 263.79 30.1899C264.26 30.1899 264.97 29.9499 265.68 29.9499V29.9399ZM261.44 50.6799C261.44 49.2699 261.91 48.3199 262.62 47.6199C263.56 46.9099 264.74 46.6799 265.92 46.6799C266.63 46.6799 267.57 46.6799 268.28 46.9199C268.99 47.1599 269.46 47.3899 269.69 47.3899V83.9299H261.2L261.44 50.6899V50.6799Z" fill="white"/>
<path d="M279.11 40.08C279.11 38.67 279.58 37.72 280.29 37.02C281.23 36.31 282.41 36.08 283.59 36.08C284.53 36.08 285.24 36.08 286.18 36.32C286.89 36.56 287.36 36.79 287.59 36.79V46.46H298.43C300.08 46.46 301.26 46.7 301.97 47.4C302.68 48.11 302.91 49.05 302.91 50.23C302.91 50.94 302.91 51.88 302.44 52.59C302.2 53.06 301.97 53.53 301.73 54H287.59V70.5C287.59 71.68 287.83 72.62 288.06 73.56C288.3 74.27 288.77 74.97 289.47 75.45C290.18 75.92 290.88 76.39 291.59 76.39C292.53 76.63 293.24 76.63 294.18 76.63C295.59 76.63 297.01 76.39 298.19 75.92C299.13 75.68 300.08 75.21 300.78 74.74L304.32 80.4C303.85 80.64 303.38 81.11 302.67 81.58C301.73 82.05 301.02 82.52 300.08 82.76C298.9 83.23 297.72 83.47 296.54 83.7C295.13 83.94 293.71 84.17 292.3 84.17C287.82 84.17 284.76 82.99 282.4 80.87C280.28 78.51 279.1 75.68 279.1 71.91V40.09L279.11 40.08Z" fill="white"/>
<path d="M342.53 83.92C342.06 83.92 341.35 84.16 340.17 84.16C338.99 84.4 337.81 84.4 336.4 84.63C334.99 84.87 333.34 84.87 331.45 84.87C329.56 84.87 327.91 85.11 325.79 85.11C322.02 85.11 318.72 84.87 316.36 84.17C314.24 83.7 312.35 82.76 310.47 81.58C309.06 80.64 308.11 79.22 307.64 77.81C307.17 76.4 306.93 74.75 306.93 73.33C306.93 71.44 307.17 69.56 307.87 67.91C308.58 66.26 309.52 65.08 310.93 64.14C312.58 62.96 314.47 62.25 316.35 61.78C319.18 61.31 321.77 60.84 324.6 61.07C326.49 61.07 328.37 61.07 330.02 61.31C331.67 61.55 332.85 61.55 333.79 61.55C333.79 60.14 333.55 58.49 332.85 57.31C332.38 56.13 331.44 55.19 330.49 54.72C329.31 54.01 328.13 53.54 326.95 53.31C325.54 53.07 323.89 52.84 322.24 52.84C319.41 52.84 317.05 53.08 315.4 53.78C313.75 54.48 312.57 54.96 312.1 55.43C311.63 54.96 311.16 54.49 310.92 54.02C310.45 53.31 310.21 52.61 310.21 51.66C310.21 50.95 310.45 50.01 310.68 49.3C311.15 48.59 311.86 47.89 312.57 47.41C313.75 46.7 314.93 46.47 316.34 46.23C318.23 45.99 320.35 45.76 322.47 45.76C325.06 45.76 327.89 46 330.49 46.7C332.61 47.17 334.73 48.11 336.62 49.53C338.27 50.71 339.68 52.59 340.63 54.48C341.57 56.84 342.04 59.19 342.04 61.79L342.51 83.95L342.53 83.92ZM334.04 67.42C333.57 67.42 332.63 67.18 331.21 66.95C329.09 66.71 327.2 66.71 325.08 66.71C321.78 66.71 319.19 67.18 317.77 68.12C316.12 69.06 315.41 70.71 315.41 72.83C315.41 73.77 315.65 74.48 315.88 75.19C316.35 75.9 316.82 76.6 317.53 77.08C318.47 77.79 319.65 78.02 320.83 78.26C322.48 78.5 324.13 78.73 326.02 78.73C327.91 78.73 329.56 78.73 331.44 78.49C332.85 78.25 333.56 78.25 334.03 78.02V67.41L334.04 67.42Z" fill="white"/>
<path d="M351.49 33.24C351.49 31.83 351.96 30.88 352.67 30.18C353.61 29.47 354.79 29.24 355.97 29.24C356.91 29.24 357.62 29.24 358.33 29.48C359.04 29.72 359.51 29.95 359.74 29.95V83.93H351.25V33.24H351.49Z" fill="white"/>
<path d="M368.22 33.24C368.22 31.83 368.69 30.88 369.4 30.18C370.34 29.47 371.52 29.24 372.7 29.24C373.64 29.24 374.35 29.24 375.06 29.48C375.77 29.72 376.24 29.95 376.47 29.95V51.17C377.88 49.52 379.53 48.11 381.66 47.16C384.02 45.98 386.61 45.51 389.2 45.51C391.79 45.51 394.39 45.98 396.74 46.92C399.09 47.86 400.98 49.28 402.87 50.93C404.52 52.82 405.93 54.94 406.88 57.06C407.82 59.65 408.29 62.25 408.29 65.08C408.29 67.67 407.82 70.5 406.88 72.86C405.94 75.22 404.52 77.34 402.64 78.99C400.75 80.64 398.63 82.05 396.28 83C393.69 83.94 390.86 84.41 388.26 84.41C385.43 84.41 382.84 83.94 380.24 83C377.88 82.06 375.76 80.88 373.88 78.99C371.99 77.1 370.58 74.75 369.64 72.39C368.7 69.33 367.99 66.26 368.23 62.96V33.26L368.22 33.24ZM388.02 77.56C389.67 77.56 391.08 77.32 392.73 76.62C394.14 76.15 395.32 75.21 396.27 74.03C397.22 72.85 398.16 71.67 398.63 70.26C399.1 68.61 399.57 67.2 399.34 65.55C399.34 63.9 399.1 62.25 398.63 60.6C398.16 59.19 397.22 57.77 396.27 56.83C395.33 55.65 393.91 54.94 392.73 54.24C391.32 53.53 389.67 53.3 388.02 53.3C386.37 53.3 384.72 53.54 383.31 54.24C381.9 54.94 380.72 55.65 379.77 56.83C378.82 58.01 377.88 59.19 377.41 60.6C376.94 62.01 376.47 63.66 376.47 65.31C376.47 66.96 376.71 68.61 377.41 70.26C377.88 71.67 378.82 72.85 379.77 74.03C380.72 75.21 382.13 75.92 383.54 76.62C384.95 77.09 386.6 77.56 388.02 77.56Z" fill="white"/>
<path d="M420.08 29.9399C421.26 29.9399 422.44 30.4099 423.38 31.1199C424.32 31.8299 424.79 33.0099 425.03 34.1799C425.27 35.3599 425.03 36.5399 424.56 37.4799C424.09 38.4199 423.15 39.3699 421.97 39.8399C420.79 40.3099 419.61 40.3099 418.67 40.0799C417.49 39.8399 416.55 38.8999 415.84 37.9599C415.13 37.0199 414.9 35.8399 415.13 34.6599C415.37 33.4799 415.84 32.2999 416.54 31.5999C417.01 31.1299 417.48 30.6599 418.19 30.4199C418.9 30.1799 419.6 29.9499 420.08 29.9499V29.9399ZM415.84 50.6799C415.84 49.2699 416.31 48.3199 417.02 47.6199C417.96 46.9099 419.14 46.6799 420.32 46.6799C421.26 46.6799 421.97 46.6799 422.68 46.9199C423.39 47.1599 423.86 47.3899 424.09 47.3899V83.9299H415.6V50.6799H415.84Z" fill="white"/>
<path d="M433.76 40.08C433.76 38.67 434.23 37.72 434.94 37.02C435.88 36.31 437.06 36.08 438.24 36.08C439.18 36.08 439.89 36.08 440.83 36.32C441.54 36.56 442.01 36.79 442.24 36.79V46.46H453.08C454.73 46.46 455.91 46.7 456.62 47.4C457.09 47.87 457.33 48.34 457.33 48.81C457.57 49.28 457.57 49.75 457.57 50.46C457.57 51.17 457.33 52.11 457.1 52.82C456.86 53.29 456.63 53.76 456.39 54.23H442.01V70.73C442.01 71.91 442.25 72.85 442.48 73.79C442.72 74.5 443.19 75.2 443.89 75.68C444.6 76.15 445.3 76.62 446.01 76.62C446.95 76.86 447.66 76.86 448.6 76.86C450.01 76.86 451.43 76.62 452.61 76.15C453.55 75.91 454.5 75.44 455.2 74.97L458.5 80.63C458.03 80.87 457.56 81.34 456.85 81.81C455.91 82.28 455.2 82.75 454.26 82.99C453.08 83.46 451.9 83.7 450.72 83.93C449.31 84.17 447.89 84.4 446.48 84.4C442 84.4 438.94 83.22 436.58 81.1C434.46 78.74 433.28 75.91 433.28 72.14L433.75 40.08H433.76Z" fill="white"/>
<path d="M467.23 74.73C467.94 75.2 468.41 75.44 469.12 75.67C470.3 76.14 471.24 76.61 472.42 76.85C473.83 77.32 475.48 77.56 476.9 78.03C478.79 78.27 480.67 78.5 482.32 78.5C484.91 78.5 487.03 78.26 488.68 77.56C490.33 76.85 491.04 75.67 491.04 74.02C491.04 73.31 491.04 72.84 490.57 72.13C490.33 71.66 489.86 71.19 489.39 70.72C488.45 70.01 486.56 69.54 483.73 69.31L477.84 68.6C475.95 68.36 474.07 68.13 472.42 67.42C470.77 66.95 469.36 66.24 468.18 65.3C467 64.36 466.06 63.18 465.35 62C464.64 60.59 464.41 58.94 464.41 57.29C464.41 55.64 464.65 54.23 465.35 52.81C466.06 51.4 467 49.98 468.18 49.04C469.83 47.86 471.48 46.92 473.37 46.45C475.96 45.74 478.56 45.51 481.15 45.51C486.34 45.51 490.34 45.98 493.17 47.16C496 48.34 497.41 49.75 497.41 51.64C497.41 52.11 497.41 52.82 497.17 53.29C496.93 53.76 496.7 54 496.46 54.47C496.22 54.71 495.99 55.18 495.52 55.41C495.28 55.65 495.05 55.65 494.81 55.88C494.34 55.64 493.87 55.17 493.4 54.94C492.46 54.47 491.51 54 490.57 53.76C487.51 52.58 484.21 52.11 480.9 52.11C475.24 52.11 472.18 53.52 472.18 56.59C472.18 57.3 472.42 57.77 472.65 58.24C472.89 58.71 473.36 59.18 473.83 59.42C475.01 60.13 476.42 60.6 478.54 60.83L486.08 61.77C490.09 62.24 493.39 63.42 495.75 65.07C498.11 66.72 499.29 69.31 499.05 72.61C499.05 74.26 498.81 76.15 497.87 77.56C497.16 79.21 495.98 80.39 494.57 81.57C491.74 83.69 487.26 84.87 481.84 84.87C479.48 84.87 476.89 84.63 474.53 84.16C472.64 83.92 470.76 83.45 468.87 82.75C467.46 82.28 466.28 81.81 464.86 81.34C464.15 81.1 463.45 80.63 462.97 80.16L467.21 74.74L467.23 74.73Z" fill="white"/>
<path fill-rule="evenodd" clip-rule="evenodd" d="M124.47 62.23C124.47 96.65 96.65 124.46 62.24 124.46C27.83 124.46 0 96.42 0 62.23C0 28.04 27.82 0 62.23 0C96.64 0 124.46 27.82 124.46 62.23H124.47ZM57.76 29.23H51.87V38.66C49.28 37.01 46.45 36.3 43.38 36.54C40.32 36.78 37.49 37.95 35.36 40.08C33.24 42.2 31.59 44.79 31.12 47.86C30.65 50.92 31.12 53.75 32.53 56.58C33.94 59.17 36.3 61.29 38.89 62.47C41.48 63.65 44.78 63.88 47.61 63.18C50.44 62.47 53.03 60.82 54.92 58.47C56.81 56.11 57.75 53.28 57.75 50.22V29.23H57.76ZM44.32 57.28C42.91 57.28 41.49 56.81 40.08 56.1C38.9 55.39 37.96 54.21 37.25 52.8C36.78 51.39 36.54 49.97 36.78 48.56C37.02 47.15 37.72 45.73 38.9 44.79C39.84 43.85 41.26 43.14 42.67 42.67C44.08 42.43 45.5 42.43 46.91 43.14C48.32 43.61 49.5 44.55 50.21 45.97C50.92 47.15 51.39 48.56 51.39 50.21C51.39 52.1 50.68 53.98 49.27 55.4C48.33 56.58 46.44 57.29 44.32 57.29V57.28ZM66.48 95H72.37V85.57C74.96 87.22 77.79 87.93 80.86 87.69C83.92 87.45 86.75 86.28 88.88 84.15C91 82.03 92.65 79.44 93.12 76.37C93.59 73.31 93.12 70.48 91.71 67.65C90.3 65.06 87.94 62.94 85.35 61.76C82.76 60.58 79.46 60.35 76.63 61.05C73.8 61.76 71.21 63.41 69.32 65.76C67.43 68.12 66.49 70.95 66.49 74.01V94.99L66.48 95ZM79.92 66.95C81.33 66.95 82.75 67.42 84.16 68.13C85.34 68.84 86.28 70.02 86.99 71.43C87.46 72.84 87.7 74.26 87.46 75.67C87.22 77.08 86.52 78.5 85.34 79.44C84.4 80.38 82.98 81.09 81.57 81.56C80.16 81.8 78.74 81.8 77.33 81.09C75.92 80.62 74.74 79.68 74.03 78.26C73.32 77.08 72.85 75.67 72.85 74.02C72.85 72.13 73.56 70.25 74.97 68.83C76.15 67.89 78.03 66.94 79.92 66.94V66.95ZM73.08 32.77H93.59V38.66H84.16C85.81 41.25 86.52 44.08 86.28 47.15C86.04 50.21 84.87 53.04 82.74 55.17C80.62 57.29 78.03 58.94 74.96 59.41C71.9 59.88 69.07 59.41 66.24 58C63.65 56.59 61.53 54.23 60.35 51.64C59.17 48.81 58.94 45.75 59.64 42.92C60.35 40.09 62 37.5 64.35 35.61C67.18 33.96 70.01 32.78 73.07 32.78L73.08 32.77ZM77.09 40.08C75.91 39.37 74.5 38.9 72.85 38.9C70.96 38.9 69.08 39.61 67.66 41.02C66.25 42.43 65.54 44.32 65.54 46.21C65.54 47.62 66.01 49.04 66.72 50.45C67.43 51.86 68.61 52.57 70.02 53.28C71.43 53.75 72.85 53.99 74.26 53.75C75.67 53.51 77.09 52.81 78.03 51.63C78.97 50.69 79.68 49.27 80.15 47.86C80.39 46.45 80.39 45.03 79.68 43.62C79.44 42.21 78.27 41.03 77.09 40.08ZM51.16 91.47C54.22 91.47 57.29 90.53 59.65 88.64C62.01 86.75 63.66 84.16 64.36 81.33C65.07 78.5 64.83 75.44 63.65 72.61C62.47 69.78 60.35 67.66 57.76 66.25C55.17 64.84 52.1 64.36 49.04 64.84C45.98 65.31 43.38 66.73 41.26 69.08C39.14 71.2 37.96 74.03 37.72 77.1C37.48 80.17 38.19 82.99 39.84 85.59H30.41V91.48H51.15L51.16 91.47ZM51.4 85.58C49.99 85.58 48.57 85.11 47.16 84.4C45.98 83.69 45.04 82.51 44.33 81.1C43.86 79.69 43.62 78.27 43.86 76.86C44.1 75.45 44.8 74.03 45.98 73.09C46.92 72.15 48.34 71.44 49.75 70.97C51.16 70.73 52.58 70.73 53.99 71.44C55.4 71.91 56.58 72.85 57.29 74.27C58 75.45 58.47 76.86 58.47 78.51C58.47 80.4 57.76 82.28 56.35 83.7C55.17 84.64 53.29 85.59 51.4 85.59V85.58Z" fill="white"/>
</svg>
