<svg width="615" height="86" viewBox="0 0 615 86" fill="none" xmlns="http://www.w3.org/2000/svg">
<g clip-path="url(#clip0_1726_3238)">
<path d="M479.208 5.73169C479.122 8.64068 481.41 11.0813 484.312 11.1676C484.522 11.1676 484.731 11.1676 484.927 11.1552C487.929 11.1552 490.364 8.68998 490.352 5.68239C490.352 5.5961 490.352 5.50982 490.352 5.42353C490.376 2.45292 487.99 0.0369787 485.026 0.0123262C484.989 0.0123262 484.964 0.0123262 484.927 0.0123262C481.803 0.110936 479.306 2.62548 479.208 5.74402V5.73169Z" fill="white"/>
<path d="M604.57 18.97V41.7366C604.533 43.5485 604.324 45.3481 603.942 47.1108C601.839 54.0258 594.988 58.34 587.854 57.2306C580.548 56.2568 575.05 50.0691 574.914 42.6857V18.6496H567.018C565.751 18.6496 565.443 18.97 565.443 20.2273V30.6553C565.357 31.7154 564.914 32.7261 564.176 33.5027L542.393 55.3201C540.339 57.7483 536.711 58.0565 534.287 55.998C532.811 54.7407 532.061 52.8302 532.295 50.8949V27.8203H547.448C548.076 27.8203 549.023 27.1916 549.023 26.8711V18.3414H531.975V7.59295H522.824V30.3471C522.689 31.4935 522.246 32.5782 521.557 33.5027L500.106 54.9996C498.494 57.1443 495.641 57.9332 493.156 56.8978C490.893 55.7885 489.515 53.4095 489.688 50.8949V18.6496H482.111C480.536 18.6496 480.217 19.2782 480.536 20.5478V30.6676C480.623 31.21 480.512 31.777 480.217 32.2454C478.003 34.4641 475.801 36.6705 473.267 38.8892C473.267 38.2606 472.947 37.9401 472.947 37.6196C470.168 24.332 457.179 15.8145 443.919 18.5879C439.541 19.5001 435.506 21.5955 432.234 24.6524L426.539 30.3471C418.643 38.2482 410.759 46.1617 403.182 54.0628C399.086 58.0811 392.518 58.0072 388.508 53.9025C384.498 49.7979 384.572 43.2157 388.655 39.1974L407.61 20.2273C408.2 19.648 408.729 19.0194 409.184 18.3291H373.207C371.841 18.1688 370.513 18.7852 369.738 19.9068C359.012 30.9758 347.955 41.7242 337.229 52.7809C334.991 55.2091 331.977 56.7745 328.705 57.206C325.766 57.7483 322.74 57.1813 320.181 55.6282C320.181 55.6282 337.229 38.2359 345.433 30.3348C346.7 29.0652 346.7 28.4366 345.753 27.1793C337.377 16.665 322.076 14.9517 311.584 23.3459C311.067 23.7526 310.575 24.1964 310.095 24.6401C306.307 28.1161 302.838 31.9126 299.37 35.3886C298.029 36.6828 296.762 38.051 295.581 39.4932C294.327 30.9142 288.706 23.6047 280.748 20.2027C272.666 16.7883 263.38 17.9963 256.43 23.3582V1.89824C256.43 0.320482 255.803 0 254.536 0H249.173C247.279 0 246.959 0.628637 246.959 2.21872V30.9881C246.984 32.0235 246.652 33.0219 246.012 33.8355L223.922 55.961C222.409 57.8469 219.826 58.4879 217.612 57.5388C215.312 56.639 213.897 54.3093 214.143 51.8441V30.6676C214.143 29.0899 214.463 28.7694 216.037 28.7694H230.871V19.5987H213.823V8.85022H204.672V31.6167C204.697 32.5535 204.352 33.4534 203.725 34.1436L198.042 39.8383L184.156 53.7423C182.729 55.1475 181.007 56.2322 179.113 56.8978C175.017 58.5742 170.392 58.3523 166.493 56.2692C175.644 47.0985 184.488 38.2482 193.639 29.398C193.012 28.7694 192.692 27.8203 192.065 27.1793C189.629 24.3566 186.616 22.1009 183.221 20.5355C180.232 19.2412 177.009 18.6003 173.75 18.6372C164.918 18.6249 156.788 23.4814 152.606 31.2839C151.979 32.8617 151.032 34.4394 150.392 36.3377C149.74 38.4948 149.42 40.7258 149.433 42.9815C149.507 53.3725 156.062 62.6048 165.841 66.0562C166.161 66.0562 166.468 66.3767 166.788 66.3767C169.26 67.0053 171.806 67.3258 174.365 67.3258C180.773 67.0423 186.8 64.1949 191.093 59.4247L192.987 57.5264L202.458 48.0476C203.036 47.4559 203.663 46.9259 204.352 46.4698V52.1645C204.155 60.4724 210.711 67.3751 219.002 67.5723C223.233 67.6709 227.304 65.9822 230.231 62.913C235.274 57.8593 246.64 46.7903 246.64 46.7903V67.03H256.111V43.3143C256.197 35.0311 262.962 28.3749 271.24 28.4612C272.974 28.4736 274.684 28.794 276.307 29.398C282.297 31.5305 286.233 37.2621 286.086 43.6225V67.0176H295.557V54.9996C296.307 52.4727 297.857 50.254 299.972 48.6762C300.895 48.0353 301.731 47.2834 302.494 46.4575C303.011 51.4743 305.237 56.1706 308.804 59.7328C317.943 69.5938 333.318 70.1731 343.17 61.0148C343.404 60.8052 343.625 60.5834 343.847 60.3615L374.141 30.0143C374.769 29.3857 375.408 28.7447 376.036 28.7447H387.081L382.038 33.7985C378.606 37.1389 376.577 41.6626 376.355 46.4452C375.814 54.6914 380.476 62.4076 388.028 65.7357C395.519 69.2364 404.387 67.5846 410.119 61.6311C411.693 60.0533 413.28 58.1551 415.162 56.5773L425.26 46.4575H425.58V67.0053H435.051V42.3529C435.26 34.082 442.111 27.5368 450.377 27.7463C452.628 27.8079 454.829 28.3626 456.834 29.398C462 31.9126 465.223 37.2375 465.063 42.9938V66.7095H474.534V53.1137C474.534 52.9 474.641 52.6905 474.854 52.485C477.068 50.2663 479.27 48.3804 481.484 46.1617V51.8564C481.434 58.0195 485.21 63.5663 490.955 65.7604C496.514 68.0407 502.91 66.6602 507.043 62.2844L522.197 47.1108C522.516 46.7903 523.144 46.4822 523.771 45.8412V51.5359C523.586 57.81 527.387 63.5293 533.242 65.7604C538.912 68.0161 545.382 66.6355 549.65 62.2844C554.693 57.2306 559.748 52.1645 564.804 47.4313L566.378 45.8535C568.26 59.3138 580.671 68.694 594.102 66.8081C598.124 66.2411 601.937 64.688 605.209 62.2967C605.185 69.1501 600.265 75.005 593.537 76.2007C586.575 77.6182 579.539 74.0929 576.489 67.6709C576.169 67.0423 575.542 66.4013 575.222 66.4013H566.71C566.71 67.03 566.71 67.3504 567.03 67.6709C569.908 78.4194 579.588 85.926 590.695 86.0123C602.036 86 611.851 78.1236 614.373 67.0423C614.742 64.8482 614.951 62.6295 615 60.3985V19.2905C610.584 18.97 607.743 18.97 604.582 18.97H604.57ZM159.236 49.009C155.607 41.7612 158.535 32.9233 165.767 29.2871C169.752 27.2902 174.439 27.204 178.485 29.0899C172.175 35.7337 165.866 42.3775 159.236 49.009ZM315.151 32.5659C319.566 27.7217 326.676 26.4274 332.506 29.4104C325.876 36.0542 319.566 42.6857 312.937 49.3295C309.788 44.9044 311.055 37.3115 315.151 32.5659Z" fill="white"/>
<path d="M109.618 18.477C97.9326 7.01362 79.2366 7.01362 67.5516 18.477L63.099 22.9391L67.2441 27.0807L71.709 22.6186C81.0816 13.3863 96.1122 13.3863 105.485 22.6186C114.784 31.9619 114.771 47.0985 105.436 56.4294C96.1122 65.748 81.0078 65.7357 71.6967 56.3801L67.2318 51.918L63.0867 56.0596L67.5516 60.5217C79.2366 71.9851 97.9326 71.9851 109.618 60.5217C115.214 54.9749 118.314 47.382 118.215 39.5055C118.314 31.6167 115.202 24.0361 109.605 18.4893L109.618 18.477Z" fill="white"/>
<path d="M67.2195 43.6348L79.9622 30.8895C84.6977 26.1809 92.3483 26.2179 97.0469 30.9758C101.746 35.7214 101.709 43.3883 96.9608 48.0969C92.2499 52.7685 84.6731 52.7685 79.9622 48.0969L75.4974 43.6348L71.3522 47.7764L75.8171 52.2385C82.8404 59.3877 94.304 59.474 101.438 52.4357C108.572 45.3975 108.658 33.9094 101.635 26.7602C94.6115 19.611 83.1479 19.5247 76.0139 26.563C75.9524 26.6246 75.8786 26.6986 75.8171 26.7602L73.8984 28.6708L63.3818 39.4932L50.9588 51.918L49.6919 53.1876L47.1459 55.7391L46.5062 56.3801C37.1336 65.6124 22.103 65.6124 12.7304 56.3801C3.43165 47.1231 3.38245 32.0605 12.6197 22.7295C12.6566 22.6926 12.6935 22.6556 12.7304 22.6186C17.06 18.0826 23.0624 15.5434 29.3231 15.605C35.6576 15.605 41.7338 18.1319 46.211 22.6186L54.8088 31.2223L38.5604 47.4683L37.9208 48.1092C35.6207 50.3526 32.5334 51.6099 29.3231 51.6099C27.3059 51.6099 25.3256 51.0675 23.6036 50.0198L41.1188 32.5042L44.6243 29.0036L42.0782 26.7725C41.4017 26.0576 40.6515 25.4167 39.8519 24.862C36.8015 22.6186 33.1115 21.3983 29.3231 21.3613C24.5138 21.3737 19.9259 23.3335 16.568 26.7725C9.54475 33.5273 9.32335 44.7072 16.0637 51.7455C16.2236 51.918 16.3958 52.0783 16.568 52.2508C23.3822 59.3014 34.5998 59.4863 41.6477 52.6699C41.783 52.5343 41.9306 52.3987 42.0659 52.2508L50.3561 43.9676L55.1409 39.1974L59.2859 35.0558L63.1112 31.2346L63.431 30.9141L50.6882 18.1812C38.9786 6.69313 20.2949 6.69313 8.60995 18.1565C3.01344 23.7033 -0.0984546 31.2963 -5.46479e-05 39.1727C0.0491454 47.0245 3.13644 54.5682 8.59764 60.1889C20.2826 71.6523 38.9786 71.6523 50.6636 60.1889L55.1285 55.7268L67.2195 43.6225V43.6348ZM17.2076 39.4932C17.1338 32.874 22.4351 27.4628 29.0279 27.3889C29.1263 27.3889 29.2247 27.3889 29.3108 27.3889C31.574 27.3889 33.788 28.0421 35.6822 29.2994L19.1141 45.8658C17.8595 43.9799 17.1953 41.7612 17.1953 39.4932H17.2076Z" fill="white"/>
</g>
<defs>
<clipPath id="clip0_1726_3238">
<rect width="615" height="86" fill="white"/>
</clipPath>
</defs>
</svg>
