<?xml version="1.0" encoding="utf-8"?>
<!-- Generator: Adobe Illustrator 25.3.1, SVG Export Plug-In . SVG Version: 6.00 Build 0)  -->
<svg version="1.1" id="Layer_1" xmlns="http://www.w3.org/2000/svg" xmlns:xlink="http://www.w3.org/1999/xlink" x="0px" y="0px"
	 viewBox="0 0 2832 828" enable-background="new 0 0 2832 828" xml:space="preserve">
<g transform="translate(0.000000,828.000000) scale(0.100000,-0.100000)">
	<path fill="#FFFFFF" d="M3795,8269c-844-76-1598-380-2265-913c-161-128-478-445-606-606C409,6105,108,5379,18,4565
		c-17-160-17-690,0-850c90-814,391-1540,906-2185c128-161,445-478,606-606c645-515,1371-816,2185-906c160-17,690-17,850,0
		c814,90,1540,391,2185,906c161,128,478,445,606,606c515,645,816,1371,906,2185c17,160,17,690,0,850c-90,814-391,1540-906,2185
		c-128,161-445,478-606,606c-631,504-1330,799-2130,900C4471,8274,3945,8283,3795,8269z M5663,6570l1377-815v-370l-1-370l-715-429
		l-714-429l492-294c271-162,593-353,715-426l223-132l-3-405l-2-405l-1365-827C4435,919,4303,842,4285,854c-11,7-188,113-392,236
		l-373,223v793v794l-667-402c-368-221-675-406-684-411c-13-8-99,39-418,229l-401,239v1605l1,1605l388,234c214,128,393,231,398,229
		c4-3,315-188,690-412c375-223,684-406,687-406s6,373,6,829v829l321,195l322,194l62-36C4259,7401,4906,7018,5663,6570z"/>
	<path fill="#FFFFFF" d="M4240,5772v-799l330-196c181-108,334-197,340-197c10,0,1317,784,1333,799c7,7-1979,1191-1997,1191
		C4243,6570,4240,6211,4240,5772z"/>
	<path fill="#FFFFFF" d="M2088,5369l-28-21V4159V2970l41-25c22-15,46-25,54-23c7,2,317,185,689,408l675,405l1,416v416l-690,411
		c-379,227-695,412-702,412S2103,5380,2088,5369z"/>
	<path fill="#FFFFFF" d="M4568,3532l-327-197l2-809l2-810l30-18l30-17l1003,607c551,334,1002,609,1001,612c0,9-1386,830-1400,829
		C4901,3729,4748,3640,4568,3532z"/>
	<path fill="#FFFFFF" d="M22137,6373c-4-3-7-404-7-891v-885l-73,70c-223,212-481,312-802,313c-213,0-386-39-570-130
		c-462-227-747-704-772-1295c-15-363,79-719,264-999c81-123,245-291,357-366c335-224,753-280,1141-153c211,69,377,184,507,353l27,35
		l1-187v-188h435h435l-2,2163l-3,2162l-466,3C22353,6379,22140,6377,22137,6373z M21635,4195c135-28,281-120,370-233
		c62-77,121-199,146-302c30-120,24-300-15-415c-83-244-264-421-486-476c-81-20-271-17-345,5c-222,66-387,241-457,482
		c-19,67-23,102-23,229c0,172,18,255,82,380c53,100,182,227,285,278C21320,4206,21487,4226,21635,4195z"/>
	<path fill="#FFFFFF" d="M23710,4215V2050h475h475v2165v2165h-475h-475V4215z"/>
	<path fill="#FFFFFF" d="M9490,4076V2050h878c931,0,1016,4,1256,50c671,130,1047,559,1023,1165c-6,154-29,253-87,374
		c-96,200-251,353-454,447c-76,35-233,84-269,84c-31,0-11,13,68,45c244,99,440,287,519,498c46,122,59,213,53,391
		c-5,187-24,275-86,401c-145,293-439,480-885,562l-141,26l-937,4l-938,4V4076z M11190,5296c150-34,264-106,310-195
		c31-61,44-164,32-244c-22-143-93-238-223-301c-118-56-201-66-560-66h-309v416v416l338-5C11043,5313,11131,5309,11190,5296z
		 M11305,3732c218-57,317-142,351-303c19-91,13-205-17-285c-29-77-119-171-203-213c-146-72-296-91-707-91h-289v461v461l393-5
		C11191,3754,11232,3751,11305,3732z"/>
	<path fill="#FFFFFF" d="M14370,4979c-360-46-678-191-909-414c-212-204-348-452-413-748c-19-88-22-132-23-327c0-251,10-323,69-504
		c171-521,595-881,1178-998c97-20,144-23,328-23c183,0,232,4,326,23c160,32,280,74,439,152c418,208,685,554,787,1020
		c20,92,22,133,22,330c0,194-3,239-22,323c-66,298-184,519-387,723c-242,243-539,385-916,439C14737,4991,14478,4993,14370,4979z
		 M14745,4195c115-24,226-85,314-174s131-157,175-278c30-85,31-94,31-253c0-145-3-174-23-240c-75-240-238-411-452-474
		c-83-25-220-30-318-13c-246,45-441,236-514,506c-31,114-31,326,0,436c61,213,182,363,358,447C14435,4208,14603,4225,14745,4195z"/>
	<path fill="#FFFFFF" d="M18249,4965c-138-26-328-106-429-180c-60-44-169-159-215-227l-35-53v198v197h-460h-460V3475V2050h475h474
		l3,848l4,847l22,75c51,165,144,283,269,343c66,31,72,32,198,32c120,0,134-2,187-27c72-33,130-94,169-174c64-136,63-111,66-1071
		l4-873h475h475l-4,983l-3,982l-27,124c-53,240-131,400-261,538c-129,137-273,222-456,270C18599,4979,18367,4987,18249,4965z"/>
	<path fill="#FFFFFF" d="M25070,4894c0-3,266-631,590-1396c325-764,590-1395,590-1402c0-31-133-343-174-409c-80-130-148-175-292-197
		c-91-14-193-7-313,21c-46,11-86,18-88,15c-2-2-27-178-55-391c-41-313-48-389-37-396c42-26,321-59,499-59c575,0,913,210,1159,720
		c44,92,1371,3476,1371,3497c0,1-224,3-498,3h-498l-264-852c-145-469-272-881-282-915c-10-35-22-63-27-63c-4,0-137,375-296,833
		c-158,457-301,869-317,915l-30,82h-519C25304,4900,25070,4897,25070,4894z"/>
</g>
</svg>
