<svg width="500" height="79" viewBox="0 0 500 79" fill="none" xmlns="http://www.w3.org/2000/svg">
<path d="M24.87 78.07C21.89 77.37 19.01 76.28 16.31 74.85C13.25 73.31 10.49 71.24 8.15999 68.74C5.52999 65.73 3.53999 62.22 2.32999 58.41C0.709985 53.63 -0.0700145 48.6 -1.44853e-05 43.55C-0.100014 37.82 0.909986 32.13 2.98999 26.79C4.73999 22.29 7.60999 18.31 11.32 15.24C14.95 12.32 19.13 10.14 23.62 8.84999C28.63 7.41999 33.81 6.70999 39.02 6.75999C47.45 6.65999 55.84 7.89999 63.88 10.45L65.76 34.98H64.99C61.42 28.7 57.14 22.85 52.22 17.55C47.61 12.67 43.3 10.21 39.36 10.21C35.42 10.21 32.29 12.72 29.58 17.79C26.87 22.86 25.52 31.19 25.52 42.84C25.46 48.12 25.88 53.4 26.77 58.61C27.28 62.11 28.41 65.49 30.09 68.6C31.17 70.52 32.65 72.18 34.43 73.48C35.83 74.45 37.49 74.98 39.2 75C43.68 75 45.89 72.25 45.89 66.76V55.01C45.89 46.91 42.52 42.75 35.78 42.51V41.23H71.97V41.99C70.67 43.14 69.63 44.56 68.93 46.16C68.4 48.42 68.19 50.75 68.32 53.07V77.03H67.46C64.04 74.85 60.09 73.63 56.04 73.52C52.5 73.85 49.04 74.73 45.78 76.12C41.63 77.75 37.23 78.63 32.77 78.72C30.12 78.68 27.48 78.46 24.87 78.06" fill="white"/>
<path d="M114.5 78.7299C111.14 79.0399 107.82 77.8099 105.46 75.3999C103.64 73.2299 102.76 70.4299 103 67.6099H102.81C101.35 70.7499 99.1 73.4499 96.27 75.4499C93.23 77.6199 89.58 78.7499 85.85 78.6699C82.15 78.8499 78.53 77.5799 75.75 75.1399C73.27 72.8499 71.9 69.6099 71.98 66.2399C71.97 63.4899 72.83 60.8199 74.44 58.5899C76.32 56.0899 78.73 54.0499 81.51 52.6099C84.6 50.9299 87.83 49.4999 91.16 48.3499C95.04 47.0399 99 45.9499 103 45.0699L103.09 35.7599C103.09 32.2199 101.73 30.3999 99.04 30.3999C96.71 30.3999 94.77 32.0999 93.29 35.4499C91.68 39.2599 90.61 43.2699 90.1 47.3699L89.51 47.4699L75.85 41.3499C77.79 37.2099 80.96 33.7799 84.93 31.5099C90.27 28.4999 96.35 27.0599 102.47 27.3299C105.96 27.2499 109.44 27.7599 112.76 28.8499C115.11 29.5799 117.29 30.7999 119.14 32.4299C120.62 33.9299 121.73 35.7599 122.38 37.7699C123.06 39.5399 123.49 41.3799 123.69 43.2599C123.77 44.5999 123.79 46.2299 123.73 48.5499L123.33 67.5899C123.33 69.7999 124.06 70.9199 125.5 70.9199C127.02 70.9199 128.32 69.7699 129.36 67.4899L130.23 67.8799C129.23 70.8099 127.4 73.3799 124.96 75.2799C121.96 77.5799 118.27 78.7899 114.49 78.7199M102.9 47.4999C97.06 48.9199 94.11 52.9699 94.11 59.5599C94.11 64.3699 95.47 66.8099 98.16 66.8099V66.7599H98.18C99.13 66.7399 100.04 66.3899 100.77 65.7799C101.51 65.2399 102.1 64.5399 102.51 63.7199L102.89 47.4999H102.9Z" fill="white"/>
<path d="M216.02 66.8301C215.88 69.2001 216.14 71.5701 216.78 73.8501C217.61 75.5001 218.84 76.9001 220.37 77.9401V78.7401H190.46V77.9401C191.95 76.8801 193.18 75.4801 194.04 73.8601C194.77 71.5801 195.09 69.1801 194.99 66.7901C195.04 64.2001 195.09 57.1801 195.09 45.7701C195.25 43.7501 194.69 41.7401 193.52 40.0901C192.67 38.9301 191.33 38.2301 189.89 38.1901C187.67 38.3401 185.71 39.6701 184.74 41.6801C184.79 42.2301 184.83 43.0201 184.83 44.1301V66.7401C184.71 69.1201 184.95 71.5101 185.55 73.8101C186.31 75.4401 187.47 76.8501 188.93 77.8901V78.6701H159.17V77.8601C160.65 76.7601 161.87 75.3501 162.75 73.7401C163.49 71.4701 163.81 69.0901 163.7 66.7101C163.84 57.1901 163.89 50.1701 163.89 45.6901C164.04 43.6601 163.45 41.6401 162.22 40.0101C161.32 38.8601 159.96 38.1601 158.5 38.1201C156.3 38.2701 154.36 39.6101 153.44 41.6201V66.6801C153.32 69.0601 153.56 71.4401 154.16 73.7501C154.92 75.3801 156.08 76.7901 157.54 77.8401V78.6401H127.83V77.8401C129.31 76.8001 130.52 75.4101 131.36 73.8101C132.04 71.5001 132.31 69.0901 132.17 66.6901V46.9001C132.32 43.8901 132.07 40.8801 131.41 37.9301C130.62 35.9701 129.45 34.1701 127.98 32.6501V31.9501C136.51 31.4101 144.95 29.8501 153.12 27.3201V37.8301C157.56 30.9601 163.04 27.5201 169.58 27.5201C170.81 27.5301 172.04 27.6701 173.25 27.9201C174.68 28.2301 176.08 28.6901 177.4 29.3201C179.04 30.0901 180.49 31.2101 181.65 32.6001C182.99 34.2001 183.92 36.1001 184.37 38.1301C188.81 31.0501 194.39 27.5201 201.11 27.5201C202.51 27.5201 203.91 27.7101 205.26 28.0701C206.94 28.5501 208.56 29.2401 210.08 30.1101C212.08 31.3001 213.66 33.0701 214.61 35.1901C215.87 37.9601 216.47 40.9801 216.37 44.0101L216.03 66.8301" fill="white"/>
<path d="M246.49 78.73H246.37C239.22 78.96 232.24 76.51 226.8 71.86C221.44 66.87 218.58 59.75 219 52.43C218.49 45.28 221.37 38.3 226.79 33.59C232.43 29.27 239.4 27.05 246.5 27.31C252.77 26.97 258.96 28.86 263.97 32.66C268.25 36.23 270.62 41.58 270.41 47.14V48.27L239.11 48.37V48.57C239.04 51.34 239.55 54.09 240.61 56.66C241.46 58.72 242.85 60.5 244.65 61.81C246.24 62.93 248.01 63.78 249.88 64.31C251.75 64.81 253.68 65.06 255.62 65.04C261.18 65.54 266.58 63.01 269.75 58.41L270.34 58.72C269.25 64.49 266.32 69.76 261.99 73.73C257.58 77.2 252.08 78.97 246.48 78.73M244.8 30.41C242.86 30.41 241.45 31.66 240.61 34.13C239.6 37.77 239.1 41.54 239.11 45.31H250.79C250.59 35.45 248.59 30.45 244.85 30.45L244.81 30.4L244.8 30.41Z" fill="white"/>
<path d="M274.99 75.81L272.91 57.67L273.63 57.43C276.61 61.99 280.03 66.26 283.84 70.16C286.23 73.14 289.68 75.08 293.47 75.57C294.62 75.61 295.75 75.24 296.66 74.55C297.54 73.84 298.03 72.75 297.97 71.62C297.85 69.73 296.91 67.99 295.4 66.84C292.73 64.66 289.88 62.7 286.89 61C285.18 60.02 283.51 58.96 281.91 57.82C280.85 57.04 279.4 55.87 277.61 54.31C275.91 52.88 274.57 51.08 273.69 49.04C272.86 47 272.45 44.81 272.48 42.6C272.31 38.26 274.24 34.1 277.66 31.43C281.59 28.54 286.39 27.1 291.26 27.33C297.14 27.56 302.97 28.39 308.68 29.82L310.42 46.7L309.65 46.9C306.81 42.75 303.59 38.87 300.02 35.33C297.79 32.63 294.64 30.85 291.17 30.36C290.14 30.33 289.14 30.7 288.37 31.38C287.56 32.13 287.14 33.21 287.21 34.31C287.19 35.25 287.41 36.17 287.86 36.99C288.57 38.02 289.5 38.89 290.57 39.53C291.68 40.31 292.82 41.02 294.01 41.68C294.93 42.17 296.67 43.09 299.19 44.42C303.16 46.36 306.75 49 309.78 52.22C312.36 55.17 313.73 58.98 313.61 62.9C313.77 67.28 311.94 71.49 308.63 74.36C304.5 77.49 299.39 79.05 294.21 78.75C287.71 78.56 281.27 77.57 275.01 75.82" fill="white"/>
<path d="M330.17 78.7299C326.36 78.8699 322.65 77.5299 319.82 74.9799C316.95 72.0299 315.48 67.9899 315.78 63.8899V31.5999H311.54V29.4499C323.92 22.7999 332.01 16.9499 335.81 11.9099H337.11V27.7099H347.26L346.65 31.5599H337.31L337.02 60.2499C336.97 65.6999 338.89 68.4499 342.85 68.4499C345.1 68.3499 347.2 67.2999 348.63 65.5499L349.25 66.1999C347.57 69.5499 345.15 72.4699 342.18 74.7499C338.77 77.4399 334.53 78.8299 330.19 78.6999V78.7499" fill="white"/>
<path d="M391.76 78.7299C388.4 79.0599 385.07 77.8299 382.73 75.3999C380.91 73.2299 380.03 70.4299 380.27 67.6099H380.08C378.62 70.7499 376.36 73.4499 373.54 75.4499C370.51 77.6199 366.85 78.7499 363.12 78.6699C359.42 78.8499 355.8 77.5799 353.02 75.1399C350.54 72.8499 349.17 69.6099 349.25 66.2399C349.24 63.4999 350.1 60.8199 351.71 58.5899C353.59 56.0899 356 54.0399 358.78 52.6099C361.87 50.9199 365.1 49.4999 368.43 48.3499C372.31 47.0399 376.27 45.9499 380.27 45.0699L380.37 35.7599C380.37 32.1599 379.04 30.3999 376.31 30.3999C373.98 30.3999 372.05 32.0999 370.56 35.4499C368.95 39.2599 367.87 43.2699 367.37 47.3699L366.78 47.4699L353.12 41.3499C355.06 37.2099 358.24 33.7799 362.2 31.5099C367.54 28.4999 373.62 27.0599 379.74 27.3299C383.23 27.2499 386.71 27.7699 390.02 28.8599C392.37 29.5899 394.55 30.8099 396.4 32.4399C397.88 33.9399 398.99 35.7699 399.64 37.7799C400.31 39.5499 400.75 41.3899 400.94 43.2699C401.02 44.6099 401.04 46.2399 400.99 48.5599L400.6 67.5999C400.6 69.8099 401.33 70.9299 402.77 70.9299C404.29 70.9299 405.59 69.7799 406.64 67.4999L407.51 67.8899C406.51 70.8199 404.68 73.3899 402.24 75.2899C399.26 77.6299 395.55 78.8399 391.77 78.7299M380.18 47.5099C374.34 48.9299 371.39 52.9799 371.39 59.5699C371.39 64.3799 372.76 66.8199 375.45 66.8199V66.7699H375.47C376.42 66.7499 377.33 66.3999 378.06 65.7899C378.8 65.2499 379.39 64.5399 379.8 63.7299L380.18 47.5099Z" fill="white"/>
<path d="M404.08 77.8401C405.59 76.8001 406.82 75.4101 407.68 73.7901C408.37 71.4701 408.65 69.0601 408.51 66.6501V44.9701C408.64 42.4901 408.35 40.0001 407.64 37.6201C406.8 35.7901 405.65 34.1101 404.23 32.6801V31.9801C412.95 31.4701 421.57 29.9101 429.91 27.3301L429.66 37.2701H430.01C430.86 34.5701 432.53 32.1901 434.79 30.4701C437.51 28.3801 440.88 27.3101 444.31 27.4701C445.78 27.5001 447.24 27.7401 448.65 28.1701L445.63 50.5001H444.85C439.59 43.0101 435.49 39.2601 432.55 39.2101C431.6 39.1301 430.72 39.6801 430.36 40.5601V66.7401C430.18 69.1601 430.57 71.5901 431.48 73.8401C432.75 75.5901 434.44 77.0001 436.4 77.9401V78.7401H404.24L404.1 77.8401H404.08Z" fill="white"/>
<path d="M475.71 47.06C462.61 47.15 451.91 36.63 451.78 23.53C451.91 10.43 462.62 -0.090026 475.71 -2.60305e-05C488.81 -0.100026 499.52 10.43 499.64 23.53C499.51 36.63 488.81 47.15 475.71 47.06ZM461.2 21.61V25.47H473.76V37.86H477.67V25.47H490.21V21.61H477.67V9.19997H473.76V21.6H461.2V21.61Z" fill="white"/>
</svg>
