<svg width="500" height="145" viewBox="0 0 500 145" fill="none" xmlns="http://www.w3.org/2000/svg">
<g clip-path="url(#clip0_1726_3272)">
<path d="M41.7701 141.07C46.3201 142.54 51.0001 143.54 55.7401 144.07C92.8401 148.25 111 132.86 118.65 100.26C122.2 85.02 127.1 84.95 132.86 77.76C135.48 74.25 137.61 70.4 139.18 66.31C152.2 33.47 108.95 6.16001 81.3201 16.82C88.5801 19.36 95.2701 23.31 101.01 28.44C106.75 33.57 111.42 39.78 114.75 46.71C118.09 53.65 120.02 61.17 120.45 68.85C120.88 76.53 119.78 84.23 117.24 91.49C100.66 139.33 33.9601 144.38 10.2801 99.78C7.91008 118.73 23.3001 135.38 41.7801 141.07H41.7701Z" fill="white"/>
<path d="M18.9601 84.39C18.9601 84.39 19.0001 84.35 19.0201 84.32C16.3601 74.98 16.8001 65.03 20.3001 55.97C21.1101 53.9 22.0701 51.89 23.1801 49.95C40.2701 20.17 83.1801 20.12 100.43 49.81C117.68 79.5 96.4301 116.66 62.1001 116.75C42.1401 116.78 24.4601 103.57 18.9601 84.38V84.39Z" fill="white"/>
<path d="M3.56005 66.39C-2.40995 54.42 -0.789948 40.04 7.78005 29.76C14.1701 22.1 23.4601 17.6 30.8801 18.16C33.0101 18.22 35.12 18.49 37.2001 18.95C26.2801 24.08 17.1901 32.43 11.1501 42.87C6.97005 50.08 4.38005 58.1 3.57005 66.39H3.56005Z" fill="white"/>
<path d="M132.87 77.68C131.29 62.05 124.74 48.47 118.19 38.21C111.07 28.31 101.75 20.21 90.96 14.53C74.68 4.90003 56.1 -0.119973 37.19 2.68158e-05C29.47 0.410027 22.19 3.69003 16.77 9.20003C11.35 14.71 8.19001 22.04 7.90001 29.76V30.08C8.10001 34.52 9.20001 38.87 11.14 42.87C17.18 32.43 26.27 24.08 37.19 18.95C47.56 14.13 59.12 12.45 70.44 14.13C81.76 15.8 92.34 20.75 100.87 28.37C109.4 35.99 115.52 45.94 118.47 56.99C121.42 68.04 121.06 79.72 117.44 90.57C113.83 101.42 107.11 110.98 98.13 118.06C89.15 125.14 78.28 129.44 66.89 130.42C55.49 131.4 44.06 129.02 34 123.57C23.94 118.12 15.69 109.85 10.28 99.77C9.40001 98.16 8.61001 96.5 7.91001 94.8C6.17001 96.71 4.61001 98.77 3.25001 100.96C-7.00999 117.85 11.62 139.4 29.62 141.38C33.67 141.87 37.76 141.76 41.78 141.06C49.2 139.88 55.75 137.19 67.2 136.01C77.07 134.98 89.46 136.48 100.91 133.88C113.7 130.96 125.38 122.91 131.06 100.49C132.94 93.07 133.53 85.38 132.8 77.76L132.88 77.68H132.87Z" fill="white"/>
<path d="M61.98 116.75C70.09 116.73 78.04 114.49 84.98 110.29C91.92 106.08 97.58 100.07 101.35 92.88C105.12 85.7 106.86 77.62 106.39 69.53C105.91 61.43 103.24 53.62 98.65 46.93C94.06 40.24 87.74 34.93 80.35 31.56C72.97 28.2 64.81 26.91 56.75 27.84C48.69 28.77 41.04 31.88 34.62 36.84C28.2 41.8 23.25 48.41 20.3 55.97C22.83 59.6 24.72 63.39 24.72 68.6C24.72 76.26 22.35 80.6 18.96 84.39C21.64 93.73 27.29 101.94 35.05 107.78C42.81 113.62 52.27 116.77 61.98 116.76V116.75Z" fill="white"/>
<path d="M202.57 62.92C205.82 59.75 210.18 57.97 214.73 57.95C219.47 57.95 223.41 59.53 226.57 62.69C229.73 65.85 231.15 70.03 231.15 75.32V98.45H222.7V75.32C222.7 71.93 220.65 65.37 213.07 65.29C203.99 65.37 202.49 73.42 202.57 76.97V98.44H194.28V45.71H202.65L202.57 62.92ZM246.54 64.1C250.39 60.2 255.62 57.99 261.09 57.94C266.57 57.9 271.83 60.02 275.74 63.86C279.29 66.46 288.37 80.2 275.98 93.07C274.07 95.01 271.8 96.55 269.29 97.6C266.78 98.66 264.09 99.21 261.37 99.22C258.65 99.23 255.95 98.71 253.43 97.68C250.91 96.65 248.62 95.13 246.69 93.22C244.68 91.37 243.07 89.12 241.97 86.62C240.86 84.12 240.29 81.42 240.27 78.69C240.25 75.96 240.8 73.25 241.88 70.74C242.96 68.23 244.54 65.97 246.53 64.09L246.54 64.1ZM270.14 69.23C269 68.01 267.63 67.04 266.1 66.38C264.57 65.72 262.93 65.37 261.26 65.37C259.59 65.37 257.95 65.71 256.42 66.38C254.89 67.04 253.52 68.01 252.38 69.23C249.98 71.77 248.64 75.13 248.64 78.62C248.64 82.11 249.98 85.48 252.38 88.01C253.52 89.22 254.9 90.18 256.43 90.83C257.96 91.49 259.6 91.82 261.26 91.82C262.92 91.82 264.57 91.48 266.09 90.83C267.62 90.17 268.99 89.21 270.14 88.01C272.54 85.47 273.88 82.11 273.88 78.62C273.88 75.13 272.54 71.76 270.14 69.23ZM299.82 98.36H291.37V45.71H299.74L299.82 98.36ZM382.71 58.81V67.26C374.82 67.26 368.5 69.79 368.5 79.57V98.52H360.05V79.57C360.05 58.81 376.39 58.57 382.71 58.81ZM400.31 98.36H391.94V58.89H400.31V98.36ZM442.15 63.39V45.71H450.52V98.44H442.15V93.86C438.65 97.19 434.03 99.1 429.2 99.23C426.61 99.25 424.04 98.73 421.66 97.7C419.28 96.67 417.14 95.15 415.39 93.24C411.64 89.3 409.54 84.08 409.54 78.64C409.54 73.2 411.63 67.97 415.39 64.04C417.16 62.12 419.31 60.6 421.7 59.55C424.09 58.5 426.67 57.96 429.28 57.96C435.6 57.96 440.81 61.75 442.15 63.49V63.41V63.39ZM438.52 87.94C440.88 85.4 442.2 82.06 442.2 78.59C442.2 75.12 440.89 71.78 438.52 69.24C437.48 68.02 436.18 67.05 434.72 66.38C433.26 65.71 431.68 65.36 430.07 65.36C428.46 65.36 426.88 65.71 425.42 66.38C423.96 67.05 422.67 68.03 421.62 69.24C419.22 71.76 417.88 75.11 417.88 78.59C417.88 82.07 419.22 85.42 421.62 87.94C422.67 89.16 423.96 90.13 425.42 90.8C426.88 91.47 428.46 91.82 430.07 91.82C431.68 91.82 433.26 91.47 434.72 90.8C436.18 90.13 437.47 89.15 438.52 87.94ZM468.12 81.47C469.15 88.42 476.17 92.13 480.75 91.81C483.11 91.76 485.42 91.18 487.53 90.11C489.63 89.04 491.47 87.52 492.91 85.65L498.36 91.02C496.21 93.61 493.52 95.69 490.48 97.12C487.44 98.55 484.12 99.3 480.76 99.31C475.19 99.27 469.86 97.03 465.93 93.09C462 89.14 459.78 83.81 459.76 78.24C459.76 75.58 460.31 72.94 461.37 70.5C462.43 68.06 463.98 65.86 465.92 64.03C467.81 62.12 470.06 60.6 472.54 59.57C475.02 58.54 477.68 58.02 480.37 58.03C482.96 57.97 485.54 58.42 487.95 59.37C490.36 60.32 492.56 61.74 494.42 63.55C496.7 65.89 498.36 68.76 499.26 71.9C500.16 75.04 500.26 78.36 499.56 81.55L468.14 81.47H468.12ZM468.51 74.52H491.8C490.54 68.6 484.7 64.34 479.49 65.05C476.87 65.21 474.37 66.23 472.38 67.93C470.39 69.64 469 71.95 468.44 74.52H468.52H468.51ZM315.13 64.1C318.98 60.2 324.21 57.99 329.68 57.94C335.16 57.9 340.42 60.02 344.33 63.86C347.88 66.46 356.96 80.2 344.57 93.07C340.71 96.96 335.47 99.16 330 99.19C324.52 99.22 319.26 97.08 315.36 93.23C313.34 91.38 311.73 89.14 310.62 86.65C309.51 84.15 308.92 81.45 308.9 78.72C308.88 75.99 309.42 73.28 310.49 70.76C311.56 68.25 313.14 65.98 315.12 64.1H315.13ZM338.81 69.23C337.67 68 336.29 67.02 334.76 66.35C333.22 65.68 331.57 65.33 329.89 65.33C328.21 65.33 326.56 65.68 325.02 66.35C323.49 67.02 322.11 68 320.97 69.23C318.57 71.77 317.23 75.13 317.23 78.62C317.23 82.11 318.57 85.48 320.97 88.01C322.11 89.22 323.49 90.18 325.02 90.83C326.55 91.49 328.19 91.82 329.85 91.82C331.51 91.82 333.16 91.48 334.68 90.83C336.21 90.17 337.58 89.21 338.73 88.01C341.13 85.47 342.47 82.11 342.47 78.62C342.47 75.13 341.13 71.76 338.73 69.23H338.81Z" fill="white"/>
</g>
<defs>
<clipPath id="clip0_1726_3272">
<rect width="500" height="144.74" fill="white"/>
</clipPath>
</defs>
</svg>
