<svg width="78" height="40" viewBox="0 0 78 40" fill="none" xmlns="http://www.w3.org/2000/svg">
<g clip-path="url(#clip0_12395_3783)">
<path d="M77.6067 21.0934C77.6067 27.9569 72.208 33.5185 65.5456 33.5185C58.8831 33.5185 53.4844 27.9569 53.4844 21.0934C53.4844 14.23 58.8831 8.66833 65.5456 8.66833C72.208 8.66833 77.6067 14.23 77.6067 21.0934ZM71.7079 21.0934C71.7079 17.5938 68.9427 14.7451 65.5456 14.7451C62.1484 14.7451 59.3832 17.5938 59.3832 21.0934C59.3832 24.5931 62.1484 27.4418 65.5456 27.4418C68.9427 27.4418 71.7079 24.5931 71.7079 21.0934Z" fill="white"/>
<path d="M9.61156 32.7586C14.4314 32.7586 18.1438 30.4531 18.1438 25.352V25.2708C18.1438 21.0656 14.536 19.5468 11.4025 18.4619C9.0055 17.6206 6.87352 16.9962 6.87352 15.7224V15.6413C6.87352 14.7453 7.66298 14.0413 9.21755 14.0413C10.5343 14.0413 12.2465 14.611 14.0374 15.5069C14.3799 15.6973 14.8011 15.8051 15.1966 15.8051H15.2496C16.6193 15.8051 17.7254 14.639 17.7254 13.228C17.7254 12.1697 17.1466 11.2206 16.2239 10.7866C14.0904 9.64716 11.7206 9.05085 9.32358 9.0228C4.82034 9.0228 1.15958 11.6545 1.15958 16.3202V16.4014C1.15958 20.8782 4.71431 22.3704 7.79623 23.2914C10.2449 24.0516 12.4041 24.5387 12.4041 25.9497V26.0309C12.4041 27.0612 11.5874 27.7401 9.74481 27.7401C7.95384 27.7401 5.84764 27.0612 3.71423 25.6782C3.346 25.4612 2.92476 25.352 2.4763 25.352H2.3975C1.05498 25.3785 -0.0253378 26.5461 0.000452338 27.9291C0.000452338 28.8516 0.448915 29.6929 1.21116 30.1534C3.68701 31.8627 6.60988 32.7586 9.61156 32.7586ZM25.9123 39.3239C29.7049 39.3239 31.5747 37.5601 33.4445 32.8944L41.213 13.6324C41.3979 13.1438 41.4767 12.6007 41.5025 12.0855V12.059C41.4767 10.4044 40.1327 9.07447 38.5008 9.10251C36.8946 9.10251 35.9733 10.2154 35.4719 11.5985L30.811 24.9461L25.9911 11.5438C25.4639 9.99698 24.5426 9.10251 22.9622 9.10251C21.1985 9.10251 19.8287 10.3778 19.8287 12.2228C19.8818 12.7379 19.9863 13.2265 20.1712 13.7151L27.7821 31.8922L27.5715 32.4073C26.9927 33.5734 26.4654 33.7903 25.3335 33.7903C24.8592 33.7903 24.4122 33.7092 23.991 33.5468C23.6485 33.439 23.3061 33.3844 22.9379 33.3844H22.9121C21.5166 33.4125 20.4105 34.6051 20.4362 36.0427C20.4362 37.6427 21.5166 38.4029 22.4378 38.7556C23.544 39.163 24.7289 39.38 25.9138 39.3254L25.9123 39.3239ZM44.1631 29.3402C44.1631 31.1306 45.5859 32.5962 47.3239 32.5962C49.0618 32.5962 50.4846 31.132 50.4846 29.3402V4.05602C50.4846 2.26561 49.0633 0.799927 47.3239 0.799927C45.5859 0.799927 44.1631 2.26561 44.1631 4.05602V29.3402Z" fill="white"/>
</g>
<defs>
<clipPath id="clip0_12395_3783">
<rect width="77.8001" height="40" fill="white"/>
</clipPath>
</defs>
</svg>
