<?xml version="1.0" encoding="utf-8"?>
<!-- Generator: Adobe Illustrator 25.3.1, SVG Export Plug-In . SVG Version: 6.00 Build 0)  -->
<svg version="1.1" id="Layer_1" xmlns="http://www.w3.org/2000/svg" xmlns:xlink="http://www.w3.org/1999/xlink" x="0px" y="0px"
	 viewBox="0 0 99 43" style="enable-background:new 0 0 99 43;" xml:space="preserve">
<style type="text/css">
	.st0{fill:#FFFFFF;}
</style>
<path class="st0" d="M40.1,13.9c0-1.9-1-3.7-2.7-4.7l-6.6-3.8l-6.6-3.8c-1.7-1-3.7-1-5.4,0l-6.6,3.8L5.6,9.2c-1.7,1-2.7,2.7-2.7,4.7
	l0,7.6l0,7.6c0,1.9,1,3.7,2.7,4.7l6.6,3.8l6.6,3.8c1.7,1,3.7,1,5.4,0l6.6-3.8l6.6-3.8c1.7-1,2.7-2.7,2.7-4.7l0-7.6L40.1,13.9z
	 M29.7,15.8c0,0.1,0,0.2-0.1,0.3c-0.1,0.1-0.2,0.1-0.3,0.1h-2.1c-0.2,0-0.3,0.1-0.5,0.2c-0.1,0.1-0.2,0.3-0.2,0.5v1.9
	c0,0.2,0.1,0.3,0.2,0.4c0.1,0.1,0.3,0.2,0.4,0.2h2.2c0.1,0,0.2,0,0.3,0.1c0.1,0.1,0.1,0.2,0.1,0.3v8.8c0,0.1,0,0.2-0.1,0.3
	c-0.1,0.1-0.2,0.1-0.3,0.1h-2.4c-0.1,0-0.2,0-0.3-0.1c-0.1-0.1-0.1-0.2-0.1-0.3v-8.5l0,0c0-0.1,0-0.2,0-0.3c0-0.1-0.1-0.2-0.2-0.3
	c-0.1-0.1-0.3-0.2-0.5-0.2h-1.8c-0.2,0-0.4,0.1-0.5,0.2c-0.1,0.1-0.2,0.3-0.2,0.4v2.1c0,0.1,0,0.1,0,0.2c0,0.1,0,0.1-0.1,0.1
	c0,0-0.1,0.1-0.1,0.1c0,0-0.1,0-0.2,0h-2.3c-0.1,0-0.1,0-0.2,0c0,0-0.1-0.1-0.1-0.1c0,0-0.1-0.1-0.1-0.1c0,0,0-0.1,0-0.2v-2l0,0
	c0-0.1,0-0.2,0-0.3c0-0.1-0.1-0.2-0.1-0.3c-0.1-0.1-0.2-0.1-0.2-0.2c-0.1,0-0.2-0.1-0.3-0.1h-1.8c-0.2,0-0.4,0.1-0.5,0.2
	c-0.1,0.1-0.2,0.3-0.2,0.4v8.6c0,0.1,0,0.2-0.1,0.3c-0.1,0.1-0.2,0.1-0.3,0.1h-2.3c-0.1,0-0.2,0-0.3-0.1c-0.1-0.1-0.1-0.2-0.1-0.3
	v-8.8c0-0.1,0-0.2,0.1-0.3c0.1-0.1,0.2-0.1,0.3-0.1H16c0.2,0,0.3-0.1,0.4-0.2c0.1-0.1,0.2-0.3,0.2-0.5v-1.7c0-0.1,0-0.2,0-0.3
	c0-0.1-0.1-0.2-0.1-0.3c-0.1-0.2-0.3-0.2-0.5-0.2h-2.1c-0.1,0-0.2,0-0.3-0.1c-0.1-0.1-0.1-0.2-0.1-0.3v-2.3c0-0.1,0-0.2,0.1-0.3
	c0.1-0.1,0.2-0.1,0.3-0.1h2.3c0.1,0,0.2,0,0.3,0.1c0.1,0.1,0.1,0.2,0.1,0.3v2.2c0,0.2,0.1,0.3,0.2,0.4c0.1,0.1,0.3,0.2,0.4,0.2h2.2
	c0.1,0,0.2,0,0.3,0.1c0.1,0.1,0.1,0.2,0.1,0.3v2.2c0,0.2,0.1,0.3,0.2,0.4c0.1,0.1,0.3,0.2,0.4,0.2h2c0.2,0,0.3-0.1,0.4-0.2
	s0.2-0.3,0.2-0.5v-2.1c0-0.1,0-0.2,0.1-0.3c0.1-0.1,0.2-0.1,0.3-0.1h2.2c0.2,0,0.3-0.1,0.4-0.2c0.1-0.1,0.2-0.3,0.2-0.5v-2.1
	c0-0.1,0-0.2,0.1-0.3c0.1-0.1,0.2-0.1,0.3-0.1h2.3c0.1,0,0.2,0,0.3,0.1c0.1,0.1,0.1,0.2,0.1,0.3V15.8z"/>
<path class="st0" d="M50,28.8V14.2c0-0.6,0.4-0.9,1-0.9h0.8c0.7,0,1,0.2,1.3,0.8l4.2,8.1l4.2-8.1c0.3-0.6,0.6-0.8,1.2-0.8h0.7
	c0.7,0,1,0.3,1,0.9v14.6c0,0.1,0,0.2,0,0.2c0,0.1-0.1,0.1-0.1,0.2c-0.1,0.1-0.1,0.1-0.2,0.1c-0.1,0-0.2,0-0.2,0h-0.7
	c-0.1,0-0.2,0-0.2,0c-0.1,0-0.2-0.1-0.2-0.1c-0.1-0.1-0.1-0.1-0.1-0.2c0-0.1,0-0.1,0-0.2V16.2l-4.3,8.1c-0.2,0.4-0.5,0.6-0.9,0.6
	c-0.4,0-0.7-0.2-0.9-0.6L52,16.2v12.6c0,0.1,0,0.2,0,0.2c0,0.1-0.1,0.1-0.1,0.2c-0.1,0.1-0.1,0.1-0.2,0.1c-0.1,0-0.2,0-0.2,0h-0.7
	c-0.1,0-0.2,0-0.2,0c-0.1,0-0.2-0.1-0.2-0.1S50.1,29.1,50,29C50,28.9,50,28.9,50,28.8z"/>
<path class="st0" d="M68.9,28.9c0-0.2,0.1-0.3,0.3-0.7l4.9-7l-4.9-6.9c-0.3-0.3-0.3-0.5-0.3-0.7c0-0.3,0.2-0.4,0.6-0.4h0.8
	c0.5,0,0.7,0.1,1,0.5l4.2,6.1l4.2-6.1c0.3-0.4,0.5-0.5,0.9-0.5h0.8c0.4,0,0.6,0.2,0.6,0.4c0,0.2-0.1,0.3-0.3,0.7l-4.9,6.9l4.9,7
	c0.2,0.3,0.3,0.5,0.3,0.7c0,0.3-0.2,0.4-0.6,0.4h-0.8c-0.5,0-0.7-0.1-0.9-0.5l-4.4-6.2l-4.3,6.2c-0.3,0.4-0.5,0.5-0.9,0.5h-0.8
	C69.1,29.4,68.9,29.2,68.9,28.9z"/>
<path class="st0" d="M85.6,24.1v-5.6C85.6,15,88,13,92,13c4.2,0,6.2,1.6,6.2,5.1v0.5c0,0.3-0.2,0.5-0.5,0.5h-1.1
	c-0.3,0-0.5-0.2-0.5-0.4v-0.5c0-2.4-1.2-3.5-4.1-3.5c-2.7,0-4.2,1.3-4.2,3.8v5.9c0,2.5,1.5,3.8,4.2,3.8c2.9,0,4.1-1.1,4.1-3.5v-0.7
	c0-0.3,0.2-0.4,0.5-0.4h1.1c0.3,0,0.5,0.2,0.5,0.5v0.6c0,3.5-2,5.1-6.2,5.1C88,29.6,85.6,27.7,85.6,24.1z"/>
</svg>
