<svg width="500" height="62" viewBox="0 0 500 62" fill="none" xmlns="http://www.w3.org/2000/svg">
<g clip-path="url(#clip0_1726_3421)">
<path d="M107.26 55.7699C103.06 59.9399 97.43 61.9999 90.39 61.9999C83.35 61.9999 77.72 59.9299 73.48 55.7699C69.25 51.5999 67.14 46.2799 67.14 39.8099C67.14 33.3399 69.24 28.0199 73.48 23.8899C77.71 19.7599 83.34 17.6899 90.39 17.6899C97.44 17.6899 103.06 19.7599 107.26 23.8899C111.46 28.0199 113.56 33.3399 113.56 39.8099C113.56 46.2799 111.46 51.5999 107.26 55.7699ZM90.39 50.7199C93.44 50.7199 95.88 49.6999 97.67 47.6699C99.47 45.6399 100.35 43.0299 100.35 39.8099C100.35 36.5899 99.47 33.9499 97.67 31.9199C95.87 29.8899 93.44 28.8699 90.39 28.8699C87.34 28.8699 84.83 29.8899 83.07 31.9199C81.31 33.9499 80.43 36.5999 80.43 39.8099C80.43 43.0199 81.31 45.6699 83.07 47.6999C84.83 49.7299 87.27 50.7199 90.39 50.7199Z" fill="white"/>
<path d="M119.6 60.71V0H132.88V60.71H119.6Z" fill="white"/>
<path d="M183.22 60.71H166.99L153.71 42.58V60.71H140.43V0H153.71V36.35L167.33 18.94H182.95L166.31 38.73L183.22 60.72V60.71Z" fill="white"/>
<path d="M202.13 61.8301C196.07 61.8301 191.25 59.7601 187.73 55.6601C184.21 51.5601 182.44 46.2801 182.44 39.8001C182.44 33.3201 184.27 28.1801 187.89 24.0101C191.52 19.8401 196.33 17.7801 202.29 17.7801C205.03 17.7501 207.74 18.3901 210.18 19.6801C212.38 20.8701 214.21 22.6601 215.4 24.9001V18.9001H228.58V60.7101H215.4V54.8101C214.25 56.8801 212.45 58.5701 210.08 59.8901C207.64 61.1801 204.9 61.8601 202.12 61.8201L202.13 61.8301ZM205.96 50.8201C209.14 50.8201 211.58 49.7701 213.35 47.7001C215.11 45.6301 215.96 42.9901 215.96 39.8101C215.96 36.6301 215.08 34.0801 213.35 32.0201C211.62 29.9501 209.15 28.9001 205.96 28.9001C202.94 28.9001 200.54 29.9201 198.71 31.9501C196.88 33.9801 195.97 36.5901 195.97 39.8101C195.97 43.0301 196.88 45.7101 198.71 47.7401C200.54 49.8101 202.94 50.8201 205.96 50.8201Z" fill="white"/>
<path d="M254.17 62.0001C248.17 62.0001 243.36 60.7101 239.77 58.1001C236.18 55.4901 234.38 52.1701 234.38 48.1401H247.56C247.56 49.6001 248.2 50.7801 249.46 51.7001C250.75 52.6101 252.37 53.0901 254.41 53.0901C255.87 53.0901 257.02 52.7501 257.93 52.0401C258.81 51.3601 259.32 50.3101 259.29 49.1901C259.29 47.2901 258.27 46.1101 256.24 45.6301L246.01 43.0201C242.59 42.1401 240.01 40.6801 238.22 38.5801C236.42 36.4801 235.54 33.9401 235.54 30.9601C235.54 27.0301 237.17 23.8501 240.38 21.3701C243.6 18.9001 247.97 17.6801 253.39 17.6801C259.39 17.6801 264.03 18.8301 267.21 21.1401C270.39 23.4401 272.05 26.6601 272.05 30.6901H258.94C259.01 29.3701 258.43 28.1201 257.42 27.3001C256.4 26.4901 255.01 26.0801 253.22 26.0801C251.76 26.0801 250.61 26.3801 249.76 27.0301C248.91 27.6101 248.44 28.5501 248.47 29.5401C248.47 31.4001 249.66 32.6201 252.03 33.2701L261.92 35.9801C265.21 36.8601 267.82 38.2801 269.68 40.2801C271.54 42.2501 272.56 44.8901 272.49 47.6001C272.49 51.9401 270.86 55.4301 267.58 58.0401C264.29 60.6501 259.82 62.0001 254.16 62.0001H254.17Z" fill="white"/>
<path d="M297.6 50.38C299.12 50.41 300.68 50.31 302.21 50.11V60.68C299.3 61.15 296.31 61.39 293.37 61.36C292.05 61.36 290.69 61.29 289.37 61.09C288.01 60.85 286.73 60.48 285.47 59.9C284.11 59.36 282.9 58.51 281.91 57.43C281 56.38 280.18 54.89 279.54 52.92C278.83 50.68 278.49 48.35 278.56 45.97V0.23999H291.84V18.91H301.29V29.41H291.84V43.3C291.84 46.15 292.35 48.01 293.3 48.99C294.25 49.94 295.71 50.41 297.6 50.38Z" fill="white"/>
<path d="M326.33 61.8301C320.27 61.8301 315.45 59.7601 311.93 55.6601C308.41 51.5601 306.64 46.2801 306.64 39.8001C306.64 33.3201 308.47 28.1801 312.09 24.0101C315.75 19.8401 320.53 17.7801 326.49 17.7801C329.23 17.7101 331.94 18.3901 334.38 19.6801C336.58 20.8701 338.41 22.6601 339.56 24.9001V18.9001H352.74V60.7101H339.56V54.8101C338.41 56.8801 336.61 58.5701 334.24 59.8901C331.8 61.1801 329.09 61.8601 326.31 61.8201L326.33 61.8301ZM330.16 50.8201C333.34 50.8201 335.78 49.7701 337.55 47.7001C339.28 45.6301 340.16 42.9901 340.16 39.8101C340.16 36.6301 339.28 34.0801 337.55 32.0201C335.82 29.9501 333.35 28.9001 330.16 28.9001C327.14 28.9001 324.74 29.9201 322.91 31.9501C321.08 33.9801 320.17 36.5901 320.17 39.8101C320.17 43.0301 321.08 45.7101 322.91 47.7401C324.71 49.8101 327.14 50.8201 330.16 50.8201Z" fill="white"/>
<path d="M358.79 60.71V18.9001H372.07V27.6401C372.75 24.6201 374.2 22.3201 376.37 20.6601C378.44 19.0301 380.98 18.1901 383.62 18.1901C384.77 18.1601 385.96 18.2901 387.08 18.5301V30.8301C385.76 30.6601 384.44 30.5901 383.08 30.5601C375.73 30.5601 372.07 35.2001 372.07 44.5201V60.6501L358.79 60.7201V60.71Z" fill="white"/>
<path d="M412.25 50.38C413.77 50.41 415.33 50.31 416.86 50.11V60.68C413.95 61.15 410.96 61.39 408.02 61.36C406.7 61.36 405.34 61.29 404.02 61.09C402.66 60.85 401.38 60.48 400.12 59.9C398.76 59.36 397.55 58.51 396.56 57.43C395.65 56.38 394.83 54.89 394.19 52.92C393.48 50.68 393.14 48.35 393.21 45.97V0.23999H406.49V18.91H415.94V29.41H406.49V43.3C406.49 46.15 406.96 48.01 407.95 48.99C408.93 49.97 410.36 50.41 412.25 50.38Z" fill="white"/>
<path d="M465.68 37.64C465.68 39.57 465.54 41.54 465.34 43.43H434.48C434.58 46.14 435.53 48.24 437.26 49.77C438.99 51.29 441.33 52.04 444.27 52.01C448.3 52.01 450.91 50.72 452.06 48.11H465.07C464.43 52.21 462.19 55.56 458.36 58.14C454.53 60.71 449.82 62 444.27 62C437.16 62 431.57 60.03 427.43 56.1C423.33 52.17 421.26 46.75 421.26 39.8C421.26 32.85 423.33 27.6 427.43 23.64C431.53 19.68 436.98 17.71 443.83 17.71C450.3 17.71 455.55 19.57 459.62 23.27C463.65 26.93 465.68 31.74 465.68 37.64ZM434.48 35.2H452.61C452.54 32.42 451.76 30.29 450.27 28.8C448.78 27.31 446.61 26.56 443.77 26.56C440.93 26.56 438.69 27.34 437.06 28.93C435.4 30.49 434.52 32.59 434.49 35.2H434.48Z" fill="white"/>
<path d="M471.71 60.71V18.9001H484.99V27.6401C485.67 24.6201 487.12 22.3201 489.29 20.6601C491.36 19.0301 493.9 18.1901 496.54 18.1901C497.69 18.1601 498.88 18.2901 500 18.5301V30.8301C498.68 30.6601 497.36 30.5901 496 30.5601C488.65 30.5601 484.99 35.2001 484.99 44.5201V60.6501L471.71 60.7201V60.71Z" fill="white"/>
<path fill-rule="evenodd" clip-rule="evenodd" d="M58.79 6.2C54.69 2.07 49.48 0 43.2 0H17.4V24.91C23.03 26.7 27.1 31.96 27.1 38.18C27.1 44.4 23.02 49.66 17.4 51.45V60.64H31.43V43.83H43.22C49.51 43.83 54.72 41.76 58.81 37.63C62.9 33.5 64.97 28.26 64.97 21.92C64.97 15.58 62.9 10.34 58.79 6.21V6.2ZM48.01 29.47C46.2 31.43 43.88 32.42 41.03 32.42H31.41V11.45H41.03C43.86 11.45 46.18 12.44 48.01 14.4C49.82 16.36 50.73 18.87 50.73 21.93C50.75 24.99 49.82 27.5 48.01 29.46V29.47Z" fill="white"/>
<path d="M10.16 48.45C15.77 48.45 20.32 43.9 20.32 38.29C20.32 32.68 15.77 28.13 10.16 28.13C4.55 28.13 0 32.67 0 38.28C0 43.89 4.55 48.44 10.16 48.44V48.45Z" fill="white"/>
</g>
<defs>
<clipPath id="clip0_1726_3421">
<rect width="500" height="62" fill="white"/>
</clipPath>
</defs>
</svg>
