<?xml version="1.0" encoding="utf-8"?>
<!-- Generator: Adobe Illustrator 25.3.1, SVG Export Plug-In . SVG Version: 6.00 Build 0)  -->
<svg version="1.1" id="Layer_1" xmlns="http://www.w3.org/2000/svg" xmlns:xlink="http://www.w3.org/1999/xlink" x="0px" y="0px"
	 viewBox="0 0 98 35" style="enable-background:new 0 0 98 35;" xml:space="preserve">
<style type="text/css">
	.st0{fill:#FFFFFF;}
</style>
<path class="st0" d="M27.9,32.2c-2.8,1.8-6.3,2.8-10,2.8C7.7,35,0,27.8,0,17.5C0,7.2,7.7,0,17.8,0C28,0,35.7,7.2,35.7,17.5
	c0,4.7-1.6,8.8-4.3,11.7L27.9,32.2z M24.1,28.4l3.5-3c1.6-2.1,2.5-4.8,2.5-7.9c0-7.2-5-12.4-12.3-12.4c-7.2,0-12.3,5.2-12.3,12.4
	c0,7.2,5,12.4,12.3,12.4C20.2,29.9,22.3,29.4,24.1,28.4z"/>
<path class="st0" d="M55.8,0.7l-4.2,2.6L53.4,7l6.2,14.4H46l-2.1,4.6h17.5l3.7,8.3h5.6L55.8,0.7z"/>
<path class="st0" d="M98,34.3h-5.3L75.8,9.2h-0.1v25.1h-5.1V0.7H76l16.8,25.1h0.1V0.7H98V34.3z"/>
<path class="st0" d="M22.9,21.1h-6.5l13.1,13.2H36L22.9,21.1z"/>
<path class="st0" d="M55.8,0.7h-5.4L35.7,34.3h5.6L55.8,0.7z"/>
</svg>
