<svg width="399" height="500" viewBox="0 0 399 500" fill="none" xmlns="http://www.w3.org/2000/svg">
<path d="M266.23 1.63001C266.58 4.61001 266.04 7.63001 264.69 10.31C263.34 12.99 261.22 15.21 258.61 16.69L115.54 97.87C108.71 101.74 103.69 108.17 101.6 115.74C99.5099 123.31 100.5 131.4 104.37 138.23L124.64 174L129.21 182.08L132.23 180.38C131.89 177.4 132.43 174.39 133.79 171.72C135.15 169.05 137.26 166.84 139.87 165.36L283.03 84.25C286.41 82.33 289.39 79.77 291.78 76.7C294.17 73.63 295.94 70.13 296.97 66.38C298.01 62.63 298.29 58.72 297.81 54.86C297.33 51 296.1 47.27 294.18 43.89L273.93 8.14001L269.32 0.0100098L266.23 1.64001V1.63001Z" fill="white"/>
<path d="M266.54 115.64C266.88 118.62 266.34 121.63 264.98 124.3C263.62 126.97 261.51 129.18 258.9 130.66L115.74 211.81C108.92 215.68 103.91 222.1 101.82 229.66C99.7301 237.22 100.72 245.3 104.58 252.13L124.85 287.88L129.46 296.01L132.46 294.31C132.11 291.33 132.65 288.31 134 285.63C135.36 282.95 137.47 280.73 140.08 279.25L283.24 198.14C290.07 194.27 295.09 187.84 297.18 180.27C299.28 172.7 298.28 164.61 294.41 157.78L274.14 122.01L269.57 113.93L266.55 115.63L266.54 115.64Z" fill="white"/>
<path d="M78.19 437.2C78.19 441.29 77.28 445.19 75.47 448.91C73.74 452.54 71.29 455.77 68.11 458.58C64.93 461.4 61.16 463.66 56.8 465.39C52.44 467.02 47.63 467.84 42.36 467.84C37.64 467.84 33.37 467.57 29.56 467.02C25.84 466.48 22.3 465.61 18.93 464.43C15.66 463.25 12.48 461.75 9.38999 459.93C6.38999 458.02 3.25999 455.75 -0.0100098 453.12L14.97 438C19.33 441.63 23.6 444.22 27.77 445.77C31.95 447.22 36.49 447.95 41.39 447.95C43.39 447.95 45.25 447.68 46.98 447.13C48.8 446.5 50.34 445.68 51.61 444.68C52.97 443.68 54.02 442.5 54.74 441.14C55.56 439.78 55.97 438.28 55.97 436.64C55.97 434.91 55.65 433.37 55.02 432.01C54.38 430.65 53.25 429.33 51.61 428.06C49.98 426.79 47.71 425.52 44.8 424.24C41.89 422.88 38.17 421.38 33.63 419.75C29.63 418.3 25.77 416.66 22.05 414.85C18.42 412.94 15.19 410.67 12.38 408.04C9.65999 405.41 7.42999 402.32 5.70999 398.78C4.07999 395.24 3.25999 391.06 3.25999 386.25C3.25999 381.44 4.16999 377.35 5.97999 373.45C7.88999 369.55 10.43 366.23 13.61 363.5C16.88 360.68 20.65 358.51 24.92 356.96C29.28 355.42 33.96 354.65 38.95 354.65C47.3 354.65 54.34 355.74 60.06 357.92C65.78 360.1 70.87 363.28 75.32 367.46L60.61 382.31C57.89 379.68 54.84 377.68 51.48 376.32C48.12 374.87 44.17 374.14 39.63 374.14C37.54 374.14 35.59 374.46 33.77 375.09C32.04 375.73 30.55 376.59 29.27 377.68C28 378.68 26.95 379.9 26.14 381.36C25.41 382.72 25.05 384.18 25.05 385.72C25.05 387.45 25.41 389.03 26.14 390.49C26.87 391.85 28.09 393.22 29.82 394.58C31.55 395.85 33.82 397.17 36.63 398.53C39.54 399.8 43.12 401.21 47.39 402.75C52.84 404.66 57.52 406.75 61.42 409.02C65.32 411.29 68.5 413.79 70.96 416.51C73.41 419.24 75.23 422.32 76.41 425.77C77.59 429.13 78.18 432.95 78.18 437.21L78.19 437.2Z" fill="white"/>
<path d="M166.13 426.58C166.13 432.12 165.18 437.39 163.27 442.38C161.45 447.37 158.87 451.78 155.51 455.59C152.15 459.31 148.15 462.31 143.52 464.58C138.89 466.76 133.8 467.85 128.26 467.85C124.81 467.85 121.59 467.35 118.59 466.35C115.59 465.44 112.78 463.94 110.14 461.85L110.28 499.99H90.3899V386.93H110.28V391.02C112.55 389.2 115.23 387.75 118.32 386.66C121.5 385.57 124.81 385.02 128.26 385.02C133.07 385.02 137.75 386.11 142.29 388.29C146.83 390.38 150.87 393.28 154.41 397.01C157.95 400.73 160.77 405.14 162.86 410.22C165.04 415.21 166.13 420.66 166.13 426.57V426.58ZM146.11 426.72C146.11 423 145.57 419.64 144.48 416.64C143.39 413.65 141.85 411.1 139.85 409.01C137.94 406.83 135.63 405.19 132.9 404.11C130.27 402.93 127.31 402.34 124.05 402.34C121.96 402.34 119.55 402.79 116.83 403.7C114.2 404.52 111.97 405.65 110.16 407.11V444.84C114.43 448.74 119.2 450.7 124.46 450.7C127.55 450.7 130.41 450.11 133.04 448.93C135.76 447.75 138.08 446.11 139.99 444.03C141.9 441.85 143.4 439.31 144.49 436.4C145.58 433.4 146.12 430.18 146.12 426.73L146.11 426.72Z" fill="white"/>
<path d="M259.78 426.44C259.78 432.34 258.69 437.84 256.51 442.92C254.33 447.91 251.33 452.27 247.52 456C243.7 459.63 239.21 462.54 234.03 464.72C228.94 466.81 223.5 467.85 217.68 467.85C211.86 467.85 206.42 466.81 201.33 464.72C196.24 462.54 191.79 459.59 187.98 455.86C184.17 452.13 181.17 447.78 178.99 442.78C176.81 437.69 175.72 432.24 175.72 426.43C175.72 420.62 176.81 415.35 178.99 410.36C181.26 405.28 184.3 400.87 188.12 397.15C191.93 393.34 196.38 390.39 201.47 388.3C206.56 386.12 211.96 385.03 217.68 385.03C223.4 385.03 228.94 386.12 234.03 388.3C239.21 390.39 243.7 393.29 247.52 397.02C251.33 400.65 254.33 405.01 256.51 410.1C258.69 415.18 259.78 420.63 259.78 426.45V426.44ZM240.16 426.44C240.16 423.08 239.57 419.95 238.39 417.04C237.21 414.13 235.57 411.59 233.49 409.41C231.49 407.23 229.13 405.55 226.41 404.37C223.69 403.1 220.78 402.46 217.69 402.46C214.6 402.46 211.7 403.09 208.97 404.37C206.25 405.55 203.84 407.23 201.75 409.41C199.75 411.59 198.16 414.13 196.98 417.04C195.8 419.95 195.21 423.08 195.21 426.44C195.21 429.8 195.8 432.93 196.98 435.84C198.16 438.75 199.75 441.29 201.75 443.47C203.84 445.65 206.25 447.37 208.97 448.65C211.69 449.83 214.6 450.42 217.69 450.42C220.78 450.42 223.68 449.83 226.41 448.65C229.13 447.38 231.5 445.65 233.49 443.47C235.58 441.29 237.21 438.75 238.39 435.84C239.57 432.93 240.16 429.8 240.16 426.44Z" fill="white"/>
<path d="M353.29 426.44C353.29 432.34 352.2 437.84 350.02 442.92C347.84 447.91 344.84 452.27 341.03 456C337.21 459.63 332.72 462.54 327.54 464.72C322.46 466.81 317.01 467.85 311.19 467.85C305.37 467.85 299.93 466.81 294.84 464.72C289.76 462.54 285.31 459.59 281.49 455.86C277.68 452.14 274.68 447.78 272.5 442.78C270.32 437.69 269.23 432.24 269.23 426.43C269.23 420.62 270.32 415.35 272.5 410.36C274.77 405.28 277.81 400.87 281.62 397.15C285.44 393.34 289.88 390.39 294.97 388.3C300.05 386.12 305.46 385.03 311.18 385.03C316.9 385.03 322.44 386.12 327.53 388.3C332.71 390.39 337.2 393.29 341.02 397.02C344.83 400.65 347.83 405.01 350.01 410.1C352.19 415.18 353.28 420.63 353.28 426.45L353.29 426.44ZM333.68 426.44C333.68 423.08 333.09 419.95 331.91 417.04C330.73 414.13 329.09 411.59 327.01 409.41C325.01 407.23 322.65 405.55 319.93 404.37C317.2 403.1 314.3 402.46 311.21 402.46C308.12 402.46 305.22 403.09 302.49 404.37C299.77 405.55 297.36 407.23 295.27 409.41C293.27 411.59 291.68 414.13 290.5 417.04C289.32 419.95 288.73 423.08 288.73 426.44C288.73 429.8 289.32 432.93 290.5 435.84C291.68 438.75 293.27 441.29 295.27 443.47C297.36 445.65 299.77 447.37 302.49 448.65C305.22 449.83 308.12 450.42 311.21 450.42C314.3 450.42 317.2 449.83 319.93 448.65C322.65 447.38 325.01 445.65 327.01 443.47C329.1 441.29 330.73 438.75 331.91 435.84C333.09 432.93 333.68 429.8 333.68 426.44Z" fill="white"/>
<path d="M398.72 465.4C397.18 466.13 395.41 466.72 393.41 467.17C391.5 467.62 389.51 467.85 387.42 467.85C384.51 467.85 381.7 467.44 378.97 466.62C376.34 465.89 374.02 464.67 372.02 462.94C370.02 461.22 368.43 458.99 367.25 456.27C366.07 453.45 365.48 450.09 365.48 446.19V352.74H385.5V442.78C385.5 446.05 386.14 448.32 387.41 449.59C388.77 450.77 390.36 451.36 392.18 451.36C394.45 451.36 396.63 450.68 398.72 449.32V465.39V465.4Z" fill="white"/>
</svg>
