<?xml version="1.0" encoding="utf-8"?>
<!-- Generator: Adobe Illustrator 25.3.1, SVG Export Plug-In . SVG Version: 6.00 Build 0)  -->
<svg version="1.1" id="Layer_1" xmlns="http://www.w3.org/2000/svg" xmlns:xlink="http://www.w3.org/1999/xlink" x="0px" y="0px"
	 viewBox="0 0 767 250" style="enable-background:new 0 0 767 250;" xml:space="preserve">
<style type="text/css">
	.st0{fill:#FFFFFF;}
</style>
<path class="st0" d="M124.9,0C55.9,0,0,55.9,0,124.9c0,69,55.9,124.9,124.9,124.9c69,0,124.9-55.9,124.9-124.9
	C250,55.9,194.1,0,124.9,0z M119.3,186.4c-6.8,4.8-15,7.6-23.3,7.6c-14.4,0-27.7-7.8-37.7-22.3c-9-13.8-14-29.9-14.4-46.3
	c0-0.6,0.4-1.2,1-1.4l9.8-4.4c0.8-0.4,1.6,0,2,0.8c0,0.2,0.2,0.4,0.2,0.6c0,16.4,4.4,31.9,12.2,43.3c7.4,10.8,17,16.6,27.1,16.6
	c5.4,0,10.8-1.6,15.2-4.6c0.6-0.4,1.6-0.2,2,0.4c2,2.6,4,5,6.2,7.4C119.9,184.8,119.9,185.8,119.3,186.4z M191.7,171.8
	c-9.8,14.2-23.3,22.3-37.7,22.3c-14.4,0-27.7-8-37.7-22.3c-9.4-13.6-14.6-31.7-14.6-50.7c0-17.6,10.2-31.5,23.1-31.5
	s23.1,13.8,23.1,31.5c0.2,15.4-3.4,30.5-10.6,44.1c-0.4,0.8-1.4,1-2,0.6c-0.2,0-0.2-0.2-0.4-0.4c-1.2-1.4-2.4-2.8-3.4-4.2
	c-1.2-1.8-2.2-3.4-3.2-5.4c-0.2-0.4-0.2-1,0-1.4c4.6-10.6,6.8-22.1,6.8-33.5c0-8.6-4.4-18.4-10.2-18.4c-5.8,0-10.2,9.8-10.2,18.4
	c0,16.4,4.4,31.9,12.2,43.3c7.4,10.8,17,16.6,27.1,16.6s19.6-6,27.1-16.6c7.8-11.4,12.2-26.9,12.2-43.3c0-16.4-4.4-31.9-12.2-43.3
	c-2.2-3.4-5-6.4-8-9c-0.6-0.6-0.6-1.6-0.2-2.2c0.2-0.2,0.4-0.4,0.6-0.4l9.8-4.4c0.6-0.2,1.2-0.2,1.6,0.4c2.6,2.6,4.8,5.4,6.8,8.2
	c9.4,13.6,14.6,31.7,14.6,50.7S201.1,158.2,191.7,171.8z"/>
<path class="st0" d="M328.6,151h-21c-4.8,0-8.5-1.3-11.2-4c-2.6-2.7-3.9-6.3-3.9-11.1v-19.4c0-4.8,1.3-8.5,3.9-11.1
	c2.7-2.7,6.4-4,11.2-4h8c4.8,0,8.5,1.3,11.2,4c2.7,2.6,4,6.3,4,11.1v12.3c0,1.2-0.6,1.7-1.7,1.7h-26c-0.7,0-1.1,0.3-1.1,1v4.2
	c0,4.7,2.4,7.1,7.1,7.1h19.6c1.2,0,1.7,0.6,1.7,1.7v4.8C330.3,150.5,329.8,151,328.6,151z M303,124h17.4c0.6,0,1-0.3,1-1v-6.2
	c0-2.5-0.5-4.2-1.6-5.3c-1.1-1.2-2.9-1.7-5.3-1.7H309c-2.5,0-4.2,0.6-5.3,1.7c-1.1,1.1-1.6,2.9-1.6,5.3v6.2
	C302,123.7,302.3,124,303,124z M351.1,151H345c-1.1,0-1.6-0.6-1.6-1.6v-46.2c0-1.1,0.5-1.6,1.6-1.6h6.1c1.1,0,1.6,0.6,1.6,1.6v3.5
	h0.4c1.6-3.4,4.8-5.1,9.8-5.1h4.3c4.7,0,8.3,1.3,10.9,3.9c2.5,2.6,3.8,6.3,3.8,11.2v32.8c0,1.1-0.6,1.6-1.7,1.6H374
	c-1.1,0-1.6-0.6-1.6-1.6V117c0-4.8-2.4-7.2-7.1-7.2h-4.6c-5.3,0-8,2.7-8,8.2v31.3C352.8,150.4,352.2,151,351.1,151z M430.4,151h-21
	c-4.8,0-8.5-1.3-11.2-4c-2.6-2.7-3.9-6.3-3.9-11.1v-19.4c0-4.8,1.3-8.5,3.9-11.1c2.7-2.7,6.4-4,11.2-4h8c4.8,0,8.5,1.3,11.2,4
	c2.7,2.6,4,6.3,4,11.1v12.3c0,1.2-0.6,1.7-1.7,1.7h-26c-0.7,0-1.1,0.3-1.1,1v4.2c0,4.7,2.4,7.1,7.1,7.1h19.6c1.2,0,1.7,0.6,1.7,1.7
	v4.8C432.2,150.5,431.6,151,430.4,151z M404.8,124h17.4c0.6,0,1-0.3,1-1v-6.2c0-2.5-0.5-4.2-1.6-5.3c-1.1-1.2-2.9-1.7-5.3-1.7h-5.3
	c-2.5,0-4.2,0.6-5.3,1.7c-1.1,1.1-1.6,2.9-1.6,5.3v6.2C403.8,123.7,404.2,124,404.8,124z M452.9,151h-6.1c-1.1,0-1.6-0.6-1.6-1.6
	v-46.2c0-1.1,0.6-1.6,1.6-1.6h6.1c1.1,0,1.6,0.6,1.6,1.6v3.7h0.4c0.6-1.6,1.9-2.9,3.7-3.9c1.9-1,3.9-1.5,6.2-1.5h3.6
	c1.1,0,1.6,0.6,1.6,1.6v5c0,1.2-0.6,1.7-1.6,1.6h-5.8c-5.4,0-8.1,2.9-8.1,8.8v30.7C454.6,150.4,454,151,452.9,151z M497.7,148.6
	h-4.4c-4.7,0-8.2-1.3-10.8-3.9c-2.5-2.7-3.7-6.4-3.7-11.2v-17c0-4.8,1.3-8.5,4-11.1c2.7-2.7,6.3-4,11.1-4h21.7
	c1.2,0,1.7,0.6,1.7,1.6v48c0,4.7-1.4,8.4-4.1,11c-2.7,2.7-6.3,4-11.1,4H484c-1.1,0-1.6-0.5-1.6-1.6v-5c0-1.1,0.6-1.6,1.6-1.6h16.8
	c4.7,0,7.1-2.4,7.1-7.2v-7.4h-0.4C505.8,146.8,502.6,148.6,497.7,148.6z M507.8,132.1v-21.3c0-0.6-0.4-1-1.1-1h-11.5
	c-4.6,0-6.9,2.4-6.9,7.2v16.1c0,4.8,2.3,7.2,6.9,7.2h4.7C505.2,140.2,507.8,137.5,507.8,132.1z M537.2,166.7h-5.1
	c-1.1,0-1.6-0.6-1.6-1.6v-4.9c0-1.2,0.5-1.7,1.6-1.7h2.2c3.9,0,6.7-0.8,8.1-2.3c1.6-1.6,2.8-4.1,3.9-7.7h-3.9c-1,0-1.6-0.6-2-1.6
	l-12.9-43.6c-0.3-1.1,0.2-1.6,1.3-1.6h6.5c1,0,1.7,0.6,1.9,1.6l10.6,38h0.4l10.6-38c0.2-1.1,0.8-1.6,1.9-1.6h6.2
	c1.2,0,1.7,0.6,1.6,1.7l-13.3,46.7c-1.5,5.4-3.6,9.6-6.3,12.4C546.1,165.3,542.2,166.7,537.2,166.7z M621,151h-8.3
	c-1,0-1.6-0.6-1.9-1.6l-11.2-46.2c-0.3-1.1,0.1-1.6,1.2-1.6h7c1.2,0,1.8,0.6,1.9,1.6l7.1,36.7h0.7l8.5-36.7c0.2-1.1,0.8-1.6,1.8-1.6
	h6.4c1.1,0,1.8,0.6,2,1.6l8.3,36.7h0.7l7.1-36.7c0.2-1.1,0.8-1.6,1.9-1.6h7c1.1,0,1.5,0.6,1.2,1.6l-11.2,46.2
	c-0.2,1.1-0.8,1.6-1.9,1.6H641c-1,0-1.7-0.6-1.9-1.6l-7.8-36h-0.7l-7.7,36C622.8,150.4,622.1,151,621,151z M707.7,151h-21
	c-4.8,0-8.5-1.3-11.2-4c-2.6-2.7-3.9-6.3-3.9-11.1v-19.4c0-4.8,1.3-8.5,3.9-11.1c2.7-2.7,6.4-4,11.2-4h8c4.8,0,8.5,1.3,11.2,4
	c2.7,2.6,4,6.3,4,11.1v12.3c0,1.2-0.6,1.7-1.7,1.7h-26c-0.7,0-1.1,0.3-1.1,1v4.2c0,4.7,2.4,7.1,7.1,7.1h19.6c1.2,0,1.7,0.6,1.7,1.7
	v4.8C709.4,150.5,708.8,151,707.7,151z M682.1,124h17.4c0.6,0,1-0.3,1-1v-6.2c0-2.5-0.5-4.2-1.6-5.3c-1.1-1.2-2.9-1.7-5.3-1.7h-5.3
	c-2.5,0-4.2,0.6-5.3,1.7c-1.1,1.1-1.6,2.9-1.6,5.3v6.2C681.1,123.7,681.4,124,682.1,124z M732.9,142.8h12c4.7,0,7-2.4,7-7.2v-19
	c0-4.8-2.3-7.2-7-7.2h-5.1c-5.3,0-8,2.7-8,8.1v24.2C731.8,142.4,732.2,142.8,732.9,142.8z M722.4,149.4V84.5c0-1.1,0.5-1.6,1.6-1.6
	h6.1c1.1,0,1.6,0.5,1.6,1.6v21.9h0.4c1.6-3.5,4.9-5.2,9.8-5.2h4.3c4.8,0,8.5,1.3,11.2,4c2.7,2.6,4,6.2,4,11V136
	c0,4.7-1.3,8.4-4,11.1c-2.7,2.7-6.4,4-11.2,4h-22.2C723,151,722.4,150.4,722.4,149.4z"/>
</svg>
