<?xml version="1.0" encoding="utf-8"?>
<!-- Generator: Adobe Illustrator 25.3.1, SVG Export Plug-In . SVG Version: 6.00 Build 0)  -->
<svg version="1.1" id="Layer_1" xmlns="http://www.w3.org/2000/svg" xmlns:xlink="http://www.w3.org/1999/xlink" x="0px" y="0px"
	 viewBox="0 0 121 40" style="enable-background:new 0 0 121 40;" xml:space="preserve">
<style type="text/css">
	.st0{fill:none;stroke:#FFFFFF;stroke-width:0.9116;}
	.st1{fill-rule:evenodd;clip-rule:evenodd;fill:#FFFFFF;}
</style>
<path class="st0" d="M24.4,24.1L14,30c-0.9,0.5-2,0.3-2.7-0.3c-0.7-0.7-1.1-1.7-0.7-2.7c2-5.2,3.2-9.9,4.1-15.7
	C15,9,18,8.4,19.1,10.3L25.2,21C25.8,22.1,25.5,23.4,24.4,24.1z"/>
<path class="st0" d="M8.9,20.7L15,10.3c0.6-0.9,1.6-1.3,2.5-1.1c0.9,0.2,1.8,0.9,1.9,2c0.8,5.5,2.1,10.2,4.2,15.6
	c0.8,2.1-1.5,4.1-3.3,3L9.7,23.8C8.7,23.1,8.3,21.8,8.9,20.7z"/>
<path class="st1" d="M56.3,11.1H54v11.7c0,0.3,0.1,0.5,0.2,0.8l0,0l0,0c0.1,0.2,0.3,0.5,0.4,0.6l0,0l0,0c0.2,0.2,0.4,0.3,0.6,0.4
	l0,0l0,0c0.3,0.1,0.5,0.2,0.8,0.2h5c0.3,0,0.5-0.1,0.8-0.2l0,0l0,0c0.2-0.1,0.5-0.3,0.6-0.4c0.2-0.2,0.3-0.4,0.4-0.6
	c0.1-0.2,0.2-0.5,0.2-0.8v-6c0-0.3-0.1-0.5-0.2-0.8c-0.1-0.2-0.2-0.5-0.4-0.6c-0.2-0.2-0.4-0.3-0.6-0.4c-0.3-0.1-0.5-0.2-0.8-0.2
	h-3.2c-0.3,0-0.5,0.1-0.8,0.2c-0.2,0.1-0.5,0.2-0.6,0.4c0,0-0.1,0.1-0.1,0.1V11.1z M62.5,15.4L62.5,15.4L62.5,15.4L62.5,15.4z
	 M101.5,11.1H99v2.4h2.5V11.1z M113,11.1h-2.3v3.7H106c-0.3,0-0.5,0.1-0.8,0.2c-0.2,0.1-0.5,0.2-0.7,0.4c-0.2,0.2-0.3,0.4-0.4,0.6
	l0,0l0,0c-0.1,0.2-0.2,0.5-0.2,0.8v6c0,0.3,0.1,0.5,0.2,0.8l0,0l0,0c0.1,0.2,0.3,0.5,0.4,0.6l0,0l0,0c0.2,0.2,0.4,0.3,0.6,0.4l0,0
	l0,0c0.3,0.1,0.5,0.2,0.8,0.2h1.4v0h4.5v0h1.1V11.1z M33.9,14.8c-0.3,0-0.6,0.1-0.8,0.2c-0.2,0.1-0.5,0.2-0.7,0.4
	c-0.2,0.2-0.3,0.4-0.4,0.6l0,0l0,0c-0.1,0.2-0.2,0.5-0.2,0.8v2c0,0.3,0.1,0.5,0.2,0.8l0,0l0,0c0.1,0.2,0.3,0.5,0.4,0.6l0,0l0,0
	c0.2,0.2,0.4,0.3,0.6,0.4l0,0l0,0c0.3,0.1,0.5,0.2,0.8,0.2h4v1.7h-6v2.3h6.3c0.3,0,0.5-0.1,0.8-0.2l0,0c0.2-0.1,0.5-0.2,0.6-0.4l0,0
	l0,0c0.2-0.2,0.3-0.4,0.4-0.6c0.1-0.2,0.2-0.5,0.2-0.8v-2.2c0-0.3-0.1-0.5-0.2-0.8c-0.1-0.2-0.3-0.5-0.4-0.6
	c-0.2-0.2-0.4-0.3-0.7-0.4c-0.2-0.1-0.5-0.2-0.8-0.2h-4v-1.5h5.7v-2.3H33.9z M44.8,14.8h-2.3v8c0,0.3,0.1,0.5,0.2,0.8l0,0l0,0
	c0.1,0.2,0.3,0.5,0.4,0.6l0,0l0,0c0.2,0.2,0.4,0.3,0.6,0.4l0,0l0,0c0.3,0.1,0.5,0.2,0.8,0.2h1.3v0h4.5v0h1.3V14.8h-2.3v7.8h-4.5
	V14.8z M67.4,14.8c-0.3,0-0.6,0.1-0.8,0.2c-0.2,0.1-0.5,0.2-0.7,0.4c-0.2,0.2-0.3,0.4-0.4,0.6l0,0l0,0c-0.1,0.2-0.2,0.5-0.2,0.8v2
	c0,0.3,0.1,0.5,0.2,0.8l0,0l0,0c0.1,0.2,0.3,0.5,0.4,0.6l0,0l0,0c0.2,0.2,0.4,0.3,0.6,0.4l0,0l0,0c0.3,0.1,0.5,0.2,0.8,0.2h4v1.7h-6
	v2.3h6.3c0.3,0,0.5-0.1,0.8-0.2l0,0c0.2-0.1,0.5-0.2,0.6-0.4l0,0l0,0c0.2-0.2,0.3-0.4,0.4-0.6c0.1-0.2,0.2-0.5,0.2-0.8v-2.2
	c0-0.3-0.1-0.5-0.2-0.8c-0.1-0.2-0.3-0.5-0.4-0.6c-0.2-0.2-0.4-0.3-0.7-0.4c-0.2-0.1-0.5-0.2-0.8-0.2h-4v-1.5h5.7v-2.3H67.4z
	 M79.7,24.8H78c-0.3,0-0.5-0.1-0.8-0.2l0,0l0,0c-0.2-0.1-0.5-0.2-0.6-0.4l0,0l0,0c-0.2-0.2-0.3-0.4-0.4-0.6l0,0l0,0
	c-0.1-0.2-0.2-0.5-0.2-0.8v-6c0-0.3,0.1-0.5,0.2-0.8l0,0l0,0c0.1-0.2,0.3-0.5,0.4-0.6c0.2-0.2,0.4-0.3,0.7-0.4
	c0.3-0.1,0.5-0.2,0.8-0.2h5c0.3,0,0.6,0.1,0.8,0.2c0.2,0.1,0.5,0.2,0.6,0.4c0.2,0.2,0.3,0.4,0.4,0.6c0.1,0.2,0.2,0.5,0.2,0.8v11.9
	h-2.3v-3.8L79.7,24.8L79.7,24.8z M89.8,14.8h-2.3v8c0,0.3,0.1,0.5,0.2,0.8l0,0l0,0c0.1,0.2,0.3,0.5,0.4,0.6l0,0l0,0
	c0.2,0.2,0.4,0.3,0.6,0.4l0,0l0,0c0.3,0.1,0.5,0.2,0.8,0.2h1.7v0h4.5v0h0.9V14.8h-2.3v7.8h-4.5V14.8z M101.4,14.8h-2.3v10.1h2.3
	V14.8z M56.3,22.5v-5.5h4.5v5.5H56.3z M78.2,22.5v-5.5h4.5v5.5H78.2z M106.3,22.5v-5.5h4.5v5.5H106.3z"/>
</svg>
