<?xml version="1.0" encoding="utf-8"?>
<!-- Generator: Adobe Illustrator 25.3.1, SVG Export Plug-In . SVG Version: 6.00 Build 0)  -->
<svg version="1.1" id="Layer_1" xmlns="http://www.w3.org/2000/svg" xmlns:xlink="http://www.w3.org/1999/xlink" x="0px" y="0px"
	 viewBox="0 0 1048 280" style="enable-background:new 0 0 1048 280;" xml:space="preserve">
<style type="text/css">
	.st0{fill:#FFFFFF;}
</style>
<g transform="translate(0.000000,320.000000) scale(0.100000,-0.100000)">
	<path class="st0" d="M865,3060c-55-33-152-90-216-127c-76-43-115-71-112-80c3-7,12-13,21-13c8,0,106,52,216,116l200,115l32-18
		c17-10,106-61,197-113c92-52,167-97,167-100c0-5-281-170-330-195c-11-5-20-13-20-17c0-3-16-12-35-18s-35-16-35-21s-5-9-12-9
		c-10,0-314,173-368,210c-14,10-35,20-47,24l-21,7l1-243l2-242l32-9c29-9,47-1,233,107c178,102,204,115,223,104c12-6,102-57,200-114
		c141-82,185-103,215-103c20,0,44-1,52-2s102,46,208,105c105,59,199,109,207,112c8,4,99-42,209-106c172-98,199-111,227-105
		c56,13,28-17-77-79c-54-32-153-91-219-130l-120-71l-3-258l-2-257l-38-23c-20-13-121-72-224-132l-188-107v-259c0-224-2-259-15-259
		c-8,0-16,1-17,3c0,1-4,118-7,261l-6,259l-191,111c-105,61-204,121-220,133l-29,21l-3,255l-3,254l-177,103c-97,57-198,118-225,136
		c-26,19-50,34-53,34c-4,0-98-53-210-117c-173-101-201-120-189-132c11-12,19-12,44-1c17,7,31,16,31,19c0,4,16,13,35,21s35,17,35,21
		s16,13,35,19s35,15,35,18c0,4,9,12,19,17c11,6,39,20,63,32c23,13,58,32,76,43l32,20l2-203c1-216,0-278-6-284c-4-4-330,184-376,216
		c-14,10-35,21-47,25l-22,7l-1-250c0-190,3-253,12-261c7-7,108-67,223-134l210-122l3-256c2-228,4-257,20-270c9-9,96-60,192-115
		s191-110,210-121l35-21l-3,167c-2,92-2,209,0,261c3,90,4,94,21,77c15-16,17-42,17-244c0-125,4-233,9-240c6-10,49,10,177,84
		c190,109,237,134,257,134c7,0,42-17,78-39c35-21,114-66,174-101c61-34,124-71,142-82l32-19l1,247c0,136,3,251,6,255
		c19,32,24-13,24-228c0-131,4-244,9-251c6-10,61,17,230,113l221,127v257c1,253,1,256,23,272c27,20,270,161,355,207
		c35,19,65,39,68,46c2,6,3,125,2,264l-3,253l-220-129l-220-129l-3,235c-1,129,0,237,2,240c3,2,84-42,181-98s184-104,194-107
		c9-2,22,2,29,9c9,11-14,28-116,88c-70,40-163,94-207,120l-80,47l-3,246c-1,166-6,247-13,247c-6,0-102-54-215-119l-204-119l-220,126
		c-121,70-220,129-219,132c0,4,366,218,389,228c4,1,96-49,206-113c109-63,207-115,216-115s18,6,21,13c4,12-29,32-306,193l-128,75
		l-77-42c-42-23-81-45-87-49c-36-27-278-160-291-160c-10,0-69,31-133,69c-191,113-310,181-318,180C968,3119,920,3092,865,3060z
		 M1638,2688c105-61,192-113,192-117c0-3-91-55-201-115c-153-83-205-106-219-100c-42,21-380,219-380,224c0,12,386,228,400,224
		C1438,2801,1532,2749,1638,2688z"/>
	<path class="st0" d="M1208,2171l-217-126l-1-252c0-183,3-253,11-253c7,0,101,52,209,115c109,63,202,115,207,117s100-50,212-115
		c114-67,209-116,217-113c12,5,14,44,12,253l-3,247l-200,117c-110,65-207,122-215,127C1429,2295,1368,2265,1208,2171z"/>
	<path class="st0" d="M6113,2131c-43-27-64-62-65-108c-1-82,51-133,136-133c55,0,101,34,117,89C6334,2089,6208,2191,6113,2131z"/>
	<path class="st0" d="M6865,2141c-33-14-72-64-80-98c-9-45,10-97,46-128c53-44,154-29,191,27c54,83,3,196-94,204
		C6904,2148,6876,2146,6865,2141z"/>
	<path class="st0" d="M8464,2131c-46-28-64-60-64-109c0-86,46-132,131-132c44,0,55,4,84,33c39,39,53,93,35,136
		C8618,2136,8528,2172,8464,2131z"/>
	<path class="st0" d="M3920,1670v-390h310h310v105v105h-190h-190v55v55h145h145v95v95h-145h-145v35v35h185h185v100v100h-305h-305
		V1670z"/>
	<path class="st0" d="M6410,1727c0-325,1-334,23-377c29-58,71-80,154-80c34,0,73,4,87,10c25,9,26,12,26,95c0,78-2,85-20,85
		c-10,0-24,9-30,19c-6,12-10,126-10,300v281h-115h-115V1727z"/>
	<path class="st0" d="M7150,1670v-390h115h115v30v31l41-33c39-31,45-33,123-33c73,0,87,3,124,27c144,96,172,333,57,484
		c-35,46-117,84-179,84c-56,0-133-30-142-55c-16-41-24-3-24,115v130h-115h-115V1670z M7523,1660c100-79,6-247-106-189
		c-33,18-37,28-37,100c0,50,4,69,18,81C7435,1685,7487,1688,7523,1660z"/>
	<path class="st0" d="M4755,1852c-57-27-112-88-136-152c-23-62-28-171-10-236c15-57,64-126,111-159c70-48,209-45,255,5
		c10,11,22,20,27,20c4,0,8-61,8-135v-135h115h115v400v400h-115h-115v-30v-31l-41,33c-35,28-49,33-107,36
		C4812,1870,4785,1866,4755,1852z M4967,1669c39-14,43-24,43-106c0-70-1-73-30-88c-46-24-87-19-121,14c-24,25-29,38-29,78
		C4830,1655,4888,1699,4967,1669z"/>
	<path class="st0" d="M8203,1849c-24-12-54-34-68-51l-25-30v46v46h-115h-115v-290v-290h115h115l2,167l3,167l35,20
		c26,16,52,21,103,21h67v108v107h-37C8262,1870,8226,1861,8203,1849z"/>
	<path class="st0" d="M9790,1859c-13-6-39-21-57-34c-40-32-43-31-43,5v30h-115h-115v-290v-290h115h115v173c0,94,4,177,8,183
		c9,15,47,34,66,34c8,0,22-7,30-16c13-13,16-45,16-195v-179h120h120v180v180l25,16c29,19,70,12,80-13c3-10,6-96,5-190l-1-173h122
		h121l-4,223c-3,208-5,225-26,264c-61,115-236,138-327,44l-27-30l-25,30c-14,16-38,36-54,44C9907,1872,9828,1874,9790,1859z"/>
	<path class="st0" d="M5350,1638c0-249,7-278,69-331c41-34,67-41,137-35c41,4,66,13,100,36c24,18,47,32,49,32c3,0,5-13,5-30v-30h115
		h115v290v290h-115h-115v-179c0-175-1-180-22-195c-31-22-64-20-88,4c-18,18-20,33-20,195v175h-115h-115V1638z"/>
	<path class="st0" d="M6060,1570v-290h115h115v290v290h-115h-115V1570z"/>
	<path class="st0" d="M6800,1570v-290h115h115v290v290h-115h-115V1570z"/>
	<path class="st0" d="M8410,1570v-290h115h115v290v290h-115h-115V1570z"/>
	<path class="st0" d="M8752,1638c3-202,5-227,24-269c30-64,73-92,150-97c67-5,113,11,159,53l25,24v-34v-35h120h120v290v290h-120
		h-120v-183v-184l-25-11c-36-17-59-15-78,6c-15,16-17,45-17,195v177h-121h-121L8752,1638z"/>
</g>
</svg>
