<?xml version="1.0" encoding="utf-8"?>
<!-- Generator: Adobe Illustrator 25.3.1, SVG Export Plug-In . SVG Version: 6.00 Build 0)  -->
<svg version="1.1" id="Layer_1" xmlns="http://www.w3.org/2000/svg" xmlns:xlink="http://www.w3.org/1999/xlink" x="0px" y="0px"
	 viewBox="0 0 759.3 134.4" style="enable-background:new 0 0 759.3 134.4;" xml:space="preserve">
<style type="text/css">
	.st0{fill:#FFFFFF;}
</style>
<g transform="translate(0.000000,675.000000) scale(0.100000,-0.100000)">
	<path class="st0" d="M5163,6728.2l-43-3v-129v-129l-267-3c-268-3-268-3-318-30c-136-71-203-208-193-394c9-157,74-274,183-329l60-30
		l338-3l337-3v524v525l-27,3C5217,6729.2,5186,6730.2,5163,6728.2z M5120,6071.2v-246l-259,3c-299,3-295,2-343,98
		c-55,109-44,248,25,326c53,61,65,63,335,64h242V6071.2z"/>
	<path class="st0" d="M999,6693.2c-69-62-79-44,141-262c110-110,200-204,200-210s-68-78-151-160c-155-154-165-166-180-218
		c-11-38,6-118,33-152c45-58,141-81,211-51c19,8,183,163,392,370c362,360,393,385,403,332c3-13-50-73-182-205
		c-189-190-202-209-176-251c5-8,114-119,242-247l233-233l47,47c27,26,47,51,46,55c-2,5-93,98-202,208l-200,200l161,162
		c163,165,183,194,183,266c0,29-25,90-48,116c-24,27-91,56-130,56c-71,0-100-24-467-390c-198-198-365-360-371-360c-15,0-34,22-34,39
		c0,7,83,96,185,196c168,165,185,185,185,216s-21,55-238,272c-130,130-239,237-242,237C1037,6725.2,1019,6711.2,999,6693.2z"/>
	<path class="st0" d="M262,6451.2c-246-76-322-464-134-676c24-27,63-56,94-70c51-23,62-24,341-27l287-3v75v76H586
		c-163,0-275,4-293,11c-33,12-73,48-73,64c0,7,112,36,288,75c158,35,309,72,335,83c167,70,176,301,14,382c-51,25-53,25-301,24
		C375,6465.2,293,6461.2,262,6451.2z M810,6296.2c22-22,25-42,10-70c-16-29-37-38-182-71c-174-39-451-99-460-99c-13,0-9,63,6,114
		c18,59,59,114,100,132c23,10,91,13,269,14C777,6316.2,791,6315.2,810,6296.2z"/>
	<path class="st0" d="M2504,6447.2c-67-24-94-43-133-91c-135-169-127-440,18-589c77-80,123-91,358-91c120,0,211,4,235,12
		c23,7,76,43,133,93c83,71,101,82,153,93c84,17,88,16,116-32c35-59,87-110,144-138c45-22,57-23,340-26l293-3l-3,73l-3,73l-275,5
		c-261,5-277,6-310,27c-31,20-67,61-58,68c2,1,134,28,293,60c160,32,311,66,337,77c147,62,183,248,68,352c-59,53-91,58-378,54
		c-251-3-258-4-306-28c-66-33-139-117-167-188c-12-31-24-90-27-130c-5-84-5-84-111-103c-79-14-81-15-207-126l-71-63h-194
		c-191,0-195,0-231,25c-44,30-66,63-46,70c13,4,79,17,418,81c107,20,211,44,230,54c126,64,149,241,45,345c-60,60-88,65-366,65
		C2588,6465.2,2548,6463.2,2504,6447.2z M3066,6291.2c22-33,21-73-2-95c-14-13-102-33-327-75c-170-31-311-54-314-51
		c-13,13,12,110,40,157c53,87,62,89,344,89h243L3066,6291.2z M4112,6299.2c10-9,18-28,18-43c0-55-24-64-344-129
		c-164-34-303-61-309-61c-15,0,2,90,28,145c16,34,38,59,67,78l42,27h240C4063,6316.2,4096,6314.2,4112,6299.2z"/>
	<path class="st0" d="M5626,6450.2c-98-31-177-101-223-199l-28-60l-3-257l-3-258h75h76v243c0,236,1,244,24,286c13,25,42,58,66,75
		c40,30,46,31,161,34l119,4v-321v-321h70h70v320v320h104c118,0,147-8,195-53c66-63,71-84,71-350v-238l73,3l72,3l-1,250
		c-1,232-3,254-23,307c-31,80-104,157-183,194l-63,29l-300,2C5730,6465.2,5666,6462.2,5626,6450.2z"/>
	<path class="st0" d="M6883,6452.2c-126-40-208-147-235-303c-31-183,47-368,186-441l51-27l293-3l292-3v75v76h-274
		c-267,0-274,1-306,23c-34,22-58,52-50,60c3,3,140,35,305,72c312,70,319,72,373,112c109,81,97,264-23,338l-48,30l-261,2
		C6992,6465.2,6914,6462.2,6883,6452.2z M7429,6292.2c28-30,23-68-13-91c-19-12-582-145-616-145c-17,0-11,76,10,133
		c21,56,58,99,100,116c14,5,130,10,261,10l236,1L7429,6292.2z"/>
</g>
</svg>
