<?xml version="1.0" encoding="utf-8"?>
<!-- Generator: Adobe Illustrator 25.3.1, SVG Export Plug-In . SVG Version: 6.00 Build 0)  -->
<svg version="1.1" id="Layer_1" xmlns="http://www.w3.org/2000/svg" xmlns:xlink="http://www.w3.org/1999/xlink" x="0px" y="0px"
	 viewBox="0 0 1364 1008" enable-background="new 0 0 1364 1008" xml:space="preserve">
<g transform="translate(0.000000,1008.000000) scale(0.100000,-0.100000)">
	<path fill="#FFFFFF" d="M5986,9849c-233-9-331-20-521-60c-425-88-677-221-961-504c-172-171-286-318-351-453c-28-58-54-97-67-103
		c-12-5-59-18-106-29c-121-30-236-68-303-102c-32-16-66-27-75-24c-31,10-346,340-396,413c-26,40-60,103-76,140c-17,44-33,69-45,72
		c-24,4-172-149-257-266c-118-163-224-400-288-640c-13-51-28-54-91-18c-98,56-324,117-580,155c-381,56-490,83-607,146
		c-34,19-69,34-76,34c-20,0-25-37-32-210c-12-279,36-498,163-752c53-108,61-132,44-142c-5-4-56-11-112-17c-57-5-109-15-117-21
		c-9-8-11-24-7-47c10-68,45-60-464-107c-222-21-298-32-311-43c-17-15-17-23,1-181c10-91,23-223,29-295c6-71,22-224,35-340
		c14-115,31-293,40-395s27-286,40-410s29-281,35-350c17-189,70-677,80-729c11-61,1-78-95-152c-100-76-151-106-229-135
		c-84-30-88-41-40-99c60-74,208-201,316-272c128-84,341-185,469-222c56-17,107-35,113-41c8-8,6-20-8-43c-58-97-73-130-108-236
		c-36-110-51-178-113-501c-52-277-82-370-159-496c-21-34-23-44-12-53c41-34,467-39,613-7c262,57,546,191,710,336c46,40,67,48,78,30
		c15-24,26-274,16-363c-13-111-8-120,58-111c189,26,341,69,471,133c175,87,294,174,447,324c85,83,94,90,109,76c14-15,13-24-11-105
		c-39-130-44-247-15-370c31-134,54-198,101-277c104-174,303-322,524-390c164-50,369-99,472-112c28-4,59-12,67-18c9-7,36-60,60-118
		c92-225,247-439,445-616c271-243,610-378,1126-448c298-40,727-23,1060,41c234,46,522,144,650,221c280,169,533,458,656,751
		c24,57,50,107,59,112s103,20,210,34c546,73,776,156,1012,365c59,53,160,185,197,260c30,60,86,208,95,253c8,34,25,35,76,3
		c131-83,371-156,520-159l75-1l-2,30c-11,166,4,416,26,438c8,8,19,5,38-11c203-164,290-217,473-291c169-68,336-101,535-107
		c178-5,338,12,343,37c1,9-12,42-31,75c-40,72-71,156-91,249c-31,144-55,273-71,370c-33,210-93,414-157,537c-22,43-38,84-35,92
		c3,7,29,19,59,26c292,68,605,246,829,472c44,44,100,88,130,104c42,21,246,99,367,139c22,8,30,47,56,295c15,135,38,328,51,430
		c14,102,40,314,60,471c19,157,46,362,60,455s40,286,60,429c19,143,46,334,60,425c41,266,45,293,45,337c0,23-4,44-9,47
		s-132,19-282,36c-151,17-323,38-383,47l-109,16l-30-37l-30-37l-11,23c-11,22-16,23-111,20c-89-3-320,19-360,34c-24,9-18,27,21,65
		c20,18,64,70,98,114c195,251,305,546,323,870c8,144-4,325-22,331c-8,3-56-15-108-41c-101-51-162-64-617-131c-267-39-411-77-534-139
		c-39-19-76-35-83-35c-18,0-27,26-52,140c-41,184-172,455-290,598c-83,100-202,222-217,222c-7,0-29-35-49-77
		c-57-122-131-210-419-498c-149-148-300-306-336-350c-35-44-69-83-74-87c-6-4-42,24-81,61c-125,121-247,199-404,258
		c-88,33-357,96-521,122c-74,12-145,26-158,32c-14,5-32,30-47,63c-120,271-456,610-738,745c-176,84-475,174-717,216
		c-175,30-694,69-850,63C6205,9858,6096,9853,5986,9849z M6836,9436c368-52,680-133,858-223c224-113,513-382,599-560
		c20-41,20-44,4-61c-17-16-50-17-475-12c-1245,14-2252,2-2857-32c-249-14-386-15-475-2c-90,13-90,27-4,157c74,110,266,313,364,384
		c214,154,333,212,565,273c122,32,357,76,480,90C6026,9464,6706,9454,6836,9436z M10709,9098c51-72,141-224,167-285
		c80-181,118-553,78-764c-31-166-89-336-144-422c-16-26-30-50-30-52c0-11-89-141-106-157c-34-29-124-48-232-49c-97,0-106,2-158,31
		c-30,17-78,47-106,67l-51,37l7,100c16,258,90,475,276,812c50,91,89,171,87,177c-5,16-86-90-179-236c-152-236-283-534-312-710
		c-9-50-17-72-27-72c-11,0-15,26-20,130c-7,167-38,278-117,424l-35,63l18,35c33,60,171,211,450,493c265,268,347,359,360,400
		C10645,9153,10676,9143,10709,9098z M3095,8983c45-77,131-179,272-321c73-74,133-140,133-147c0-16-155-175-170-175
		c-5,0-37,34-71,75s-63,75-65,75c-10,0,0-22,46-99c28-46,50-94,50-107s-11-47-24-76c-47-104-56-130-71-216c-19-110-19-183,1-302
		c9-52,18-109,21-126c5-31,3-32-91-78c-119-58-151-59-206-10c-68,62-145,246-176,424c-23,129-24,353-1,495c19,124,49,218,107,342
		c58,123,177,293,205,293C3062,9030,3080,9009,3095,8983z M12458,8485c6-142-41-345-114-488c-97-192-269-390-425-491
		c-47-30-97-60-110-65c-27-10-173,9-224,28c-16,7-59,16-95,21c-112,17-204,36-227,48c-12,7-36,12-53,12c-28,0-31,3-25,23
		c9,28,68,127,116,193c93,127,282,259,553,389c103,49,183,91,177,93c-19,6-186-46-289-89c-212-90-373-185-465-274
		c-26-26-52-45-58-43c-15,5-21,402-6,422c30,39,292,124,477,155c172,28,364,58,430,66c79,10,231,45,260,61c14,8,36,13,50,11
		C12454,8555,12455,8551,12458,8485z M7425,8520c418-16,701-30,835-41c234-19,653-99,780-149c209-82,398-240,493-413
		c41-75,49-99,58-175l11-89l-36-56c-52-82-111-111-228-113c-112-3-286,12-357,31c-30,8-58,12-62,9c-16-9-40,10-54,42l-14,34h-79
		c-43,0-177,6-298,14c-120,8-265,17-322,20l-103,6l-20-34c-17-29-28-36-62-40c-23-3-485-9-1027-12s-1005-8-1030-10s-207-8-405-13
		s-389-12-425-15c-63-6-133-9-465-21c-88-4-218-11-290-16c-238-17-498-30-648-32l-149-2l-16,30c-24,46-21,248,6,346
		c82,305,286,479,677,577c248,63,508,83,1505,121C6009,8531,7130,8531,7425,8520z M1362,8446c74-21,300-63,523-96
		c149-22,270-50,365-84c122-43,222-89,238-108c19-24,5-418-16-426c-9-3-21,3-30,16c-18,27-131,119-203,165c-138,88-421,216-514,232
		c-61,11-38-5,145-97c213-108,292-161,417-281c130-126,191-213,195-281c2-47,1-50-27-58c-29-9-116-23-205-34c-25-4-64-12-88-20
		c-23-8-66-14-95-14h-53l-24,57c-51,117-65,138-95,141c-16,2-54-1-85-7c-30-6-85-13-122-17l-68-7l-36,39c-165,177-276,384-319,590
		c-16,82-31,275-22,298C1251,8475,1265,8474,1362,8446z M7958,7483c24-3,46-12,49-20c5-14-5-87-47-347c-10-63-23-112-31-118
		c-14-9-193-5-464,11c-71,4-135,6-141,4s-19-25-30-50l-19-46l-100-2c-431-7-762-19-772-28c-7-5-13-27-13-48s-4-40-10-44
		c-5-3-37,15-72,41c-136,101-268,138-488,138c-166-1-254-19-366-75c-131-66-274-209-325-325c-11-24-25-44-32-44s-34,46-61,102
		c-58,118-128,196-221,245c-69,36-181,63-257,63c-71,0-208-34-290-72c-63-29-69-30-91-15c-21,13-36,14-98,6c-41-6-182-16-314-22
		l-240-12l-5-155c-4-129-7-154-20-152c-8,2-21,13-29,25c-30,44-137,150-176,175c-105,67-177,96-310,124c-44,10-61,18-63,31
		c-4,22,155,188,247,257s245,154,321,179c88,27,234,48,518,71c130,10,278,24,327,29c149,16,1273,69,1750,81
		C6388,7499,7891,7493,7958,7483z M8512,7441c89-4,142-12,152-20c19-16,21-116,7-317c-6-71-15-309-21-529c-5-220-15-501-20-625
		c-6-124-15-394-21-600c-7-269-13-378-22-386s-79-10-245-6c-208,4-234,7-242,22c-10,18-6,118,25,795c8,176,20,498,26,715
		c24,920,24,937,39,955c11,14,26,15,99,10C8336,7451,8436,7445,8512,7441z M9065,7425c77-8,221-26,320-41s212-28,251-29
		c62-2,82-8,155-46c46-24,116-70,156-102c75-60,212-204,278-291c36-47,37-52,25-80c-7-17-29-77-49-133c-20-57-42-108-48-114
		c-8-8-25,8-66,62c-62,84-91,112-164,162c-132,89-367,139-551,118c-208-25-320-73-450-195c-47-43-88-74-92-70c-5,5-5,148,0,319
		c11,354,15,428,24,444C8863,7443,8895,7443,9065,7425z M11319,7390c168-13,316-44,771-160c91-23,159-34,250-38l125-7l-1-46
		c-2-52-53-182-110-279c-76-131-106-155-224-180c-127-28-279-130-355-239c-42-62-54-54-109,72c-68,155-225,266-406,286
		c-78,8-187,1-278-19c-90-20-105,7-28,48c184,97,442,153,794,170c90,4,152,11,152,17c0,29-482,28-690,0c-129-18-278-61-398-116
		c-23-10-54-19-68-19c-29,0-66,36-85,82c-11,28-11,33,5,42c113,67,243,189,325,304c24,35,49,66,55,70s38,10,71,13s65,7,70,7
		C11191,7399,11251,7395,11319,7390z M1802,7363c8-10,18-47,21-83c4-36,11-114,17-175c6-60,20-209,30-330c11-121,29-303,40-405
		s29-288,40-415c11-126,31-318,44-425c14-107,29-258,36-335c6-77,20-210,31-296c11-87,19-179,17-205l-3-49l-55-3c-30-1-140-9-244-18
		c-159-13-191-13-203-2c-9,10-18,76-28,218c-8,113-19,241-25,285c-5,44-17,149-25,234c-9,85-21,161-27,168s-27,13-48,13
		c-60,0-204-21-218-33c-8-6-11-25-7-56c8-70,44-371,60-501c28-229,28-218,6-229c-11-6-40-11-65-11c-24,0-127-12-227-26
		c-114-16-185-22-191-16c-15,15-26,77-38,212c-20,231-50,544-60,615c-5,39-23,214-40,390s-35,348-40,382c-6,34-17,136-25,225
		c-23,258-54,561-60,589c-8,36,17,59,62,59c20,0,121,10,224,21c143,16,192,19,203,10c9-8,18-57,26-144c7-72,23-226,36-342
		c13-115,31-282,39-370c25-276,34-338,47-351c10-9,37-10,118-3c132,12,146,15,153,34c4,8,0,70-8,137c-8,68-22,200-30,293
		c-8,94-22,222-30,285c-7,63-16,149-20,190c-3,41-13,148-22,238c-11,122-12,166-4,176c7,9,45,16,104,21c50,4,146,15,212,25
		C1780,7383,1784,7383,1802,7363z M2656,7258c40-40,34-67-35-149c-34-41-78-99-99-129c-36-52-41-55-84-58c-67-4-268,24-285,40
		c-13,13-90,200-100,244c-2,11,1,25,9,30c11,9,131,31,263,48c17,2,92,3,167,2C2626,7285,2631,7284,2656,7258z M13114,7086
		c66-9,112-20,117-28c15-24,12-52-41-395c-22-137-29-192-39-278c-22-188-33-275-57-440c-37-253-44-302-54-390c-5-44-14-116-20-160
		s-15-118-20-165c-9-78-25-197-49-360c-6-36-15-108-21-160c-20-180-31-230-50-240c-10-6-25-8-32-5c-7,2-87,14-177,25
		c-91,11-169,24-175,30c-7,7-3,47,12,123c34,173,34,171-51,90c-40-38-104-86-141-107c-68-38-70-39-148-33c-74,6-179,36-248,72
		c-86,45-170,161-219,304c-106,309-38,917,142,1266c56,108,156,210,252,256c66,32,76,34,175,34c91,0,111-3,150-24
		c79-41,138-91,171-142c58-88,53-103,89,301c11,129,24,282,29,340c7,73,14,108,25,115C12749,7127,12860,7118,13114,7086z M2309,6859
		c42-5,84-12,94-15c20-6,22-39,3-72c-17-32-126-124-139-119c-16,5-80,195-73,214c4,9,13,13,23,9C2226,6872,2268,6865,2309,6859z
		 M7793,6824c205-8,207-9,189-82c-7-26-26-110-42-187c-17-77-46-203-65-280c-18-77-43-187-55-245s-30-136-40-175
		c-10-38-35-149-54-245c-20-96-45-211-55-255s-31-134-45-200c-15-66-37-167-51-225c-42-184-76-337-161-730c-22-103,26-98-451-45
		c-88,10-90-35,29,516l21,97l-31,138c-17,77-50,222-72,324c-23,102-57,253-76,335c-18,83-41,184-49,225c-9,41-29,134-46,205
		c-110,462-151,625-164,664c-13,36-13,47-3,57c9,8,94,14,270,18l258,7l9-23c5-13,19-108,31-213c51-458,59-527,80-640
		c10-55,22-142,25-193c7-86,16-115,29-93c13,20,38,165,57,326c11,94,22,179,24,190c3,11,12,85,20,165c33,321,64,552,76,567
		c11,13,27,14,89,10C7581,6833,7695,6828,7793,6824z M6043,6786c26-8,76-30,110-48c191-101,308-344,337-703c14-179,13-271-5-288
		c-20-20-85-25-417-33c-152-3-301-9-330-13l-53-6v-85c1-143,52-302,111-349c32-25,81-27,113-5c34,24,66,106,82,207c9,59,19,91,29,97
		c19,10,451,7,468-3c17-11,15-88-4-167c-21-90-104-254-161-319c-67-77-174-144-271-170c-151-41-431-23-541,34c-15,7-65,53-112,102
		c-96,99-139,177-183,323c-53,181-78,483-57,699c24,242,88,423,194,552c88,106,187,162,337,190C5759,6813,5987,6804,6043,6786z
		 M4642,6769c146-30,258-158,292-334c25-128,49-461,71-970c8-192,17-409,21-480c6-105,4-132-7-141c-8-7-107-16-244-22
		c-190-8-232-8-241,3c-6,8-15,145-23,342c-6,180-16,411-22,513c-5,102-13,267-18,367c-11,200-19,231-72,259c-18,9-41,13-55,10
		c-38-10-91-64-110-111c-22-60-19-189,30-1173c6-120,4-122-117-122c-51-1-152-5-226-10c-88-6-139-6-147,1c-12,10-13,30-34,564
		c-13,330-39,876-49,1045c-6,98-5,138,3,147c17,19,363,40,379,24c7-7,14-52,17-103c6-105,18-120,49-59c57,112,192,212,327,245
		C4540,6782,4575,6783,4642,6769z M9690,6740c181-60,287-170,350-360c30-91,34-220,21-590c-25-661-42-943-61-965
		c-11-14-38-16-178-13c-195,4-195,4-182,103c5,33,9,78,9,99l1,40l-77-81c-69-71-85-83-138-98c-176-51-307-40-458,37
		c-92,48-139,97-193,204c-39,77-39,78-38,188c2,199,51,331,171,456c118,125,253,183,500,215c70,10,135,21,143,25c24,12,21,269-3,333
		c-29,75-77,96-138,60c-43-25-77-103-90-203c-6-47-17-91-24-99c-12-12-44-12-222-2c-192,12-243,20-243,39c1,37,33,201,49,252
		c38,122,134,251,227,306c51,30,144,63,209,74C9414,6776,9618,6764,9690,6740z M3002,6669c123-26,248-109,333-221
		c92-120,166-321,195-523c19-132,17-487-3-602c-51-289-196-476-427-548c-79-25-388-33-448-12c-105,37-235,138-298,233
		c-106,160-170,417-190,759c-11,213,29,433,111,600c79,162,220,274,390,309C2750,6681,2929,6684,3002,6669z M10600,6629
		c74-6,139-15,144-19c4-5,3-56-4-115c-7-58-9-109-5-113s21,11,38,33c121,156,275,234,442,223c132-9,236-77,301-200l39-73l3-180
		c3-164-8-369-38-705c-5-58-18-204-29-325c-28-311-50-478-64-493c-10-9-34-10-107-3c-52,6-155,13-227,17c-94,5-136,11-144,21
		c-19,22,0,246,91,1073c30,280,33,322,20,355c-20,52-49,75-95,75c-56,0-90-28-126-103c-28-61-30-72-49-282c-13-142-22-246-50-535
		c-11-118-24-261-29-318c-5-65-13-108-22-117c-11-10-33-11-99-5c-47,5-150,14-230,20c-80,7-151,18-157,24c-13,12,4,224,66,806
		c39,364,58,560,72,760c7,91,16,171,22,178C10375,6643,10427,6643,10600,6629z M7840,5102c0-129-25-534-36-584c-9-40-24-49-66-38
		c-20,6-38,16-40,23c-13,39,26,313,77,537c13,58,27,123,30,145c8,47,13,57,26,50C7836,5231,7840,5172,7840,5102z M6684,4883
		c33-102,62-303,52-357c-12-63-22-67-168-65c-96,2-131,6-135,15c-3,7,15,39,40,71c54,69,83,126,96,185c12,51,79,198,91,198
		C6665,4930,6675,4909,6684,4883z M878,4429c43-19,72-38,72-47c0-8-12-26-27-40c-37-34-18-38,46-8c57,26,77,24,176-20
		c25-11,67-18,112-18c39-1,74-4,78-8c3-3,1-15-6-26c-10-16-10-23,0-35c10-13,40-15,194-11l182,5l74-50c56-38,84-51,111-51
		c20,0,60-7,88-15c29-9,63-13,79-9l28,7l-23-25c-21-23-114-74-242-131c-152-68-331-102-535-101c-326,2-594,92-833,279
		c-81,63-86,78-34,110c44,26,147,103,245,181C752,4487,744,4487,878,4429z M11566,4364c35-25,81-52,102-61c73-31,335-98,445-113
		c126-18,292-51,301-60c23-22-149-148-300-221c-199-96-413-136-668-126c-105,4-165,12-236,31c-291,76-348,114-393,253
		c-15,45-27,86-27,91s12,10,28,10c15,1,79,3,142,6c97,3,125,8,180,31c36,15,72,33,80,40s65,38,125,69c61,32,117,66,125,76
		c8,11,19,19,24,20C11499,4410,11531,4390,11566,4364z M3625,4250c66-5,163-12,215-15c52-2,119-8,148-11c29-4,108-7,175-9
		c128-2,408-20,449-29c12-3,111-8,218-11c601-17,631-18,1060-35c140-5,287-14,325-20c39-6,131-13,205-16c132-6,200-17,200-34
		c0-11-52-27-111-34c-62-7-187-49-273-91c-87-42-190-123-249-196c-99-124-207-321-256-471c-85-259-59-691,54-883
		c44-75,187-160,354-208c68-20,99-22,301-22c247,0,286,7,452,76c187,79,394,154,456,167c32,6,40,14,61,57c69,143,91,472,47,685
		c-49,234-175,501-300,633c-20,21-36,42-36,46c0,5,39,11,88,13c76,4,96,9,159,41c79,40,104,45,123,22c17-21,36-4,44,40
		c12,64,44,122,73,133c42,16,221,23,583,22c632-3,1191-1,1712,5l527,6l15-30c28-54,40-172,27-271c-30-232-144-447-355-667
		c-125-130-205-190-348-257c-161-76-391-144-653-192c-49-9-133-26-185-37s-113-21-135-22c-65-4-70-4-60-13c6-4,127-5,270-1
		s344,10,447,13c221,6,218,8,199-82c-30-133-113-296-203-394c-110-120-311-240-478-286c-165-46-425-93-590-107c-41-4-91-11-110-16
		c-52-14-656-69-768-70c-53-1-108-4-122-8c-22-7-19-10,30-24c43-13,121-18,350-23c439-10,434-10,438-22c7-21-83-179-157-277
		c-212-278-486-448-873-540c-101-24-374-66-513-80c-38-4-76-12-82-17c-8-6-13-33-13-62c0-145-132-257-238-202
		c-60,31-111,119-112,191c0,22-6,51-13,65c-11,22-22,26-82,32c-200,21-495,90-634,149c-270,114-439,238-596,434
		c-121,152-204,288-192,317c8,22,101,66,167,79c72,14,95,34,56,48c-14,6-63,15-108,21c-158,21-193,28-268,48c-41,11-95,23-120,27
		c-168,26-445,115-545,176c-114,69-236,201-280,304c-35,82-55,151-55,193c0,39,2,43,20,37c27-9,46,8,75,65c32,62,100,123,168,148
		c53,20,63,21,196,10s173-8,142,12c-8,4-35,11-60,15s-73,15-106,25s-109,32-170,50c-153,44-199,62-322,123c-173,86-277,158-394,276
		c-106,106-152,168-209,280c-86,171-127,381-81,413c11,8,30,39,44,69c34,77,89,151,139,185c40,28,46,29,237,40c108,7,216,10,241,8
		S3559,4256,3625,4250z M2377,3855c6-73,27-178,55-275l30-105l-11-170c-14-212-15-462-1-470c15-9,18,6,30,165c6,80,15,165,20,190
		s11,62,15,83c3,20,12,37,19,37s38-35,69-77c89-123,287-306,388-358c41-22,37-49-20-126c-66-87-254-266-322-307
		c-111-65-336-143-373-129c-13,5-16,22-16,79c0,124-19,287-50,418c-28,123-77,401-100,574c-14,98-6,302,12,342c6,13,19,26,29,29
		c9,3,57,35,105,71c49,35,95,63,104,62C2369,3886,2376,3872,2377,3855z M1455,3609c66-6,139-8,161-4c25,3,45,2,49-4c3-6-22-41-57-78
		c-122-130-183-222-286-428c-64-128-125-288-120-314c2-9,41,56,87,143c114,218,174,306,287,425c155,163,249,229,350,246
		c30,4,44,3,50-7c5-7,14-67,21-133s19-169,27-230c9-60,16-140,16-176c0-66,0-66-67-155c-248-331-601-514-994-514
		c-103,0-106,5-70,111c28,80,66,249,131,581c44,226,132,470,194,536c17,20,28,23,61,18C1317,3623,1389,3615,1455,3609z M11574,3527
		c79-103,145-316,206-662c52-294,81-415,115-487c30-61,20-68-97-68c-143,0-313,31-422,76c-89,38-241,129-316,190
		c-75,60-178,165-206,209c-10,17-35,51-55,76c-53,69-64,102-50,147c16,52,35,246,35,378c1,120,6,133,56,154c41,17,63,9,160-56
		c208-139,329-289,497-619c51-99,92-175,93-169c0,22-69,221-105,299c-80,175-202,366-295,463c-76,79-70,86,80,92
		C11559,3563,11546,3564,11574,3527z M10637,3054c-4-42-18-124-33-182c-46-193-62-285-74-427c-16-201-12-189-68-182
		c-160,19-425,168-478,269c-31,60-15,82,92,126c65,27,186,102,200,123c3,5,18,9,34,9c21,0,30,6,35,23c4,12,46,63,94,112
		c47,50,108,116,134,148c27,31,53,57,59,57C10640,3130,10641,3106,10637,3054z"/>
	<path fill="#FFFFFF" d="M12408,6146c-12-6-40-37-61-69c-45-67-81-201-120-447c-57-352-57-521-1-632c37-73,72-85,124-42
		c65,55,120,218,171,509c30,170,38,488,15,567C12509,6126,12458,6171,12408,6146z"/>
	<path fill="#FFFFFF" d="M5755,6447c-20-20-39-54-49-88c-23-74-41-326-25-345c18-22,236-20,268,2c23,16,23,20,17,108
		c-10,134-24,214-48,268C5878,6484,5814,6506,5755,6447z"/>
	<path fill="#FFFFFF" d="M9495,5716c-111-35-180-97-221-196c-39-96-42-164-11-225c33-66,57-86,109-92c114-12,189,130,204,388
		C9585,5732,9578,5742,9495,5716z"/>
	<path fill="#FFFFFF" d="M2761,6315c-60-51-66-88-65-400c1-375,34-626,99-754c29-58,58-81,100-81c134,2,167,303,95,865
		c-27,215-29,221-60,291C2885,6337,2822,6366,2761,6315z"/>
	<path fill="#FFFFFF" d="M5915,1683c-49-2-96-6-104-9c-27-9,4-24,54-25c103-2,119-11,154-87c17-38,31-75,31-84c0-8,9-23,20-33
		c18-16,20-16,26-1c15,40-35,219-66,236c-10,6-20,9-22,8S5965,1684,5915,1683z"/>
	<path fill="#FFFFFF" d="M6695,1683c-34-9-55-34-55-69c0-50,9-64,40-64c42,0,81-17,117-52c41-40,59-32,67,31c9,72-7,127-44,146
		C6792,1689,6737,1693,6695,1683z"/>
</g>
</svg>
