<?xml version="1.0" encoding="utf-8"?>
<!-- Generator: Adobe Illustrator 25.3.1, SVG Export Plug-In . SVG Version: 6.00 Build 0)  -->
<svg version="1.1" id="Layer_1" xmlns="http://www.w3.org/2000/svg" xmlns:xlink="http://www.w3.org/1999/xlink" x="0px" y="0px"
	 viewBox="0 0 143 24" style="enable-background:new 0 0 143 24;" xml:space="preserve">
<style type="text/css">
	.st0{fill:#FFFFFF;}
</style>
<path class="st0" d="M10.7,0L0.8,11.9L10.7,24l10-12L10.7,0z"/>
<path class="st0" d="M10.7,24L0.8,11.9l12.5-3L10.7,24z"/>
<path class="st0" d="M10.7,0l10,12l-7.4-3L10.7,0z"/>
<path class="st0" d="M28.8,4.9h5.5c1.4,0,2.6,0.5,3.6,1.4c1,1,1.4,2.1,1.4,3.5c0,1.4-0.5,2.6-1.4,3.5c-1,1-2.2,1.4-3.6,1.4h-2.6v4.8
	h-2.9L28.8,4.9L28.8,4.9z M31.7,12h2.6c0.6,0,1.1-0.2,1.5-0.6c0.4-0.4,0.6-1,0.6-1.6c0-0.6-0.2-1.2-0.6-1.6
	c-0.4-0.4-0.9-0.6-1.5-0.6h-2.6V12z"/>
<path class="st0" d="M48.6,18.3c-1.1,1.1-2.4,1.6-3.9,1.6c-1.6,0-2.9-0.5-3.9-1.6c-1.1-1.1-1.6-2.4-1.6-3.9c0-1.6,0.5-2.9,1.6-3.9
	c1.1-1.1,2.4-1.6,3.9-1.6c1.5,0,2.9,0.5,3.9,1.6c1.1,1.1,1.6,2.4,1.6,3.9C50.2,15.9,49.6,17.2,48.6,18.3z M42.6,16.4
	c0.5,0.5,1.2,0.8,2,0.8c0.8,0,1.5-0.3,2-0.8c0.5-0.5,0.8-1.2,0.8-2.1s-0.3-1.5-0.8-2.1s-1.2-0.8-2-0.8c-0.8,0-1.5,0.3-2,0.8
	c-0.5,0.6-0.8,1.2-0.8,2.1C41.8,15.2,42.1,15.9,42.6,16.4z"/>
<path class="st0" d="M53.6,19.6h-2.7V4.2h2.7V19.6z"/>
<path class="st0" d="M60.3,14.3l4.3,5.3h-3.1l-3.8-4.8v4.8H55V4.9h2.7v8.8l3.6-4.6h3.2L60.3,14.3z"/>
<path class="st0" d="M72.1,10.3V9.1h2.7v10.5h-2.7v-1.2c-0.8,1-1.9,1.5-3.4,1.5c-1.4,0-2.6-0.5-3.6-1.6c-1-1.1-1.5-2.4-1.5-3.9
	c0-1.5,0.5-2.8,1.5-3.9c1-1.1,2.2-1.6,3.6-1.6C70.2,8.8,71.3,9.3,72.1,10.3z M67.2,16.5c0.5,0.5,1.2,0.8,2.1,0.8
	c0.8,0,1.5-0.3,2.1-0.8c0.6-0.6,0.8-1.3,0.8-2.1c0-0.9-0.3-1.6-0.8-2.1c-0.5-0.6-1.2-0.8-2.1-0.8c-0.8,0-1.5,0.3-2.1,0.8
	c-0.5,0.5-0.8,1.2-0.8,2.1C66.3,15.2,66.6,15.9,67.2,16.5z"/>
<path class="st0" d="M87.1,8.8c1.2,0,2.1,0.4,2.8,1.1c0.7,0.8,1.1,1.8,1.1,3.1v6.6h-1.4V13c0-0.9-0.2-1.6-0.7-2.1
	c-0.5-0.5-1.1-0.8-1.9-0.8c-0.9,0-1.6,0.3-2.1,0.9c-0.5,0.6-0.8,1.5-0.8,2.7v5.8h-1.4V13c0-0.9-0.2-1.6-0.7-2.1
	c-0.4-0.5-1-0.8-1.8-0.8c-0.9,0-1.6,0.3-2.2,0.9c-0.6,0.6-0.8,1.5-0.8,2.7v5.8h-1.4V9.1h1.4v1.5c0.8-1.2,1.8-1.8,3.2-1.8
	c1.5,0,2.6,0.6,3.2,1.9C84.4,9.5,85.6,8.8,87.1,8.8z"/>
<path class="st0" d="M101.6,11.1V9.1h1.4v10.5h-1.4v-2.1c-1,1.5-2.4,2.3-4.2,2.3c-1.5,0-2.8-0.5-3.8-1.6c-1-1.1-1.6-2.4-1.6-3.9
	c0-1.5,0.5-2.8,1.6-3.9c1.1-1.1,2.3-1.6,3.8-1.6C99.2,8.8,100.6,9.6,101.6,11.1z M94.6,17.3c0.8,0.8,1.8,1.2,2.9,1.2
	c1.2,0,2.1-0.4,2.9-1.2c0.8-0.8,1.2-1.8,1.2-3c0-1.2-0.4-2.1-1.2-2.9c-0.8-0.8-1.8-1.2-2.9-1.2c-1.2,0-2.1,0.4-2.9,1.2
	c-0.8,0.8-1.2,1.8-1.2,2.9S93.8,16.5,94.6,17.3z"/>
<path class="st0" d="M105.7,9.1v1.7c0.6-1.3,1.7-1.9,3.3-1.9v1.3c-1,0-1.8,0.3-2.4,0.9c-0.6,0.6-0.9,1.4-0.9,2.6v5.8h-1.4V9.1H105.7
	z"/>
<path class="st0" d="M112.7,14.1l5.6,5.5h-1.8l-5.2-5.1v5.1h-1.4V4.9h1.4v8.8l5-4.6h1.9L112.7,14.1z"/>
<path class="st0" d="M122.9,8.8c1.6,0,2.8,0.6,3.7,1.7c1,1.1,1.4,2.4,1.4,3.9c0,0.1,0,0.3,0,0.7h-9.2c0.1,1.1,0.6,1.9,1.3,2.5
	c0.8,0.6,1.7,0.9,2.8,0.9c1.6,0,2.7-0.6,3.4-1.8l1.2,0.7c-0.5,0.8-1.1,1.3-1.9,1.8c-0.8,0.4-1.7,0.6-2.7,0.6c-1.6,0-3-0.5-4-1.6
	c-1-1-1.5-2.4-1.5-3.9c0-1.6,0.5-2.9,1.5-3.9C120,9.4,121.3,8.8,122.9,8.8z M122.9,10.2c-1.1,0-2,0.3-2.7,1
	c-0.7,0.6-1.2,1.5-1.3,2.5h7.8c-0.2-1.1-0.6-2-1.3-2.6C124.7,10.5,123.8,10.2,122.9,10.2z"/>
<path class="st0" d="M134.5,9.1v1.3h-3v6.4c0,0.6,0.1,1,0.3,1.2c0.2,0.2,0.6,0.4,1,0.4c0.4,0,1,0,1.7,0v1.2
	c-1.5,0.2-2.6,0.1-3.3-0.3c-0.7-0.4-1.1-1.3-1.1-2.5v-6.4h-2.2V9.1h2.2V6.5l1.4-0.4v2.9L134.5,9.1L134.5,9.1z"/>
<path class="st0" d="M136.7,11.8c0,0.8,1,1.5,2.2,1.8c0.4,0.1,0.7,0.2,0.8,0.2c0.1,0,0.4,0.1,0.7,0.2c0.4,0.1,0.6,0.2,0.8,0.3
	c0.2,0.1,0.4,0.2,0.6,0.4c0.3,0.2,0.5,0.3,0.6,0.5c0.1,0.2,0.2,0.4,0.3,0.7c0.1,0.3,0.1,0.6,0.1,0.9c0,0.9-0.4,1.6-1.1,2.2
	c-0.7,0.6-1.6,0.8-2.7,0.8c-1,0-1.8-0.2-2.5-0.7c-0.7-0.4-1.2-1-1.5-1.8l1.2-0.7c0.2,0.5,0.5,1,1,1.3c0.5,0.3,1.1,0.5,1.8,0.5
	c0.7,0,1.3-0.1,1.7-0.4s0.7-0.7,0.7-1.3c0-0.8-0.7-1.4-2.2-1.8c-0.4-0.1-0.7-0.2-0.8-0.2c-0.1,0-0.4-0.1-0.8-0.2
	c-0.4-0.1-0.6-0.2-0.8-0.3c-0.1-0.1-0.3-0.2-0.6-0.4c-0.3-0.2-0.5-0.4-0.6-0.5c-0.1-0.2-0.2-0.4-0.3-0.7c-0.1-0.3-0.1-0.6-0.1-0.9
	c0-0.9,0.3-1.6,1-2.1c0.7-0.6,1.6-0.9,2.6-0.9c0.8,0,1.6,0.2,2.2,0.6c0.7,0.4,1.1,0.9,1.4,1.6l-1.2,0.7c-0.4-1-1.2-1.5-2.5-1.5
	c-0.6,0-1.2,0.2-1.6,0.4C136.9,10.9,136.7,11.3,136.7,11.8z"/>
</svg>
