<?xml version="1.0" encoding="utf-8"?>
<!-- Generator: Adobe Illustrator 25.3.1, SVG Export Plug-In . SVG Version: 6.00 Build 0)  -->
<svg version="1.1" id="Layer_1" xmlns="http://www.w3.org/2000/svg" xmlns:xlink="http://www.w3.org/1999/xlink" x="0px" y="0px"
	 viewBox="0 0 1327 515" style="enable-background:new 0 0 1327 515;" xml:space="preserve">
<style type="text/css">
	.st0{fill:#FFFFFF;}
</style>
<g transform="translate(0.000000,600.000000) scale(0.100000,-0.100000)">
	<path class="st0" d="M1532,5866c-103-96-202-344-202-505v-58l-87-53c-289-176-584-469-761-756c-179-291-304-635-328-904
		c-3-30-9-64-15-76c-13-26-5-504,10-594c31-183,54-278,99-410c90-261,194-458,361-680c69-92,281-312,376-390
		c330-269,707-437,1135-505c141-23,445-31,579-16c565,64,1048,294,1436,686c231,233,402,495,524,802c121,306,178,687,152,1018
		c-27,335-92,572-238,873l-45,94l25,56c50,113,77,254,76,397c0,160-35,220-115,201c-19-4-69-48-142-121c-62-63-119-115-126-115
		c-8,0-54,40-103,88c-183,183-381,328-603,442c-210,107-437,185-635,219c-33,6-91,16-130,23c-95,16-497,16-600,0
		c-177-29-261-47-399-88c-27-7-53-14-57-14c-3,0-9,26-12,58c-29,281-35,320-53,350C1630,5925,1587,5917,1532,5866z M1598,5673
		c20-185,56-403,82-498c5-16,14-50,21-75c43-164,116-338,221-531c37-69,68-135,68-146c0-26-55-75-120-108c-68-34-163-36-184-2
		c-36,55-196,474-196,514c0,12-4,24-9,27s-11,20-14,38c-4,18-11,58-17,88c-33,174-35,420-5,536c27,103,110,274,134,274
		C1583,5790,1592,5737,1598,5673z M2101,5310c13-8,19-21,19-45c0-31,3-35,26-35c37,0,64-18,64-43c0-33-11-43-52-51c-37-7-38-8-38-51
		c0-34-5-47-19-55c-33-17-50-2-53,48c-3,46-4,47-38,49c-30,1-60,23-60,43c0,18,30,43,60,49c31,6,35,11,38,41
		C2053,5323,2062,5331,2101,5310z M3113,5196c8-8,17-43,20-78c14-151,62-240,269-499c202-253,259-338,277-420c20-90-6-102-289-139
		c-400-52-674-128-965-269c-261-127-436-242-570-376c-87-86-143-164-231-320c-77-137-152-222-227-260c-45-22-64-25-154-25
		c-57,0-103,3-103,6c0,4,16,31,35,60c30,45,35,60,35,113c0,78-23,139-142,371c-125,245-158,330-158,415c0,100,24,141,159,275
		c110,109,230,207,384,314c64,44,97,53,97,26c0-6,15-45,34-85c43-92,74-115,159-115c109,0,247,65,323,154c48,55,43,82-35,227
		c-34,62-58,116-54,120c34,34,558,299,818,414c131,58,256,104,287,105C3091,5210,3105,5204,3113,5196z M4535,4780
		c-11-164-55-303-138-433c-106-165-391-398-669-547c-85-45-98-49-98-33c0,36,40,141,96,255c51,103,55,118,51,163c-3,28-17,78-33,113
		c-15,34-25,64-23,66c2,1,41,18,87,36c175,69,368,207,577,412l140,137l8-37C4538,4892,4539,4832,4535,4780z M3762,4863
		c41-40,47-63,23-83c-8-7-15-19-15-26c0-8-9-23-19-33c-27-27-60-16-77,25c-8,18-18,35-24,39c-18,11-11,45,16,81c15,19,34,34,42,34
		C3717,4900,3741,4883,3762,4863z M1070,4711c5-11,10-33,10-50c0-26,4-31,24-31c51,0,61-73,12-86c-16-4-26-15-30-34
		c-11-56-78-58-90-2c-5,20-17,33-39,43c-26,11-32,20-32,44c0,25,5,32,33,40c29,8,33,13,29,35C977,4720,1047,4754,1070,4711z
		 M4290,4016c0-111-101-307-212-412c-134-127-360-284-385-268c-24,15-59,137-68,235l-6,65l73,37c165,81,429,254,541,353
		c20,19,42,34,47,34C4286,4060,4290,4040,4290,4016z M3587,3968c-3-13-18-61-32-108c-23-72-27-104-27-206c-1-132,9-187,54-313
		c35-98,69-158,147-261c89-117,121-167,121-188c0-25-53-66-127-98c-63-28-349-125-513-173c-182-55-358-118-484-176
		c-32-15-60-24-62-22c-3,2,8,28,22,58c15,29,28,69,28,89c1,33-1,35-36,38c-37,3-38,2-62-51c-34-76-89-160-133-202
		c-121-114-342-170-583-146c-92,9-157,23-345,74c-110,30-246,49-334,46l-66-3l-17,45c-23,59-22,76,3,84c11,4,25,18,32,32
		c11,24,8,29-35,67c-49,43-68,78-68,127v29h98c133,0,223,15,285,46c74,38,164,134,222,237c105,185,181,292,270,375
		c246,230,705,454,1100,538c158,33,245,47,403,64c46,4,86,11,90,14c3,3,16,6,30,6C3588,3990,3591,3986,3587,3968z M556,3658
		c4-13,19-34,35-49c31-29,30-62-2-79c-10-6-21-19-24-30c-15-49-78-45-91,6c-3,13-14,29-24,34c-30,16-32,49-4,75c13,12,24,27,24,34
		c0,6,9,20,20,31C514,3704,544,3694,556,3658z M4460,3339c41-28,59-46,60-59c0-13-87-100-100-100c-19,0-90,70-90,88
		c0,17,39,83,54,94C4402,3374,4413,3371,4460,3339z M3960,3341c28-54-3-172-66-246l-25-30l-35,40c-20,22-49,59-65,82l-29,42l37,26
		c70,48,158,104,165,105C3946,3360,3954,3351,3960,3341z M804,3154c9-8,16-22,16-29c0-8,11-22,25-31c32-21,33-58,1-79
		c-13-9-29-29-36-45c-9-21-19-30-35-30c-28,0-55,24-55,48c0,10-9,23-20,30c-27,17-25,48,5,84c14,16,25,36,25,43
		C730,3171,781,3178,804,3154z M690,2640c15-15,20-33,20-74v-53l36-6c44-7,64-23,64-51c0-33-19-46-68-46h-44l7-39c8-46-10-81-40-81
		c-35,0-47,16-53,71c-7,51-9,54-37,57c-40,5-55,19-55,52c0,30,15,40,61,40c29,0,29,1,29,55c0,42,5,60,20,75c11,11,25,20,30,20
		C666,2660,679,2651,690,2640z M4208,2497c6-6,14-26,18-42c4-17,16-36,26-43c24-17,23-44-2-67c-11-10-20-27-20-37c0-32-19-58-42-58
		c-29,0-58,28-58,57c0,13-6,23-14,23c-21,0-45,38-39,61c3,11,16,25,29,30c18,6,24,16,24,38C4130,2502,4183,2528,4208,2497z
		 M3125,2412c-55-126-77-218-100-407c-43-360-1-621,131-821c19-28,34-56,34-61c0-11-190-66-290-83c-36-6-74-14-85-16
		c-11-3-60-9-110-14c-49-5-119-13-154-16c-66-7-315,9-411,27c-30,6-80,15-110,20c-72,14-132,30-147,42c-8,5-10,25-7,55
		c3,26,9,108,14,182c14,206,29,277,103,520c41,130,57,177,73,203c6,11,39,25,90,37c106,25,214,68,349,140c199,105,579,267,632,269
		C3158,2490,3158,2488,3125,2412z M3594,2304c8-3,22-30,31-59c16-50,16-57,1-103c-10-28-24-53-33-56c-20-8-63,19-63,39
		c0,8-12,22-26,31c-20,14-24,22-19,43c4,14,15,31,26,39c10,7,19,22,19,32s8,24,18,29C3568,2311,3574,2312,3594,2304z M1548,2187
		c73-18,135-37,139-40c16-17-14-18-129-8c-192,18-313,46-340,78C1195,2246,1390,2228,1548,2187z M1434,1784c8-3,18-21,22-39
		c4-24,14-36,37-46c49-21,47-89-3-89c-11,0-23-15-33-40c-10-27-22-40-34-40c-26,0-51,21-55,45c-2,11-15,26-30,33c-47,22-45,82,2,97
		c13,4,20,15,20,30c0,13,10,31,22,39C1407,1792,1412,1793,1434,1784z M3950,1609c-15-50-31-82-52-101c-48-45-222-165-318-219
		c-91-51-259-129-278-129c-12,0-90,106-115,155c-22,44-55,154-59,194c-3,33-2,34,52,47c80,20,129,34,286,84c65,21,68,18,61-62
		c-4-40-13-95-22-123c-14-48-14-51,6-67c24-20,42-22,68-8c17,9,46,106,53,180c2,19,17,31,73,59c39,18,113,49,165,67
		C3983,1726,3984,1725,3950,1609z"/>
	<path class="st0" d="M2705,3591c-127-21-285-98-382-186c-132-120-233-277-233-365c0-44,3-52,33-73c50-37,104-54,211-67
		c224-27,425,37,566,180c83,83,125,161,140,262c19,130-3,216-62,238C2936,3595,2770,3601,2705,3591z M2906,3499l44-11v-77
		c0-56-6-91-23-132c-22-53-82-139-97-139c-4,0-5,34-2,76c5,80-8,157-40,232c-10,24-16,48-12,53C2783,3513,2852,3512,2906,3499z
		 M2699,3415c35-89,40-201,11-285c-12-36-29-73-37-83c-20-21-136-57-187-57c-35,0-47,12-25,26c15,9,69,124,69,147c0,10-11,22-24,26
		c-25,10-36,44-36,111c0,25,5,40,15,44c10,3,14,16,13,38c-3,31-1,33,72,65c41,18,82,32,90,30C2668,3476,2686,3448,2699,3415z"/>
	<path class="st0" d="M1422,2657c-7-7-19-34-27-58c-9-24-22-53-29-65c-26-39-24-67,7-83c28-16,29-15,58,19c16,19,38,59,49,88
		c17,46,18,58,8,80C1473,2668,1439,2678,1422,2657z"/>
	<path class="st0" d="M6701,3595c-115-32-182-76-225-144c-43-69-47-95-46-344c0-220,1-242,21-288c58-134,258-228,422-198
		c124,22,233,89,282,173c34,59,45,138,45,325c0,243-29,333-128,406C6976,3596,6813,3626,6701,3595z M6914,3391c57-36,66-74,66-284
		c0-205-7-233-69-274c-26-18-48-23-98-23c-69,0-104,13-143,55c-25,26-25,28-28,233c-3,242,2,261,78,300
		C6776,3427,6860,3424,6914,3391z"/>
	<path class="st0" d="M11718,3595c-118-32-201-96-244-188c-23-50-24-60-24-287c0-131,5-251,10-272c36-129,202-233,370-231
		c167,1,336,108,370,234c6,21,11,140,12,266c1,215,0,231-21,279c-25,58-97,133-158,164C11939,3608,11815,3622,11718,3595z
		 M11934,3391c60-37,66-65,66-283c0-175-2-196-20-226c-31-51-75-72-150-72s-119,21-150,72c-18,30-20,51-20,228c0,228,6,250,80,288
		C11796,3427,11880,3424,11934,3391z"/>
	<path class="st0" d="M5505,3579c-3-8-4-221-3-474l3-460l94-3c69-2,97,1,103,10c4,7,8,66,8,130s2,122,5,130c4,9,24,13,68,12
		c129-2,212,11,281,45c116,57,168,145,168,286c1,157-69,257-217,310C5948,3589,5513,3601,5505,3579z M5960,3369c68-38,90-127,47-190
		c-37-56-77-70-192-67l-100,3l-3,124c-1,69,0,131,2,138c4,9,33,13,107,13C5906,3390,5928,3387,5960,3369z"/>
	<path class="st0" d="M7436,3574c-8-21-8-863,0-903l7-31h328h329l5,23c3,12,5,54,3,92l-3,70l-225,5l-225,5l-5,368
		c-4,312-7,369-20,377c-8,5-54,10-101,10C7459,3590,7441,3587,7436,3574z"/>
	<path class="st0" d="M8327,3583c-9-8-9-906-1-927c5-13,24-16,104-16c88,0,98,2,103,19c3,11,5,80,6,153l2,133l44,45
		c44,44,45,44,63,25c11-11,59-87,107-170c48-82,99-162,113-177c25-27,29-28,134-28c125,0,128,4,80,81c-16,24-62,100-104,169
		s-99,162-127,208s-51,90-51,99c0,8,60,78,134,156c162,173,196,211,196,226c0,7-38,11-119,11h-119l-119-127c-65-70-141-152-170-183
		c-28-30-55-52-59-48s-9,83-12,175c-3,107-9,171-16,175C8502,3592,8336,3592,8327,3583z"/>
	<path class="st0" d="M9576,3568c-8-13-37-84-64-158c-28-74-96-259-152-410c-57-151-106-286-110-300s-11-33-15-43c-7-16,0-18,96-15
		l104,3l14,30c8,17,22,50,31,75l16,45l182,2c127,1,184-2,190-10c4-7,21-42,36-79l28-68h104h103l-23,68c-22,62-233,634-289,780
		c-37,99-42,102-147,102C9598,3590,9589,3588,9576,3568z M9739,3137c28-65,51-125,51-133c0-11-22-14-113-14c-63,0-116,3-119,6
		s21,66,55,140c33,74,64,131,68,127C9684,3258,9711,3202,9739,3137z"/>
	<path class="st0" d="M10316,3574c-8-21-8-848,0-896l7-38h97c80,0,99,3,104,16c3,9,6,124,6,256c0,214,2,239,16,236c9-2,49-59,89-128
		l73-125l47-3c26-2,53,2,61,9s42,61,75,120c58,104,83,138,95,126c3-3,5-103,4-224c0-120,2-232,6-249l6-32l77-4c42-2,86-2,99,0l22,4
		v469v469l-23,5c-12,3-58,5-101,3l-79-3l-88-155c-124-221-138-242-152-237c-6,2-55,82-108,177s-105,184-117,197c-19,21-28,23-115,23
		C10340,3590,10321,3587,10316,3574z"/>
	<path class="st0" d="M12463,3583c-10-4-13-105-13-461c0-251,4-463,9-470c9-15,184-22,198-8c5,4,10,119,13,254c4,218,7,247,21,250
		c12,2,56-61,158-226c78-126,151-241,162-256c20-26,24-27,113-24l91,3l3,464c2,365,0,466-10,473c-15,9-159,11-182,2
		c-14-5-16-37-16-254c0-252-4-280-36-248c-8,8-54,79-104,158c-171,277-212,338-234,344C12611,3591,12480,3590,12463,3583z"/>
</g>
</svg>
